<svg width="125" height="125" viewBox="0 0 125 125" fill="none" xmlns="http://www.w3.org/2000/svg">
<g filter="url(#filter0_i)">
<path fill-rule="evenodd" clip-rule="evenodd" d="M124.512 54.7904C123.356 44.2982 119.487 34.7125 113.23 26.1722C103.149 12.4206 89.668 4.01271 72.8332 1.0857C69.4766 0.502808 66.0438 0.351119 62.6463 0C62.4205 0 62.1962 0 61.972 0C58.7977 0.346755 55.6098 0.576471 52.4576 1.05977C20.0881 6.01676 -3.31539 36.6036 0.384846 69.1445C2.15047 84.6766 8.67005 97.9221 20.244 108.486C34.0048 121.047 50.3515 126.433 68.8838 124.676C83.1068 123.323 95.5179 117.599 105.747 107.61C120.603 93.0932 126.781 75.3478 124.512 54.7904ZM111.323 86.7716C109.741 84.0178 107.743 80.1783 106.851 76.9015C105.554 72.1437 102.441 76.7406 102.181 79.8478C101.921 82.9549 99.8459 85.285 95.6941 80.6242C91.5422 75.9639 90.7639 76.9985 89.4672 76.9985C88.1704 76.9985 85.8354 80.1052 86.3539 94.606C86.7235 104.959 90.8159 106.602 93.4899 107.353C88.5248 110.757 82.8195 113.439 76.4162 115.062C51.9425 121.261 26.9609 110.004 15.2889 87.6409C4.41483 66.8035 9.71275 43.2241 20.7669 30.2463C21.0642 32.5805 21.3553 34.6772 21.5976 36.7821C22.2565 42.5288 21.7594 48.2004 20.5845 53.8493C20.3335 55.0531 20.421 56.4244 20.7463 57.6084C20.9233 58.255 21.9001 59.0186 22.575 59.0825C23.1063 59.1341 24.0335 58.2935 24.2488 57.6623C24.6379 56.5338 24.6538 55.2684 24.7734 54.0554C24.8593 53.1997 24.8609 52.3327 24.92 50.9903C25.7978 51.7003 26.438 52.1309 26.9701 52.6651C28.326 54.0274 29.6974 55.3837 30.9347 56.8485C31.4813 57.4986 32.0445 58.4087 32.0294 59.1916C31.9952 60.8663 32.7315 62.0051 33.6309 63.3203C34.6303 64.7828 35.0804 66.6215 35.7234 68.3147C35.9924 69.0247 36.0488 69.8257 36.3695 70.5085C37.0544 71.9707 38.0896 72.9722 39.8691 73.0813C41.7412 73.1996 42.4421 73.9247 42.7111 75.8361C42.2322 75.8907 41.7556 75.9547 41.2775 75.9985C38.9941 76.2157 37.8625 77.2624 37.9528 79.5608C38.1313 84.1256 39.7814 88.1139 43.1769 91.2848C44.1125 92.1603 45.1066 92.9734 46.0158 93.8699C48.0923 95.9166 48.8168 98.321 47.8187 101.147C47.3406 102.495 46.6852 103.818 46.4733 105.21C46.2575 106.626 46.256 108.164 46.5844 109.549C46.9249 110.99 46.7789 114.143 48.2703 113.882C50.9086 113.419 52.425 113.938 52.6302 110.99C52.6691 110.429 52.6256 110.359 52.4759 109.84C51.6915 107.073 55.2533 99.2178 57.3906 97.7856C59.2164 96.5598 61.0474 95.3126 62.7022 93.873C65.0879 91.8038 66.156 89.1306 65.1535 86.0177C64.2101 83.0882 65.3137 80.937 67.3661 79.0511C69.4596 77.1289 70.8323 74.9139 70.6893 71.9555C70.5463 68.9972 68.6065 66.861 66.0786 67.1646C64.8425 67.3101 63.6576 67.9018 62.4527 68.3068C60.6863 68.903 58.9623 69.7374 57.1494 70.0621C54.6083 70.5113 53.0425 68.8545 51.9091 66.8428C50.9971 65.2255 50.6967 65.1013 49.1134 66.1087C47.7778 66.9613 46.4448 67.8199 45.0613 68.5907C43.6241 69.3917 42.841 69.0945 41.733 67.8959C41.0777 67.1887 40.1703 66.6913 39.328 66.1816C38.7223 65.8115 37.9034 65.7096 37.4178 65.2455C36.7671 64.6175 35.8595 63.686 35.9515 63.0051C36.0588 62.2056 36.9867 61.2048 37.7961 60.8773C39.1909 60.3129 40.7757 60.2218 42.2715 59.8974C43.0681 59.7244 43.8762 59.5445 44.6292 59.248C45.6601 58.8376 45.6166 58.1618 44.8275 57.5276C44.4384 57.2157 43.9572 56.9966 43.4881 56.8084C41.2078 55.8921 38.9147 55.0159 36.6357 54.096C36.0693 53.8691 35.5115 53.5901 35.003 53.2585C33.5702 52.3188 33.3976 51.2842 34.6975 50.1395C39.8298 45.6216 45.8247 44.2988 51.1362 50.3012C52.7817 52.1602 53.8977 54.4784 55.4514 56.4293C56.6736 57.9678 58.0807 59.412 59.6341 60.5991C60.2743 61.0868 61.7138 61.1697 62.4298 60.778C63.4961 60.1954 63.5334 58.8674 62.9969 57.7599C62.5332 56.7979 61.9882 55.8498 61.3331 55.0079C58.3155 51.1279 58.523 43.5668 64.4336 40.4121C66.4106 39.3554 68.4049 38.2425 69.3491 35.4079C68.2166 35.7136 67.3954 35.9107 66.5912 36.1566C62.1029 37.5439 65.2275 34.2026 67.2923 33.62C68.5464 33.2642 66.1704 32.3053 66.1704 32.3053C66.2267 32.2075 67.7483 31.7743 69.4404 31.0543C70.6047 30.5605 71.795 30.0046 72.762 29.2186C73.3885 28.7058 73.63 27.7259 74.042 26.9551C73.9374 26.8337 73.8353 26.7154 73.729 26.594C72.5431 26.7534 71.3588 26.9284 70.17 27.0621C68.1557 27.2872 67.683 26.893 67.4962 24.8653C67.3669 23.4809 65.9531 22.7263 64.6329 23.4362C63.7397 23.9195 62.9673 24.6202 62.1078 25.1746C60.1233 26.4574 58.6395 25.9446 57.861 23.7327C57.3973 22.416 56.7515 22.167 55.5375 22.9044C54.927 23.2745 54.4177 23.8153 53.7969 24.1613C52.7789 24.7288 51.744 25.2983 50.6509 25.6838C49.5861 26.0601 48.3037 26.3332 47.5792 25.1679C46.801 23.9149 47.4812 22.695 48.4627 21.9093C49.6826 20.9322 51.0889 20.1737 52.4615 19.4061C54.4167 18.3078 56.4871 17.3943 58.3752 16.1967C59.7609 15.3143 60.3666 13.8762 59.9183 12.1794C59.5397 10.7472 58.5796 10.2626 57.2502 10.9194C56.1525 11.4633 55.1934 12.3144 54.0646 12.7528C53.2398 13.0682 52.212 13.0716 51.3265 12.916C50.9996 12.8583 50.6522 11.9543 50.6432 11.4294C50.637 11.1268 51.2519 10.6011 51.6442 10.5372C54.3714 10.1132 57.1108 9.75441 59.854 9.44256C60.2167 9.40303 60.7616 9.62684 60.989 9.91585C62.8009 12.1984 65.3291 13.3059 67.9888 14.0962C70.2233 14.7584 70.5471 14.4429 70.8544 12.1034C73.7244 11.4291 76.6418 10.1006 79.53 11.9184C81.1323 12.9247 82.5932 14.207 83.9494 15.535C84.2855 15.8656 84.0803 16.8882 83.919 17.5468C83.7063 18.4318 83.2153 19.2498 82.9888 20.1347C82.551 21.8498 83.6621 23.1901 85.4377 23.1621C85.9987 23.15 86.5581 23.0353 87.1221 23.0073C88.7625 22.9309 89.3448 23.5574 89.1943 25.2103C88.9813 27.5526 89.372 27.8342 91.7405 27.4343C92.4213 27.3198 93.2075 27.6283 93.9022 27.8714C94.3155 28.0169 94.6362 28.4122 95.0043 28.6897C97.2069 30.3554 98.8912 29.7312 99.536 27.0057C99.6057 26.709 99.5967 26.392 99.6577 26.0922C99.9131 24.8694 100.605 24.5548 101.432 25.4238C103.183 27.2747 104.826 29.2287 106.603 31.2466C104.694 32.9942 104.63 35.1181 105.053 37.1994C105.522 39.5148 104.911 41.5263 103.996 43.566C103.119 45.52 102.156 47.4619 101.57 49.5063C100.694 52.5747 101.688 53.9764 104.811 54.6555C107.791 55.3046 108.279 55.9024 108.391 58.8094C108.542 62.7743 110.582 65.5109 114.068 67.2573C114.842 67.6425 115.664 67.9354 116.454 68.2631C116.063 74.3754 114.315 80.7366 111.323 86.7716Z" fill="white"/>
</g>
<defs>
<filter id="filter0_i" x="0" y="0" width="124.969" height="129" filterUnits="userSpaceOnUse" color-interpolation-filters="sRGB">
<feFlood flood-opacity="0" result="BackgroundImageFix"/>
<feBlend mode="normal" in="SourceGraphic" in2="BackgroundImageFix" result="shape"/>
<feColorMatrix in="SourceAlpha" type="matrix" values="0 0 0 0 0 0 0 0 0 0 0 0 0 0 0 0 0 0 127 0" result="hardAlpha"/>
<feOffset dy="4"/>
<feGaussianBlur stdDeviation="2"/>
<feComposite in2="hardAlpha" operator="arithmetic" k2="-1" k3="1"/>
<feColorMatrix type="matrix" values="0 0 0 0 0 0 0 0 0 0 0 0 0 0 0 0 0 0 0.45 0"/>
<feBlend mode="normal" in2="shape" result="effect1_innerShadow"/>
</filter>
</defs>
</svg>
