<svg width="1050" height="906" viewBox="0 0 1050 906" fill="none" xmlns="http://www.w3.org/2000/svg">
<rect width="1050" height="402" transform="matrix(1 0 0 -1 0 905.559)" fill="#2C6FFF"/>
<path fill-rule="evenodd" clip-rule="evenodd" d="M872.116 341.202C872.116 341.202 879.717 388.378 879.717 395.261C879.717 402.143 881.764 401.659 881.764 403.563C881.764 405.467 882.515 414.438 882.515 415.807C882.515 417.176 884.14 430.043 884.14 430.043L947.717 432.34C947.717 432.34 950.441 418.633 950.441 414.732C950.441 410.83 950.441 407.385 950.441 407.385L955.88 409.806C955.88 409.806 956.062 416.721 955.041 419.51C954.019 422.299 954.027 430.043 954.027 430.043V434.876H1027.66L1031.32 428.506C1031.32 428.506 1031.32 425.737 1031.32 423.187C1031.32 420.637 1028.65 421.949 1028.65 417.419C1028.65 412.889 1028.65 398.682 1028.65 395.261C1028.65 391.84 1028.65 383.183 1028.65 383.183V369.84L1003.9 324.183L894.54 335.968L872.116 341.202Z" fill="url(#paint0_linear)"/>
<path fill-rule="evenodd" clip-rule="evenodd" d="M908.711 128.813L897.431 284.934L892.291 344.559C892.291 344.559 927.169 351.631 946.342 348.095C965.515 344.559 1007.75 337.907 1007.75 337.907L1015.34 165.914L999.422 118.209L980.903 103.634L908.711 128.813Z" fill="url(#paint1_linear)"/>
<path fill-rule="evenodd" clip-rule="evenodd" d="M972.819 85.8242C972.819 85.8242 972.908 94.2562 975.141 97.812C977.374 101.368 980.867 104.216 980.867 104.216C980.867 104.216 970.962 131.335 958.654 136.464C946.346 141.593 935.358 138.064 931.563 133.061C927.768 128.057 922.299 116.301 922.299 116.301L926.932 107.383L972.819 85.8242Z" fill="url(#paint2_linear)"/>
<path fill-rule="evenodd" clip-rule="evenodd" d="M902.904 43.3377C902.904 43.3377 904.695 64.4631 905.637 72.9088C906.579 81.3544 912.277 90.0033 919.4 101.151C926.523 112.298 933.238 118.109 933.238 118.109C933.238 118.109 950.552 119.108 955.412 114.375C960.272 109.643 964.913 102.484 967.853 98.0533C970.792 93.6221 972.837 86.9743 972.837 84.1233C972.837 81.2722 972.837 75.7589 972.837 75.7589C972.837 75.7589 977.959 73.1246 979.796 68.2936C981.634 63.4626 982.952 56.9292 981.745 54.0137C980.537 51.0982 977.373 49.3826 977.373 49.3826L955.412 34.9023L902.904 43.3377Z" fill="url(#paint3_linear)"/>
<path fill-rule="evenodd" clip-rule="evenodd" d="M975.693 21.0965C975.693 16.1419 973.521 13.9103 968.898 8.062C964.275 2.21375 959.919 4.04896 956.808 2.57746C953.697 1.10595 952.771 0.448277 952.771 0.448277L954.272 2.57746C954.272 2.57746 949.774 1.78656 948.136 1.11742C946.499 0.448277 939.067 -1.02142 933.987 1.11742C928.906 3.25625 925.532 8.062 920.098 8.062C914.664 8.062 907.217 15.4397 902.248 15.4397C905.017 17.698 908.896 18.3846 908.896 18.3846C908.896 18.3846 905.963 19.6458 904.849 21.0965C903.734 22.5471 898.663 28.1737 898.663 31.0853C898.663 33.997 897.373 38.3386 898.663 40.824C899.952 43.3094 905.544 47.5697 909.825 47.5697C914.105 47.5697 920.098 44.6907 920.098 44.6907C920.098 44.6907 928.388 47.5697 932.048 47.5697C935.709 47.5697 940.168 48.2147 945.336 45.9877C950.503 43.7607 954.272 38.1027 954.272 38.1027C954.272 38.1027 955.322 43.4446 957.529 45.9877C959.737 48.5308 961.639 50.6484 961.639 50.6484C961.639 50.6484 958.588 48.1639 958.588 50.6484C958.588 53.1329 962.157 57.711 963.299 60.6618C964.442 63.6127 965.3 68.3285 965.3 70.3049C965.3 72.2813 968.898 77.5061 968.898 77.5061C968.898 77.5061 967.509 58.3844 968.898 55.6093C970.287 52.8341 973.521 50.6484 973.521 50.6484L977.445 49.3786C977.445 49.3786 980.045 38.4629 980.045 35.1813C980.045 31.8997 979.072 21.0965 975.693 21.0965Z" fill="url(#paint4_linear)"/>
<path fill-rule="evenodd" clip-rule="evenodd" d="M979.282 128.108V137.913L984.313 140.103C984.313 140.103 981.684 147.445 978.437 156.273C975.189 165.102 971.478 186.099 972.523 198.646C973.568 211.193 977.46 263.986 977.46 270.317C977.46 276.649 982.984 325.543 984.313 336.034C985.641 346.525 988.355 357.23 990.239 364.605C992.124 371.98 997.989 388.596 997.989 388.596C997.989 388.596 1005.65 382.526 1010.81 379.461C1015.97 376.395 1024.33 372.904 1027.05 371.955C1029.76 371.007 1035.43 369.871 1037.14 368.471C1038.85 367.072 1042.03 364.605 1042.03 364.605C1042.03 364.605 1042.03 356.845 1042.03 353.657C1042.03 350.469 1039.77 342.687 1038.46 336.034C1037.14 329.381 1020.37 267.037 1019.49 260.551C1018.61 254.065 1035.87 136.638 1035.87 136.638L1038.46 128.944C1038.46 128.944 1034.08 126.19 1030.95 126.19C1027.82 126.19 1025.41 123.271 1023.6 122.325C1021.78 121.379 1013.11 117.808 1010.81 116.552C1008.51 115.295 1005.36 115.642 1002.26 113.249C999.168 110.857 994.279 109.014 994.279 109.014L982.14 103.727L979.282 128.108Z" fill="url(#paint5_linear)"/>
<path fill-rule="evenodd" clip-rule="evenodd" d="M973.996 93.3728C973.996 93.3728 978.31 93.031 980.976 95.4407C983.642 97.8504 993.499 108.589 993.499 108.589C993.499 108.589 996.507 111.615 995.003 118.053C993.499 124.49 993.499 137.86 993.499 137.86C993.499 137.86 984.798 133.107 982.887 131.218C980.976 129.329 979.993 127.965 979.993 127.965V134.22C979.993 134.22 978.763 128.942 978.763 125.82C978.763 122.698 981.959 106.016 980.976 104.144C979.993 102.273 975.85 100.648 974.923 98.0443C973.996 95.4407 973.996 93.3728 973.996 93.3728Z" fill="url(#paint6_linear)"/>
<path fill-rule="evenodd" clip-rule="evenodd" d="M884.133 154.924C884.133 154.924 880.21 212.806 881.518 222.269C882.826 231.731 881.179 288.907 877.589 299.424C873.999 309.942 863.86 355.469 863.86 355.469C863.86 355.469 865.102 362.387 868.536 366.836C871.97 371.286 877.589 376.956 877.589 376.956L875.24 379.652C875.24 379.652 883.549 382.049 886.124 383.072C888.7 384.095 894.492 384.872 894.492 384.872C894.492 384.872 894.68 368.704 898.491 354.031C902.302 339.359 910.38 297.49 912.41 279.211C914.44 260.931 914.447 229.702 914.444 219.34C914.44 208.978 912.41 164.014 912.41 164.014L907.576 136.609L884.133 154.924Z" fill="url(#paint7_linear)"/>
<path fill-rule="evenodd" clip-rule="evenodd" d="M915.805 113.978C915.805 113.978 902.883 122.291 899.158 124.532C895.434 126.774 885.235 132.346 881.584 135.299C877.934 138.251 869.977 146.846 868.01 153.697C866.044 160.547 859.466 177.969 859.466 190.179C859.466 202.389 865.153 215.322 865.153 217.538C865.153 219.754 856.144 239.51 856.144 239.51V271.913L885.975 278.555C885.975 278.555 893.972 269.295 893.972 264.18C893.972 259.066 893.972 244.218 893.972 239.51C893.972 234.802 892.946 221.997 890.431 213.978C887.916 205.959 883.265 193.445 883.265 180.508C883.265 167.571 885.975 157.13 885.975 157.13C885.975 157.13 883.409 178.35 885.975 190.179C888.541 202.009 897.668 213.978 897.668 213.978C897.668 213.978 896.177 190.011 897.668 176.159C899.158 162.307 906.664 144.192 906.664 144.192C906.664 144.192 901.341 161.959 901.341 166.691C901.341 171.422 904.991 180.508 904.991 180.508L913.476 208.755C913.476 208.755 913.593 169.436 914.699 164.17C915.805 158.904 919.369 154.28 921.791 150.611C924.213 146.942 926.209 145.894 926.209 145.894L927.287 143.114C927.287 143.114 930.698 141.22 930.698 139.147C930.698 137.074 931.702 133.109 931.702 133.109L915.805 113.978Z" fill="url(#paint8_linear)"/>
<path fill-rule="evenodd" clip-rule="evenodd" d="M924.495 107.838C924.495 107.838 915.389 112.853 915.389 114.954C915.389 117.055 913.596 129.887 913.596 133.378C913.596 136.869 913.596 141.176 913.596 141.176C913.596 141.176 915.062 138.44 919.046 138.44C923.03 138.44 921.582 138.658 924.495 136.685C927.409 134.713 929.187 133.378 929.187 133.378H931.256C931.256 133.378 927.966 120.004 927.966 116.238C927.966 112.471 924.495 107.838 924.495 107.838Z" fill="url(#paint9_linear)"/>
<path fill-rule="evenodd" clip-rule="evenodd" d="M851.236 248.875C851.236 248.875 861.682 237.27 864.725 234.593C867.768 231.916 872.157 230.306 874.269 230.306C876.382 230.306 884.383 229.685 887.834 228.397C891.285 227.109 902.751 226.017 906.351 226.017C909.952 226.017 927.458 227.491 933.144 228.397C938.83 229.303 959.391 230.306 959.391 230.306L967.028 229.318L981.214 268.416C981.214 268.416 965.759 267.372 959.391 265.549C953.023 263.727 914.108 248.875 914.108 248.875C914.108 248.875 904.48 253.779 900.853 253.779C897.225 253.779 896.269 253.779 896.269 253.779C896.269 253.779 891.667 261.592 887.834 265.549C884.001 269.507 881.143 271.938 879.228 271.033C877.313 270.128 877.159 267.79 877.236 266.67C877.313 265.549 880.644 262.621 882.322 260.404C884 258.187 885.152 255.513 886.493 253.779C887.834 252.045 889.175 251.553 887.834 250.657C886.493 249.761 884.84 247.989 883.982 248.875C883.125 249.761 870.021 265.549 870.021 265.549H863.372L867.655 254.729L871.891 248.875L860.763 256.366L851.236 248.875Z" fill="url(#paint10_linear)"/>
<path fill-rule="evenodd" clip-rule="evenodd" d="M1038.92 129.029C1038.92 129.029 1049.43 141.825 1049.43 153.526C1049.43 165.227 1049.95 194.341 1046.19 208.729C1042.43 223.116 1041.35 223.561 1040.56 227.108C1039.78 230.655 1042.21 240.044 1040.56 243.632C1038.92 247.22 1029.1 258.731 1027.93 261.645C1026.76 264.558 1021.5 271.841 1018.97 273.053C1016.43 274.265 1011.65 277.325 1004.63 277.325C997.612 277.325 990.835 276.003 987.493 276.003C984.152 276.003 979.356 277.325 979.356 277.325C979.356 277.325 977.22 278.646 974.789 277.325C972.358 276.003 965.202 274.275 963.861 271.215C962.52 268.156 960.816 265.656 960.816 265.656C960.816 265.656 966.39 267.186 968.974 267.186C971.559 267.186 974.789 267.186 974.789 267.186C974.789 267.186 971.565 251.686 968.974 244.803C966.383 237.92 965.868 231.34 963.861 230.539C961.853 229.739 960.004 229.631 960.004 229.631C960.004 229.631 967.419 228.413 968.974 228.413C970.529 228.413 976.641 228.413 976.641 228.413C976.641 228.413 980.897 227.108 982.325 227.108C983.752 227.108 986.162 227.108 986.162 227.108C986.162 227.108 991.27 224.238 993.55 223.397C995.83 222.557 996.874 222.069 996.874 222.069C996.874 222.069 1000.27 212.207 1001.88 208.729C1003.49 205.25 1003.33 197.019 1007.17 188.826C1011.02 180.633 1015.57 173.984 1017.27 170.104C1018.97 166.225 1024.51 151.836 1025.71 148.634C1026.91 145.432 1032.1 135.53 1034.03 133.808C1035.96 132.086 1038.92 129.029 1038.92 129.029Z" fill="url(#paint11_linear)"/>
<path fill-rule="evenodd" clip-rule="evenodd" d="M879.223 289.074L907.466 282.872C908.515 282.642 908.514 281.147 907.465 280.918L857.228 269.961L879.223 289.074Z" fill="url(#paint12_linear)"/>
<path fill-rule="evenodd" clip-rule="evenodd" d="M777.818 191.315L853.482 198.327C853.482 198.327 881.409 283.893 881.409 285.679C881.409 287.466 879.489 289.924 877.131 289.924C874.773 289.924 769.329 273.206 769.329 273.206L777.818 191.315Z" fill="url(#paint13_linear)"/>
<path fill-rule="evenodd" clip-rule="evenodd" d="M790.837 276.999C796.677 276.999 803.059 278.781 803.059 278.781L807.276 279.59C807.276 279.59 807.95 270.034 807.95 268.682C807.95 267.33 810.533 263.977 813.081 266.329C815.629 268.682 816.413 272.4 816.021 275.231C815.629 278.061 817.385 281.371 817.385 281.371L819.062 281.954C819.062 281.954 818.561 271.686 820.096 270.184C821.63 268.682 824.159 266.337 826.459 268.682C828.76 271.027 828.693 277.863 828.693 277.863V282.946L831.832 283.595C831.832 283.595 832.439 277.863 833.912 277.863C835.385 277.863 838.468 279.146 839.788 281.371C841.109 283.595 842.328 285.016 842.328 285.016L874.703 289.096C874.703 289.096 877.801 289.096 878.614 289.096C879.427 289.096 888.103 287.563 888.103 287.563C888.103 287.563 881.538 294.779 873.885 294.779C866.232 294.779 860.999 294.779 858.743 294.779C856.487 294.779 850.89 296.452 849.261 296.452C847.632 296.452 844.241 295.543 841.313 294.779C838.385 294.015 834.962 294.122 833.021 294.779C831.08 295.436 827.775 293.192 825.842 292.531C823.908 291.869 820.148 293.967 819.062 292.531C817.975 291.095 814.985 288.782 813.081 288.172C811.177 287.563 809.282 287.852 808.616 286.434C807.95 285.016 806.308 283.595 806.308 283.595C806.308 283.595 801.856 283.937 799.326 282.946C796.795 281.954 792.51 281.371 792.51 281.371C792.51 281.371 784.998 276.999 790.837 276.999Z" fill="url(#paint14_linear)"/>
<path fill-rule="evenodd" clip-rule="evenodd" d="M948.43 98.6084C942.116 105.76 931.236 102.572 931.236 102.572C931.236 102.572 943.61 101.451 948.43 98.6084Z" fill="#141731"/>
<rect y="428.559" width="1050" height="75" fill="#2C6FFF"/>
<path fill-rule="evenodd" clip-rule="evenodd" d="M623.389 437.876L618.406 464.731H715.435L718.529 437.876H623.389Z" fill="#CDD9FF"/>
<path fill-rule="evenodd" clip-rule="evenodd" d="M502.546 195.836C502.482 195.87 502.418 195.904 502.355 195.938C498.389 194.074 493.788 196.133 490.298 198.723C486.809 201.313 483.771 203.758 479.584 213.001C476.578 219.639 475.791 229.807 474.659 244.436C474.215 250.177 473.717 256.605 473.012 263.776C470.977 284.456 464.909 289.67 457.511 296.026C455.806 297.49 454.031 299.015 452.219 300.804C442.54 310.356 450.849 311.312 450.849 311.312C450.849 311.312 488.365 300.804 495.21 295.864C501.094 291.617 514.59 294.982 524.248 297.391C525.826 297.784 527.301 298.152 528.623 298.457C538.047 300.63 587.076 373.881 587.076 373.881C587.076 373.881 593.979 331.83 595.873 330.368C597.767 328.905 597.251 324.585 591.574 319.61C588.574 316.98 589.945 314.9 591.906 311.926C593.655 309.272 595.873 305.907 595.873 300.804C595.873 294.975 592.734 285.513 589.837 278.023C588.096 276.588 582.101 271.597 579.416 268.732C576.256 265.361 572.223 259.044 572.223 259.044C572.223 259.044 583.929 269.011 587.076 273.021C587.796 273.94 588.357 274.721 588.793 275.379C586.747 270.294 585.054 266.642 585.054 266.642C585.054 266.642 564.553 244.058 560.393 238.332C558.831 236.181 558.281 233.328 557.703 230.333C556.743 225.353 555.708 219.979 549.816 216.789C545.652 214.533 543.267 210.977 540.778 207.265C537.629 202.568 534.312 197.622 527.012 194.753C514.123 189.686 507.173 193.378 502.546 195.836Z" fill="url(#paint15_linear)"/>
<path fill-rule="evenodd" clip-rule="evenodd" d="M540.175 291.929C540.175 291.929 547.72 293.855 552.749 295.301C557.777 296.746 566.57 298.319 573.404 304.429C580.238 310.539 585.374 332.468 585.374 337.532C585.374 342.595 588.406 354.844 588.406 354.844L590.924 376.373C590.924 376.373 577.517 415.669 575.299 417.624C574.135 418.649 565.596 381.104 564.606 356.588C564.584 356.05 565.596 370.731 564.606 378.855C563.635 386.815 560.357 406.022 560.357 406.022H546.01L470.947 417.624L458.921 435.451C458.921 435.451 461.612 417.241 460.757 412.141C459.902 407.042 456.579 393.22 456.579 386.543C456.579 379.867 443.243 330.975 443.243 326.495C443.243 322.015 439.419 312.673 443.243 309.394C447.067 306.115 455.154 301.48 460.757 299.899C466.36 298.317 487.868 293.655 487.868 293.655L540.175 291.929Z" fill="url(#paint16_linear)"/>
<path fill-rule="evenodd" clip-rule="evenodd" d="M441.86 311.559C441.86 311.559 436.177 326.243 434.212 339.866C432.248 353.489 431.226 368.771 429.927 374.066C428.628 379.36 424.322 392.996 424.322 397.091C424.322 401.187 444.52 430.515 444.52 430.515H450.551C450.551 430.515 457.033 394.524 454.679 371.037C452.324 347.55 441.86 311.559 441.86 311.559Z" fill="url(#paint17_linear)"/>
<path fill-rule="evenodd" clip-rule="evenodd" d="M533.073 284.777C533.073 284.777 534.979 290.337 540.285 291.98C541.291 296.355 539.997 319.594 518.665 321.211C497.332 322.828 487.907 302.704 487.027 295.168C490.72 290.326 494.092 283.077 494.092 279.192C494.092 275.308 492.526 260.841 492.526 260.841L533.073 284.777Z" fill="url(#paint18_linear)"/>
<path fill-rule="evenodd" clip-rule="evenodd" d="M546.357 246.624C546.357 246.624 548.522 243.342 550.157 245.873C551.792 248.405 549.952 253.505 547.784 256.904C545.617 260.303 543.848 261.889 543.848 261.889L546.357 246.624Z" fill="url(#paint19_linear)"/>
<path fill-rule="evenodd" clip-rule="evenodd" d="M508.944 217.137C508.944 217.137 514.315 221.049 520.466 221.24C526.618 221.431 533.993 216.573 538.123 219.531C542.253 222.489 545.729 224.07 547.394 229.874C549.058 235.679 546.83 241.246 547.22 246.93C547.609 252.614 545.222 266.628 541.583 274.215C537.943 281.801 530.762 293.109 524.584 293.109C518.406 293.109 513.095 292.488 504.715 284.227C496.335 275.967 493.364 264.023 493.364 264.023C493.364 264.023 489.513 257.313 487.715 251.042C485.917 244.771 488.237 242.088 491.197 242.088C494.157 242.088 494.042 247.595 498.09 246.434C499.203 246.115 496.268 255.191 498.09 261.59C498.09 259.401 498.907 252.362 500.761 245.505C502.76 238.11 507.121 231.101 507.618 229.874C508.938 226.612 508.944 217.137 508.944 217.137Z" fill="url(#paint20_linear)"/>
<path fill-rule="evenodd" clip-rule="evenodd" d="M531.649 277.7C531.649 277.7 523.779 278.042 521.129 277.496C518.478 276.951 515.972 276.001 515.972 276.001C515.972 276.001 521.252 279.3 523.204 279.762C525.155 280.225 531.123 280.086 531.123 280.086L531.034 279.077L531.649 277.7Z" fill="#141731"/>
<path fill-rule="evenodd" clip-rule="evenodd" d="M441.793 415.08C439.269 410.85 432.887 405.989 428.443 405.989C423.999 405.989 411.41 405.989 411.41 405.989C411.41 405.989 402.379 415.88 402.379 421.341C402.379 426.802 409.459 426.752 411.95 428.844C414.44 430.937 433.381 430.61 437.158 430.61C440.936 430.61 446.283 430.61 446.283 430.61C446.283 430.61 444.317 419.311 441.793 415.08Z" fill="url(#paint21_linear)"/>
<path fill-rule="evenodd" clip-rule="evenodd" d="M417.497 397.389C416.011 395.765 414.432 394.165 412.812 394.165C411.191 394.165 409.174 392.552 407.881 394.165C406.588 395.777 405.021 396.891 405.021 398.335C405.021 399.78 405.021 401.354 405.021 401.354C405.021 401.354 406.934 403.184 407.408 403.924C407.881 404.664 408.551 405.185 408.551 405.185C408.551 405.185 412.855 402.042 413.98 400.679C415.106 399.317 418.984 399.013 417.497 397.389Z" fill="url(#paint22_linear)"/>
<path fill-rule="evenodd" clip-rule="evenodd" d="M404.947 400.598C404.947 400.598 401.046 403.406 399.919 404.732C398.792 406.058 396.37 407.695 396.37 410.211C396.37 412.728 397.448 415.435 398.361 415.989C399.274 416.543 400.564 416.704 399.919 417.475C399.274 418.247 400.084 421.512 400.659 422.263C401.234 423.013 403.093 422.807 403.745 423.427C404.397 424.046 403.989 425.998 404.947 427.141C405.905 428.284 406.428 429.087 407.778 429.087C409.128 429.087 410.83 429.087 410.83 429.087C410.83 429.087 412.846 430.372 414.686 430.372C416.526 430.372 422.562 427.45 424.036 425.648C425.51 423.846 428.939 417.657 428.939 415.485C428.939 413.313 427.68 407.873 427.68 407.873C427.68 407.873 428.404 403.863 428.042 402.831C427.68 401.8 426.71 402.111 426.71 402.111C426.71 402.111 427.318 398.572 427.68 397.526C428.042 396.48 426.854 395.068 425.844 395.068C424.834 395.068 423.236 396.423 422.407 397.526C421.578 398.629 420.409 400.598 420.409 400.598C420.409 400.598 420.309 398.242 418.93 397.884C417.55 397.526 415.12 399.085 413.553 400.598C411.986 402.111 408.49 404.732 408.49 404.732C408.49 404.732 407.745 402.911 407.101 402.111C406.456 401.311 404.947 400.598 404.947 400.598Z" fill="url(#paint23_linear)"/>
<path fill-rule="evenodd" clip-rule="evenodd" d="M420.752 400.464C420.752 400.464 416.627 406.324 415.502 407.465C414.376 408.605 412.401 410.044 410.878 411.742C409.355 413.44 408.364 414.6 407.567 415.008C406.77 415.415 402.572 416.102 402.572 416.102C402.572 416.102 405.882 416.671 408.38 415.563C410.878 414.455 412.127 412.422 414.278 410.401C416.429 408.379 417.733 406.236 418.979 404.427C420.225 402.618 420.752 400.464 420.752 400.464Z" fill="url(#paint24_linear)"/>
<path fill-rule="evenodd" clip-rule="evenodd" d="M426.531 402.365C426.531 402.365 424.164 406.581 422.258 408.937C420.352 411.293 418.416 414.389 417.412 415.391C416.407 416.392 414.728 417.128 413.817 417.613C412.907 418.097 410.505 419.037 409.965 420.167C409.425 421.297 409.296 421.664 409.296 421.664C409.296 421.664 410.081 420.979 411.949 419.779C413.817 418.578 416.289 417.558 417.914 416.032C419.538 414.506 421.719 411.176 422.883 409.615C424.046 408.054 426.531 402.365 426.531 402.365Z" fill="url(#paint25_linear)"/>
<path fill-rule="evenodd" clip-rule="evenodd" d="M427.808 408.124C427.808 408.124 426.819 411.926 426.15 413.197C425.481 414.468 422.381 418.432 421.936 419.812C421.492 421.193 419.901 423.193 418.942 423.804C417.982 424.414 414.734 425.109 413.987 425.744C416.28 425.688 419.872 423.804 419.872 423.804C419.872 423.804 422.716 421.114 423.287 419.812C423.858 418.511 424.974 415.674 425.832 414.655C426.691 413.636 427.295 412.678 427.551 411.949C427.808 411.22 428.038 408.554 428.038 408.554L427.808 408.124Z" fill="url(#paint26_linear)"/>
<path fill-rule="evenodd" clip-rule="evenodd" d="M599.307 405.752C605.151 396.397 609.06 364.661 609.06 354.414C609.06 344.168 603.748 307.592 602.818 299.748C601.889 291.905 600.981 287.302 600.522 283.98C600.064 280.658 597.84 278.542 596.299 275.326C594.759 272.109 591.245 267.389 590.236 266.537C589.228 265.685 581.284 261.521 580.372 261.521C581.866 263.416 584.26 266.537 584.26 266.537C584.26 266.537 574.714 264.751 573.997 264.751C573.279 264.751 569.414 264.751 568.326 264.751C567.238 264.751 562.931 264.857 562.931 265.697C562.931 266.537 565.692 269.098 567.723 269.098C569.753 269.098 573.082 269.098 573.082 269.098L575.789 269.735C575.789 269.735 568.93 270.956 568.326 270.956C567.723 270.956 564.293 273.819 562.931 274.543C561.569 275.267 560.218 275.887 560.218 276.584C560.218 277.281 562.047 279.178 564.117 278.552C566.187 277.927 568.484 275.326 569.38 275.326C570.276 275.326 574.839 275.326 575.789 275.326C576.739 275.326 577.537 275.716 577.537 275.716L582.662 280.373C582.662 280.373 579.285 279.363 577.537 279.363C575.789 279.363 571.037 280.116 569.38 281.038C567.723 281.961 563.841 284.203 563.386 284.819C562.931 285.434 562.429 285.778 562.429 285.778C562.429 285.778 563.921 287.963 567.272 286.87C570.623 285.778 570.452 285.207 571.978 285.207C573.503 285.207 575.607 284.43 576.786 284.819C577.966 285.207 581.764 286.883 582.662 287.302C583.56 287.721 583.342 290.604 583.342 290.604C583.342 290.604 582.662 298.315 584.639 300.447C588.986 304.34 589.629 313.199 590.236 316.439C590.844 319.679 592.045 329.524 591.069 339.359C590.092 349.195 586.794 354.637 584.26 363.129C581.725 371.62 575.789 394.944 575.789 394.944C575.789 394.944 593.463 415.108 599.307 405.752Z" fill="url(#paint27_linear)"/>
<path fill-rule="evenodd" clip-rule="evenodd" d="M450.548 439.559C448.746 439.559 447.35 441.137 447.571 442.926L450.792 469.101C450.977 470.604 452.255 471.734 453.77 471.734H588.136C589.651 471.734 590.928 470.605 591.114 469.101L594.34 442.926C594.561 441.137 593.165 439.559 591.363 439.559H450.548Z" fill="url(#paint28_linear)"/>
<path fill-rule="evenodd" clip-rule="evenodd" d="M452.216 372.052C450.536 372.052 449.183 373.431 449.216 375.111L451.059 468.793C451.091 470.427 452.424 471.734 454.058 471.734H587.877C589.499 471.734 590.828 470.445 590.876 468.823L593.664 375.141C593.714 373.45 592.357 372.052 590.665 372.052H452.216Z" fill="url(#paint29_linear)"/>
<path fill-rule="evenodd" clip-rule="evenodd" d="M521 428.559C524.866 428.559 528 425.425 528 421.559C528 417.693 524.866 414.559 521 414.559C517.134 414.559 514 417.693 514 421.559C514 425.425 517.134 428.559 521 428.559Z" fill="#A7ABFD"/>
<path fill-rule="evenodd" clip-rule="evenodd" d="M663.922 304.584C663.922 304.584 661.21 318.517 661.21 324.381C661.21 330.245 660.813 378.75 663.922 386.791C667.032 394.833 675.598 428.885 675.598 428.885H729.645V391.529C729.645 391.529 759.612 387.397 769.282 380.242C778.951 373.087 796.755 368.769 796.755 368.769L801.172 320.306L663.922 304.584Z" fill="url(#paint30_linear)"/>
<path fill-rule="evenodd" clip-rule="evenodd" d="M795.367 365.553V428.701H731.156L729.794 386.895L795.367 365.553Z" fill="url(#paint31_linear)"/>
<path fill-rule="evenodd" clip-rule="evenodd" d="M664.832 267.165C664.832 267.165 670.383 277.549 668.533 285.242C666.683 292.936 663.551 297.774 663.551 301.925C663.551 306.076 669.056 313.127 672.384 316.026C675.712 318.925 686.84 326.499 699.332 331.858C711.825 337.216 732.067 341.676 744.333 341.676C756.599 341.676 781.951 343.575 787.569 341.676C793.186 339.776 801.964 330.738 803.399 326.067C804.833 321.396 805.051 301.067 802.07 294.753C799.089 288.439 795.973 287.634 795.973 285.242C795.973 282.85 799.263 248.003 797.618 235.957C795.973 223.911 772.557 160.178 765.8 153.333C759.043 146.487 755.784 145.978 750.92 144.713C746.056 143.447 742.69 142.477 740.305 142.477C737.92 142.477 733.984 142.477 733.984 142.477C733.984 142.477 661.258 162.015 657.158 171.996C653.057 181.978 653.144 240.609 657.158 247.99C661.171 255.372 664.832 267.165 664.832 267.165Z" fill="url(#paint32_linear)"/>
<path fill-rule="evenodd" clip-rule="evenodd" d="M651.692 165.958C651.692 165.958 644.639 172.414 641.543 175.972C638.446 179.53 635.723 180.966 633.413 183.693C631.104 186.42 623.956 199.653 622.041 204.168C620.126 208.684 617.668 226.538 617.668 232.251C617.668 237.964 619.54 254.858 619.54 257.073C619.54 259.288 619.54 262.981 619.54 265.432C619.54 267.882 621.412 275.722 619.54 281.98C617.668 288.237 617.668 296.759 617.668 297.959C617.668 299.159 617.668 299.837 617.668 302.011C617.668 304.184 614.38 305.141 616.024 312.022C617.668 318.902 617.668 321.381 617.668 326.392C617.668 331.404 622.041 331.925 622.041 334.939C622.041 337.952 625.163 343.043 625.163 348.024C625.163 353.005 626.375 353.392 627.101 354.284C627.826 355.176 629.639 357.349 629.639 359.176C629.639 361.002 631.285 362.946 632.349 362.946C633.413 362.946 634.808 362.891 636.306 364.945C637.805 367 640.401 370.73 641.543 372.042C642.685 373.354 643.656 375.222 643.656 375.222C643.656 375.222 642.763 365.19 645.627 361.017C648.491 356.844 650.788 354.284 655.469 354.284C660.149 354.284 665.211 359.176 665.211 359.176L668.163 362.946C668.163 362.946 664.836 353.468 664.18 351.437C663.524 349.406 661.106 342.367 660.035 341.459C658.964 340.552 658.102 341.991 658.102 338.886C658.102 335.781 658.102 332.935 658.102 331.378C658.102 329.82 659.813 328.805 658.102 327.104C656.391 325.403 655.469 324.191 655.469 324.191C655.469 324.191 656.039 320.414 654.817 319.081C653.596 317.747 655.469 315.13 655.469 314.404C655.469 313.678 652.6 311.017 652.6 311.017C652.6 311.017 653.175 309.027 653.996 306.56C654.817 304.093 653.996 302.823 653.996 302.823C653.996 302.823 657.32 297.858 657.32 295.318C657.32 292.777 656.547 291.991 656.547 291.991C656.547 291.991 658.102 282.376 658.102 279.034C658.102 275.692 658.102 273.288 658.102 273.288C658.102 273.288 662.034 268.332 662.034 265.432C662.034 262.532 663.148 263.222 664.18 265.432C665.211 267.641 666.88 271.569 666.88 271.569C666.88 271.569 666.325 259.175 664.18 251.531C662.034 243.888 658.883 227.795 658.102 219.816C657.32 211.837 656.923 191.458 658.102 186.372C659.28 181.286 660.984 173.453 660.984 173.453L651.692 165.958Z" fill="url(#paint33_linear)"/>
<path fill-rule="evenodd" clip-rule="evenodd" d="M660.526 174.461C660.526 174.461 662.036 189.252 665.747 195.874C669.458 202.496 677.105 212.779 680.155 216.194C683.204 219.609 687.682 223.087 693.042 223.087C698.402 223.087 704.197 217.914 707.988 213.264C711.779 208.614 717.209 203.681 720.447 198.774C723.684 193.868 726.548 186.945 726.548 183.274C726.548 179.603 729.053 176.494 729.053 176.494C729.053 176.494 733.013 172.589 734.857 167.572C736.701 162.555 739.501 160.053 737.179 160.053C734.857 160.053 732.786 160.053 732.786 160.053L660.526 174.461Z" fill="url(#paint34_linear)"/>
<path fill-rule="evenodd" clip-rule="evenodd" d="M722.342 118.905C714.419 112.154 709.859 109.675 703.138 109.675C696.417 109.675 690.972 107.87 685.171 109.675C679.37 111.48 673.394 108.873 669.566 114.791C665.737 120.71 659.762 124.225 656.447 126.711C653.132 129.198 648.474 140.262 648.474 143.577C648.474 146.891 650.467 154.682 650.467 154.682C650.467 154.682 646.725 149.946 646.725 146.761C647.049 155.711 648.168 157.152 650.467 161.552C652.766 165.952 656.411 176.143 669.566 178.853C682.72 181.563 690.897 181.056 695.09 178.853C699.283 176.65 704.506 171.959 704.506 171.959C704.506 171.959 700.383 183.255 694.031 186.371C687.679 189.488 684.816 192.72 677.191 190.502C691.451 194.083 699.89 188.181 703.138 183.517C706.387 178.853 708.85 174.284 708.85 174.284L705.734 183.517C705.734 183.517 711.145 178.123 711.145 174.284C711.145 170.446 714.095 175.298 720.694 171.959C727.293 168.621 730.141 166.655 732.533 162.995C734.926 159.336 734.802 141.838 732.533 135.163C730.265 128.489 730.265 125.657 722.342 118.905Z" fill="url(#paint35_linear)"/>
<path fill-rule="evenodd" clip-rule="evenodd" d="M762.608 150.005C762.608 150.005 773.429 157.451 777.511 160.797C781.593 164.144 793.021 179.398 793.021 187.561C793.021 195.724 798.255 208.008 798.255 211.143C798.255 214.278 798.255 220.65 798.255 224.342C798.255 228.033 799.579 239.376 799.579 245.667C799.579 251.957 796.924 265.7 796.924 272.626C796.924 279.552 798.075 285.188 799.579 288.025C801.083 290.862 806.67 296.442 806.67 301.788C806.67 307.134 809.86 317.168 806.67 322.697C803.479 328.227 802.5 327.149 801.04 332.967C799.579 338.785 798.255 339.476 798.255 341.821C798.255 344.166 799.579 345.47 799.579 347.904C799.579 350.339 799.586 348.779 798.255 352.624C796.924 356.47 796.924 357.016 796.924 359.153C796.924 361.289 794.923 362.005 794.923 364.246C794.923 366.487 796.924 368.643 796.924 369.736C796.924 370.829 793.021 374.799 793.021 374.799C793.021 374.799 796.825 381.154 794.923 383.211C793.021 385.268 788.268 388.775 788.268 390.126C788.268 391.478 785.97 394.552 785.97 394.552C785.97 394.552 781.774 408.724 781.774 409.866C781.774 411.009 780.482 414.497 780.482 414.497C780.482 414.497 764.761 411.25 758.461 409.866C752.161 408.483 747.951 407.77 747.951 407.77C747.951 407.77 751.802 395.096 751.802 391.556C751.802 388.016 755.72 384.357 755.72 384.357L754.42 381.119L755.72 374.799C755.72 374.799 757.294 350.181 757.294 347.904C757.294 345.628 757.294 344.283 757.294 341.821C757.294 339.358 758.868 331.467 757.294 329.227C755.72 326.986 757.99 326.847 759.127 326.069C760.264 325.291 760.96 322.364 759.127 321.729C757.294 321.094 754.146 320.313 755.72 319.083C757.294 317.852 758.419 315.892 759.127 314.094C759.835 312.296 756.484 310.459 756.484 308.161C756.484 305.862 757.795 304.843 758.461 303.316C759.127 301.788 756.484 298.488 756.484 297.33C756.484 296.171 754.42 284.739 754.42 278.019C754.42 271.299 754.429 256.054 753.685 250.458C752.941 244.862 752.539 238.331 751.802 232.826C751.066 227.322 750.944 217.071 751.005 213.649C751.066 210.227 756.196 184.15 758.461 173.608C760.726 163.066 762.608 150.005 762.608 150.005Z" fill="url(#paint36_linear)"/>
<path fill-rule="evenodd" clip-rule="evenodd" d="M749.169 407.895C749.169 407.895 749.104 411.723 748.144 413.072C747.184 414.422 746.369 414.887 746.369 415.841C746.369 416.796 743.318 418.64 743.318 418.64C743.318 418.64 740.206 418.64 737.548 418.64C734.891 418.64 731.582 420.086 731.582 420.086L729.879 421.58C729.879 421.58 727.319 421.58 725.765 421.58C724.211 421.58 722.304 423.027 720.992 424.011C719.68 424.995 719.836 425.205 717.978 426.042C716.12 426.878 713.35 427.319 712.485 428.107C711.62 428.895 711.759 430.095 711.021 431.044C710.284 431.994 707.6 433.407 707.6 434.889C707.6 436.372 707.409 438.578 708.604 438.578C709.799 438.578 716.107 438.042 716.107 438.042C716.107 438.042 714.236 442.175 716.107 443.586C717.978 444.997 719.782 444.643 719.782 444.643C719.782 444.643 722.917 446.983 725.345 446.395C727.774 445.808 731.582 444.643 731.582 444.643C731.582 444.643 735.122 447.691 737.548 447.043C739.975 446.395 742.546 445.661 744.457 443.586C746.369 441.511 751.091 436.291 751.091 436.291C751.091 436.291 751.661 439.289 750.656 441.966C749.652 444.643 747.682 445.748 749.169 446.395C750.656 447.043 751.983 449.205 754.621 446.395C757.259 443.586 763.885 437.692 765.769 436.291C767.654 434.889 772.503 432.738 773.902 430.293C775.3 427.848 775.788 420.839 776.558 419.337C777.329 417.835 778.716 413.62 778.716 413.62L749.169 407.895Z" fill="url(#paint37_linear)"/>
<path fill-rule="evenodd" clip-rule="evenodd" d="M651.245 353.336C651.245 353.336 642.314 361.524 642.314 366.887C642.314 372.25 643.988 375.489 643.988 375.489C643.988 375.489 643.609 376.087 642.314 377.611C641.019 379.135 641.75 384.422 641.75 384.422C641.75 384.422 641.169 385.388 640.702 387.061C640.235 388.735 640.702 390.318 640.702 392.028C640.702 393.738 640.263 395.347 640.702 396.029C641.142 396.712 643.58 397.086 644.725 399.988C645.87 402.89 646.913 404.975 648.314 405.465C649.715 405.954 651.245 406.377 651.245 406.377C651.245 406.377 653.486 408.009 655.1 407.193C656.713 406.377 659.883 404.735 661.84 404.735C663.797 404.735 665.366 404.132 667.091 402.984C668.816 401.836 671.549 401.598 671.549 399.988C671.549 398.378 672.014 397.645 670.555 396.837C669.097 396.029 667.055 395.238 666.471 394.815C665.886 394.391 664.532 392.796 664.532 392.796L668.836 364.471C668.836 364.471 667.159 358.796 663.279 355.442C659.399 352.088 651.245 353.336 651.245 353.336Z" fill="url(#paint38_linear)"/>
<path fill-rule="evenodd" clip-rule="evenodd" d="M666.708 360.481L669.09 365.328C669.09 365.328 671.6 366.354 673.083 367.853C674.566 369.352 677.883 372.7 676.225 376.301C674.566 379.902 670.143 384.145 670.143 384.145C670.143 384.145 667.665 389.429 666.708 390.865C665.752 392.3 664.402 394.122 662.789 394.122C661.176 394.122 658.159 392.957 658.159 391.564C658.159 390.172 658.742 388.785 659.342 386.799C659.942 384.813 659.707 381.883 660.743 380.189C661.778 378.495 662.012 375.642 662.789 373.923C663.566 372.204 664.618 367.853 664.618 367.853C664.618 367.853 661.136 365.674 660.743 364.84C660.349 364.007 663.343 364.102 663.343 364.102L666.708 360.481Z" fill="url(#paint39_linear)"/>
<path fill-rule="evenodd" clip-rule="evenodd" d="M684.659 214.245C684.659 214.245 691.437 214.245 694.285 214.245C697.134 214.245 692.118 216.762 689.472 216.762C686.826 216.762 684.659 214.245 684.659 214.245Z" fill="#141731"/>
<path fill-rule="evenodd" clip-rule="evenodd" d="M113.734 278.343C113.734 278.343 116.272 286.707 117.461 292.036C118.649 297.365 119.723 304.095 119.723 304.095L144.573 311.624L159.931 310.396L167.077 307.9C167.077 307.9 166.114 299.166 166.114 292.036C166.114 284.906 167.077 274.416 167.077 274.416L113.734 278.343Z" fill="url(#paint40_linear)"/>
<path fill-rule="evenodd" clip-rule="evenodd" d="M25.5257 249.723C25.5257 249.723 18.5057 221.192 20.8457 213.643C23.1857 206.093 24.5151 201.591 29.3303 199.483C34.1455 197.374 37.7112 199.483 39.3224 199.483C40.9337 199.483 70.2235 210.317 77.0784 215.282C83.9333 220.248 106.761 232.552 106.761 232.552V261.1C106.761 261.1 85.0976 252.588 77.0784 251.156C69.0592 249.723 61.8188 246.669 61.8188 246.669L25.5257 249.723Z" fill="url(#paint41_linear)"/>
<path fill-rule="evenodd" clip-rule="evenodd" d="M103.05 254.083C103.05 254.083 100.297 252.883 98.0037 254.083C95.7102 255.283 93.9109 257.707 95.5239 261.166C97.137 264.625 98.4985 267.722 102.195 270.547C105.892 273.371 105.133 274.504 107.152 274.504C109.172 274.504 109.927 274.081 111.651 275.738C113.374 277.395 119.624 287.403 126.139 288.852C132.653 290.3 145.195 291.663 151.205 288.852C157.215 286.04 166.157 282.872 167.851 279.305C169.546 275.738 170.585 264.426 170.585 264.426C170.585 264.426 174.71 263.511 174.71 262.339C174.71 261.166 175.523 257.665 176.532 255.279C177.541 252.892 176.532 250.317 176.532 248.038C176.532 245.759 176.404 243.103 174.71 242.204C173.015 241.304 170.585 242.204 170.585 242.204L161.873 214.587L148.157 202.531L116.827 205.599L103.05 221.077L100.505 243.711L103.05 254.083Z" fill="url(#paint42_linear)"/>
<path fill-rule="evenodd" clip-rule="evenodd" d="M161.299 209.879L163.445 203.847C163.445 203.847 146.331 194.536 137.103 194.536C127.874 194.536 116.602 195.109 109.919 198.658C103.237 202.208 94.1943 214.864 94.1943 214.864H97.3621C97.3621 214.864 92.5888 219.651 91.5293 222.161C90.4698 224.672 89.509 226.81 89.509 226.81L92.523 225.465C92.523 225.465 91.5293 230.524 91.5293 231.935C91.5293 233.345 91.5293 234.512 91.5293 234.512L95.3847 231.935H98.5585C98.5585 231.935 102.999 221.926 107.144 218.395C111.288 214.864 124.645 209.111 130.874 209.111C137.103 209.111 149.061 206.644 152.86 209.111C156.659 211.578 158.412 214.524 158.412 214.524L161.299 209.879Z" fill="url(#paint43_linear)"/>
<path fill-rule="evenodd" clip-rule="evenodd" d="M94.854 226.087C94.854 226.087 94.854 238.357 94.854 243.981C94.854 249.604 97.2903 254.287 97.2903 254.287C97.2903 254.287 102.798 256.761 102.798 254.287C102.798 251.813 103.794 248.429 104.664 243.981C105.535 239.532 105.668 236.599 106.912 231.343C108.155 226.087 106.912 219.714 106.912 219.714V218.206L94.854 226.087Z" fill="url(#paint44_linear)"/>
<path fill-rule="evenodd" clip-rule="evenodd" d="M163.216 205.201V207.743C163.216 207.743 164.258 208.925 165.702 210.622C167.147 212.32 170.737 219.046 170.737 224.631C170.737 230.216 170.737 236.347 170.737 238.399C170.737 240.451 169.888 245.352 169.888 245.352C169.888 245.352 168.189 239.615 165.702 232.123C163.216 224.631 159.605 219.164 159.605 217.291C159.605 215.418 157.835 211.768 157.835 211.768L163.216 205.201Z" fill="url(#paint45_linear)"/>
<path fill-rule="evenodd" clip-rule="evenodd" d="M262.597 264.88C262.597 264.88 267.479 262.006 270.052 262.006C272.625 262.006 272.94 261.405 274.999 259.34C277.057 257.276 280.071 257.122 280.071 257.199C280.071 257.276 287.749 254.974 287.749 254.974L296.607 251.121C296.607 251.121 322.51 236.313 336.664 232.004C350.817 227.694 357.817 225.112 361.476 223.468C365.134 221.824 381.834 212.311 387.927 209.527C394.02 206.743 400.223 203.858 400.223 203.858C400.223 203.858 402.87 216.381 405.446 221.16C408.022 225.94 409.346 227.675 409.346 227.675C409.346 227.675 409.435 228.335 407.44 230.169C405.446 232.004 403.836 234.664 403.836 234.664C403.836 234.664 399.749 233.6 399.749 234.664C399.749 235.729 400.748 237.234 399.749 237.234C398.749 237.234 397.054 235.705 397.054 237.234C397.054 238.764 394.02 241.681 394.02 241.681H390.654C390.654 241.681 371.557 255.679 366.516 260.279C361.476 264.88 343.326 274.695 336.664 279.293C330.001 283.892 319.54 287.262 316.635 289.681C313.731 292.101 314.582 295.473 312.666 295.473C310.749 295.473 308.644 293.037 308.644 295.473C308.644 297.909 306.649 300.059 303.976 300.059C301.303 300.059 296.607 300.255 296.607 301.387C296.607 302.518 293.966 303.824 292.304 303.171C290.641 302.518 287.749 303.171 287.749 303.171L285.212 305.955L277.612 308.885L272.23 311.911L263.809 315.281L259.051 276.491L262.597 264.88Z" fill="url(#paint46_linear)"/>
<path fill-rule="evenodd" clip-rule="evenodd" d="M399.939 204.036C399.939 204.036 409.739 199.767 410.956 198.989C412.173 198.21 427.774 182.374 430.409 180.879C433.045 179.384 455.714 169.712 460.079 168.929C464.443 168.147 474.691 165.656 476.45 165.656C478.209 165.656 480.083 168.398 477.949 170.478C475.815 172.558 468.884 173.848 467.695 174.551C466.507 175.253 460.902 176.329 459.184 177.386C457.466 178.442 448.045 182.915 448.045 182.915C448.045 182.915 455.838 184.73 457.16 186.059C458.482 187.388 460.079 189.855 460.079 191.19C460.079 192.525 455.829 195.883 455.829 195.883C455.829 195.883 458.736 198.26 459.184 199.965C459.631 201.669 459.804 202.964 458.482 204.036C457.16 205.107 456.278 205.914 456.278 205.914C456.278 205.914 458.267 207.815 457.713 209.969C457.16 212.123 455.401 213.414 453.652 214.203C451.902 214.992 449.117 215.087 449.117 215.087C449.117 215.087 446.688 217.409 445.305 218.092C443.923 218.775 441.75 219.617 440.585 220.623C439.42 221.63 434.482 223.591 432.446 223.591C430.409 223.591 426.257 223.017 424.686 223.591C423.115 224.165 420.798 226.228 418.292 226.228C415.786 226.228 409.292 227.291 409.292 227.291C409.292 227.291 403.087 221.195 402.108 216.314C401.128 211.433 399.939 204.036 399.939 204.036Z" fill="url(#paint47_linear)"/>
<path fill-rule="evenodd" clip-rule="evenodd" d="M445.572 190.986C445.572 190.986 436.281 197.37 434.194 199.494C432.107 201.618 432.747 203.202 433.211 203.769C433.676 204.335 431.297 205.107 431.297 206.524C431.297 207.941 431.549 210.528 433.211 210.528C434.874 210.528 434.121 212.567 435.894 213.456C437.667 214.346 442.969 214.884 443.49 214.884C444.01 214.884 449.511 214.884 449.511 214.884C449.511 214.884 455.014 208.043 455.65 203.769C456.286 199.494 454.497 193.244 454.497 193.244L451.437 186.553L445.572 190.986Z" fill="url(#paint48_linear)"/>
<path fill-rule="evenodd" clip-rule="evenodd" d="M429.287 187.678C432.622 187.678 439.224 188.437 441.323 188.437C443.422 188.437 447.222 190.581 449.101 190.581C450.98 190.581 454.442 191.83 454.442 193.951C454.442 196.072 452.382 199.91 447.123 199.91C441.864 199.91 436.645 198.168 436.645 198.168C436.645 198.168 433.517 197.558 432.178 198.168C430.84 198.778 429.287 199.163 429.287 199.163C429.287 199.163 422.24 200.657 420.764 199.91C419.288 199.163 421.116 193.762 423.468 191.1C425.82 188.437 425.951 187.678 429.287 187.678Z" fill="url(#paint49_linear)"/>
<path fill-rule="evenodd" clip-rule="evenodd" d="M118.037 298.485C118.037 298.485 116.278 297.227 114.384 298.485C112.49 299.743 110.031 305.319 108.574 305.319C107.117 305.319 99.3114 298.485 96.6207 298.485C93.9301 298.485 90.7926 298.485 90.7926 298.485V300.356C90.7926 300.356 88.4047 294.337 86.9865 292.145C85.5684 289.954 84.1113 286.893 84.1113 286.893C84.1113 286.893 84.2352 274.005 79.8544 267.97C75.4736 261.935 69.3322 253.065 67.1782 248.862C65.0243 244.659 61.0611 235.873 61.0611 235.873C61.0611 235.873 35.8198 238.457 29.8629 243.659C23.9061 248.862 21.4948 254.811 21.4948 254.811C21.4948 254.811 24.2825 257.693 25.5663 259.733C26.8501 261.773 28.2351 264.852 28.2351 264.852C28.2351 264.852 28.2351 269.238 28.2351 272.166C28.2351 275.095 32.5414 281.203 34.1733 284.719C35.8052 288.236 39.6817 299.92 41.1161 303.878C42.5504 307.837 45.0516 317.593 46.4391 321.168C47.8265 324.742 51.6706 339.083 54.0949 343.085C56.5193 347.087 59.4706 348.73 59.4706 352.29C59.4706 355.85 58.7372 361.918 61.0611 364.689C63.3851 367.46 65.0186 370.673 65.0186 370.673C65.0186 370.673 64.5904 386.698 67.1782 392.728C69.7661 398.758 71.3008 414.273 71.3008 414.273V428.815H240.288C240.288 428.815 235.448 410.207 232.796 402.024C230.144 393.84 226.388 377.759 226.388 377.759V358.046C226.388 358.046 235.093 346.328 236.149 340.156C236.518 338.002 260.359 327.212 273.074 319.123C272.858 317.681 274.292 311.96 273.074 311.052C271.409 311.779 269.26 313.014 267.56 313.253C263.363 297.551 261.697 279.788 262.855 264.852C263.009 262.875 201.052 296.203 201.052 296.203C201.052 296.203 199.017 300.356 196.873 300.356C194.729 300.356 194.829 302.68 194.829 302.68C194.829 302.68 192.439 301.336 191.162 302.008C189.886 302.68 189.101 302.68 189.101 302.68C189.101 302.68 188.044 301.079 185.948 301.079C183.852 301.079 181.668 302.008 181.668 302.008C181.668 302.008 178.42 301.336 175.207 302.008C171.993 302.68 166.688 305.319 166.688 305.319C166.688 305.319 164.5 308.03 158.796 309.448C153.092 310.866 144.049 311.315 135.237 307.597C126.425 303.878 118.037 298.485 118.037 298.485Z" fill="url(#paint50_linear)"/>
<path fill-rule="evenodd" clip-rule="evenodd" d="M131.31 270.203C131.31 270.203 144.976 267.559 149.303 266.319C153.63 265.079 156.753 263.543 156.753 263.543C156.753 263.543 154.575 267.786 149.303 270.203C144.031 272.62 131.31 270.203 131.31 270.203Z" fill="#141731"/>
<path fill-rule="evenodd" clip-rule="evenodd" d="M177.217 456.318C176.203 455.989 176.339 454.513 177.396 454.376L252.564 444.586C252.702 444.569 252.842 444.579 252.975 444.619L305.633 460.057C306.652 460.356 306.564 461.828 305.516 462.003L234.494 473.862C233.068 474.1 231.606 473.991 230.231 473.544L177.217 456.318Z" fill="url(#paint51_linear)"/>
<path fill-rule="evenodd" clip-rule="evenodd" d="M254.164 370.585C251.874 370.745 249.986 372.444 249.588 374.706L232.455 471.956C232.226 473.257 233.298 474.418 234.612 474.294L359.788 462.508C360.652 462.426 361.364 461.798 361.553 460.951L382.828 365.484C383.264 363.526 381.692 361.699 379.691 361.839L254.164 370.585Z" fill="url(#paint52_linear)"/>
<path fill-rule="evenodd" clip-rule="evenodd" d="M413.479 438.942C407.37 438.942 400.267 442.619 397.586 449.089C394.906 455.559 404.004 460.236 413.479 460.236C422.955 460.236 430.406 455.083 430.406 449.589C430.406 444.095 419.589 438.942 413.479 438.942Z" fill="url(#paint53_linear)"/>
<path d="M413.269 459.516C413.269 459.516 417.07 469.134 430.717 473.974C444.364 478.815 445.599 473.731 495.675 477.833C545.752 481.936 592.723 490.071 617.145 487.328C641.566 484.586 626.734 466.45 617.145 464.418C607.555 462.387 591.773 464.418 591.773 464.418" stroke="#151937"/>
<path d="M87 424.559H80.5C76.9101 424.559 74 427.469 74 431.059V436.059C74 439.649 76.9101 442.559 80.5 442.559H87V424.559Z" stroke="#1D2555" stroke-width="4"/>
<rect x="86" y="418.559" width="35" height="40" rx="2" fill="url(#paint54_linear)"/>
<path opacity="0.347768" fill-rule="evenodd" clip-rule="evenodd" d="M101.739 413.169C104.171 405.082 101.545 401.248 94.7156 395.656C87.8857 390.064 84.5454 383.717 92.5435 378.406C100.542 373.094 97.3664 365.903 94.7156 359.312C92.0647 352.721 115.545 354.119 118.778 361.096C122.01 368.073 124.802 374.509 113.271 378.406C101.739 382.303 90.693 381.47 95.8864 386.717C101.08 391.964 121.198 398.441 114.417 403.44C107.636 408.44 99.3075 421.256 101.739 413.169Z" fill="#B5BCFF"/>
<defs>
<linearGradient id="paint0_linear" x1="927.37" y1="422.445" x2="994.584" y2="385.308" gradientUnits="userSpaceOnUse">
<stop stop-color="#283581"/>
<stop offset="1" stop-color="#131730"/>
</linearGradient>
<linearGradient id="paint1_linear" x1="949.546" y1="13.0611" x2="771.819" y2="102.089" gradientUnits="userSpaceOnUse">
<stop stop-color="#ACB0FF"/>
<stop offset="1" stop-color="#DCEBFF"/>
</linearGradient>
<linearGradient id="paint2_linear" x1="927.185" y1="81.0419" x2="902.622" y2="127.405" gradientUnits="userSpaceOnUse">
<stop stop-color="#ACB0FF"/>
<stop offset="1" stop-color="#DCEBFF"/>
</linearGradient>
<linearGradient id="paint3_linear" x1="939.806" y1="4.15801" x2="864.573" y2="75.7145" gradientUnits="userSpaceOnUse">
<stop stop-color="#ACB0FF"/>
<stop offset="1" stop-color="#DCEBFF"/>
</linearGradient>
<linearGradient id="paint4_linear" x1="874.488" y1="-3.88668" x2="870.24" y2="57.0856" gradientUnits="userSpaceOnUse">
<stop stop-color="#4C55FF"/>
<stop offset="1" stop-color="#1B7CFF"/>
</linearGradient>
<linearGradient id="paint5_linear" x1="952.275" y1="89.4416" x2="890.093" y2="295.901" gradientUnits="userSpaceOnUse">
<stop stop-color="#4C55FF"/>
<stop offset="1" stop-color="#1B7CFF"/>
</linearGradient>
<linearGradient id="paint6_linear" x1="967.802" y1="91.0973" x2="962.555" y2="125.498" gradientUnits="userSpaceOnUse">
<stop stop-color="#4C55FF"/>
<stop offset="1" stop-color="#1B7CFF"/>
</linearGradient>
<linearGradient id="paint7_linear" x1="849.293" y1="124.159" x2="786.534" y2="297.716" gradientUnits="userSpaceOnUse">
<stop stop-color="#4C55FF"/>
<stop offset="1" stop-color="#1B7CFF"/>
</linearGradient>
<linearGradient id="paint8_linear" x1="834.385" y1="105.725" x2="814.031" y2="232.556" gradientUnits="userSpaceOnUse">
<stop stop-color="#4C55FF"/>
<stop offset="1" stop-color="#1B7CFF"/>
</linearGradient>
<linearGradient id="paint9_linear" x1="908.511" y1="106.167" x2="904.915" y2="132.02" gradientUnits="userSpaceOnUse">
<stop stop-color="#4C55FF"/>
<stop offset="1" stop-color="#1B7CFF"/>
</linearGradient>
<linearGradient id="paint10_linear" x1="911.716" y1="209.349" x2="886.375" y2="282.213" gradientUnits="userSpaceOnUse">
<stop stop-color="#ACB0FF"/>
<stop offset="1" stop-color="#DCEBFF"/>
</linearGradient>
<linearGradient id="paint11_linear" x1="934.245" y1="121.559" x2="920.012" y2="237.562" gradientUnits="userSpaceOnUse">
<stop stop-color="#4C55FF"/>
<stop offset="1" stop-color="#1B7CFF"/>
</linearGradient>
<linearGradient id="paint12_linear" x1="876.213" y1="286.927" x2="889.86" y2="271.922" gradientUnits="userSpaceOnUse">
<stop stop-color="#283581"/>
<stop offset="1" stop-color="#131730"/>
</linearGradient>
<linearGradient id="paint13_linear" x1="808.229" y1="278.849" x2="860.104" y2="256.198" gradientUnits="userSpaceOnUse">
<stop stop-color="#283581"/>
<stop offset="1" stop-color="#131730"/>
</linearGradient>
<linearGradient id="paint14_linear" x1="834.731" y1="254.107" x2="818.925" y2="305.106" gradientUnits="userSpaceOnUse">
<stop stop-color="#ACB0FF"/>
<stop offset="1" stop-color="#DCEBFF"/>
</linearGradient>
<linearGradient id="paint15_linear" x1="639.866" y1="183.11" x2="652.635" y2="325.568" gradientUnits="userSpaceOnUse">
<stop stop-color="#4C55FF"/>
<stop offset="1" stop-color="#1B7CFF"/>
</linearGradient>
<linearGradient id="paint16_linear" x1="539.079" y1="419.332" x2="468.104" y2="390.954" gradientUnits="userSpaceOnUse">
<stop stop-color="#283581"/>
<stop offset="1" stop-color="#131730"/>
</linearGradient>
<linearGradient id="paint17_linear" x1="444.552" y1="417.155" x2="427.647" y2="415.463" gradientUnits="userSpaceOnUse">
<stop stop-color="#283581"/>
<stop offset="1" stop-color="#131730"/>
</linearGradient>
<linearGradient id="paint18_linear" x1="535.62" y1="262.601" x2="563.942" y2="303.935" gradientUnits="userSpaceOnUse">
<stop stop-color="#ACB0FF"/>
<stop offset="1" stop-color="#DCEBFF"/>
</linearGradient>
<linearGradient id="paint19_linear" x1="543.581" y1="240.345" x2="558.456" y2="245.463" gradientUnits="userSpaceOnUse">
<stop stop-color="#ACB0FF"/>
<stop offset="1" stop-color="#DCEBFF"/>
</linearGradient>
<linearGradient id="paint20_linear" x1="504.946" y1="188.535" x2="586.323" y2="223.376" gradientUnits="userSpaceOnUse">
<stop stop-color="#ACB0FF"/>
<stop offset="1" stop-color="#DCEBFF"/>
</linearGradient>
<linearGradient id="paint21_linear" x1="442.259" y1="406.706" x2="449.807" y2="428.891" gradientUnits="userSpaceOnUse">
<stop stop-color="#ACB0FF"/>
<stop offset="1" stop-color="#DCEBFF"/>
</linearGradient>
<linearGradient id="paint22_linear" x1="416.658" y1="393.79" x2="421.663" y2="402.801" gradientUnits="userSpaceOnUse">
<stop stop-color="#ACB0FF"/>
<stop offset="1" stop-color="#DCEBFF"/>
</linearGradient>
<linearGradient id="paint23_linear" x1="425.954" y1="396.096" x2="442.231" y2="420.865" gradientUnits="userSpaceOnUse">
<stop stop-color="#ACB0FF"/>
<stop offset="1" stop-color="#DCEBFF"/>
</linearGradient>
<linearGradient id="paint24_linear" x1="413.27" y1="401.128" x2="423.853" y2="384.905" gradientUnits="userSpaceOnUse">
<stop stop-color="#ACB0FF"/>
<stop offset="1" stop-color="#DCEBFF"/>
</linearGradient>
<linearGradient id="paint25_linear" x1="419.438" y1="403.174" x2="433.32" y2="386.626" gradientUnits="userSpaceOnUse">
<stop stop-color="#ACB0FF"/>
<stop offset="1" stop-color="#DCEBFF"/>
</linearGradient>
<linearGradient id="paint26_linear" x1="422.255" y1="408.863" x2="435.1" y2="395.19" gradientUnits="userSpaceOnUse">
<stop stop-color="#ACB0FF"/>
<stop offset="1" stop-color="#DCEBFF"/>
</linearGradient>
<linearGradient id="paint27_linear" x1="604.583" y1="265.806" x2="666.861" y2="299.892" gradientUnits="userSpaceOnUse">
<stop stop-color="#ACB0FF"/>
<stop offset="1" stop-color="#DCEBFF"/>
</linearGradient>
<linearGradient id="paint28_linear" x1="503.471" y1="478.461" x2="507.691" y2="446.698" gradientUnits="userSpaceOnUse">
<stop stop-color="#ACB0FF"/>
<stop offset="1" stop-color="#DCEBFF"/>
</linearGradient>
<linearGradient id="paint29_linear" x1="462.41" y1="374.954" x2="426.781" y2="460.204" gradientUnits="userSpaceOnUse">
<stop stop-color="#ACB0FF"/>
<stop offset="1" stop-color="#DCEBFF"/>
</linearGradient>
<linearGradient id="paint30_linear" x1="709.776" y1="414.925" x2="774.755" y2="386.815" gradientUnits="userSpaceOnUse">
<stop stop-color="#283581"/>
<stop offset="1" stop-color="#131730"/>
</linearGradient>
<linearGradient id="paint31_linear" x1="756.493" y1="415.418" x2="774.377" y2="395.506" gradientUnits="userSpaceOnUse">
<stop stop-color="#283581"/>
<stop offset="1" stop-color="#131730"/>
</linearGradient>
<linearGradient id="paint32_linear" x1="610.831" y1="132.445" x2="595.472" y2="289.073" gradientUnits="userSpaceOnUse">
<stop stop-color="#4C55FF"/>
<stop offset="1" stop-color="#1B7CFF"/>
</linearGradient>
<linearGradient id="paint33_linear" x1="600.416" y1="155.465" x2="555.764" y2="307.798" gradientUnits="userSpaceOnUse">
<stop stop-color="#4C55FF"/>
<stop offset="1" stop-color="#1B7CFF"/>
</linearGradient>
<linearGradient id="paint34_linear" x1="696.603" y1="136.811" x2="640.856" y2="205.381" gradientUnits="userSpaceOnUse">
<stop stop-color="#ACB0FF"/>
<stop offset="1" stop-color="#DCEBFF"/>
</linearGradient>
<linearGradient id="paint35_linear" x1="621.51" y1="104.724" x2="616.979" y2="169.807" gradientUnits="userSpaceOnUse">
<stop stop-color="#4C55FF"/>
<stop offset="1" stop-color="#1B7CFF"/>
</linearGradient>
<linearGradient id="paint36_linear" x1="730.633" y1="136.741" x2="669.32" y2="325.953" gradientUnits="userSpaceOnUse">
<stop stop-color="#4C55FF"/>
<stop offset="1" stop-color="#1B7CFF"/>
</linearGradient>
<linearGradient id="paint37_linear" x1="740.685" y1="393.18" x2="709.917" y2="448.021" gradientUnits="userSpaceOnUse">
<stop stop-color="#ACB0FF"/>
<stop offset="1" stop-color="#DCEBFF"/>
</linearGradient>
<linearGradient id="paint38_linear" x1="654.977" y1="332.914" x2="612.584" y2="357.139" gradientUnits="userSpaceOnUse">
<stop stop-color="#ACB0FF"/>
<stop offset="1" stop-color="#DCEBFF"/>
</linearGradient>
<linearGradient id="paint39_linear" x1="666.776" y1="348.077" x2="641.097" y2="362.213" gradientUnits="userSpaceOnUse">
<stop stop-color="#ACB0FF"/>
<stop offset="1" stop-color="#DCEBFF"/>
</linearGradient>
<linearGradient id="paint40_linear" x1="138.555" y1="260.696" x2="107.009" y2="305.921" gradientUnits="userSpaceOnUse">
<stop stop-color="#ACB0FF"/>
<stop offset="1" stop-color="#DCEBFF"/>
</linearGradient>
<linearGradient id="paint41_linear" x1="50.2824" y1="254.075" x2="87.4599" y2="234.325" gradientUnits="userSpaceOnUse">
<stop stop-color="#283581"/>
<stop offset="1" stop-color="#131730"/>
</linearGradient>
<linearGradient id="paint42_linear" x1="133.096" y1="170.099" x2="53.8244" y2="244.068" gradientUnits="userSpaceOnUse">
<stop stop-color="#ACB0FF"/>
<stop offset="1" stop-color="#DCEBFF"/>
</linearGradient>
<linearGradient id="paint43_linear" x1="68.2169" y1="192.531" x2="66.9601" y2="224.082" gradientUnits="userSpaceOnUse">
<stop stop-color="#4C55FF"/>
<stop offset="1" stop-color="#1B7CFF"/>
</linearGradient>
<linearGradient id="paint44_linear" x1="91.2027" y1="216.335" x2="85.093" y2="244.509" gradientUnits="userSpaceOnUse">
<stop stop-color="#4C55FF"/>
<stop offset="1" stop-color="#1B7CFF"/>
</linearGradient>
<linearGradient id="paint45_linear" x1="154.12" y1="203.188" x2="147.206" y2="233.341" gradientUnits="userSpaceOnUse">
<stop stop-color="#4C55FF"/>
<stop offset="1" stop-color="#1B7CFF"/>
</linearGradient>
<linearGradient id="paint46_linear" x1="311.215" y1="302.767" x2="376.509" y2="268.932" gradientUnits="userSpaceOnUse">
<stop stop-color="#283581"/>
<stop offset="1" stop-color="#131730"/>
</linearGradient>
<linearGradient id="paint47_linear" x1="436.681" y1="142.93" x2="382.666" y2="212.131" gradientUnits="userSpaceOnUse">
<stop stop-color="#ACB0FF"/>
<stop offset="1" stop-color="#DCEBFF"/>
</linearGradient>
<linearGradient id="paint48_linear" x1="443.951" y1="186.881" x2="422.674" y2="200.342" gradientUnits="userSpaceOnUse">
<stop stop-color="#B9C0FF"/>
<stop offset="1" stop-color="#DCEBFF"/>
</linearGradient>
<linearGradient id="paint49_linear" x1="436.151" y1="183.076" x2="428.89" y2="202.977" gradientUnits="userSpaceOnUse">
<stop stop-color="#ACB0FF"/>
<stop offset="1" stop-color="#CBD7FF"/>
</linearGradient>
<linearGradient id="paint50_linear" x1="-51.0977" y1="226.198" x2="-59.6715" y2="378.234" gradientUnits="userSpaceOnUse">
<stop stop-color="#4C55FF"/>
<stop offset="1" stop-color="#1B7CFF"/>
</linearGradient>
<linearGradient id="paint51_linear" x1="185.541" y1="445.423" x2="181.69" y2="474.718" gradientUnits="userSpaceOnUse">
<stop stop-color="#ACB0FF"/>
<stop offset="1" stop-color="#DCEBFF"/>
</linearGradient>
<linearGradient id="paint52_linear" x1="245.905" y1="364.848" x2="203.336" y2="459.129" gradientUnits="userSpaceOnUse">
<stop stop-color="#ACB0FF"/>
<stop offset="1" stop-color="#DCEBFF"/>
</linearGradient>
<linearGradient id="paint53_linear" x1="408.666" y1="457.844" x2="422.15" y2="449.745" gradientUnits="userSpaceOnUse">
<stop stop-color="#283581"/>
<stop offset="1" stop-color="#131730"/>
</linearGradient>
<linearGradient id="paint54_linear" x1="98.1475" y1="454.067" x2="115.477" y2="448.241" gradientUnits="userSpaceOnUse">
<stop stop-color="#283581"/>
<stop offset="1" stop-color="#131730"/>
</linearGradient>
</defs>
</svg>
