<svg width="1050" height="504" viewBox="0 0 1050 504" fill="none" xmlns="http://www.w3.org/2000/svg">
<path fill-rule="evenodd" clip-rule="evenodd" d="M872.116 341.643C872.116 341.643 879.717 388.819 879.717 395.701C879.717 402.584 881.764 402.1 881.764 404.004C881.764 405.908 882.515 414.878 882.515 416.248C882.515 417.617 884.14 430.484 884.14 430.484L947.717 432.78C947.717 432.78 950.441 419.074 950.441 415.172C950.441 411.271 950.441 407.826 950.441 407.826L955.88 410.247C955.88 410.247 956.062 417.162 955.041 419.951C954.019 422.74 954.027 430.484 954.027 430.484V435.317H1027.66L1031.32 428.946C1031.32 428.946 1031.32 426.178 1031.32 423.628C1031.32 421.077 1028.65 422.389 1028.65 417.86C1028.65 413.33 1028.65 399.122 1028.65 395.701C1028.65 392.28 1028.65 383.624 1028.65 383.624V370.281L1003.9 324.624L894.54 336.408L872.116 341.643Z" fill="url(#paint0_linear)"/>
<path fill-rule="evenodd" clip-rule="evenodd" d="M908.711 129.254L897.431 285.375L892.291 345C892.291 345 927.169 352.072 946.342 348.536C965.515 345 1007.75 338.348 1007.75 338.348L1015.34 166.355L999.422 118.65L980.903 104.075L908.711 129.254Z" fill="url(#paint1_linear)"/>
<path fill-rule="evenodd" clip-rule="evenodd" d="M972.819 86.2649C972.819 86.2649 972.908 94.6969 975.141 98.2527C977.374 101.808 980.867 104.657 980.867 104.657C980.867 104.657 970.962 131.775 958.654 136.904C946.346 142.033 935.358 138.504 931.563 133.501C927.768 128.498 922.299 116.742 922.299 116.742L926.932 107.824L972.819 86.2649Z" fill="url(#paint2_linear)"/>
<path fill-rule="evenodd" clip-rule="evenodd" d="M902.904 43.7786C902.904 43.7786 904.695 64.904 905.637 73.3496C906.579 81.7953 912.277 90.4441 919.4 101.591C926.523 112.739 933.238 118.549 933.238 118.549C933.238 118.549 950.552 119.549 955.412 114.816C960.272 110.084 964.913 102.925 967.853 98.4941C970.792 94.063 972.837 87.4151 972.837 84.5641C972.837 81.7131 972.837 76.1997 972.837 76.1997C972.837 76.1997 977.959 73.5654 979.796 68.7345C981.634 63.9035 982.952 57.37 981.745 54.4545C980.537 51.5391 977.373 49.8235 977.373 49.8235L955.412 35.3432L902.904 43.7786Z" fill="url(#paint3_linear)"/>
<path fill-rule="evenodd" clip-rule="evenodd" d="M975.693 21.5372C975.693 16.5827 973.521 14.351 968.898 8.50277C964.275 2.65451 959.919 4.48973 956.808 3.01822C953.697 1.54672 952.771 0.889043 952.771 0.889043L954.272 3.01822C954.272 3.01822 949.774 2.22732 948.136 1.55818C946.499 0.889043 939.067 -0.580651 933.987 1.55818C928.906 3.69702 925.532 8.50277 920.098 8.50277C914.664 8.50277 907.217 15.8805 902.248 15.8805C905.017 18.1388 908.896 18.8253 908.896 18.8253C908.896 18.8253 905.963 20.0866 904.849 21.5372C903.734 22.9879 898.663 28.6144 898.663 31.5261C898.663 34.4377 897.373 38.7794 898.663 41.2648C899.952 43.7502 905.544 48.0104 909.825 48.0104C914.105 48.0104 920.098 45.1315 920.098 45.1315C920.098 45.1315 928.388 48.0104 932.048 48.0104C935.709 48.0104 940.168 48.6555 945.336 46.4284C950.503 44.2014 954.272 38.5434 954.272 38.5434C954.272 38.5434 955.322 43.8854 957.529 46.4284C959.737 48.9715 961.639 51.0892 961.639 51.0892C961.639 51.0892 958.588 48.6047 958.588 51.0892C958.588 53.5737 962.157 58.1517 963.299 61.1026C964.442 64.0534 965.3 68.7693 965.3 70.7457C965.3 72.7221 968.898 77.9469 968.898 77.9469C968.898 77.9469 967.509 58.8252 968.898 56.05C970.287 53.2749 973.521 51.0892 973.521 51.0892L977.445 49.8194C977.445 49.8194 980.045 38.9036 980.045 35.622C980.045 32.3405 979.072 21.5372 975.693 21.5372Z" fill="url(#paint4_linear)"/>
<path fill-rule="evenodd" clip-rule="evenodd" d="M979.282 128.548V138.354L984.313 140.544C984.313 140.544 981.684 147.886 978.437 156.714C975.189 165.542 971.478 186.54 972.523 199.087C973.568 211.634 977.46 264.426 977.46 270.758C977.46 277.09 982.984 325.984 984.313 336.475C985.641 346.966 988.355 357.671 990.239 365.046C992.124 372.421 997.989 389.037 997.989 389.037C997.989 389.037 1005.65 382.967 1010.81 379.901C1015.97 376.836 1024.33 373.344 1027.05 372.396C1029.76 371.448 1035.43 370.312 1037.14 368.912C1038.85 367.513 1042.03 365.046 1042.03 365.046C1042.03 365.046 1042.03 357.286 1042.03 354.098C1042.03 350.91 1039.77 343.128 1038.46 336.475C1037.14 329.822 1020.37 267.478 1019.49 260.992C1018.61 254.505 1035.87 137.079 1035.87 137.079L1038.46 129.385C1038.46 129.385 1034.08 126.631 1030.95 126.631C1027.82 126.631 1025.41 123.712 1023.6 122.766C1021.78 121.82 1013.11 118.249 1010.81 116.993C1008.51 115.736 1005.36 116.083 1002.26 113.69C999.168 111.298 994.279 109.455 994.279 109.455L982.14 104.168L979.282 128.548Z" fill="url(#paint5_linear)"/>
<path fill-rule="evenodd" clip-rule="evenodd" d="M973.996 93.8136C973.996 93.8136 978.31 93.4718 980.976 95.8815C983.642 98.2913 993.499 109.03 993.499 109.03C993.499 109.03 996.507 112.056 995.003 118.493C993.499 124.931 993.499 138.301 993.499 138.301C993.499 138.301 984.798 133.548 982.887 131.659C980.976 129.77 979.993 128.405 979.993 128.405V134.661C979.993 134.661 978.763 129.383 978.763 126.261C978.763 123.139 981.959 106.456 980.976 104.585C979.993 102.714 975.85 101.089 974.923 98.4851C973.996 95.8815 973.996 93.8136 973.996 93.8136Z" fill="url(#paint6_linear)"/>
<path fill-rule="evenodd" clip-rule="evenodd" d="M884.133 155.364C884.133 155.364 880.21 213.247 881.518 222.71C882.826 232.172 881.179 289.347 877.589 299.865C873.999 310.383 863.86 355.909 863.86 355.909C863.86 355.909 865.102 362.827 868.536 367.277C871.97 371.726 877.589 377.397 877.589 377.397L875.24 380.093C875.24 380.093 883.549 382.489 886.124 383.512C888.7 384.535 894.492 385.313 894.492 385.313C894.492 385.313 894.68 369.145 898.491 354.472C902.302 339.799 910.38 297.93 912.41 279.651C914.44 261.372 914.447 230.143 914.444 219.781C914.44 209.419 912.41 164.455 912.41 164.455L907.576 137.049L884.133 155.364Z" fill="url(#paint7_linear)"/>
<path fill-rule="evenodd" clip-rule="evenodd" d="M915.805 114.418C915.805 114.418 902.883 122.731 899.158 124.973C895.434 127.215 885.235 132.787 881.584 135.739C877.934 138.692 869.977 147.287 868.01 154.138C866.044 160.988 859.466 178.41 859.466 190.62C859.466 202.83 865.153 215.763 865.153 217.979C865.153 220.195 856.144 239.951 856.144 239.951V272.354L885.975 278.996C885.975 278.996 893.972 269.735 893.972 264.621C893.972 259.507 893.972 244.659 893.972 239.951C893.972 235.243 892.946 222.438 890.431 214.419C887.916 206.4 883.265 193.886 883.265 180.949C883.265 168.012 885.975 157.57 885.975 157.57C885.975 157.57 883.409 178.79 885.975 190.62C888.541 202.45 897.668 214.419 897.668 214.419C897.668 214.419 896.177 190.452 897.668 176.6C899.158 162.748 906.664 144.632 906.664 144.632C906.664 144.632 901.341 162.4 901.341 167.131C901.341 171.863 904.991 180.949 904.991 180.949L913.476 209.196C913.476 209.196 913.593 169.877 914.699 164.611C915.805 159.345 919.369 154.721 921.791 151.052C924.213 147.383 926.209 146.335 926.209 146.335L927.287 143.554C927.287 143.554 930.698 141.661 930.698 139.588C930.698 137.515 931.702 133.55 931.702 133.55L915.805 114.418Z" fill="url(#paint8_linear)"/>
<path fill-rule="evenodd" clip-rule="evenodd" d="M924.495 108.279C924.495 108.279 915.389 113.294 915.389 115.394C915.389 117.495 913.596 130.328 913.596 133.819C913.596 137.31 913.596 141.617 913.596 141.617C913.596 141.617 915.062 138.881 919.046 138.881C923.03 138.881 921.582 139.099 924.495 137.126C927.409 135.153 929.187 133.819 929.187 133.819H931.256C931.256 133.819 927.966 120.445 927.966 116.678C927.966 112.912 924.495 108.279 924.495 108.279Z" fill="url(#paint9_linear)"/>
<path fill-rule="evenodd" clip-rule="evenodd" d="M851.236 249.316C851.236 249.316 861.682 237.71 864.725 235.034C867.768 232.357 872.157 230.746 874.269 230.746C876.382 230.746 884.383 230.126 887.834 228.838C891.285 227.55 902.751 226.458 906.351 226.458C909.952 226.458 927.458 227.932 933.144 228.838C938.83 229.744 959.391 230.746 959.391 230.746L967.028 229.759L981.214 268.857C981.214 268.857 965.759 267.813 959.391 265.99C953.023 264.168 914.108 249.316 914.108 249.316C914.108 249.316 904.48 254.22 900.853 254.22C897.225 254.22 896.269 254.22 896.269 254.22C896.269 254.22 891.667 262.033 887.834 265.99C884.001 269.948 881.143 272.379 879.228 271.473C877.313 270.568 877.159 268.23 877.236 267.11C877.313 265.99 880.644 263.061 882.322 260.844C884 258.627 885.152 255.954 886.493 254.22C887.834 252.486 889.175 251.993 887.834 251.097C886.493 250.201 884.84 248.43 883.982 249.316C883.125 250.201 870.021 265.99 870.021 265.99H863.372L867.655 255.17L871.891 249.316L860.763 256.806L851.236 249.316Z" fill="url(#paint10_linear)"/>
<path fill-rule="evenodd" clip-rule="evenodd" d="M1038.92 129.469C1038.92 129.469 1049.43 142.266 1049.43 153.967C1049.43 165.667 1049.95 194.782 1046.19 209.169C1042.43 223.557 1041.35 224.002 1040.56 227.549C1039.78 231.096 1042.21 240.485 1040.56 244.073C1038.92 247.661 1029.1 259.172 1027.93 262.086C1026.76 264.999 1021.5 272.282 1018.97 273.494C1016.43 274.706 1011.65 277.765 1004.63 277.765C997.612 277.765 990.835 276.444 987.493 276.444C984.152 276.444 979.356 277.765 979.356 277.765C979.356 277.765 977.22 279.087 974.789 277.765C972.358 276.444 965.202 274.716 963.861 271.656C962.52 268.597 960.816 266.097 960.816 266.097C960.816 266.097 966.39 267.627 968.974 267.627C971.559 267.627 974.789 267.627 974.789 267.627C974.789 267.627 971.565 252.126 968.974 245.244C966.383 238.361 965.868 231.781 963.861 230.98C961.853 230.179 960.004 230.072 960.004 230.072C960.004 230.072 967.419 228.854 968.974 228.854C970.529 228.854 976.641 228.854 976.641 228.854C976.641 228.854 980.897 227.549 982.325 227.549C983.752 227.549 986.162 227.549 986.162 227.549C986.162 227.549 991.27 224.679 993.55 223.838C995.83 222.997 996.874 222.51 996.874 222.51C996.874 222.51 1000.27 212.648 1001.88 209.169C1003.49 205.691 1003.33 197.46 1007.17 189.267C1011.02 181.074 1015.57 174.425 1017.27 170.545C1018.97 166.665 1024.51 152.276 1025.71 149.075C1026.91 145.873 1032.1 135.971 1034.03 134.249C1035.96 132.527 1038.92 129.469 1038.92 129.469Z" fill="url(#paint11_linear)"/>
<path fill-rule="evenodd" clip-rule="evenodd" d="M879.223 289.514L907.466 283.313C908.515 283.083 908.514 281.588 907.465 281.359L857.228 270.401L879.223 289.514Z" fill="url(#paint12_linear)"/>
<path fill-rule="evenodd" clip-rule="evenodd" d="M777.818 191.756L853.482 198.768C853.482 198.768 881.409 284.334 881.409 286.12C881.409 287.907 879.489 290.365 877.131 290.365C874.773 290.365 769.329 273.647 769.329 273.647L777.818 191.756Z" fill="url(#paint13_linear)"/>
<path fill-rule="evenodd" clip-rule="evenodd" d="M790.837 277.439C796.677 277.439 803.059 279.221 803.059 279.221L807.276 280.031C807.276 280.031 807.95 270.475 807.95 269.123C807.95 267.77 810.533 264.417 813.081 266.77C815.629 269.123 816.413 272.841 816.021 275.671C815.629 278.502 817.385 281.811 817.385 281.811L819.062 282.395C819.062 282.395 818.561 272.126 820.096 270.625C821.63 269.123 824.159 266.778 826.459 269.123C828.76 271.468 828.693 278.304 828.693 278.304V283.386L831.832 284.036C831.832 284.036 832.439 278.304 833.912 278.304C835.385 278.304 838.468 279.587 839.788 281.811C841.109 284.036 842.328 285.457 842.328 285.457L874.703 289.537C874.703 289.537 877.801 289.537 878.614 289.537C879.427 289.537 888.103 288.003 888.103 288.003C888.103 288.003 881.538 295.22 873.885 295.22C866.232 295.22 860.999 295.22 858.743 295.22C856.487 295.22 850.89 296.892 849.261 296.892C847.632 296.892 844.241 295.984 841.313 295.22C838.385 294.455 834.962 294.563 833.021 295.22C831.08 295.876 827.775 293.633 825.842 292.971C823.908 292.31 820.148 294.407 819.062 292.971C817.975 291.535 814.985 289.223 813.081 288.613C811.177 288.003 809.282 288.293 808.616 286.875C807.95 285.457 806.308 284.036 806.308 284.036C806.308 284.036 801.856 284.378 799.326 283.386C796.795 282.395 792.51 281.811 792.51 281.811C792.51 281.811 784.998 277.439 790.837 277.439Z" fill="url(#paint14_linear)"/>
<path fill-rule="evenodd" clip-rule="evenodd" d="M948.43 99.0491C942.116 106.2 931.236 103.013 931.236 103.013C931.236 103.013 943.61 101.892 948.43 99.0491Z" fill="#141731"/>
<rect y="429" width="1050" height="75" fill="#2C6FFF"/>
<path fill-rule="evenodd" clip-rule="evenodd" d="M623.389 438.317L618.406 465.172H715.435L718.529 438.317H623.389Z" fill="#CDD9FF"/>
<path fill-rule="evenodd" clip-rule="evenodd" d="M502.546 196.277C502.482 196.311 502.418 196.345 502.355 196.379C498.389 194.515 493.788 196.574 490.298 199.164C486.809 201.754 483.771 204.199 479.584 213.442C476.578 220.079 475.791 230.248 474.659 244.877C474.215 250.618 473.717 257.046 473.012 264.217C470.977 284.897 464.909 290.111 457.511 296.467C455.806 297.931 454.031 299.456 452.219 301.245C442.54 310.797 450.849 311.753 450.849 311.753C450.849 311.753 488.365 301.245 495.21 296.305C501.094 292.058 514.59 295.423 524.248 297.832C525.826 298.225 527.301 298.593 528.623 298.898C538.047 301.071 587.076 374.322 587.076 374.322C587.076 374.322 593.979 332.271 595.873 330.808C597.767 329.346 597.251 325.026 591.574 320.05C588.574 317.421 589.945 315.341 591.906 312.367C593.655 309.713 595.873 306.348 595.873 301.245C595.873 295.416 592.734 285.954 589.837 278.464C588.096 277.029 582.101 272.037 579.416 269.173C576.256 265.802 572.223 259.485 572.223 259.485C572.223 259.485 583.929 269.452 587.076 273.462C587.796 274.381 588.357 275.162 588.793 275.82C586.747 270.735 585.054 267.083 585.054 267.083C585.054 267.083 564.553 244.498 560.393 238.772C558.831 236.622 558.281 233.769 557.703 230.774C556.743 225.793 555.708 220.42 549.816 217.23C545.652 214.974 543.267 211.418 540.778 207.706C537.629 203.009 534.312 198.063 527.012 195.194C514.123 190.127 507.173 193.819 502.546 196.277Z" fill="url(#paint15_linear)"/>
<path fill-rule="evenodd" clip-rule="evenodd" d="M540.175 292.37C540.175 292.37 547.72 294.296 552.749 295.741C557.777 297.187 566.57 298.76 573.404 304.87C580.238 310.98 585.374 332.909 585.374 337.973C585.374 343.036 588.406 355.285 588.406 355.285L590.924 376.814C590.924 376.814 577.517 416.11 575.299 418.065C574.135 419.09 565.596 381.545 564.606 357.029C564.584 356.491 565.596 371.172 564.606 379.296C563.635 387.256 560.357 406.463 560.357 406.463H546.01L470.947 418.065L458.921 435.892C458.921 435.892 461.612 417.682 460.757 412.582C459.902 407.483 456.579 393.661 456.579 386.984C456.579 380.308 443.243 331.416 443.243 326.936C443.243 322.456 439.419 313.114 443.243 309.835C447.067 306.556 455.154 301.921 460.757 300.34C466.36 298.758 487.868 294.096 487.868 294.096L540.175 292.37Z" fill="url(#paint16_linear)"/>
<path fill-rule="evenodd" clip-rule="evenodd" d="M441.86 312C441.86 312 436.177 326.684 434.212 340.307C432.248 353.93 431.226 369.212 429.927 374.506C428.628 379.801 424.322 393.437 424.322 397.532C424.322 401.628 444.52 430.956 444.52 430.956H450.551C450.551 430.956 457.033 394.965 454.679 371.478C452.324 347.99 441.86 312 441.86 312Z" fill="url(#paint17_linear)"/>
<path fill-rule="evenodd" clip-rule="evenodd" d="M533.073 285.218C533.073 285.218 534.979 290.777 540.285 292.421C541.291 296.796 539.997 320.035 518.665 321.652C497.332 323.268 487.907 303.145 487.027 295.609C490.72 290.767 494.092 283.518 494.092 279.633C494.092 275.748 492.526 261.282 492.526 261.282L533.073 285.218Z" fill="url(#paint18_linear)"/>
<path fill-rule="evenodd" clip-rule="evenodd" d="M546.357 247.065C546.357 247.065 548.523 243.783 550.157 246.314C551.792 248.845 549.952 253.946 547.784 257.345C545.617 260.744 543.848 262.329 543.848 262.329L546.357 247.065Z" fill="url(#paint19_linear)"/>
<path fill-rule="evenodd" clip-rule="evenodd" d="M508.944 217.578C508.944 217.578 514.315 221.49 520.466 221.681C526.618 221.872 533.993 217.014 538.123 219.972C542.253 222.93 545.729 224.511 547.394 230.315C549.058 236.12 546.83 241.687 547.22 247.371C547.609 253.055 545.222 267.069 541.583 274.656C537.943 282.242 530.762 293.55 524.584 293.55C518.406 293.55 513.095 292.929 504.715 284.668C496.335 276.407 493.364 264.464 493.364 264.464C493.364 264.464 489.513 257.754 487.715 251.483C485.917 245.212 488.237 242.528 491.197 242.528C494.157 242.528 494.042 248.035 498.09 246.875C499.203 246.556 496.268 255.632 498.09 262.031C498.09 259.842 498.907 252.803 500.761 245.946C502.76 238.551 507.121 231.542 507.618 230.315C508.938 227.053 508.944 217.578 508.944 217.578Z" fill="url(#paint20_linear)"/>
<path fill-rule="evenodd" clip-rule="evenodd" d="M531.649 278.14C531.649 278.14 523.778 278.483 521.128 277.937C518.478 277.391 515.972 276.442 515.972 276.442C515.972 276.442 521.252 279.74 523.204 280.203C525.155 280.666 531.122 280.527 531.122 280.527L531.034 279.518L531.649 278.14Z" fill="#141731"/>
<path fill-rule="evenodd" clip-rule="evenodd" d="M441.793 415.521C439.269 411.29 432.887 406.429 428.443 406.429C423.999 406.429 411.41 406.429 411.41 406.429C411.41 406.429 402.379 416.321 402.379 421.782C402.379 427.243 409.459 427.193 411.95 429.285C414.44 431.377 433.381 431.051 437.158 431.051C440.936 431.051 446.283 431.051 446.283 431.051C446.283 431.051 444.317 419.752 441.793 415.521Z" fill="url(#paint21_linear)"/>
<path fill-rule="evenodd" clip-rule="evenodd" d="M417.498 397.83C416.011 396.206 414.433 394.605 412.812 394.605C411.191 394.605 409.174 392.993 407.881 394.605C406.588 396.218 405.022 397.332 405.022 398.776C405.022 400.221 405.022 401.795 405.022 401.795C405.022 401.795 406.934 403.625 407.408 404.365C407.881 405.105 408.551 405.626 408.551 405.626C408.551 405.626 412.855 402.483 413.981 401.12C415.106 399.758 418.984 399.454 417.498 397.83Z" fill="url(#paint22_linear)"/>
<path fill-rule="evenodd" clip-rule="evenodd" d="M404.947 401.039C404.947 401.039 401.046 403.847 399.919 405.173C398.792 406.499 396.37 408.136 396.37 410.652C396.37 413.169 397.448 415.876 398.361 416.429C399.273 416.983 400.564 417.145 399.919 417.916C399.273 418.687 400.084 421.953 400.658 422.703C401.233 423.454 403.093 423.248 403.745 423.867C404.396 424.487 403.989 426.439 404.947 427.582C405.905 428.725 406.427 429.528 407.778 429.528C409.128 429.528 410.83 429.528 410.83 429.528C410.83 429.528 412.846 430.813 414.686 430.813C416.525 430.813 422.562 427.891 424.036 426.089C425.51 424.287 428.939 418.098 428.939 415.926C428.939 413.753 427.68 408.313 427.68 408.313C427.68 408.313 428.404 404.303 428.042 403.272C427.68 402.241 426.71 402.552 426.71 402.552C426.71 402.552 427.318 399.013 427.68 397.967C428.042 396.921 426.854 395.509 425.844 395.509C424.834 395.509 423.236 396.864 422.407 397.967C421.577 399.07 420.409 401.039 420.409 401.039C420.409 401.039 420.309 398.683 418.93 398.325C417.55 397.967 415.12 399.526 413.553 401.039C411.985 402.552 408.49 405.173 408.49 405.173C408.49 405.173 407.745 403.352 407.1 402.552C406.456 401.751 404.947 401.039 404.947 401.039Z" fill="url(#paint23_linear)"/>
<path fill-rule="evenodd" clip-rule="evenodd" d="M420.752 400.905C420.752 400.905 416.627 406.765 415.502 407.906C414.376 409.046 412.401 410.485 410.878 412.183C409.355 413.881 408.364 415.041 407.567 415.449C406.77 415.856 402.572 416.543 402.572 416.543C402.572 416.543 405.882 417.112 408.38 416.004C410.878 414.896 412.127 412.863 414.278 410.841C416.429 408.82 417.733 406.677 418.979 404.868C420.225 403.059 420.752 400.905 420.752 400.905Z" fill="url(#paint24_linear)"/>
<path fill-rule="evenodd" clip-rule="evenodd" d="M426.531 402.806C426.531 402.806 424.164 407.022 422.258 409.378C420.352 411.734 418.416 414.83 417.412 415.832C416.407 416.833 414.728 417.569 413.817 418.053C412.907 418.538 410.505 419.478 409.965 420.608C409.425 421.738 409.296 422.105 409.296 422.105C409.296 422.105 410.081 421.42 411.949 420.22C413.817 419.019 416.289 417.999 417.914 416.473C419.538 414.946 421.719 411.616 422.883 410.056C424.046 408.495 426.531 402.806 426.531 402.806Z" fill="url(#paint25_linear)"/>
<path fill-rule="evenodd" clip-rule="evenodd" d="M427.808 408.565C427.808 408.565 426.819 412.367 426.15 413.638C425.481 414.909 422.381 418.872 421.936 420.253C421.492 421.634 419.901 423.634 418.942 424.245C417.982 424.855 414.734 425.55 413.987 426.185C416.28 426.128 419.872 424.245 419.872 424.245C419.872 424.245 422.716 421.554 423.287 420.253C423.858 418.952 424.974 416.115 425.832 415.096C426.691 414.077 427.295 413.119 427.551 412.39C427.808 411.66 428.038 408.995 428.038 408.995L427.808 408.565Z" fill="url(#paint26_linear)"/>
<path fill-rule="evenodd" clip-rule="evenodd" d="M599.307 406.193C605.151 396.838 609.06 365.102 609.06 354.855C609.06 344.609 603.748 308.033 602.818 300.189C601.889 292.345 600.981 287.743 600.522 284.421C600.064 281.099 597.84 278.983 596.299 275.766C594.759 272.55 591.245 267.83 590.236 266.978C589.228 266.126 581.284 261.962 580.372 261.962C581.866 263.857 584.26 266.978 584.26 266.978C584.26 266.978 574.714 265.192 573.997 265.192C573.279 265.192 569.414 265.192 568.326 265.192C567.238 265.192 562.931 265.298 562.931 266.138C562.931 266.978 565.692 269.539 567.723 269.539C569.753 269.539 573.082 269.539 573.082 269.539L575.789 270.176C575.789 270.176 568.93 271.397 568.326 271.397C567.723 271.397 564.293 274.26 562.931 274.984C561.569 275.708 560.218 276.328 560.218 277.025C560.218 277.722 562.047 279.619 564.117 278.993C566.187 278.368 568.484 275.766 569.38 275.766C570.276 275.766 574.839 275.766 575.789 275.766C576.739 275.766 577.537 276.157 577.537 276.157L582.662 280.814C582.662 280.814 579.285 279.804 577.537 279.804C575.789 279.804 571.037 280.556 569.38 281.479C567.723 282.401 563.841 284.644 563.386 285.259C562.931 285.875 562.429 286.218 562.429 286.218C562.429 286.218 563.921 288.404 567.272 287.311C570.623 286.218 570.452 285.648 571.978 285.648C573.503 285.648 575.607 284.871 576.786 285.259C577.966 285.648 581.764 287.324 582.662 287.743C583.56 288.162 583.342 291.044 583.342 291.044C583.342 291.044 582.662 298.756 584.639 300.888C588.986 304.781 589.629 313.64 590.236 316.88C590.844 320.12 592.045 329.965 591.069 339.8C590.092 349.635 586.794 355.078 584.26 363.569C581.725 372.061 575.789 395.384 575.789 395.384C575.789 395.384 593.463 415.549 599.307 406.193Z" fill="url(#paint27_linear)"/>
<path fill-rule="evenodd" clip-rule="evenodd" d="M450.548 440C448.746 440 447.35 441.578 447.571 443.366L450.792 469.541C450.977 471.045 452.255 472.175 453.77 472.175H588.136C589.651 472.175 590.928 471.046 591.114 469.542L594.34 443.367C594.561 441.578 593.165 440 591.363 440H450.548Z" fill="url(#paint28_linear)"/>
<path fill-rule="evenodd" clip-rule="evenodd" d="M452.216 372.493C450.536 372.493 449.183 373.872 449.216 375.552L451.059 469.234C451.091 470.867 452.424 472.175 454.058 472.175H587.877C589.499 472.175 590.828 470.886 590.876 469.264L593.664 375.582C593.714 373.891 592.357 372.493 590.665 372.493H452.216Z" fill="url(#paint29_linear)"/>
<path fill-rule="evenodd" clip-rule="evenodd" d="M521 429C524.866 429 528 425.866 528 422C528 418.134 524.866 415 521 415C517.134 415 514 418.134 514 422C514 425.866 517.134 429 521 429Z" fill="#A7ABFD"/>
<path fill-rule="evenodd" clip-rule="evenodd" d="M663.922 305.025C663.922 305.025 661.21 318.958 661.21 324.822C661.21 330.686 660.813 379.191 663.922 387.232C667.032 395.274 675.598 429.326 675.598 429.326H729.645V391.969C729.645 391.969 759.612 387.837 769.282 380.682C778.951 373.527 796.755 369.21 796.755 369.21L801.172 320.746L663.922 305.025Z" fill="url(#paint30_linear)"/>
<path fill-rule="evenodd" clip-rule="evenodd" d="M795.367 365.994V429.142H731.156L729.794 387.336L795.367 365.994Z" fill="url(#paint31_linear)"/>
<path fill-rule="evenodd" clip-rule="evenodd" d="M664.832 267.606C664.832 267.606 670.383 277.989 668.533 285.683C666.683 293.376 663.551 298.215 663.551 302.366C663.551 306.517 669.056 313.568 672.384 316.467C675.712 319.366 686.84 326.94 699.332 332.298C711.825 337.657 732.067 342.117 744.333 342.117C756.599 342.117 781.951 344.016 787.569 342.117C793.186 340.217 801.964 331.179 803.399 326.508C804.833 321.837 805.051 301.508 802.07 295.194C799.089 288.88 795.973 288.075 795.973 285.683C795.973 283.291 799.263 248.444 797.618 236.398C795.973 224.352 772.557 160.619 765.8 153.773C759.043 146.928 755.784 146.419 750.92 145.153C746.056 143.888 742.69 142.918 740.305 142.918C737.92 142.918 733.984 142.918 733.984 142.918C733.984 142.918 661.258 162.456 657.158 172.437C653.057 182.418 653.144 241.05 657.158 248.431C661.171 255.812 664.832 267.606 664.832 267.606Z" fill="url(#paint32_linear)"/>
<path fill-rule="evenodd" clip-rule="evenodd" d="M651.692 166.399C651.692 166.399 644.639 172.855 641.543 176.413C638.446 179.971 635.723 181.407 633.413 184.134C631.104 186.861 623.956 200.093 622.041 204.609C620.126 209.125 617.668 226.979 617.668 232.692C617.668 238.405 619.54 255.299 619.54 257.514C619.54 259.729 619.54 263.422 619.54 265.873C619.54 268.323 621.412 276.163 619.54 282.42C617.668 288.678 617.668 297.2 617.668 298.4C617.668 299.6 617.668 300.278 617.668 302.452C617.668 304.625 614.38 305.582 616.024 312.463C617.668 319.343 617.668 321.821 617.668 326.833C617.668 331.845 622.041 332.366 622.041 335.38C622.041 338.393 625.163 343.484 625.163 348.465C625.163 353.446 626.375 353.832 627.101 354.725C627.826 355.617 629.639 357.79 629.639 359.617C629.639 361.443 631.285 363.387 632.349 363.387C633.413 363.387 634.808 363.332 636.306 365.386C637.805 367.441 640.401 371.171 641.543 372.483C642.685 373.795 643.656 375.663 643.656 375.663C643.656 375.663 642.763 365.631 645.627 361.458C648.491 357.285 650.788 354.725 655.469 354.725C660.149 354.725 665.211 359.617 665.211 359.617L668.163 363.387C668.163 363.387 664.836 353.909 664.18 351.878C663.524 349.847 661.106 342.808 660.035 341.9C658.964 340.993 658.102 342.432 658.102 339.327C658.102 336.222 658.102 333.376 658.102 331.818C658.102 330.261 659.813 329.246 658.102 327.545C656.391 325.844 655.469 324.632 655.469 324.632C655.469 324.632 656.039 320.855 654.817 319.521C653.596 318.188 655.469 315.57 655.469 314.845C655.469 314.119 652.6 311.457 652.6 311.457C652.6 311.457 653.175 309.468 653.996 307.001C654.817 304.534 653.996 303.264 653.996 303.264C653.996 303.264 657.32 298.299 657.32 295.759C657.32 293.218 656.547 292.432 656.547 292.432C656.547 292.432 658.102 282.817 658.102 279.475C658.102 276.132 658.102 273.728 658.102 273.728C658.102 273.728 662.034 268.772 662.034 265.873C662.034 262.973 663.148 263.663 664.18 265.873C665.211 268.082 666.88 272.01 666.88 272.01C666.88 272.01 666.325 259.616 664.18 251.972C662.034 244.329 658.883 228.236 658.102 220.257C657.32 212.277 656.923 191.899 658.102 186.813C659.28 181.727 660.984 173.894 660.984 173.894L651.692 166.399Z" fill="url(#paint33_linear)"/>
<path fill-rule="evenodd" clip-rule="evenodd" d="M660.526 174.902C660.526 174.902 662.036 189.693 665.747 196.315C669.458 202.937 677.105 213.219 680.155 216.634C683.204 220.049 687.682 223.528 693.042 223.528C698.402 223.528 704.197 218.355 707.988 213.705C711.779 209.055 717.209 204.121 720.447 199.215C723.684 194.309 726.548 187.386 726.548 183.715C726.548 180.044 729.053 176.935 729.053 176.935C729.053 176.935 733.013 173.03 734.857 168.013C736.701 162.996 739.501 160.494 737.179 160.494C734.857 160.494 732.786 160.494 732.786 160.494L660.526 174.902Z" fill="url(#paint34_linear)"/>
<path fill-rule="evenodd" clip-rule="evenodd" d="M722.342 119.346C714.419 112.595 709.859 110.116 703.138 110.116C696.417 110.116 690.972 108.311 685.171 110.116C679.37 111.921 673.394 109.314 669.566 115.232C665.737 121.151 659.762 124.666 656.447 127.152C653.132 129.639 648.474 140.702 648.474 144.017C648.474 147.332 650.467 155.123 650.467 155.123C650.467 155.123 646.725 150.386 646.725 147.202C647.049 156.152 648.168 157.593 650.467 161.993C652.766 166.393 656.411 176.584 669.566 179.294C682.72 182.004 690.897 181.497 695.09 179.294C699.283 177.091 704.506 172.4 704.506 172.4C704.506 172.4 700.383 183.696 694.031 186.812C687.679 189.929 684.816 193.161 677.191 190.942C691.451 194.524 699.89 188.622 703.138 183.958C706.387 179.294 708.85 174.725 708.85 174.725L705.734 183.958C705.734 183.958 711.145 178.564 711.145 174.725C711.145 170.887 714.095 175.739 720.694 172.4C727.293 169.061 730.141 167.095 732.533 163.436C734.926 159.776 734.802 142.279 732.533 135.604C730.265 128.93 730.265 126.098 722.342 119.346Z" fill="url(#paint35_linear)"/>
<path fill-rule="evenodd" clip-rule="evenodd" d="M762.608 150.446C762.608 150.446 773.429 157.892 777.511 161.238C781.593 164.585 793.021 179.839 793.021 188.002C793.021 196.165 798.255 208.449 798.255 211.584C798.255 214.719 798.255 221.091 798.255 224.783C798.255 228.474 799.579 239.817 799.579 246.108C799.579 252.398 796.924 266.141 796.924 273.067C796.924 279.993 798.075 285.629 799.579 288.466C801.083 291.303 806.67 296.883 806.67 302.229C806.67 307.575 809.86 317.609 806.67 323.138C803.479 328.668 802.5 327.59 801.04 333.408C799.579 339.226 798.255 339.917 798.255 342.262C798.255 344.607 799.579 345.911 799.579 348.345C799.579 350.78 799.586 349.22 798.255 353.065C796.924 356.911 796.924 357.457 796.924 359.594C796.924 361.73 794.923 362.446 794.923 364.687C794.923 366.928 796.924 369.084 796.924 370.177C796.924 371.27 793.021 375.24 793.021 375.24C793.021 375.24 796.825 381.595 794.923 383.652C793.021 385.709 788.268 389.216 788.268 390.567C788.268 391.919 785.97 394.993 785.97 394.993C785.97 394.993 781.774 409.164 781.774 410.307C781.774 411.45 780.482 414.938 780.482 414.938C780.482 414.938 764.761 411.691 758.461 410.307C752.161 408.924 747.951 408.211 747.951 408.211C747.951 408.211 751.802 395.537 751.802 391.997C751.802 388.457 755.72 384.798 755.72 384.798L754.42 381.56L755.72 375.24C755.72 375.24 757.294 350.622 757.294 348.345C757.294 346.069 757.294 344.724 757.294 342.262C757.294 339.799 758.868 331.908 757.294 329.668C755.72 327.427 757.99 327.288 759.127 326.51C760.264 325.732 760.96 322.805 759.127 322.17C757.294 321.535 754.146 320.754 755.72 319.524C757.294 318.293 758.419 316.333 759.127 314.535C759.835 312.737 756.484 310.9 756.484 308.602C756.484 306.303 757.795 305.284 758.461 303.757C759.127 302.229 756.484 298.929 756.484 297.771C756.484 296.612 754.42 285.18 754.42 278.46C754.42 271.74 754.429 256.495 753.685 250.899C752.941 245.303 752.539 238.771 751.802 233.267C751.066 227.763 750.944 217.512 751.005 214.09C751.066 210.668 756.196 184.591 758.461 174.049C760.726 163.507 762.608 150.446 762.608 150.446Z" fill="url(#paint36_linear)"/>
<path fill-rule="evenodd" clip-rule="evenodd" d="M749.169 408.335C749.169 408.335 749.104 412.164 748.144 413.513C747.184 414.863 746.369 415.328 746.369 416.282C746.369 417.237 743.318 419.081 743.318 419.081C743.318 419.081 740.206 419.081 737.548 419.081C734.891 419.081 731.582 420.527 731.582 420.527L729.879 422.021C729.879 422.021 727.319 422.021 725.765 422.021C724.211 422.021 722.304 423.468 720.992 424.452C719.68 425.436 719.836 425.646 717.978 426.483C716.12 427.319 713.35 427.76 712.485 428.548C711.62 429.336 711.759 430.535 711.021 431.485C710.284 432.435 707.6 433.848 707.6 435.33C707.6 436.812 707.409 439.019 708.604 439.019C709.799 439.019 716.107 438.483 716.107 438.483C716.107 438.483 714.236 442.616 716.107 444.027C717.978 445.438 719.782 445.083 719.782 445.083C719.782 445.083 722.917 447.424 725.345 446.836C727.774 446.249 731.582 445.083 731.582 445.083C731.582 445.083 735.122 448.131 737.548 447.484C739.975 446.836 742.546 446.102 744.457 444.027C746.369 441.952 751.091 436.732 751.091 436.732C751.091 436.732 751.661 439.729 750.656 442.406C749.652 445.083 747.682 446.189 749.169 446.836C750.656 447.484 751.983 449.646 754.621 446.836C757.259 444.027 763.885 438.133 765.769 436.732C767.654 435.33 772.503 433.179 773.902 430.734C775.3 428.289 775.788 421.28 776.558 419.778C777.329 418.275 778.716 414.061 778.716 414.061L749.169 408.335Z" fill="url(#paint37_linear)"/>
<path fill-rule="evenodd" clip-rule="evenodd" d="M651.245 353.777C651.245 353.777 642.314 361.965 642.314 367.328C642.314 372.691 643.988 375.93 643.988 375.93C643.988 375.93 643.609 376.528 642.314 378.052C641.019 379.576 641.75 384.863 641.75 384.863C641.75 384.863 641.169 385.828 640.702 387.502C640.235 389.175 640.702 390.759 640.702 392.469C640.702 394.179 640.263 395.788 640.702 396.47C641.142 397.153 643.58 397.527 644.725 400.429C645.87 403.331 646.913 405.416 648.314 405.905C649.715 406.395 651.245 406.818 651.245 406.818C651.245 406.818 653.486 408.45 655.1 407.634C656.713 406.818 659.883 405.176 661.84 405.176C663.797 405.176 665.366 404.573 667.091 403.425C668.816 402.277 671.549 402.039 671.549 400.429C671.549 398.819 672.014 398.086 670.555 397.278C669.097 396.47 667.055 395.679 666.471 395.255C665.886 394.832 664.532 393.236 664.532 393.236L668.836 364.912C668.836 364.912 667.159 359.237 663.279 355.883C659.399 352.528 651.245 353.777 651.245 353.777Z" fill="url(#paint38_linear)"/>
<path fill-rule="evenodd" clip-rule="evenodd" d="M666.708 360.922L669.09 365.769C669.09 365.769 671.6 366.794 673.083 368.294C674.566 369.793 677.883 373.141 676.225 376.742C674.566 380.343 670.143 384.586 670.143 384.586C670.143 384.586 667.665 389.87 666.708 391.305C665.752 392.741 664.402 394.563 662.789 394.563C661.176 394.563 658.159 393.397 658.159 392.005C658.159 390.613 658.742 389.226 659.342 387.24C659.942 385.254 659.707 382.324 660.743 380.63C661.778 378.936 662.012 376.083 662.789 374.364C663.566 372.644 664.618 368.294 664.618 368.294C664.618 368.294 661.136 366.114 660.743 365.281C660.349 364.447 663.343 364.543 663.343 364.543L666.708 360.922Z" fill="url(#paint39_linear)"/>
<path fill-rule="evenodd" clip-rule="evenodd" d="M684.659 214.686C684.659 214.686 691.437 214.686 694.285 214.686C697.134 214.686 692.118 217.203 689.472 217.203C686.826 217.203 684.659 214.686 684.659 214.686Z" fill="#141731"/>
<path fill-rule="evenodd" clip-rule="evenodd" d="M113.734 278.784C113.734 278.784 116.272 287.148 117.461 292.477C118.649 297.806 119.723 304.535 119.723 304.535L144.573 312.065L159.931 310.837L167.077 308.34C167.077 308.34 166.114 299.607 166.114 292.477C166.114 285.347 167.077 274.856 167.077 274.856L113.734 278.784Z" fill="url(#paint40_linear)"/>
<path fill-rule="evenodd" clip-rule="evenodd" d="M25.5257 250.164C25.5257 250.164 18.5057 221.633 20.8457 214.083C23.1857 206.534 24.5151 202.031 29.3303 199.923C34.1455 197.815 37.7112 199.923 39.3224 199.923C40.9337 199.923 70.2235 210.757 77.0784 215.723C83.9333 220.688 106.761 232.992 106.761 232.992V261.541C106.761 261.541 85.0976 253.028 77.0784 251.596C69.0592 250.164 61.8188 247.109 61.8188 247.109L25.5257 250.164Z" fill="url(#paint41_linear)"/>
<path fill-rule="evenodd" clip-rule="evenodd" d="M103.05 254.524C103.05 254.524 100.297 253.324 98.0037 254.524C95.7102 255.724 93.9109 258.148 95.5239 261.607C97.137 265.066 98.4985 268.163 102.195 270.987C105.892 273.811 105.133 274.945 107.152 274.945C109.172 274.945 109.927 274.522 111.651 276.179C113.374 277.836 119.624 287.844 126.139 289.292C132.653 290.741 145.195 292.104 151.205 289.292C157.215 286.481 166.157 283.313 167.851 279.746C169.546 276.179 170.585 264.867 170.585 264.867C170.585 264.867 174.71 263.952 174.71 262.779C174.71 261.607 175.523 258.106 176.532 255.72C177.541 253.333 176.532 250.758 176.532 248.479C176.532 246.2 176.404 243.544 174.71 242.644C173.015 241.745 170.585 242.644 170.585 242.644L161.873 215.028L148.157 202.971L116.827 206.039L103.05 221.517L100.505 244.152L103.05 254.524Z" fill="url(#paint42_linear)"/>
<path fill-rule="evenodd" clip-rule="evenodd" d="M161.299 210.32L163.445 204.288C163.445 204.288 146.331 194.976 137.103 194.976C127.874 194.976 116.602 195.55 109.919 199.099C103.237 202.648 94.1943 215.305 94.1943 215.305H97.3621C97.3621 215.305 92.5888 220.092 91.5293 222.602C90.4698 225.112 89.509 227.251 89.509 227.251L92.523 225.906C92.523 225.906 91.5293 230.965 91.5293 232.375C91.5293 233.786 91.5293 234.953 91.5293 234.953L95.3847 232.375H98.5585C98.5585 232.375 102.999 222.366 107.144 218.835C111.288 215.305 124.645 209.552 130.874 209.552C137.103 209.552 149.061 207.085 152.86 209.552C156.659 212.019 158.412 214.965 158.412 214.965L161.299 210.32Z" fill="url(#paint43_linear)"/>
<path fill-rule="evenodd" clip-rule="evenodd" d="M94.854 226.527C94.854 226.527 94.854 238.798 94.854 244.421C94.854 250.045 97.2903 254.728 97.2903 254.728C97.2903 254.728 102.798 257.202 102.798 254.728C102.798 252.254 103.794 248.87 104.664 244.421C105.535 239.972 105.668 237.04 106.912 231.784C108.155 226.527 106.912 220.155 106.912 220.155V218.647L94.854 226.527Z" fill="url(#paint44_linear)"/>
<path fill-rule="evenodd" clip-rule="evenodd" d="M163.216 205.642V208.184C163.216 208.184 164.258 209.365 165.702 211.063C167.147 212.761 170.737 219.487 170.737 225.072C170.737 230.657 170.737 236.787 170.737 238.839C170.737 240.891 169.888 245.792 169.888 245.792C169.888 245.792 168.189 240.055 165.702 232.564C163.216 225.072 159.605 219.605 159.605 217.732C159.605 215.859 157.835 212.209 157.835 212.209L163.216 205.642Z" fill="url(#paint45_linear)"/>
<path fill-rule="evenodd" clip-rule="evenodd" d="M262.598 265.32C262.598 265.32 267.479 262.446 270.052 262.446C272.625 262.446 272.941 261.845 274.999 259.781C277.057 257.717 280.071 257.562 280.071 257.639C280.071 257.717 287.75 255.415 287.75 255.415L296.607 251.561C296.607 251.561 322.511 236.753 336.664 232.444C350.817 228.135 357.818 225.552 361.476 223.909C365.135 222.265 381.834 212.751 387.927 209.967C394.02 207.184 400.224 204.299 400.224 204.299C400.224 204.299 402.87 216.822 405.446 221.601C408.023 226.38 409.346 228.116 409.346 228.116C409.346 228.116 409.435 228.776 407.441 230.61C405.446 232.444 403.836 235.105 403.836 235.105C403.836 235.105 399.749 234.041 399.749 235.105C399.749 236.169 400.748 237.675 399.749 237.675C398.749 237.675 397.054 236.146 397.054 237.675C397.054 239.204 394.02 242.121 394.02 242.121H390.654C390.654 242.121 371.557 256.119 366.517 260.72C361.476 265.32 343.326 275.135 336.664 279.734C330.002 284.332 319.54 287.702 316.636 290.122C313.731 292.542 314.582 295.914 312.666 295.914C310.749 295.914 308.644 293.478 308.644 295.914C308.644 298.349 306.649 300.5 303.976 300.5C301.303 300.5 296.607 300.696 296.607 301.827C296.607 302.959 293.966 304.264 292.304 303.611C290.641 302.959 287.75 303.611 287.75 303.611L285.212 306.396L277.612 309.325L272.23 312.352L263.809 315.721L259.051 276.932L262.598 265.32Z" fill="url(#paint46_linear)"/>
<path fill-rule="evenodd" clip-rule="evenodd" d="M399.939 204.476C399.939 204.476 409.739 200.208 410.956 199.429C412.173 198.651 427.774 182.814 430.409 181.32C433.045 179.825 455.714 170.152 460.079 169.37C464.443 168.587 474.691 166.097 476.45 166.097C478.209 166.097 480.083 168.839 477.949 170.919C475.815 172.999 468.884 174.289 467.695 174.991C466.507 175.694 460.902 176.77 459.184 177.826C457.466 178.883 448.045 183.356 448.045 183.356C448.045 183.356 455.838 185.171 457.16 186.5C458.482 187.829 460.079 190.296 460.079 191.631C460.079 192.966 455.829 196.324 455.829 196.324C455.829 196.324 458.736 198.701 459.184 200.405C459.631 202.109 459.804 203.405 458.482 204.476C457.16 205.548 456.278 206.355 456.278 206.355C456.278 206.355 458.267 208.256 457.713 210.409C457.16 212.563 455.401 213.855 453.652 214.644C451.902 215.433 449.117 215.528 449.117 215.528C449.117 215.528 446.688 217.85 445.305 218.533C443.923 219.216 441.75 220.058 440.585 221.064C439.42 222.071 434.482 224.032 432.446 224.032C430.409 224.032 426.257 223.457 424.686 224.032C423.115 224.606 420.798 226.668 418.292 226.668C415.786 226.668 409.292 227.732 409.292 227.732C409.292 227.732 403.087 221.636 402.108 216.755C401.128 211.874 399.939 204.476 399.939 204.476Z" fill="url(#paint47_linear)"/>
<path fill-rule="evenodd" clip-rule="evenodd" d="M445.572 191.427C445.572 191.427 436.281 197.81 434.194 199.935C432.107 202.059 432.747 203.642 433.211 204.209C433.676 204.776 431.296 205.547 431.296 206.964C431.296 208.381 431.548 210.969 433.211 210.969C434.874 210.969 434.121 213.007 435.894 213.897C437.666 214.786 442.969 215.324 443.49 215.324C444.01 215.324 449.511 215.324 449.511 215.324C449.511 215.324 455.014 208.483 455.65 204.209C456.286 199.935 454.496 193.684 454.496 193.684L451.437 186.994L445.572 191.427Z" fill="url(#paint48_linear)"/>
<path fill-rule="evenodd" clip-rule="evenodd" d="M429.287 188.119C432.622 188.119 439.224 188.878 441.323 188.878C443.422 188.878 447.223 191.022 449.101 191.022C450.98 191.022 454.442 192.27 454.442 194.391C454.442 196.512 452.382 200.35 447.123 200.35C441.864 200.35 436.645 198.609 436.645 198.609C436.645 198.609 433.517 197.999 432.178 198.609C430.84 199.219 429.287 199.603 429.287 199.603C429.287 199.603 422.24 201.097 420.764 200.35C419.289 199.603 421.116 194.203 423.468 191.54C425.82 188.878 425.951 188.119 429.287 188.119Z" fill="url(#paint49_linear)"/>
<path fill-rule="evenodd" clip-rule="evenodd" d="M118.037 298.926C118.037 298.926 116.278 297.668 114.384 298.926C112.49 300.183 110.031 305.76 108.574 305.76C107.117 305.76 99.3114 298.926 96.6207 298.926C93.9301 298.926 90.7926 298.926 90.7926 298.926V300.797C90.7926 300.797 88.4047 294.777 86.9865 292.586C85.5684 290.395 84.1113 287.333 84.1113 287.333C84.1113 287.333 84.2352 274.445 79.8544 268.411C75.4736 262.376 69.3322 253.505 67.1782 249.302C65.0243 245.1 61.0611 236.314 61.0611 236.314C61.0611 236.314 35.8198 238.898 29.8629 244.1C23.9061 249.302 21.4948 255.251 21.4948 255.251C21.4948 255.251 24.2825 258.134 25.5663 260.173C26.8501 262.213 28.2351 265.293 28.2351 265.293C28.2351 265.293 28.2351 269.678 28.2351 272.607C28.2351 275.535 32.5414 281.644 34.1733 285.16C35.8052 288.676 39.6817 300.361 41.1161 304.319C42.5504 308.277 45.0516 318.034 46.4391 321.608C47.8265 325.183 51.6706 339.524 54.0949 343.526C56.5193 347.528 59.4706 349.17 59.4706 352.73C59.4706 356.29 58.7372 362.359 61.0611 365.13C63.3851 367.9 65.0186 371.113 65.0186 371.113C65.0186 371.113 64.5904 387.139 67.1782 393.169C69.7661 399.198 71.3008 414.714 71.3008 414.714V429.255H240.288C240.288 429.255 235.448 410.648 232.796 402.464C230.144 394.281 226.388 378.199 226.388 378.199V358.486C226.388 358.486 235.093 346.769 236.149 340.597C236.518 338.442 260.359 327.652 273.074 319.564C272.858 318.122 274.292 312.401 273.074 311.493C271.409 312.219 269.26 313.455 267.56 313.694C263.363 297.992 261.697 280.229 262.855 265.293C263.009 263.315 201.052 296.644 201.052 296.644C201.052 296.644 199.017 300.797 196.873 300.797C194.729 300.797 194.829 303.121 194.829 303.121C194.829 303.121 192.439 301.776 191.162 302.449C189.886 303.121 189.101 303.121 189.101 303.121C189.101 303.121 188.044 301.52 185.948 301.52C183.852 301.52 181.668 302.449 181.668 302.449C181.668 302.449 178.42 301.776 175.207 302.449C171.993 303.121 166.688 305.76 166.688 305.76C166.688 305.76 164.5 308.47 158.796 309.888C153.092 311.306 144.049 311.756 135.237 308.037C126.425 304.319 118.037 298.926 118.037 298.926Z" fill="url(#paint50_linear)"/>
<path fill-rule="evenodd" clip-rule="evenodd" d="M131.31 270.644C131.31 270.644 144.976 268 149.303 266.76C153.63 265.519 156.753 263.984 156.753 263.984C156.753 263.984 154.575 268.227 149.303 270.644C144.031 273.06 131.31 270.644 131.31 270.644Z" fill="#141731"/>
<path fill-rule="evenodd" clip-rule="evenodd" d="M177.217 456.759C176.203 456.43 176.339 454.954 177.396 454.816L252.564 445.027C252.702 445.009 252.842 445.02 252.975 445.059L305.633 460.498C306.652 460.797 306.564 462.269 305.516 462.444L234.494 474.303C233.068 474.541 231.606 474.432 230.231 473.985L177.217 456.759Z" fill="url(#paint51_linear)"/>
<path fill-rule="evenodd" clip-rule="evenodd" d="M254.164 371.026C251.874 371.186 249.986 372.885 249.588 375.146L232.455 472.397C232.226 473.697 233.298 474.859 234.612 474.735L359.788 462.948C360.652 462.867 361.364 462.239 361.553 461.392L382.828 365.925C383.264 363.967 381.692 362.14 379.691 362.28L254.164 371.026Z" fill="url(#paint52_linear)"/>
<path fill-rule="evenodd" clip-rule="evenodd" d="M413.479 439.383C407.37 439.383 400.267 443.06 397.586 449.53C394.906 456 404.004 460.676 413.479 460.676C422.955 460.676 430.406 455.524 430.406 450.03C430.406 444.536 419.589 439.383 413.479 439.383Z" fill="url(#paint53_linear)"/>
<path d="M413.269 459.956C413.269 459.956 417.07 469.574 430.717 474.415C444.364 479.256 445.599 474.171 495.675 478.274C545.752 482.377 592.723 490.512 617.145 487.769C641.566 485.026 626.734 466.89 617.145 464.859C607.555 462.828 591.773 464.859 591.773 464.859" stroke="#151937"/>
<path d="M87 425H80.5C76.9101 425 74 427.91 74 431.5V436.5C74 440.09 76.9101 443 80.5 443H87V425Z" stroke="#1D2555" stroke-width="4"/>
<rect x="86" y="419" width="35" height="40" rx="2" fill="url(#paint54_linear)"/>
<path opacity="0.347768" fill-rule="evenodd" clip-rule="evenodd" d="M101.739 413.61C104.171 405.522 101.545 401.688 94.7156 396.097C87.8857 390.505 84.5454 384.158 92.5435 378.847C100.542 373.535 97.3664 366.344 94.7156 359.753C92.0647 353.162 115.545 354.56 118.778 361.537C122.01 368.514 124.802 374.949 113.271 378.847C101.739 382.744 90.693 381.911 95.8864 387.158C101.08 392.405 121.198 398.882 114.417 403.881C107.636 408.881 99.3075 421.697 101.739 413.61Z" fill="#B5BCFF"/>
<defs>
<linearGradient id="paint0_linear" x1="927.37" y1="422.885" x2="994.584" y2="385.749" gradientUnits="userSpaceOnUse">
<stop stop-color="#283581"/>
<stop offset="1" stop-color="#131730"/>
</linearGradient>
<linearGradient id="paint1_linear" x1="949.546" y1="13.5019" x2="771.819" y2="102.53" gradientUnits="userSpaceOnUse">
<stop stop-color="#ACB0FF"/>
<stop offset="1" stop-color="#DCEBFF"/>
</linearGradient>
<linearGradient id="paint2_linear" x1="927.185" y1="81.4826" x2="902.622" y2="127.846" gradientUnits="userSpaceOnUse">
<stop stop-color="#ACB0FF"/>
<stop offset="1" stop-color="#DCEBFF"/>
</linearGradient>
<linearGradient id="paint3_linear" x1="939.806" y1="4.59887" x2="864.573" y2="76.1554" gradientUnits="userSpaceOnUse">
<stop stop-color="#ACB0FF"/>
<stop offset="1" stop-color="#DCEBFF"/>
</linearGradient>
<linearGradient id="paint4_linear" x1="874.488" y1="-3.44591" x2="870.24" y2="57.5264" gradientUnits="userSpaceOnUse">
<stop stop-color="#4C55FF"/>
<stop offset="1" stop-color="#1B7CFF"/>
</linearGradient>
<linearGradient id="paint5_linear" x1="952.275" y1="89.8824" x2="890.093" y2="296.342" gradientUnits="userSpaceOnUse">
<stop stop-color="#4C55FF"/>
<stop offset="1" stop-color="#1B7CFF"/>
</linearGradient>
<linearGradient id="paint6_linear" x1="967.802" y1="91.5381" x2="962.555" y2="125.939" gradientUnits="userSpaceOnUse">
<stop stop-color="#4C55FF"/>
<stop offset="1" stop-color="#1B7CFF"/>
</linearGradient>
<linearGradient id="paint7_linear" x1="849.293" y1="124.6" x2="786.534" y2="298.157" gradientUnits="userSpaceOnUse">
<stop stop-color="#4C55FF"/>
<stop offset="1" stop-color="#1B7CFF"/>
</linearGradient>
<linearGradient id="paint8_linear" x1="834.385" y1="106.165" x2="814.031" y2="232.997" gradientUnits="userSpaceOnUse">
<stop stop-color="#4C55FF"/>
<stop offset="1" stop-color="#1B7CFF"/>
</linearGradient>
<linearGradient id="paint9_linear" x1="908.511" y1="106.607" x2="904.915" y2="132.461" gradientUnits="userSpaceOnUse">
<stop stop-color="#4C55FF"/>
<stop offset="1" stop-color="#1B7CFF"/>
</linearGradient>
<linearGradient id="paint10_linear" x1="911.716" y1="209.79" x2="886.375" y2="282.653" gradientUnits="userSpaceOnUse">
<stop stop-color="#ACB0FF"/>
<stop offset="1" stop-color="#DCEBFF"/>
</linearGradient>
<linearGradient id="paint11_linear" x1="934.245" y1="122" x2="920.012" y2="238.003" gradientUnits="userSpaceOnUse">
<stop stop-color="#4C55FF"/>
<stop offset="1" stop-color="#1B7CFF"/>
</linearGradient>
<linearGradient id="paint12_linear" x1="876.213" y1="287.368" x2="889.86" y2="272.363" gradientUnits="userSpaceOnUse">
<stop stop-color="#283581"/>
<stop offset="1" stop-color="#131730"/>
</linearGradient>
<linearGradient id="paint13_linear" x1="808.229" y1="279.29" x2="860.104" y2="256.639" gradientUnits="userSpaceOnUse">
<stop stop-color="#283581"/>
<stop offset="1" stop-color="#131730"/>
</linearGradient>
<linearGradient id="paint14_linear" x1="834.731" y1="254.547" x2="818.925" y2="305.547" gradientUnits="userSpaceOnUse">
<stop stop-color="#ACB0FF"/>
<stop offset="1" stop-color="#DCEBFF"/>
</linearGradient>
<linearGradient id="paint15_linear" x1="639.866" y1="183.55" x2="652.635" y2="326.009" gradientUnits="userSpaceOnUse">
<stop stop-color="#4C55FF"/>
<stop offset="1" stop-color="#1B7CFF"/>
</linearGradient>
<linearGradient id="paint16_linear" x1="539.079" y1="419.773" x2="468.104" y2="391.395" gradientUnits="userSpaceOnUse">
<stop stop-color="#283581"/>
<stop offset="1" stop-color="#131730"/>
</linearGradient>
<linearGradient id="paint17_linear" x1="444.552" y1="417.596" x2="427.647" y2="415.904" gradientUnits="userSpaceOnUse">
<stop stop-color="#283581"/>
<stop offset="1" stop-color="#131730"/>
</linearGradient>
<linearGradient id="paint18_linear" x1="535.62" y1="263.042" x2="563.942" y2="304.376" gradientUnits="userSpaceOnUse">
<stop stop-color="#ACB0FF"/>
<stop offset="1" stop-color="#DCEBFF"/>
</linearGradient>
<linearGradient id="paint19_linear" x1="543.581" y1="240.786" x2="558.456" y2="245.904" gradientUnits="userSpaceOnUse">
<stop stop-color="#ACB0FF"/>
<stop offset="1" stop-color="#DCEBFF"/>
</linearGradient>
<linearGradient id="paint20_linear" x1="504.946" y1="188.976" x2="586.323" y2="223.817" gradientUnits="userSpaceOnUse">
<stop stop-color="#ACB0FF"/>
<stop offset="1" stop-color="#DCEBFF"/>
</linearGradient>
<linearGradient id="paint21_linear" x1="442.259" y1="407.147" x2="449.807" y2="429.332" gradientUnits="userSpaceOnUse">
<stop stop-color="#ACB0FF"/>
<stop offset="1" stop-color="#DCEBFF"/>
</linearGradient>
<linearGradient id="paint22_linear" x1="416.658" y1="394.231" x2="421.664" y2="403.242" gradientUnits="userSpaceOnUse">
<stop stop-color="#ACB0FF"/>
<stop offset="1" stop-color="#DCEBFF"/>
</linearGradient>
<linearGradient id="paint23_linear" x1="425.954" y1="396.537" x2="442.231" y2="421.306" gradientUnits="userSpaceOnUse">
<stop stop-color="#ACB0FF"/>
<stop offset="1" stop-color="#DCEBFF"/>
</linearGradient>
<linearGradient id="paint24_linear" x1="413.27" y1="401.568" x2="423.853" y2="385.346" gradientUnits="userSpaceOnUse">
<stop stop-color="#ACB0FF"/>
<stop offset="1" stop-color="#DCEBFF"/>
</linearGradient>
<linearGradient id="paint25_linear" x1="419.438" y1="403.615" x2="433.32" y2="387.066" gradientUnits="userSpaceOnUse">
<stop stop-color="#ACB0FF"/>
<stop offset="1" stop-color="#DCEBFF"/>
</linearGradient>
<linearGradient id="paint26_linear" x1="422.255" y1="409.303" x2="435.1" y2="395.631" gradientUnits="userSpaceOnUse">
<stop stop-color="#ACB0FF"/>
<stop offset="1" stop-color="#DCEBFF"/>
</linearGradient>
<linearGradient id="paint27_linear" x1="604.583" y1="266.247" x2="666.861" y2="300.333" gradientUnits="userSpaceOnUse">
<stop stop-color="#ACB0FF"/>
<stop offset="1" stop-color="#DCEBFF"/>
</linearGradient>
<linearGradient id="paint28_linear" x1="503.471" y1="478.902" x2="507.691" y2="447.139" gradientUnits="userSpaceOnUse">
<stop stop-color="#ACB0FF"/>
<stop offset="1" stop-color="#DCEBFF"/>
</linearGradient>
<linearGradient id="paint29_linear" x1="462.41" y1="375.394" x2="426.781" y2="460.645" gradientUnits="userSpaceOnUse">
<stop stop-color="#ACB0FF"/>
<stop offset="1" stop-color="#DCEBFF"/>
</linearGradient>
<linearGradient id="paint30_linear" x1="709.776" y1="415.366" x2="774.755" y2="387.255" gradientUnits="userSpaceOnUse">
<stop stop-color="#283581"/>
<stop offset="1" stop-color="#131730"/>
</linearGradient>
<linearGradient id="paint31_linear" x1="756.493" y1="415.859" x2="774.377" y2="395.947" gradientUnits="userSpaceOnUse">
<stop stop-color="#283581"/>
<stop offset="1" stop-color="#131730"/>
</linearGradient>
<linearGradient id="paint32_linear" x1="610.831" y1="132.886" x2="595.472" y2="289.514" gradientUnits="userSpaceOnUse">
<stop stop-color="#4C55FF"/>
<stop offset="1" stop-color="#1B7CFF"/>
</linearGradient>
<linearGradient id="paint33_linear" x1="600.416" y1="155.906" x2="555.764" y2="308.239" gradientUnits="userSpaceOnUse">
<stop stop-color="#4C55FF"/>
<stop offset="1" stop-color="#1B7CFF"/>
</linearGradient>
<linearGradient id="paint34_linear" x1="696.603" y1="137.252" x2="640.856" y2="205.822" gradientUnits="userSpaceOnUse">
<stop stop-color="#ACB0FF"/>
<stop offset="1" stop-color="#DCEBFF"/>
</linearGradient>
<linearGradient id="paint35_linear" x1="621.51" y1="105.165" x2="616.979" y2="170.248" gradientUnits="userSpaceOnUse">
<stop stop-color="#4C55FF"/>
<stop offset="1" stop-color="#1B7CFF"/>
</linearGradient>
<linearGradient id="paint36_linear" x1="730.633" y1="137.182" x2="669.32" y2="326.394" gradientUnits="userSpaceOnUse">
<stop stop-color="#4C55FF"/>
<stop offset="1" stop-color="#1B7CFF"/>
</linearGradient>
<linearGradient id="paint37_linear" x1="740.685" y1="393.621" x2="709.917" y2="448.462" gradientUnits="userSpaceOnUse">
<stop stop-color="#ACB0FF"/>
<stop offset="1" stop-color="#DCEBFF"/>
</linearGradient>
<linearGradient id="paint38_linear" x1="654.977" y1="333.355" x2="612.584" y2="357.579" gradientUnits="userSpaceOnUse">
<stop stop-color="#ACB0FF"/>
<stop offset="1" stop-color="#DCEBFF"/>
</linearGradient>
<linearGradient id="paint39_linear" x1="666.776" y1="348.518" x2="641.097" y2="362.654" gradientUnits="userSpaceOnUse">
<stop stop-color="#ACB0FF"/>
<stop offset="1" stop-color="#DCEBFF"/>
</linearGradient>
<linearGradient id="paint40_linear" x1="138.555" y1="261.137" x2="107.009" y2="306.361" gradientUnits="userSpaceOnUse">
<stop stop-color="#ACB0FF"/>
<stop offset="1" stop-color="#DCEBFF"/>
</linearGradient>
<linearGradient id="paint41_linear" x1="50.2824" y1="254.516" x2="87.4599" y2="234.766" gradientUnits="userSpaceOnUse">
<stop stop-color="#283581"/>
<stop offset="1" stop-color="#131730"/>
</linearGradient>
<linearGradient id="paint42_linear" x1="133.096" y1="170.539" x2="53.8244" y2="244.509" gradientUnits="userSpaceOnUse">
<stop stop-color="#ACB0FF"/>
<stop offset="1" stop-color="#DCEBFF"/>
</linearGradient>
<linearGradient id="paint43_linear" x1="68.2169" y1="192.972" x2="66.9601" y2="224.523" gradientUnits="userSpaceOnUse">
<stop stop-color="#4C55FF"/>
<stop offset="1" stop-color="#1B7CFF"/>
</linearGradient>
<linearGradient id="paint44_linear" x1="91.2027" y1="216.775" x2="85.093" y2="244.95" gradientUnits="userSpaceOnUse">
<stop stop-color="#4C55FF"/>
<stop offset="1" stop-color="#1B7CFF"/>
</linearGradient>
<linearGradient id="paint45_linear" x1="154.12" y1="203.629" x2="147.206" y2="233.782" gradientUnits="userSpaceOnUse">
<stop stop-color="#4C55FF"/>
<stop offset="1" stop-color="#1B7CFF"/>
</linearGradient>
<linearGradient id="paint46_linear" x1="311.215" y1="303.208" x2="376.509" y2="269.372" gradientUnits="userSpaceOnUse">
<stop stop-color="#283581"/>
<stop offset="1" stop-color="#131730"/>
</linearGradient>
<linearGradient id="paint47_linear" x1="436.681" y1="143.371" x2="382.666" y2="212.572" gradientUnits="userSpaceOnUse">
<stop stop-color="#ACB0FF"/>
<stop offset="1" stop-color="#DCEBFF"/>
</linearGradient>
<linearGradient id="paint48_linear" x1="443.951" y1="187.322" x2="422.674" y2="200.783" gradientUnits="userSpaceOnUse">
<stop stop-color="#B9C0FF"/>
<stop offset="1" stop-color="#DCEBFF"/>
</linearGradient>
<linearGradient id="paint49_linear" x1="436.151" y1="183.517" x2="428.89" y2="203.418" gradientUnits="userSpaceOnUse">
<stop stop-color="#ACB0FF"/>
<stop offset="1" stop-color="#CBD7FF"/>
</linearGradient>
<linearGradient id="paint50_linear" x1="-51.0977" y1="226.638" x2="-59.6715" y2="378.674" gradientUnits="userSpaceOnUse">
<stop stop-color="#4C55FF"/>
<stop offset="1" stop-color="#1B7CFF"/>
</linearGradient>
<linearGradient id="paint51_linear" x1="185.541" y1="445.864" x2="181.69" y2="475.159" gradientUnits="userSpaceOnUse">
<stop stop-color="#ACB0FF"/>
<stop offset="1" stop-color="#DCEBFF"/>
</linearGradient>
<linearGradient id="paint52_linear" x1="245.905" y1="365.289" x2="203.336" y2="459.57" gradientUnits="userSpaceOnUse">
<stop stop-color="#ACB0FF"/>
<stop offset="1" stop-color="#DCEBFF"/>
</linearGradient>
<linearGradient id="paint53_linear" x1="408.666" y1="458.285" x2="422.15" y2="450.186" gradientUnits="userSpaceOnUse">
<stop stop-color="#283581"/>
<stop offset="1" stop-color="#131730"/>
</linearGradient>
<linearGradient id="paint54_linear" x1="98.1475" y1="454.508" x2="115.477" y2="448.682" gradientUnits="userSpaceOnUse">
<stop stop-color="#283581"/>
<stop offset="1" stop-color="#131730"/>
</linearGradient>
</defs>
</svg>
