<svg width="961" height="653" viewBox="0 0 961 653" fill="none" xmlns="http://www.w3.org/2000/svg">
<path fill-rule="evenodd" clip-rule="evenodd" d="M9.83148 125.868C8.92667 125.234 7.67958 125.454 7.04602 126.359L6.47244 127.178L5.65329 126.605C4.74848 125.971 3.50139 126.191 2.86784 127.096C2.23428 128.001 2.45418 129.248 3.35899 129.881L4.17814 130.455L3.60456 131.274C2.97101 132.179 3.1909 133.426 4.09571 134.059C5.00052 134.693 6.24762 134.473 6.88117 133.568L7.45475 132.749L8.2739 133.323C9.17871 133.956 10.4258 133.736 11.0594 132.832C11.6929 131.927 11.473 130.68 10.5682 130.046L9.74905 129.472L10.3226 128.653C10.9562 127.749 10.7363 126.501 9.83148 125.868Z" fill="#FF7D7D"/>
<path fill-rule="evenodd" clip-rule="evenodd" d="M959.083 141.728C958.723 140.683 957.585 140.128 956.541 140.488L955.595 140.813L955.27 139.868C954.91 138.823 953.772 138.268 952.727 138.628C951.683 138.987 951.128 140.126 951.488 141.17L951.813 142.116L950.868 142.441C949.823 142.801 949.268 143.939 949.628 144.983C949.987 146.028 951.126 146.583 952.17 146.223L953.115 145.898L953.441 146.843C953.801 147.888 954.939 148.443 955.983 148.083C957.028 147.723 957.583 146.585 957.223 145.541L956.897 144.595L957.843 144.27C958.887 143.91 959.443 142.772 959.083 141.728Z" fill="#FF7D7D"/>
<path fill-rule="evenodd" clip-rule="evenodd" d="M741.083 644.728C740.723 643.683 739.585 643.128 738.541 643.488L737.595 643.813L737.27 642.868C736.91 641.823 735.772 641.268 734.727 641.628C733.683 641.987 733.128 643.126 733.488 644.17L733.813 645.116L732.868 645.441C731.823 645.801 731.268 646.939 731.628 647.983C731.987 649.028 733.126 649.583 734.17 649.223L735.115 648.898L735.441 649.843C735.801 650.888 736.939 651.443 737.983 651.083C739.028 650.723 739.583 649.585 739.223 648.541L738.897 647.595L739.843 647.27C740.887 646.91 741.443 645.772 741.083 644.728Z" fill="#FF7D7D"/>
<path fill-rule="evenodd" clip-rule="evenodd" d="M912 169C913.657 169 915 167.657 915 166C915 164.343 913.657 163 912 163C910.343 163 909 164.343 909 166C909 167.657 910.343 169 912 169Z" stroke="#F5C623"/>
<path fill-rule="evenodd" clip-rule="evenodd" d="M661 4.8855C662.105 4.8855 663 3.99007 663 2.8855C663 1.78093 662.105 0.885498 661 0.885498C659.895 0.885498 659 1.78093 659 2.8855C659 3.99007 659.895 4.8855 661 4.8855Z" fill="#9559FF"/>
<path fill-rule="evenodd" clip-rule="evenodd" d="M333 609C334.657 609 336 607.657 336 606C336 604.343 334.657 603 333 603C331.343 603 330 604.343 330 606C330 607.657 331.343 609 333 609Z" fill="#9559FF"/>
<mask id="path-7-inside-1" fill="white">
<path fill-rule="evenodd" clip-rule="evenodd" d="M826.298 64.817C825.127 65.4392 824.683 66.8924 825.305 68.0628L825.869 69.1223L824.809 69.6857C823.639 70.3079 823.195 71.7611 823.817 72.9315C824.439 74.1018 825.892 74.5461 827.063 73.9238L828.122 73.3605L828.686 74.42C829.308 75.5903 830.761 76.0346 831.931 75.4123C833.102 74.7901 833.546 73.3369 832.924 72.1665L832.36 71.107L833.42 70.5436C834.59 69.9213 835.034 68.4681 834.412 67.2978C833.79 66.1275 832.337 65.6832 831.166 66.3055L830.107 66.8688L829.543 65.8093C828.921 64.639 827.468 64.1947 826.298 64.817Z"/>
</mask>
<path d="M825.305 68.0628L824.422 68.5322L825.305 68.0628ZM825.869 69.1223L826.338 70.0053L827.221 69.5358L826.752 68.6528L825.869 69.1223ZM828.122 73.3605L829.005 72.891L828.536 72.008L827.653 72.4775L828.122 73.3605ZM828.686 74.42L827.803 74.8895L828.686 74.42ZM832.924 72.1665L832.041 72.636L832.924 72.1665ZM832.36 71.107L831.891 70.224L831.008 70.6935L831.477 71.5765L832.36 71.107ZM831.166 66.3055L830.697 65.4225L831.166 66.3055ZM830.107 66.8688L829.224 67.3383L829.693 68.2213L830.576 67.7518L830.107 66.8688ZM826.188 67.5933C825.825 66.9106 826.084 66.0629 826.767 65.6999L825.828 63.934C824.17 64.8156 823.541 66.8743 824.422 68.5322L826.188 67.5933ZM826.752 68.6528L826.188 67.5933L824.422 68.5322L824.986 69.5918L826.752 68.6528ZM825.279 70.5686L826.338 70.0053L825.399 68.2394L824.34 68.8027L825.279 70.5686ZM824.7 72.462C824.337 71.7793 824.596 70.9316 825.279 70.5686L824.34 68.8027C822.682 69.6843 822.052 71.743 822.934 73.4009L824.7 72.462ZM826.593 73.0409C825.91 73.4039 825.063 73.1447 824.7 72.462L822.934 73.4009C823.815 75.0589 825.874 75.6883 827.532 74.8068L826.593 73.0409ZM827.653 72.4775L826.593 73.0409L827.532 74.8068L828.592 74.2434L827.653 72.4775ZM829.568 73.9505L829.005 72.891L827.239 73.8299L827.803 74.8895L829.568 73.9505ZM831.462 74.5294C830.779 74.8924 829.931 74.6332 829.568 73.9505L827.803 74.8895C828.684 76.5474 830.743 77.1768 832.401 76.2953L831.462 74.5294ZM832.041 72.636C832.404 73.3187 832.145 74.1664 831.462 74.5294L832.401 76.2953C834.059 75.4137 834.688 73.355 833.807 71.6971L832.041 72.636ZM831.477 71.5765L832.041 72.636L833.807 71.6971L833.243 70.6375L831.477 71.5765ZM832.95 69.6607L831.891 70.224L832.83 71.9899L833.889 71.4266L832.95 69.6607ZM833.529 67.7673C833.892 68.45 833.633 69.2977 832.95 69.6607L833.889 71.4266C835.547 70.545 836.177 68.4863 835.295 66.8283L833.529 67.7673ZM831.636 67.1884C832.319 66.8254 833.166 67.0846 833.529 67.7673L835.295 66.8283C834.414 65.1704 832.355 64.541 830.697 65.4225L831.636 67.1884ZM830.576 67.7518L831.636 67.1884L830.697 65.4225L829.637 65.9859L830.576 67.7518ZM828.661 66.2788L829.224 67.3383L830.99 66.3994L830.426 65.3398L828.661 66.2788ZM826.767 65.6999C827.45 65.3369 828.298 65.5961 828.661 66.2788L830.426 65.3398C829.545 63.6819 827.486 63.0525 825.828 63.934L826.767 65.6999Z" fill="#1C85FF" mask="url(#path-7-inside-1)"/>
<mask id="path-9-inside-2" fill="white">
<path fill-rule="evenodd" clip-rule="evenodd" d="M149.323 49.0902C148.187 48.4076 146.713 48.7752 146.03 49.9113L145.412 50.9399L144.383 50.3219C143.247 49.6392 141.773 50.0068 141.09 51.143C140.408 52.2792 140.775 53.7536 141.911 54.4363L142.94 55.0543L142.322 56.0829C141.639 57.2191 142.007 58.6936 143.143 59.3762C144.279 60.0589 145.754 59.6913 146.436 58.5551L147.054 57.5265L148.083 58.1446C149.219 58.8272 150.694 58.4596 151.376 57.3235C152.059 56.1873 151.691 54.7128 150.555 54.0302L149.526 53.4121L150.145 52.3835C150.827 51.2474 150.46 49.7729 149.323 49.0902Z"/>
</mask>
<path d="M145.412 50.9399L144.897 51.7971L145.754 52.3121L146.269 51.455L145.412 50.9399ZM144.383 50.3219L143.868 51.1791L144.383 50.3219ZM141.911 54.4363L142.426 53.5791L141.911 54.4363ZM142.94 55.0543L143.797 55.5694L144.312 54.7122L143.455 54.1972L142.94 55.0543ZM142.322 56.0829L141.465 55.5679L142.322 56.0829ZM147.054 57.5265L147.569 56.6694L146.712 56.1543L146.197 57.0115L147.054 57.5265ZM148.083 58.1446L147.568 59.0017L148.083 58.1446ZM150.555 54.0302L151.07 53.173L150.555 54.0302ZM149.526 53.4121L148.669 52.8971L148.154 53.7543L149.011 54.2693L149.526 53.4121ZM146.887 50.4264C147.286 49.7636 148.146 49.5492 148.808 49.9474L149.838 48.2331C148.229 47.2659 146.14 47.7867 145.173 49.3963L146.887 50.4264ZM146.269 51.455L146.887 50.4264L145.173 49.3963L144.555 50.4249L146.269 51.455ZM143.868 51.1791L144.897 51.7971L145.927 50.0828L144.899 49.4647L143.868 51.1791ZM141.947 51.658C142.346 50.9953 143.206 50.7808 143.868 51.1791L144.899 49.4647C143.289 48.4976 141.2 49.0184 140.233 50.628L141.947 51.658ZM142.426 53.5791C141.764 53.1809 141.549 52.3208 141.947 51.658L140.233 50.628C139.266 52.2375 139.787 54.3263 141.396 55.2935L142.426 53.5791ZM143.455 54.1972L142.426 53.5791L141.396 55.2935L142.425 55.9115L143.455 54.1972ZM143.179 56.598L143.797 55.5694L142.083 54.5393L141.465 55.5679L143.179 56.598ZM143.658 58.5191C142.995 58.1208 142.781 57.2607 143.179 56.598L141.465 55.5679C140.498 57.1775 141.018 59.2663 142.628 60.2334L143.658 58.5191ZM145.579 58.0401C145.181 58.7028 144.321 58.9173 143.658 58.5191L142.628 60.2334C144.237 61.2005 146.326 60.6797 147.293 59.0702L145.579 58.0401ZM146.197 57.0115L145.579 58.0401L147.293 59.0702L147.911 58.0416L146.197 57.0115ZM148.598 57.2874L147.569 56.6694L146.539 58.3837L147.568 59.0017L148.598 57.2874ZM150.519 56.8084C150.121 57.4712 149.261 57.6856 148.598 57.2874L147.568 59.0017C149.177 59.9689 151.266 59.4481 152.233 57.8385L150.519 56.8084ZM150.04 54.8873C150.703 55.2856 150.917 56.1457 150.519 56.8084L152.233 57.8385C153.2 56.2289 152.68 54.1401 151.07 53.173L150.04 54.8873ZM149.011 54.2693L150.04 54.8873L151.07 53.173L150.042 52.555L149.011 54.2693ZM149.287 51.8685L148.669 52.8971L150.384 53.9272L151.002 52.8986L149.287 51.8685ZM148.808 49.9474C149.471 50.3456 149.686 51.2057 149.287 51.8685L151.002 52.8986C151.969 51.289 151.448 49.2002 149.838 48.2331L148.808 49.9474Z" fill="#FF7D7D" mask="url(#path-9-inside-2)"/>
<mask id="path-11-inside-3" fill="white">
<path fill-rule="evenodd" clip-rule="evenodd" d="M132.447 172.18C131.323 171.477 129.843 171.819 129.14 172.943L128.504 173.961L127.487 173.325C126.363 172.622 124.882 172.964 124.179 174.088C123.477 175.212 123.819 176.693 124.943 177.395L125.961 178.031L125.325 179.049C124.622 180.173 124.964 181.654 126.088 182.356C127.212 183.058 128.693 182.717 129.395 181.593L130.031 180.575L131.049 181.211C132.173 181.913 133.654 181.571 134.356 180.447C135.058 179.323 134.717 177.843 133.593 177.14L132.575 176.504L133.211 175.487C133.913 174.363 133.571 172.882 132.447 172.18Z"/>
</mask>
<path d="M128.504 173.961L127.974 174.809L128.822 175.339L129.352 174.491L128.504 173.961ZM127.487 173.325L128.017 172.477L127.487 173.325ZM125.961 178.031L126.809 178.561L127.339 177.713L126.491 177.183L125.961 178.031ZM125.325 179.049L126.173 179.579L125.325 179.049ZM130.031 180.575L130.561 179.727L129.713 179.197L129.183 180.045L130.031 180.575ZM132.575 176.504L131.727 175.974L131.197 176.822L132.045 177.352L132.575 176.504ZM133.211 175.487L134.059 176.017L133.211 175.487ZM129.988 173.473C130.398 172.817 131.262 172.618 131.917 173.028L132.977 171.331C131.385 170.336 129.287 170.821 128.292 172.413L129.988 173.473ZM129.352 174.491L129.988 173.473L128.292 172.413L127.656 173.431L129.352 174.491ZM126.957 174.173L127.974 174.809L129.034 173.113L128.017 172.477L126.957 174.173ZM125.028 174.618C125.437 173.962 126.301 173.763 126.957 174.173L128.017 172.477C126.424 171.482 124.327 171.966 123.331 173.558L125.028 174.618ZM125.473 176.547C124.817 176.138 124.618 175.274 125.028 174.618L123.331 173.558C122.336 175.151 122.821 177.248 124.413 178.243L125.473 176.547ZM126.491 177.183L125.473 176.547L124.413 178.243L125.431 178.879L126.491 177.183ZM126.173 179.579L126.809 178.561L125.113 177.501L124.477 178.519L126.173 179.579ZM126.618 181.508C125.962 181.098 125.763 180.235 126.173 179.579L124.477 178.519C123.482 180.111 123.966 182.209 125.558 183.204L126.618 181.508ZM128.547 181.063C128.138 181.718 127.274 181.918 126.618 181.508L125.558 183.204C127.151 184.199 129.248 183.715 130.243 182.123L128.547 181.063ZM129.183 180.045L128.547 181.063L130.243 182.123L130.879 181.105L129.183 180.045ZM131.579 180.363L130.561 179.727L129.501 181.423L130.519 182.059L131.579 180.363ZM133.508 179.917C133.098 180.573 132.235 180.773 131.579 180.363L130.519 182.059C132.111 183.054 134.209 182.57 135.204 180.977L133.508 179.917ZM133.063 177.988C133.718 178.398 133.918 179.262 133.508 179.917L135.204 180.977C136.199 179.385 135.715 177.287 134.122 176.292L133.063 177.988ZM132.045 177.352L133.063 177.988L134.122 176.292L133.105 175.656L132.045 177.352ZM132.363 174.957L131.727 175.974L133.423 177.034L134.059 176.017L132.363 174.957ZM131.917 173.028C132.573 173.437 132.772 174.301 132.363 174.957L134.059 176.017C135.054 174.424 134.57 172.327 132.977 171.331L131.917 173.028Z" fill="#1C85FF" mask="url(#path-11-inside-3)"/>
</svg>
