<svg width="515" height="566" viewBox="0 0 515 566" fill="none" xmlns="http://www.w3.org/2000/svg">
<path fill-rule="evenodd" clip-rule="evenodd" d="M265 566C395.892 566 502 557.941 502 548C502 538.059 395.892 530 265 530C134.109 530 28 538.059 28 548C28 557.941 134.109 566 265 566Z" fill="url(#paint0_linear)"/>
<path fill-rule="evenodd" clip-rule="evenodd" d="M21.5115 282.313C39.0415 259.865 120.715 209.907 164.708 176.32C208.7 142.733 265.902 73.7317 302.728 52.5365C339.555 31.3412 387.364 11.6404 432.62 26.9314C477.876 42.2225 490.734 67.6905 495.994 91.361C501.253 115.031 522.868 214.702 510.155 299.195C497.442 383.687 475.868 421.665 444.184 463.073C412.5 504.482 365.57 533.739 329.352 540.774C293.134 547.809 227.255 553.211 175.975 535.636C124.695 518.06 67.2091 484.842 33.8068 433.558C7.43801 393.072 3.63622 360.713 0.847643 332.552C-1.49626 308.882 13.3248 292.796 21.5115 282.313Z" fill="url(#paint1_linear)"/>
<path fill-rule="evenodd" clip-rule="evenodd" d="M466.726 50.4022C447.914 30.0795 419.137 24.4887 398.563 29.5413C377.99 34.5939 314.575 49.4174 283.766 79.5546C252.957 109.692 246.648 145.656 246.648 145.656C246.648 145.656 214.255 151.516 201.035 167.189C187.815 182.863 179.925 205.754 179.925 205.754C179.925 205.754 144.319 199.809 127.739 213.178C111.159 226.547 98.9754 259.063 98.9754 259.063C98.9754 259.063 65.629 247.532 49.9039 264.434C34.1788 281.335 24.5606 295.786 24.5606 295.786C24.5606 295.786 7.85519 301.057 5.14569 316.408C2.43618 331.758 10.4223 340.71 20.1527 355.559C29.8832 370.407 56.946 402.837 162.686 402.837C268.425 402.837 344.828 401.553 398.563 348.67C452.299 295.786 481.939 236.479 491.268 167.189C500.597 97.8992 485.537 70.7249 466.726 50.4022Z" fill="url(#paint2_linear)"/>
<path fill-rule="evenodd" clip-rule="evenodd" d="M315.679 22.1598C311.507 26.606 308.722 30.8881 308.722 36.0596C308.722 41.2311 310.162 48.1662 308.722 53.8553C307.281 59.5444 302.578 59.5784 300.993 61.685C299.407 63.7916 298.084 71.0033 303.435 75.4914C308.787 79.9795 311.337 77.6731 310.58 81.9386C309.824 86.2041 307.225 87.8088 310.58 90.3959C313.936 92.9829 323.475 90.3959 323.475 90.3959L321.763 31.5641C321.763 31.5641 331.697 10.8597 327.906 12.6154C324.114 14.3711 319.852 17.7136 315.679 22.1598Z" fill="url(#paint3_linear)"/>
<path fill-rule="evenodd" clip-rule="evenodd" d="M66.9507 243.398C64.3701 247.466 66.2018 256.116 68.1325 261.905C70.0632 267.693 77.3746 276.917 81.1857 281.853C84.9968 286.79 100.537 303.593 105.017 308.05C109.497 312.507 118.373 320.651 118.373 320.651L161.693 308.05L150.998 288.92C150.998 288.92 69.5313 239.33 66.9507 243.398Z" fill="url(#paint4_linear)"/>
<path fill-rule="evenodd" clip-rule="evenodd" d="M123.417 314.813C123.417 314.813 104.757 312.221 98.8483 312.221C92.9392 312.221 90.871 312.221 90.871 312.221C90.871 312.221 77.5606 304.602 74.0078 301.736C70.4549 298.87 63.8674 292.401 59.1327 292.401C54.398 292.401 51.8719 291.571 47.8832 289.769C43.8945 287.967 37.5767 285.768 35 285.768C32.4234 285.768 26.3628 289.099 26.3628 292.401C26.3628 295.703 26.3628 297.026 26.3628 300.29C26.3628 303.554 26.3628 305.475 26.3628 305.475C26.3628 305.475 65.7904 323.256 80.7454 328.328C95.7005 333.4 136.048 338.539 136.048 338.539L123.417 314.813Z" fill="url(#paint5_linear)"/>
<path fill-rule="evenodd" clip-rule="evenodd" d="M250.619 266.055L292.408 260.719H369.706C369.706 260.719 366.694 307.21 362.726 317.728C358.757 328.246 356.505 337.408 347.616 337.408C338.728 337.408 317.193 339.815 317.193 339.815L250.619 266.055Z" fill="url(#paint6_linear)"/>
<path fill-rule="evenodd" clip-rule="evenodd" d="M113.734 272.323L217.159 274.604L156.226 311.932L113.734 272.323Z" fill="url(#paint7_linear)"/>
<path fill-rule="evenodd" clip-rule="evenodd" d="M123.506 314.219C130.868 311.095 150.463 304.716 156.198 302.611C161.934 300.506 173.305 296.033 179.667 292.613C186.028 289.194 209.164 273.396 216.545 270.565C223.926 267.734 237.256 257.23 247.634 260.526C258.012 263.823 289.038 277.714 291.119 277.714C293.199 277.714 307.724 283.847 307.724 283.847C307.724 283.847 324.648 296.53 326.885 309.323C329.121 322.117 326.885 337.154 326.885 337.154C326.885 337.154 305.698 346.24 296.085 347.923C286.472 349.607 244.792 347.923 237.999 347.923C231.206 347.923 225.754 343.98 225.754 343.98C225.754 343.98 204.433 343.98 192.05 343.98C179.667 343.98 146.041 343.98 140.391 343.98C134.741 343.98 132.095 341.608 132.095 341.608C132.095 341.608 125.415 335.79 123.506 331.012C121.596 326.233 121.433 317.777 123.506 314.219Z" fill="url(#paint8_linear)"/>
<path fill-rule="evenodd" clip-rule="evenodd" d="M322.243 136.868C322.243 136.868 392.322 120.672 393.533 120.672C394.745 120.672 380.803 156.337 380.803 156.337L325.151 248.015L281.07 244.999L300.356 192.612L322.243 136.868Z" fill="url(#paint9_linear)"/>
<path fill-rule="evenodd" clip-rule="evenodd" d="M319.062 143.844C319.062 143.844 330.204 154 333.784 155.507C337.364 157.015 344.674 156.965 344.674 156.965C344.674 156.965 336.78 156.965 333.784 156.965C330.788 156.965 317.573 146.427 317.573 146.427L319.062 143.844Z" fill="#8F93D0"/>
<path fill-rule="evenodd" clip-rule="evenodd" d="M378.659 86.2308C378.659 86.2308 391.427 101.512 392.885 103.807C394.343 106.101 396.145 108.888 396.145 108.888C396.145 108.888 392.57 122.831 391.082 124.48C389.595 126.129 370.137 142.268 364.804 145.371C359.471 148.474 344.213 153.447 340.058 153.447C335.902 153.447 322.326 142.098 322.326 142.098L337.941 120.558L345.321 110.295L378.659 86.2308Z" fill="url(#paint10_linear)"/>
<path fill-rule="evenodd" clip-rule="evenodd" d="M339.556 112.028C335.267 113.36 316.071 116.177 311.608 117.609C307.145 119.04 296.013 121.446 290.934 125.982C285.855 130.518 273.58 155.378 271.762 160.936C269.944 166.495 269.683 181.229 267.741 184.965C265.8 188.701 261.066 196.723 261.066 199.602C261.066 202.48 256.9 211.629 256.9 211.629C256.9 211.629 257.098 230.958 258.517 232.741C259.937 234.524 267.741 235.02 267.741 235.02C267.741 235.02 293.542 217.955 296.999 210.447C300.457 202.939 305.195 162.695 305.195 162.695L302.813 150.679C302.813 150.679 313.166 130.152 317.759 125.982C322.352 121.811 343.845 110.696 339.556 112.028Z" fill="url(#paint11_linear)"/>
<path fill-rule="evenodd" clip-rule="evenodd" d="M225.154 183.946C225.682 186.377 226.115 188.298 226.939 190.322C227.763 192.345 228.973 193.262 228.973 195.496C228.973 197.73 233.433 212.008 234.075 216.768C234.717 221.527 239.064 230.931 240.799 234.2C242.534 237.469 248.89 245.601 250.499 246.767C252.109 247.934 253.932 248.085 253.932 248.085L272.496 224.851C272.496 224.851 268.587 217.18 265.024 213.51C261.461 209.841 258.426 208.739 256.765 205.659C255.104 202.578 248.567 190.726 246.958 186.182C245.348 181.637 246.532 175.28 245.719 172.635C244.905 169.99 242.432 163.713 242.432 163.713C242.432 163.713 224.627 181.514 225.154 183.946Z" fill="url(#paint12_linear)"/>
<path fill-rule="evenodd" clip-rule="evenodd" d="M211.748 177.988C214.884 179.63 219.548 180.794 221.857 182.768C224.166 184.742 227.122 185.613 227.122 185.613C227.122 185.613 238.116 186.744 238.943 182.768C239.771 178.792 240.918 174.853 241.803 173.622C242.687 172.392 243.778 167.535 243.778 166.158C243.778 164.781 243.491 159.443 241.803 156.556C240.115 153.669 235.753 151.128 235.753 151.128C235.753 151.128 208.611 176.345 211.748 177.988Z" fill="url(#paint13_linear)"/>
<path fill-rule="evenodd" clip-rule="evenodd" d="M197.343 107.623L218.043 167.44C218.043 167.44 224.322 169.486 227.741 169.486C229.698 169.486 235.75 171.1 241.374 170.094C242.298 169.928 242.937 168.589 241.374 163.162C232.099 130.966 223.445 106.029 221.857 101.966C220.269 97.9021 217.068 98.9497 212.498 99.7152C207.929 100.481 201.846 101.091 199.008 101.966C196.171 102.84 197.343 107.623 197.343 107.623Z" fill="url(#paint14_linear)"/>
<mask id="mask0" mask-type="alpha" maskUnits="userSpaceOnUse" x="197" y="99" width="46" height="72">
<path fill-rule="evenodd" clip-rule="evenodd" d="M197.343 107.623L218.043 167.44C218.043 167.44 224.322 169.486 227.741 169.486C229.698 169.486 235.75 171.1 241.374 170.094C242.298 169.928 242.937 168.589 241.374 163.162C232.099 130.966 223.445 106.029 221.857 101.966C220.269 97.9021 217.068 98.9497 212.498 99.7152C207.929 100.481 201.846 101.091 199.008 101.966C196.171 102.84 197.343 107.623 197.343 107.623Z" fill="white"/>
</mask>
<g mask="url(#mask0)">
<path fill-rule="evenodd" clip-rule="evenodd" d="M198.627 103.23C202.098 102.409 215.309 100.837 217.192 100.837C219.074 100.837 220.369 102.523 221.295 105.538C222.221 108.554 232.214 137.022 233.33 141.65C234.446 146.279 237.435 155.967 238.255 158.59C239.074 161.213 239.872 163.658 239.872 163.658C239.872 163.658 240.983 166.59 241.951 165.124C241.127 162.146 221.849 98.4973 221.849 98.4973L218.938 97.7992L198.627 100.837C198.627 100.837 195.155 104.051 198.627 103.23Z" fill="url(#paint15_linear)"/>
<path fill-rule="evenodd" clip-rule="evenodd" d="M209.449 111.522C211.519 111.522 212.986 113.014 213.469 115.511C213.952 118.008 213.039 119.155 211.322 119.155C209.604 119.155 208.479 117.405 207.649 115.511C206.819 113.617 207.379 111.522 209.449 111.522Z" fill="#383838"/>
</g>
<path fill-rule="evenodd" clip-rule="evenodd" d="M203.078 143.295C201.828 141.519 197.811 139.573 198.524 137.098C199.238 134.623 200.706 131.94 203.078 131.94C205.451 131.94 213.536 133.08 213.536 133.08C213.536 133.08 214.614 136.791 213.113 137.617C211.611 138.443 210.372 139.192 209.279 139.643C208.185 140.093 208.531 140.452 208.531 140.452L209.279 141.833C209.279 141.833 219.043 141.833 220.55 141.833C222.057 141.833 223.184 143.204 223.184 145.158C223.184 147.111 221.48 149.061 220.104 149.061C218.728 149.061 214.807 149.061 213.113 149.061C211.418 149.061 211.395 150.137 211.395 150.137C211.395 150.137 213.113 152.895 213.113 153.531C213.113 154.168 213.113 154.677 213.113 154.677C213.113 154.677 218.897 154.536 220.104 154.033C221.312 153.531 225.501 152.814 226.701 152.814C227.9 152.814 229.774 153.311 229.774 154.677C229.774 156.044 227.388 158.604 224.91 159.39C222.433 160.177 221.514 160.612 220.104 160.612C218.694 160.612 216.256 161.755 216.256 161.755C216.256 161.755 217.389 164.416 218.169 165.109C218.95 165.802 220.55 166.853 220.55 166.853C220.55 166.853 225.228 166.853 227.292 166.853C229.355 166.853 232.211 166.853 233.516 166.853C234.821 166.853 240.222 165.213 241.195 166.853C242.167 168.493 237.92 171.437 235.718 171.946C233.516 172.454 224.446 173.477 222.498 173.477C220.55 173.477 219.212 175.361 219.212 175.361C219.212 175.361 217.578 177.788 216.256 178.26C214.934 178.732 212.026 178.354 209.853 177.322C207.681 176.291 204.768 173.277 204.768 171.946C204.768 170.614 206.213 169.389 206.213 168.121C206.213 166.853 202.522 164.739 203.078 163.521C203.635 162.302 205.365 160.058 205.365 158.015C205.365 155.972 203.91 154.118 203.91 152.814C203.91 151.509 203.078 150.303 203.078 148.333C203.078 146.363 202.3 145.373 203.078 143.295Z" fill="url(#paint16_linear)"/>
<path fill-rule="evenodd" clip-rule="evenodd" d="M337.855 110.414C334.516 112.899 323.369 119.997 318.28 123.734C313.19 127.471 302.134 145.82 300.126 150.419C298.118 155.017 296.324 166.477 296.324 170.929C296.324 175.381 294.48 186.332 293.426 189.967C292.371 193.601 280.995 209.356 278.124 213.809C275.252 218.262 267.948 226.761 264.743 231.209C261.537 235.657 257.799 239.275 256.125 241.192C254.451 243.11 252.004 245.888 252.004 245.888C252.004 245.888 258.092 249.216 263.332 250.606C268.572 251.995 284.491 247.291 284.491 247.291C284.491 247.291 291.051 232.57 294.929 227.387C298.808 222.205 298.17 222.562 302.166 216.874C306.163 211.186 313.083 202.73 313.083 198.564C313.083 194.398 311.677 184.037 313.083 173.352C314.489 162.667 318.498 147.828 323.603 142.268C328.709 136.709 336.068 125.96 337.855 124.847C339.642 123.734 347.4 110.414 347.4 110.414C347.4 110.414 341.194 107.929 337.855 110.414Z" fill="url(#paint17_linear)"/>
<path fill-rule="evenodd" clip-rule="evenodd" d="M319.432 27.8425C318.003 30.0146 316.834 38.4245 315.514 42.7799C314.194 47.1354 314.012 57.0485 314.012 57.0485L317.709 62.629C317.709 62.629 318.695 66.8216 317.709 70.1393C316.722 73.4569 317.227 82.1917 319.432 85.0275C321.638 87.8634 323.033 91.1821 325.033 92.8705C327.034 94.559 329.76 98.6255 330.525 100.804C331.289 102.983 332.593 109.564 334.864 110.824C337.134 112.083 338.687 112.45 338.687 112.45C338.687 112.45 344.209 115.366 351.503 112.45C358.797 109.533 372.84 96.0003 375.244 91.383C377.648 86.7658 379.097 77.2589 379.097 77.2589C379.097 77.2589 389.153 72.3807 391.482 67.2162C393.811 62.0517 392.83 55.0921 390.339 52.7171C387.848 50.3422 379.097 47.7598 379.097 47.7598C379.097 47.7598 361.384 35.5569 351.503 31.3258C341.622 27.0948 320.861 25.6705 319.432 27.8425Z" fill="url(#paint18_linear)"/>
<path fill-rule="evenodd" clip-rule="evenodd" d="M333.063 96.5841C333.063 96.5841 338.437 95.6795 341.958 94.0092C345.479 92.3389 347.163 91.0076 347.163 91.0076C347.163 91.0076 342.15 96.6497 339.471 97.6765C336.792 98.7032 334.126 98.0667 334.126 98.0667L333.063 96.5841Z" fill="url(#paint19_linear)"/>
<path fill-rule="evenodd" clip-rule="evenodd" d="M411.601 40.7506C414.455 40.7506 419.442 39.0284 422.584 45.2824C425.726 51.5364 421.69 59.6658 425.976 67.7875C430.262 75.9092 433.452 77.1785 428.018 82.1889C422.584 87.1993 421.33 87.1441 425.976 92.5561C430.622 97.968 433.283 98.1612 429.63 103C425.976 107.839 423.934 109.484 425.976 113.163C428.018 116.842 430.06 119.146 428.018 120.687C425.976 122.229 417.506 125.766 406.62 117.451C395.734 109.136 383.019 94.0166 383.019 94.0166C383.019 94.0166 393.063 76.4182 398.962 66.2642C404.861 56.1101 408.748 40.7506 411.601 40.7506Z" fill="url(#paint20_linear)"/>
<path fill-rule="evenodd" clip-rule="evenodd" d="M411.75 38.7487C411.75 38.7487 414.811 38.937 415.62 39.9144C416.43 40.8918 415.62 44.2899 415.62 48.7933C415.62 53.2967 405.895 64.5715 405.895 64.5715L411.75 38.7487Z" fill="#8473FD"/>
<path fill-rule="evenodd" clip-rule="evenodd" d="M390.554 99.3591C390.554 103.527 377.618 119.901 375.024 125.408C372.429 130.916 362.189 158.28 357.996 164.875C353.803 171.47 350.927 186.317 347.182 194.306C343.437 202.296 342.649 202.738 339.605 210.105C336.561 217.472 338.434 219.315 336.029 222.225C333.624 225.135 328.318 228.124 325.579 233.928C322.839 239.732 299.032 262.544 299.032 262.544C299.032 262.544 319.14 271.675 328.368 276.291C337.596 280.908 367.552 306.2 367.552 306.2L424.704 198.713C424.704 198.713 438.818 189.213 438.818 171.197C438.818 153.182 419.157 118.079 419.157 118.079C419.157 118.079 390.554 95.1915 390.554 99.3591Z" fill="url(#paint21_linear)"/>
<path fill-rule="evenodd" clip-rule="evenodd" d="M416.716 116.297C420.361 117.836 431.386 124.529 433.902 128.114C436.418 131.698 439.887 138.893 439.887 150.138C439.887 161.384 437.306 173.124 433.902 178.859C430.497 184.595 422.787 200.853 422.787 200.853C422.787 200.853 389.239 236.971 384.409 243.406C379.578 249.841 376.147 251.027 375.161 254.24C374.176 257.454 375.247 258.734 373.706 258.734C372.166 258.734 370.796 258.478 370.796 259.886C370.796 261.294 373.213 263.005 370.796 263.005C368.378 263.005 366.686 266.125 365.363 263.005C364.041 259.886 362.932 250.551 358.569 243.406C354.206 236.261 351.412 227.432 349.918 227.432C348.425 227.432 347.178 227.533 347.801 226.739C348.425 225.945 348.503 223.37 349.21 223.37C349.918 223.37 351.886 224.046 352.549 224.599C353.211 225.152 350.969 221.611 350.969 220.415C350.969 219.219 352.008 218.716 352.549 219.794C353.09 220.872 353.292 222.154 353.975 222.154C354.657 222.154 353.918 218.319 355.166 217.31C356.415 216.301 356.95 215.856 357.76 216.079C358.569 216.301 359.32 216.079 359.32 216.079C359.32 216.079 371.586 187.281 374.305 181.993C377.024 176.706 387.287 159.883 387.287 159.883C387.287 159.883 396.984 136.333 400.482 130.753C403.98 125.173 413.071 114.757 416.716 116.297Z" fill="url(#paint22_linear)"/>
<path fill-rule="evenodd" clip-rule="evenodd" d="M320.857 17.2077C322.623 15.6052 329.495 11.5122 335.046 9.08396C340.598 6.65575 347.534 4.25589 354.521 1.70068C361.509 -0.854529 368.431 0.225598 374.069 1.70068C379.706 3.17576 400.615 4.66655 402.596 15.3007C404.577 25.9348 412.497 27.2724 412.497 32.3409C412.497 37.4094 409.119 49.4986 411.924 53.14C414.728 56.7815 419.302 58.0938 418.472 60.7555C417.642 63.4171 410.088 67.7132 410.088 75.0048C410.088 82.2964 411.333 87.0494 404.187 86.0933C397.041 85.1371 388.959 84.4833 390.102 89.7587C391.245 95.0341 395.897 96.8522 392.999 101.805C390.102 106.758 378.65 106.509 382.743 115.344C386.837 124.178 381.88 127.122 381.88 127.122C381.88 127.122 387.259 121.125 378.143 116.079C369.028 111.033 365.459 110.46 368.331 105.494C371.204 100.528 375.764 90.3505 374.069 86.9979C372.373 83.6454 374.266 77.468 376.969 77.468C379.673 77.468 386.101 70.9375 387.823 67.4152C389.544 63.8929 388.677 55.5759 380.914 47.0614C378.252 48.9733 375.557 53.3022 374.069 55.9769C356.855 47.088 319.411 18.5198 320.857 17.2077Z" fill="url(#paint23_linear)"/>
<path fill-rule="evenodd" clip-rule="evenodd" d="M321.724 16.8111C318.913 19.6744 318.65 22.6944 320.747 27.3841C322.844 32.0738 326.456 36.0566 332.415 36.0566C338.375 36.0566 346.906 37.7996 348.044 42.725C349.183 47.6503 349.263 51.0029 353.256 52.8188C357.249 54.6347 361.022 51.0491 363.248 56.3228C365.473 61.5964 369.291 68.1156 372.236 68.1156C375.181 68.1156 375.814 67.2721 375.814 67.2721C375.814 67.2721 373.044 66.0367 373.044 63.5638C373.044 61.0908 373.729 59.3262 374.955 57.0206C376.181 54.715 374.834 50.9217 375.814 50.9217C376.794 50.9217 380.119 46.5907 380.771 52.8188C381.423 59.0469 379.922 61.7042 382.706 59.3624C385.49 57.0206 387.311 56.3228 389.45 56.3228C391.588 56.3228 393.614 55.8217 393.614 51.9882C393.614 48.1548 388.948 40.7472 385.352 38.6161C380.61 35.805 379.084 29.6645 372.236 28.2296C364.34 26.5751 354.981 27.5289 349.251 25.6234C342.221 23.2858 341.809 16.3309 335.427 15.0845C328.675 13.7656 323.169 15.339 321.724 16.8111Z" fill="url(#paint24_linear)"/>
<path fill-rule="evenodd" clip-rule="evenodd" d="M87.7734 269.484V271.803L179.144 296.707L243.189 259.597V256.725L156.974 237.528L87.7734 269.484Z" fill="url(#paint25_linear)"/>
<path fill-rule="evenodd" clip-rule="evenodd" d="M177.22 294.378L242.582 256.436L156.89 237.634L177.22 294.378Z" fill="url(#paint26_linear)"/>
<path fill-rule="evenodd" clip-rule="evenodd" d="M33.489 191.285L36.8088 189.567L132.294 207.268L179.209 292.818L176.954 294.446L33.489 191.285Z" fill="url(#paint27_linear)"/>
<path fill-rule="evenodd" clip-rule="evenodd" d="M32.9634 191.128L85.4639 268.845L176.934 294.352L129.798 210.12L32.9634 191.128Z" fill="url(#paint28_linear)"/>
<path fill-rule="evenodd" clip-rule="evenodd" d="M175.061 245.004L164.549 252.611L187.246 258.329L201.574 250.436L175.061 245.004Z" fill="#4C56FF"/>
<path fill-rule="evenodd" clip-rule="evenodd" d="M348.679 227.868C346.38 227.868 330.174 231.933 323.307 234.772C316.44 237.612 297.484 240.426 288.353 241.694C279.221 242.962 258.307 245.238 251.758 245.238C245.209 245.238 223.4 245.238 220.612 245.238C217.824 245.238 211.485 247.575 208.214 248.386C204.942 249.196 202.229 250.708 201.289 251.35C200.349 251.993 196.4 256.452 194.906 258.161C193.413 259.87 191.026 264.001 190.215 265.046C189.404 266.092 187.781 268.503 188.593 269.208C189.404 269.912 191.549 269.994 191.549 269.994C191.549 269.994 191.714 271.803 193.31 272.338C194.906 272.873 198.411 272.338 198.411 272.338C198.411 272.338 199.17 272.878 200.577 273.39C201.983 273.902 206.188 271.264 206.188 271.264C206.188 271.264 205.701 273.732 209.196 273.39C211.296 273.184 216.768 269.994 223.787 267.543C231.516 268.597 241.457 266.375 244.42 266.074C246.948 265.401 249.597 264.478 251.115 263.613C255.144 265.046 283.902 266.436 293.364 267.543C302.826 268.65 325.451 269.994 332.746 269.994C340.041 269.994 356.589 265.755 359.135 265.046C361.68 264.338 365.489 261.96 365.489 261.96C365.489 261.96 366.535 257.329 364.057 250.106C361.58 242.883 354.109 228.781 354.109 228.781C354.109 228.781 350.977 227.868 348.679 227.868Z" fill="url(#paint29_linear)"/>
<path fill-rule="evenodd" clip-rule="evenodd" d="M201.536 251.068C201.536 251.068 196.712 251.911 195.439 251.911C194.165 251.911 194.203 253.727 195.439 254.353C196.674 254.979 198.017 254.353 198.017 254.353L201.536 251.068Z" fill="url(#paint30_linear)"/>
<path fill-rule="evenodd" clip-rule="evenodd" d="M17.2468 303.161C32.2037 303.161 57.4089 306.891 74.5176 320.757C91.6264 334.622 97.5757 374 97.5757 374C97.5757 374 56.7532 382.124 37 366.492C17.2468 350.86 2.28994 303.161 17.2468 303.161Z" fill="url(#paint31_linear)"/>
<path fill-rule="evenodd" clip-rule="evenodd" d="M89.3701 354.06C99.2679 346.384 135.898 335.443 153.779 338.076C171.661 340.708 210.268 362.029 210.268 362.029C210.268 362.029 203.433 400.667 179.629 400.667C164.646 400.667 111.379 402.711 89.3701 389.365C76.4131 381.508 85.7022 356.904 89.3701 354.06Z" fill="url(#paint32_linear)"/>
<path fill-rule="evenodd" clip-rule="evenodd" d="M302.754 356.854C302.754 356.854 305.843 332.655 324.444 323.924C343.046 315.193 375.653 313.515 375.653 313.515C375.653 313.515 383.222 331.26 369.289 347.103C355.356 362.945 324.444 371.498 324.444 371.498L302.754 356.854Z" fill="url(#paint33_linear)"/>
<path fill-rule="evenodd" clip-rule="evenodd" d="M202.568 364.465C202.568 364.465 219.969 341.682 245.11 341.682C270.251 341.682 275.355 333.24 291.185 341.682C307.014 350.124 318.546 360.697 318.546 360.697C318.546 360.697 337.427 377.383 330.587 383.079C317.352 394.102 271.852 398.738 261.601 398.738C250.792 398.738 213.212 405.888 192.482 398.738C188.462 397.351 188.462 388.506 189.795 383.079C191.129 377.653 202.568 364.465 202.568 364.465Z" fill="url(#paint34_linear)"/>
<path fill-rule="evenodd" clip-rule="evenodd" d="M362.336 323.201C367.337 308.593 361.344 269.736 381.23 253.802C401.115 237.868 430.528 237.654 430.528 237.654C430.528 237.654 440.999 249.517 434.1 269.793C427.201 290.07 396.164 329.186 396.164 329.186C396.164 329.186 357.334 337.809 362.336 323.201Z" fill="url(#paint35_linear)"/>
<path fill-rule="evenodd" clip-rule="evenodd" d="M414.179 251.778C414.179 237.056 409.646 203.925 426.284 181.148C442.921 158.371 456.438 151.276 456.438 151.276C456.438 151.276 479.141 183.488 472.141 208.124C465.141 232.76 414.179 266.501 414.179 251.778Z" fill="url(#paint36_linear)"/>
<defs>
<linearGradient id="paint0_linear" x1="192.512" y1="561.957" x2="202.337" y2="512.257" gradientUnits="userSpaceOnUse">
<stop stop-color="#283581"/>
<stop offset="1" stop-color="#131730"/>
</linearGradient>
<linearGradient id="paint1_linear" x1="342.32" y1="-3.73824" x2="-144.033" y2="284.025" gradientUnits="userSpaceOnUse">
<stop stop-color="#4C55FF"/>
<stop offset="1" stop-color="#1B7CFF"/>
</linearGradient>
<linearGradient id="paint2_linear" x1="232.381" y1="-110.494" x2="-94.7655" y2="316.491" gradientUnits="userSpaceOnUse">
<stop stop-color="#E3E4FF"/>
<stop offset="1" stop-color="#F6FAFF"/>
</linearGradient>
<linearGradient id="paint3_linear" x1="313.858" y1="-21.6012" x2="265.103" y2="-3.53108" gradientUnits="userSpaceOnUse">
<stop stop-color="#4C55FF"/>
<stop offset="1" stop-color="#1B7CFF"/>
</linearGradient>
<linearGradient id="paint4_linear" x1="65.6775" y1="243.09" x2="65.6775" y2="320.651" gradientUnits="userSpaceOnUse">
<stop stop-color="#283581"/>
<stop offset="1" stop-color="#131730"/>
</linearGradient>
<linearGradient id="paint5_linear" x1="77.4005" y1="266.31" x2="40.1496" y2="343.736" gradientUnits="userSpaceOnUse">
<stop stop-color="#ACB0FF"/>
<stop offset="1" stop-color="#DCEBFF"/>
</linearGradient>
<linearGradient id="paint6_linear" x1="250.619" y1="260.719" x2="250.619" y2="339.815" gradientUnits="userSpaceOnUse">
<stop stop-color="#283581"/>
<stop offset="1" stop-color="#131730"/>
</linearGradient>
<linearGradient id="paint7_linear" x1="113.734" y1="272.323" x2="113.734" y2="311.932" gradientUnits="userSpaceOnUse">
<stop stop-color="#283581"/>
<stop offset="1" stop-color="#131730"/>
</linearGradient>
<linearGradient id="paint8_linear" x1="193.505" y1="338.701" x2="256.763" y2="282.315" gradientUnits="userSpaceOnUse">
<stop stop-color="#283581"/>
<stop offset="1" stop-color="#131730"/>
</linearGradient>
<linearGradient id="paint9_linear" x1="333.445" y1="73.7181" x2="219.273" y2="174.637" gradientUnits="userSpaceOnUse">
<stop stop-color="#ACB0FF"/>
<stop offset="1" stop-color="#98C4FF"/>
</linearGradient>
<linearGradient id="paint10_linear" x1="356.675" y1="61.4466" x2="296.217" y2="127.844" gradientUnits="userSpaceOnUse">
<stop stop-color="#ACB0FF"/>
<stop offset="1" stop-color="#DCEBFF"/>
</linearGradient>
<linearGradient id="paint11_linear" x1="291.689" y1="88.1185" x2="201.397" y2="148.126" gradientUnits="userSpaceOnUse">
<stop stop-color="#4C55FF"/>
<stop offset="1" stop-color="#1B7CFF"/>
</linearGradient>
<linearGradient id="paint12_linear" x1="247.175" y1="132.603" x2="182.108" y2="169.124" gradientUnits="userSpaceOnUse">
<stop stop-color="#ACB0FF"/>
<stop offset="1" stop-color="#DCEBFF"/>
</linearGradient>
<linearGradient id="paint13_linear" x1="226.478" y1="138.321" x2="195.177" y2="167.477" gradientUnits="userSpaceOnUse">
<stop stop-color="#ACB0FF"/>
<stop offset="1" stop-color="#DCEBFF"/>
</linearGradient>
<linearGradient id="paint14_linear" x1="227.16" y1="95.5725" x2="176.673" y2="114.986" gradientUnits="userSpaceOnUse">
<stop stop-color="#4C55FF"/>
<stop offset="1" stop-color="#1B7CFF"/>
</linearGradient>
<linearGradient id="paint15_linear" x1="235.118" y1="54.2549" x2="171.246" y2="59.8722" gradientUnits="userSpaceOnUse">
<stop stop-color="#ACB0FF" stop-opacity="0.01"/>
<stop offset="1" stop-color="#DCEBFF"/>
</linearGradient>
<linearGradient id="paint16_linear" x1="226.703" y1="140.28" x2="189.737" y2="156.026" gradientUnits="userSpaceOnUse">
<stop stop-color="#ACB0FF"/>
<stop offset="1" stop-color="#DCEBFF"/>
</linearGradient>
<linearGradient id="paint17_linear" x1="265.789" y1="131.31" x2="220.79" y2="213.19" gradientUnits="userSpaceOnUse">
<stop stop-color="#4C55FF"/>
<stop offset="1" stop-color="#1B7CFF"/>
</linearGradient>
<linearGradient id="paint18_linear" x1="358.314" y1="1.45667" x2="293.776" y2="56.7841" gradientUnits="userSpaceOnUse">
<stop stop-color="#ACB0FF"/>
<stop offset="1" stop-color="white"/>
</linearGradient>
<linearGradient id="paint19_linear" x1="339.913" y1="87.8657" x2="334.28" y2="98.7419" gradientUnits="userSpaceOnUse">
<stop stop-color="#4C55FF"/>
<stop offset="1" stop-color="#1B7CFF"/>
</linearGradient>
<linearGradient id="paint20_linear" x1="406.494" y1="5.15406" x2="338.65" y2="45.0196" gradientUnits="userSpaceOnUse">
<stop stop-color="#4C55FF"/>
<stop offset="1" stop-color="#1B7CFF"/>
</linearGradient>
<linearGradient id="paint21_linear" x1="392.056" y1="88.7604" x2="238.849" y2="151.31" gradientUnits="userSpaceOnUse">
<stop stop-color="#4C55FF"/>
<stop offset="1" stop-color="#1B7CFF"/>
</linearGradient>
<linearGradient id="paint22_linear" x1="409.027" y1="109.029" x2="305.752" y2="147.973" gradientUnits="userSpaceOnUse">
<stop stop-color="#4C55FF"/>
<stop offset="1" stop-color="#1B7CFF"/>
</linearGradient>
<linearGradient id="paint23_linear" x1="385.869" y1="-5.92946" x2="283.219" y2="41.9674" gradientUnits="userSpaceOnUse">
<stop stop-color="#4C55FF"/>
<stop offset="1" stop-color="#1B7CFF"/>
</linearGradient>
<linearGradient id="paint24_linear" x1="297.984" y1="11.9054" x2="295.743" y2="54.0985" gradientUnits="userSpaceOnUse">
<stop stop-color="#4C55FF"/>
<stop offset="1" stop-color="#1B7CFF"/>
</linearGradient>
<linearGradient id="paint25_linear" x1="43.0171" y1="234.561" x2="41.7057" y2="281.305" gradientUnits="userSpaceOnUse">
<stop stop-color="#4C55FF"/>
<stop offset="1" stop-color="#1B7CFF"/>
</linearGradient>
<linearGradient id="paint26_linear" x1="132.213" y1="234.788" x2="130.03" y2="279.537" gradientUnits="userSpaceOnUse">
<stop stop-color="#4C55FF"/>
<stop offset="1" stop-color="#1B7CFF"/>
</linearGradient>
<linearGradient id="paint27_linear" x1="139.733" y1="218.061" x2="34.0636" y2="242.161" gradientUnits="userSpaceOnUse">
<stop stop-color="#4C55FF"/>
<stop offset="1" stop-color="#1B7CFF"/>
</linearGradient>
<linearGradient id="paint28_linear" x1="-8.49714" y1="185.952" x2="-12.7955" y2="267.322" gradientUnits="userSpaceOnUse">
<stop stop-color="#4C55FF"/>
<stop offset="1" stop-color="#1B7CFF"/>
</linearGradient>
<linearGradient id="paint29_linear" x1="270.931" y1="211.052" x2="251.064" y2="288.346" gradientUnits="userSpaceOnUse">
<stop stop-color="#ACB0FF"/>
<stop offset="1" stop-color="#DCEBFF"/>
</linearGradient>
<linearGradient id="paint30_linear" x1="197.773" y1="249.742" x2="195.138" y2="254.895" gradientUnits="userSpaceOnUse">
<stop stop-color="#ACB0FF"/>
<stop offset="1" stop-color="#DCEBFF"/>
</linearGradient>
<linearGradient id="paint31_linear" x1="51.3737" y1="276.016" x2="-14.2884" y2="353.088" gradientUnits="userSpaceOnUse">
<stop stop-color="#E3E4FF"/>
<stop offset="1" stop-color="#F6FAFF"/>
</linearGradient>
<linearGradient id="paint32_linear" x1="117.511" y1="401.358" x2="211.457" y2="373.194" gradientUnits="userSpaceOnUse">
<stop stop-color="#ECEFFF"/>
<stop offset="1" stop-color="#CCE2FF"/>
</linearGradient>
<linearGradient id="paint33_linear" x1="354.01" y1="337.931" x2="337.872" y2="317.737" gradientUnits="userSpaceOnUse">
<stop stop-color="#ECEFFF"/>
<stop offset="1" stop-color="#CCE2FF"/>
</linearGradient>
<linearGradient id="paint34_linear" x1="168.767" y1="358.562" x2="174.174" y2="399.872" gradientUnits="userSpaceOnUse">
<stop stop-color="#E3E4FF"/>
<stop offset="1" stop-color="#F6FAFF"/>
</linearGradient>
<linearGradient id="paint35_linear" x1="414.628" y1="264.429" x2="380.658" y2="255.181" gradientUnits="userSpaceOnUse">
<stop stop-color="#E9EBFF"/>
<stop offset="1" stop-color="#F6FAFF"/>
</linearGradient>
<linearGradient id="paint36_linear" x1="455.753" y1="179.812" x2="418.585" y2="178.842" gradientUnits="userSpaceOnUse">
<stop stop-color="#E3E4FF"/>
<stop offset="1" stop-color="#F6FAFF"/>
</linearGradient>
</defs>
</svg>
