<svg width="155" height="184" viewBox="0 0 155 184" fill="none" xmlns="http://www.w3.org/2000/svg">
<path fill-rule="evenodd" clip-rule="evenodd" d="M16.1905 3.05176e-05C7.24874 3.05176e-05 0 7.24876 0 16.1905V121.932L2.86102e-05 163.425C2.86102e-05 174.576 9.03962 183.615 20.1905 183.615H93.828C127.499 183.615 154.794 156.32 154.794 122.649C154.794 99.7696 142.191 79.8336 123.548 69.4052C123.93 66.6468 124.127 63.8295 124.127 60.966C124.127 27.2954 96.8318 3.05176e-05 63.1613 3.05176e-05H16.1905Z" fill="url(#paint0_linear)"/>
<g style="mix-blend-mode:overlay">
<path d="M0 16.1905C0 7.24876 7.24874 3.05176e-05 16.1905 3.05176e-05H63.1613C96.8318 3.05176e-05 124.127 27.2954 124.127 60.966C124.127 94.6365 96.8318 121.932 63.1613 121.932H0V16.1905Z" fill="#52B4B9"/>
</g>
<g style="mix-blend-mode:overlay">
<path d="M0 28.6899H47.3243C65.546 28.6899 80.3176 43.4616 80.3176 61.6833C80.3176 79.905 65.546 94.6766 47.3243 94.6766H0V28.6899Z" fill="url(#paint1_linear)"/>
</g>
<g style="mix-blend-mode:overlay">
<path d="M0 61.6832H52.939C86.6096 61.6832 113.905 88.9786 113.905 122.649C113.905 156.32 86.6096 183.615 52.939 183.615H14.8572C6.65177 183.615 0 176.963 0 168.758V61.6832Z" fill="#FE2283"/>
</g>
<g style="mix-blend-mode:overlay" opacity="0.430915">
<path fill-rule="evenodd" clip-rule="evenodd" d="M0 94.6765H51.6277C67.4727 94.6765 80.3176 107.521 80.3176 123.366C80.3176 139.211 67.4727 152.056 51.6277 152.056H0V94.6765Z" fill="url(#paint2_linear)"/>
</g>
<defs>
<linearGradient id="paint0_linear" x1="77.397" y1="-91.8075" x2="-103.574" y2="60.757" gradientUnits="userSpaceOnUse">
<stop stop-color="#022CBE"/>
<stop offset="1" stop-color="#2EB9F8"/>
</linearGradient>
<linearGradient id="paint1_linear" x1="80.3176" y1="28.6899" x2="0" y2="28.6899" gradientUnits="userSpaceOnUse">
<stop stop-color="#224CFE" stop-opacity="0.01"/>
<stop offset="1" stop-color="#224CFE"/>
</linearGradient>
<linearGradient id="paint2_linear" x1="2.59335" y1="151.13" x2="80.3176" y2="151.13" gradientUnits="userSpaceOnUse">
<stop stop-color="#390097" stop-opacity="0.01"/>
<stop offset="1" stop-color="#390097"/>
</linearGradient>
</defs>
</svg>
