<svg width="30" height="20" viewBox="0 0 30 20" fill="none" xmlns="http://www.w3.org/2000/svg">
<path d="M11 1H28.3848" stroke="#4C55FF" stroke-width="2" stroke-linecap="round"/>
<path d="M1 9C0.447715 9 0 9.44772 0 10C0 10.5523 0.447715 11 1 11L1 9ZM13.1825 11C13.7348 11 14.1825 10.5523 14.1825 10C14.1825 9.44772 13.7348 9 13.1825 9V11ZM20.5331 9C19.9808 9 19.5331 9.44772 19.5331 10C19.5331 10.5523 19.9808 11 20.5331 11V9ZM28.3848 11C28.9371 11 29.3848 10.5523 29.3848 10C29.3848 9.44772 28.9371 9 28.3848 9L28.3848 11ZM1 11H13.1825V9H1L1 11ZM20.5331 11H28.3848L28.3848 9H20.5331V11Z" fill="#4C55FF"/>
<path d="M9 19H28.3848" stroke="#4C55FF" stroke-width="2" stroke-linecap="round"/>
</svg>
