<svg width="290" height="230" viewBox="0 0 290 230" fill="none" xmlns="http://www.w3.org/2000/svg">
<path fill-rule="evenodd" clip-rule="evenodd" d="M199.479 0.950624C192.782 -1.77916 183.069 1.87989 175.052 5.49031C167.034 9.10072 167.444 12.6045 160.443 13.9647C153.441 15.3249 151.202 12.5627 151.202 12.5627C151.202 12.5627 155.025 18.4873 160.443 18.4873C153.332 21.0985 153.237 24.7848 149.428 26.2722C145.619 27.7595 142.854 26.2722 142.854 26.2722C142.854 26.2722 140.22 33.9922 145.711 37.2229C143.031 41.027 149.43 49.0013 153.026 51.5613C156.622 54.1213 164.605 56.8613 164.605 56.8613L218.957 63.5505H226.29C226.29 63.5505 232.487 59.2745 233.744 51.5613C235.001 43.8481 234.491 41.6286 236.365 38.4491C238.239 35.2696 238.628 28.3312 232.459 24.1073C226.29 19.8833 225.461 15.2063 222.209 10.3483C218.957 5.49031 209.663 0.193725 199.479 0.950624Z" fill="url(#paint0_linear)"/>
<path fill-rule="evenodd" clip-rule="evenodd" d="M231.251 62C231.251 62 237.97 69.883 239.076 76.4775C240.183 83.072 236.349 85.2556 241.077 86.487C245.804 87.7183 246.802 88.5725 246.802 90.9746C246.802 93.3767 253.862 89.733 253.862 92.7231C253.862 95.7131 262.564 93.7752 266.158 98.9797C269.753 104.184 280.021 104.729 282.468 110.11C284.914 115.491 288.201 122.436 289.607 126.506C291.013 130.577 287.598 134.895 287.598 139.114C287.598 143.333 289.607 146.808 289.607 154.856C289.607 162.905 280.37 190.898 280.37 199.889C280.37 208.879 282.267 224.463 276.835 226.409C271.402 228.354 266.158 229.078 252.573 229.078C238.987 229.078 203.291 212.688 203.291 212.688C203.291 212.688 218.032 210.977 220.798 201.756C223.565 192.535 217.42 188.043 213.324 188.043C209.228 188.043 203.291 188.043 203.291 188.043L92 203.672C92 203.672 118.822 118.742 123.295 112.493C127.768 106.244 130.842 104.193 136.527 101.587C142.212 98.9797 144.723 97.8294 144.723 97.8294C144.723 97.8294 142.703 88.5879 146.103 80.4455C149.504 72.303 155.749 68.4614 155.749 68.4614L231.251 62Z" fill="url(#paint1_linear)"/>
<path fill-rule="evenodd" clip-rule="evenodd" d="M155.229 71C155.229 71 148.257 82.7203 150.581 91.319C152.905 99.9176 157.296 105.028 164.541 111.498C171.787 117.967 177.768 121.439 177.768 121.439L171.629 102.446L155.229 71Z" fill="#131730"/>
<path fill-rule="evenodd" clip-rule="evenodd" d="M226.938 71.8941C226.938 71.8941 230.398 81.1088 225.284 89.3495C220.171 97.5902 205.299 116.356 199.232 118.577C193.165 120.797 191 121.943 191 121.943C191 121.943 199.265 112.817 204.466 101.083C209.667 89.3495 217.598 68 217.598 68L226.938 71.8941Z" fill="#131730"/>
<path fill-rule="evenodd" clip-rule="evenodd" d="M171 105.887L172.238 114.828C172.238 114.828 181.085 122.474 186.035 122.474C190.984 122.474 203.921 114.789 209.837 107.381C215.753 99.972 217.323 94.1036 217.323 94.1036V81L171 105.887Z" fill="url(#paint2_linear)"/>
<path fill-rule="evenodd" clip-rule="evenodd" d="M166.945 26C166.945 26 161.829 35.1493 159.935 37.2997C158.041 39.4501 158.058 41.5954 158.049 44.7032C158.041 47.811 157.698 57.7838 155.387 64.6675C153.076 71.5513 161.767 92.9766 164.356 98.7724C166.945 104.568 174.168 109.323 180.501 109.323C186.833 109.323 208.397 96.2568 213.169 90.7349C217.941 85.213 218.05 73.2264 218.05 73.2264C218.05 73.2264 225.102 71.8116 227.08 69.7365C229.058 67.6614 230.675 56.3408 230.675 56.3408C230.675 56.3408 226.055 50.487 223.264 54.3244C220.474 58.1618 218.05 59.1619 218.05 59.1619C218.05 59.1619 215.102 48.6592 210.442 46.6812C205.783 44.7032 201.291 44.2765 197.064 41.7259C192.837 39.1753 191.796 30.375 187.172 30.375C182.549 30.375 176.774 26.5547 176.774 30.375C176.774 34.1953 179.244 37.2997 179.244 37.2997C179.244 37.2997 173.555 35.1894 171.763 32.7822C169.971 30.375 169.87 26 169.87 26H166.945Z" fill="url(#paint3_linear)"/>
<path fill-rule="evenodd" clip-rule="evenodd" d="M168.523 125L167 170.712L170.8 172.941V126.684L168.523 125Z" fill="#131730"/>
<path fill-rule="evenodd" clip-rule="evenodd" d="M200 127.348L202.056 182.699H205.545L202.773 126L200 127.348Z" fill="#131730"/>
<path fill-rule="evenodd" clip-rule="evenodd" d="M0.72761 117.052C0.347734 115.229 1.70424 113.503 3.56601 113.442L136.129 109.085C137.61 109.036 138.904 110.075 139.177 111.531L159.027 217.589H21.6702L0.72761 117.052Z" fill="#99ABFF"/>
<path fill-rule="evenodd" clip-rule="evenodd" d="M10.3606 217.822L248.147 214V229.286H6V217.822H10.3606Z" fill="#ADBBFF"/>
<path fill-rule="evenodd" clip-rule="evenodd" d="M204.919 185.483C204.919 185.483 192.085 183.074 188.827 183.877C185.569 184.68 183.944 184.58 183.944 184.58C183.944 184.58 178.892 179.251 172.91 176.187C166.928 173.122 164.076 172.377 162.693 171.366C161.31 170.355 160.923 170.66 157.868 169.396C154.812 168.132 155.069 170.66 151.682 169.396C148.296 168.132 147.362 170.035 147.829 173.111C148.296 176.187 156.593 178.963 156.593 178.963C156.593 178.963 150.837 180.528 147.829 180.528C144.822 180.528 140.118 181.773 140.118 181.773C140.118 181.773 136.554 182.339 134.651 184.58C132.748 186.82 134.651 190.11 134.651 190.11C134.651 190.11 132.409 192.16 132.036 194.485C131.663 196.81 134.286 198.962 135.926 199.657C137.566 200.351 135.7 204.181 136.441 205.654C137.182 207.128 139.153 208.288 139.636 208.999C140.118 209.71 140.987 211.337 140.987 213.284C140.987 215.232 144.308 217.967 147.131 218.978C149.954 219.989 153.414 219.851 157.868 219.851C162.321 219.851 168.926 219.851 170.918 219.851C172.91 219.851 179.36 219.803 181.31 218.542C183.261 217.28 186.413 214.466 189.62 214.466C192.827 214.466 203.119 218.12 203.119 218.12C203.119 218.12 220.045 219.665 224.643 209.661C229.241 199.657 223.22 192.818 219.695 190.11C216.17 187.403 204.919 185.483 204.919 185.483Z" fill="url(#paint4_linear)"/>
<path fill-rule="evenodd" clip-rule="evenodd" d="M168 89.6908C168 89.6908 178.039 90.4817 183.669 88C180.324 92.9261 169.18 92.9261 169.18 92.9261L168 89.6908Z" fill="#1B2351"/>
<defs>
<linearGradient id="paint0_linear" x1="114.475" y1="-3.18685" x2="112.02" y2="46.9293" gradientUnits="userSpaceOnUse">
<stop stop-color="#4C55FF"/>
<stop offset="1" stop-color="#1B7CFF"/>
</linearGradient>
<linearGradient id="paint1_linear" x1="160.702" y1="210.314" x2="251.067" y2="169.185" gradientUnits="userSpaceOnUse">
<stop stop-color="#283581"/>
<stop offset="1" stop-color="#131730"/>
</linearGradient>
<linearGradient id="paint2_linear" x1="192.555" y1="65.7075" x2="155.314" y2="107.302" gradientUnits="userSpaceOnUse">
<stop stop-color="#ACB0FF"/>
<stop offset="1" stop-color="#DCEBFF"/>
</linearGradient>
<linearGradient id="paint3_linear" x1="190.212" y1="-4.72309" x2="115.285" y2="63.3267" gradientUnits="userSpaceOnUse">
<stop stop-color="#ACB0FF"/>
<stop offset="1" stop-color="#DCEBFF"/>
</linearGradient>
<linearGradient id="paint4_linear" x1="175.882" y1="150.248" x2="137.492" y2="221.435" gradientUnits="userSpaceOnUse">
<stop stop-color="#ACB0FF"/>
<stop offset="1" stop-color="#DCEBFF"/>
</linearGradient>
</defs>
</svg>
