<svg width="330" height="266" viewBox="0 0 330 266" fill="none" xmlns="http://www.w3.org/2000/svg">
<mask id="mask0" mask-type="alpha" maskUnits="userSpaceOnUse" x="0" y="0" width="330" height="266">
<path fill-rule="evenodd" clip-rule="evenodd" d="M318.138 265.689C326.069 246.375 330 228.172 330 206C330 114.873 300.364 0.921387 209.237 0.921387C186.802 0.921387 116.123 9.53572 87.3196 22.7635C53.8536 38.1326 62.6975 59.5111 46.4726 77.4163C19.9397 106.697 0 163.374 0 206C0 227.049 3.94158 247.178 11.1269 265.689C57.6864 265.603 279.093 265.689 318.138 265.689Z" fill="white"/>
</mask>
<g mask="url(#mask0)">
<path fill-rule="evenodd" clip-rule="evenodd" d="M45.9243 128.665L125.818 120.562L142.515 271.345L64.3167 266.171L45.9243 128.665Z" fill="#778DF6"/>
<path fill-rule="evenodd" clip-rule="evenodd" d="M49.716 128.279C49.716 128.279 47.5909 134.088 49.716 145.11C51.8411 156.132 64.4939 269.573 64.4939 269.573H52.4675C52.4675 269.573 39.0376 139.124 39.0376 133.701C39.0376 128.279 49.716 128.279 49.716 128.279Z" fill="#99ABFF"/>
<path fill-rule="evenodd" clip-rule="evenodd" d="M181.546 188.024L192.119 185.284L299.682 214.316L280.073 216.637L181.546 188.024Z" fill="#ADBBFF"/>
<path fill-rule="evenodd" clip-rule="evenodd" d="M181.679 188.045L182.336 193.593L280.073 224.058V216.637L181.679 188.045Z" fill="#99ABFF"/>
<path fill-rule="evenodd" clip-rule="evenodd" d="M279.82 223.947V216.465L299.682 214.316V222.206L279.82 223.947Z" fill="#99ABFF"/>
<path fill-rule="evenodd" clip-rule="evenodd" d="M234.526 233.206C234.526 233.206 277.673 247.745 284.846 252.338C292.019 256.931 297.047 270.354 297.047 270.354L171.793 278.524L120.899 270.354L116.02 262.992C116.02 262.992 134.888 242.924 153.34 241.529C171.793 240.135 234.526 233.206 234.526 233.206Z" fill="url(#paint0_linear)"/>
<path fill-rule="evenodd" clip-rule="evenodd" d="M104.536 44.1731C104.267 41.9825 105.08 33.2185 111.21 29.8883C117.34 26.5581 123.559 19.9042 131.66 23.2312C139.761 26.5581 143.322 26.5965 145.423 26.5773C147.524 26.5581 151.246 23.2312 151.246 23.2312C151.246 23.2312 151.582 26.6164 150.324 27.8033C152.758 26.8971 156.319 26.6023 159.258 28.2453C162.196 29.8883 167.27 35.167 167.27 35.167H163.818C163.818 35.167 168.595 37.8675 170.356 42.2903C172.118 46.7131 175.337 52.5898 175.337 52.5898C175.337 52.5898 173.635 56.7704 172.988 58.1488C172.341 59.5272 170.996 70.5818 170.356 72.6456C169.717 74.7093 165.987 81.5279 165.987 81.5279C165.987 81.5279 155.607 82.1465 152.966 79.0064C150.324 75.8663 104.536 67.6857 104.536 67.6857C104.536 67.6857 103.093 64.8543 103.477 61.754C103.862 58.6537 105.35 52.5898 105.35 52.5898C105.35 52.5898 102.873 55.5714 102.444 57.3795C102.505 53.4567 106.256 48.3886 106.256 48.3886C106.256 48.3886 104.806 46.3636 104.536 44.1731Z" fill="url(#paint1_linear)"/>
<path fill-rule="evenodd" clip-rule="evenodd" d="M161.183 111.527C161.183 111.527 177.381 113.279 181.636 113.279C185.892 113.279 195.592 113.765 198.135 114.629C200.677 115.494 204.694 116.773 207.65 120.527C210.607 124.28 223.943 136.45 224.774 137.503C225.606 138.555 236.743 149.916 236.743 149.916C236.743 149.916 227.494 155.06 224.774 157.617C222.055 160.175 216.503 164.862 216.503 164.862L205.578 174.273C205.578 174.273 205.776 185.937 204.559 189.836C203.341 193.736 202.067 194.357 203.313 196.762C204.559 199.167 203.903 199.493 203.313 200.26C202.722 201.027 152.947 252.122 152.947 252.122C152.947 252.122 131.225 256.159 124.72 260.27C118.215 264.381 109.592 271.663 109.592 271.663L101.315 265.655L96.6238 257.361L94.7375 230.406L65.4264 177.507C65.4264 177.507 64.0018 172.106 65.4264 164.862C66.8511 157.617 67.7201 138.714 73.9398 129.62C80.1594 120.527 84.2067 119.916 87.9975 117.272C91.7884 114.629 94.7375 113.279 98.9784 113.279C103.219 113.279 112.763 111.527 112.763 111.527H161.183Z" fill="url(#paint2_linear)"/>
<path fill-rule="evenodd" clip-rule="evenodd" d="M159.746 102.804L161.217 111.59C161.217 111.59 167.117 116.9 168.174 121.298C169.231 125.697 168.349 138.528 155.827 138.528C143.304 138.528 126.431 134.007 123.951 128.493C121.472 122.979 122.952 118.329 122.952 118.329L159.746 102.804Z" fill="url(#paint3_linear)"/>
<path fill-rule="evenodd" clip-rule="evenodd" d="M113.033 45.311C113.033 45.311 108.298 51.3165 107.149 55.9584C105.999 60.6003 104.141 67.9219 104.141 70.3918C104.141 72.8616 106.742 77.2975 105.814 82.1688C104.886 87.0401 106.447 92.6225 109.158 99.0758C111.869 105.529 111.444 110.853 113.033 113.677C114.623 116.502 115.389 118.931 121.234 118.931C127.078 118.931 134.912 118.395 140.965 116.357C147.019 114.32 153.66 110.501 159.901 103.412C159.901 97.4767 160.824 90.6735 160.824 90.6735C160.824 90.6735 165.526 87.326 167.162 82.1688C168.798 77.0116 168.115 71.2045 167.162 69.642C166.209 68.0795 161.04 67.0587 158.77 69.642C156.5 72.2253 157.472 76.1896 156.986 77.2703C156.5 78.351 152.668 80.8005 152.668 80.8005C152.668 80.8005 147.678 70.2924 144.442 66.4003C141.206 62.5082 137.756 59.9759 137.756 59.9759L139.702 52.178C139.702 52.178 131.4 46.4745 127.267 45.311C123.133 44.1474 117.942 45.2642 116.459 46.3348C114.975 47.4053 113.033 45.311 113.033 45.311Z" fill="url(#paint4_linear)"/>
<path fill-rule="evenodd" clip-rule="evenodd" d="M112.024 97.3949C112.024 97.3949 114.15 98.9841 118.752 98.9841C123.353 98.9841 131.077 96.6111 131.077 96.6111C131.077 96.6111 122.87 102.216 118.752 102.216C114.633 102.216 112.024 97.3949 112.024 97.3949Z" fill="#1B2351"/>
<path fill-rule="evenodd" clip-rule="evenodd" d="M235.935 151.238C235.935 151.238 260.641 168.399 265.332 173.269C270.023 178.14 275.738 189.854 277.276 193.956C278.814 198.059 280.09 208.907 278.685 210.483C275.212 214.381 261.37 224.943 261.37 224.943L228.988 241.551C228.988 241.551 219.565 249.487 213.815 251.131C211.268 251.859 207.154 250.366 196.064 252.151C192.952 251.859 179.258 249.375 179.258 249.375L238.258 204.682L215.362 161.879C215.362 161.879 221.435 155.801 225.111 153.899C228.787 151.998 235.935 151.238 235.935 151.238Z" fill="url(#paint5_linear)"/>
<path fill-rule="evenodd" clip-rule="evenodd" d="M36.6436 218.729L47.216 215.989L125.024 254.1L105.414 256.421L36.6436 218.729Z" fill="#ADBBFF"/>
<path fill-rule="evenodd" clip-rule="evenodd" d="M36.7761 218.75L37.4335 224.298L105.414 263.842V256.421L36.7761 218.75Z" fill="#99ABFF"/>
<path fill-rule="evenodd" clip-rule="evenodd" d="M105.161 263.731V256.249L130.748 253.201V261.091L105.161 263.731Z" fill="#99ABFF"/>
<path fill-rule="evenodd" clip-rule="evenodd" d="M151.88 255.239C149.414 255.701 146.867 255.44 144.546 254.486L107.267 239.17C106.351 238.794 106.48 237.459 107.451 237.264L225.917 213.581C226.162 213.532 226.417 213.576 226.63 213.706L259.119 233.37C259.905 233.845 259.688 235.039 258.786 235.208L151.88 255.239Z" fill="#778DF6"/>
<path fill-rule="evenodd" clip-rule="evenodd" d="M149.174 163.53C148.172 163.654 147.42 164.506 147.42 165.515V252.749C147.42 254.004 148.561 254.948 149.793 254.714L259.931 233.784C260.84 233.611 261.512 232.838 261.556 231.913L265.364 151.52C265.423 150.282 264.351 149.289 263.121 149.441L149.174 163.53Z" fill="#99ABFF"/>
<path fill-rule="evenodd" clip-rule="evenodd" d="M65.2038 174.505C65.2038 174.505 62.645 187.83 63.4979 196.438C64.3508 205.046 67.8023 218.663 67.8023 223.966C67.8023 229.268 71.817 233.238 74.5898 235.596C77.3626 237.954 82.5196 238.705 84.2329 238.33C85.9463 237.954 115.676 249.519 116.987 250.921C118.298 252.322 121.46 266.009 121.46 266.009H145.922C145.922 266.009 141.579 253.796 138.93 249.433C136.281 245.071 132.772 239.781 129.06 238.33C125.349 236.878 101.145 212.162 101.145 212.162C101.145 212.162 99.91 195.388 101.145 189.747C102.38 184.105 103.235 179.465 103.235 179.465C103.235 179.465 97.6952 168.383 86.1425 165.476C74.5898 162.57 65.2038 174.505 65.2038 174.505Z" fill="url(#paint6_linear)"/>
<path fill-rule="evenodd" clip-rule="evenodd" d="M215.598 243.172C215.088 243.153 208.646 241.396 204.933 241.084C201.219 240.772 190.937 238.859 190.937 238.859C190.937 238.859 190.723 242.548 192.673 243.991C194.623 245.434 203.327 246.592 203.327 246.592C203.327 246.592 216.108 243.191 215.598 243.172Z" fill="#D1DEFF"/>
</g>
<defs>
<linearGradient id="paint0_linear" x1="63.8876" y1="230.933" x2="63.2271" y2="266.745" gradientUnits="userSpaceOnUse">
<stop stop-color="#4C55FF"/>
<stop offset="1" stop-color="#1B7CFF"/>
</linearGradient>
<linearGradient id="paint1_linear" x1="81.4519" y1="19.3505" x2="78.6518" y2="66.0632" gradientUnits="userSpaceOnUse">
<stop stop-color="#4C55FF"/>
<stop offset="1" stop-color="#1B7CFF"/>
</linearGradient>
<linearGradient id="paint2_linear" x1="124.42" y1="253.678" x2="205.426" y2="220.248" gradientUnits="userSpaceOnUse">
<stop stop-color="#283581"/>
<stop offset="1" stop-color="#131730"/>
</linearGradient>
<linearGradient id="paint3_linear" x1="143.85" y1="89.6314" x2="112.599" y2="129.962" gradientUnits="userSpaceOnUse">
<stop stop-color="#ACB0FF"/>
<stop offset="1" stop-color="#DCEBFF"/>
</linearGradient>
<linearGradient id="paint4_linear" x1="133.925" y1="17.4888" x2="67.6817" y2="74.6988" gradientUnits="userSpaceOnUse">
<stop stop-color="#ACB0FF"/>
<stop offset="1" stop-color="#DCEBFF"/>
</linearGradient>
<linearGradient id="paint5_linear" x1="225.805" y1="114.028" x2="134.642" y2="204.396" gradientUnits="userSpaceOnUse">
<stop stop-color="#ACB0FF"/>
<stop offset="1" stop-color="#DCEBFF"/>
</linearGradient>
<linearGradient id="paint6_linear" x1="101.737" y1="127.629" x2="12.2266" y2="200.792" gradientUnits="userSpaceOnUse">
<stop stop-color="#ACB0FF"/>
<stop offset="1" stop-color="#DCEBFF"/>
</linearGradient>
</defs>
</svg>
