<svg width="330" height="244" viewBox="0 0 330 244" fill="none" xmlns="http://www.w3.org/2000/svg">
<mask id="mask0" mask-type="alpha" maskUnits="userSpaceOnUse" x="0" y="0" width="330" height="244">
<path fill-rule="evenodd" clip-rule="evenodd" d="M318.138 243.689C326.069 224.375 330 206.172 330 184C330 92.8731 256.127 19 165 19C116.499 19 83.333 -19.4237 53.1436 13.8922C26.6107 43.1729 0 141.374 0 184C0 205.049 3.94158 225.178 11.1269 243.689C57.6864 243.603 279.093 243.689 318.138 243.689Z" fill="white"/>
</mask>
<g mask="url(#mask0)">
<path fill-rule="evenodd" clip-rule="evenodd" d="M275.31 224.796C275.31 224.796 288.56 224.158 292.553 227.622C296.545 231.086 302.044 238.282 302.044 243.412C302.044 248.542 299.03 252.148 299.03 252.148H254.454C254.454 252.148 252.074 235.144 260.409 231.383C268.745 227.622 275.31 224.796 275.31 224.796Z" fill="url(#paint0_linear)"/>
<path fill-rule="evenodd" clip-rule="evenodd" d="M37.4649 117.874C37.4649 117.874 24.1675 127.304 24.1675 132.003C24.1675 136.702 29.5163 147.818 38.8323 165.913C48.1483 184.007 64.4753 209.546 67.6585 220.52C70.8417 231.495 72.1065 249.446 72.1065 249.446L104.81 251.292L82.0436 192.558L37.4649 117.874Z" fill="#99ABFF"/>
<path fill-rule="evenodd" clip-rule="evenodd" d="M228.245 201.491C228.245 201.491 228.431 208.059 227.373 210.982C226.315 213.904 225.04 220.582 225.04 220.582L232.182 225.385C232.182 225.385 235.619 214.627 235.619 210.982C235.619 207.337 235.619 201.491 235.619 201.491H228.245Z" fill="#99ABFF"/>
<path fill-rule="evenodd" clip-rule="evenodd" d="M179.17 194.215C179.17 194.215 197.742 193.823 212.228 197.305C226.713 200.787 236.822 204.252 240.14 204.252C243.458 204.252 247.157 204.411 245.307 201.812C243.458 199.214 226.922 192.261 216.367 190.514C205.813 188.766 177.769 189.077 177.769 189.077L179.17 194.215Z" fill="#99ABFF"/>
<path fill-rule="evenodd" clip-rule="evenodd" d="M173.745 189.214C173.745 189.214 184.403 194.447 186.652 197.02C188.901 199.592 194.886 202.477 197.685 204.869C200.483 207.261 208.594 207.189 211.647 209.639C214.7 212.089 232.64 222.089 232.64 222.089L275.681 225.002C275.681 225.002 263.426 231.047 258.994 242.45C254.561 253.853 99.8124 261.894 99.8124 261.894C99.8124 261.894 93.3013 247.501 93.3013 240.645C93.3013 233.788 145.032 195.683 145.032 195.683L173.745 189.214Z" fill="url(#paint1_linear)"/>
<path fill-rule="evenodd" clip-rule="evenodd" d="M146.95 130.28C146.95 130.28 162.892 156.974 165.014 160.38C167.136 163.785 172.693 168.555 173.595 169.748C174.496 170.941 177.427 170.358 178.508 173.412C175.867 179.324 177.87 190.119 177.87 190.119H173.595C173.595 190.119 159.335 176.859 156.798 168.529C154.261 160.199 146.95 130.28 146.95 130.28Z" fill="url(#paint2_linear)"/>
<path fill-rule="evenodd" clip-rule="evenodd" d="M173.64 191.025C177.367 195.972 182.078 196.333 184.738 194.122C187.397 191.911 198.327 182.001 202.511 176.876C206.695 171.752 221.162 145.125 225.056 141.539C228.95 137.953 241.46 131.499 241.46 131.499L221.983 128.761C221.983 128.761 215.659 135.697 211.427 139.624C207.195 143.55 184.788 159.722 179.637 166.966C174.487 174.21 169.914 186.077 173.64 191.025Z" fill="url(#paint3_linear)"/>
<path fill-rule="evenodd" clip-rule="evenodd" d="M131.955 117.829C131.955 117.829 149.965 130.121 154.189 140.721C158.412 151.321 157.531 165.038 161.066 170.898C164.6 176.759 184.035 195.041 184.035 195.041C184.035 195.041 179.89 203.674 170.092 213.525C160.293 223.375 138.849 233.195 138.849 233.195C138.849 233.195 127.229 239.769 115.526 241.882C103.823 243.996 92.9071 240.077 92.9071 240.077C92.9071 240.077 91.3783 238.242 91.3783 233.195C91.3783 228.148 87.1122 218.019 87.1122 218.019L57.1168 126.074L47.0165 106.377C47.0165 106.377 60.5444 94.422 67.1293 96.9817C73.7143 99.5413 76.6136 110.364 84.7603 114.096C92.9071 117.829 98.8228 116.924 101.616 114.096C104.409 111.268 104.409 106.377 104.409 106.377L131.955 117.829Z" fill="url(#paint4_linear)"/>
<path fill-rule="evenodd" clip-rule="evenodd" d="M155.745 235.967V245.557H163.315L165.361 238.387L155.745 235.967Z" fill="#99ABFF"/>
<path fill-rule="evenodd" clip-rule="evenodd" d="M73.9507 225.711C73.9507 225.711 92.0087 220.719 100.924 220.719C109.839 220.719 150.375 219.818 161.707 225.711C173.039 231.604 176.013 235.344 176.013 235.344C176.013 235.344 173.628 240.906 164.796 239.633C155.963 238.36 140.517 230.27 124.982 230.27C109.447 230.27 82.9951 231.137 79.1872 233.24C75.3793 235.344 72.6687 232.913 72.6687 230.27C72.6687 227.627 73.9507 225.711 73.9507 225.711Z" fill="#99ABFF"/>
<path fill-rule="evenodd" clip-rule="evenodd" d="M45.2323 103.923C45.2323 103.923 35.9887 111.863 35.9887 117.449C35.9887 123.034 34.8216 131.647 35.9887 135.664C37.1558 139.68 40.5057 154.312 43.2079 158.633C45.9101 162.953 55.9668 186.043 57.3367 189.703C58.7067 193.362 63.6576 203.321 67.7942 207.67C71.9308 212.019 73.7673 214.629 75.6675 217.072C77.5678 219.514 83.0323 223.913 85.1535 223.913C87.2747 223.913 89.7116 226.113 92.0538 224.278C94.3959 222.443 103.628 211.979 97.5113 195.307C91.395 178.636 76.0235 135.838 73.722 129.984C71.4204 124.13 63.0552 108.8 57.9589 103.923C52.8626 99.0458 45.2323 103.923 45.2323 103.923Z" fill="url(#paint5_linear)"/>
<path fill-rule="evenodd" clip-rule="evenodd" d="M66.3262 86.1766L79.5429 112.361L92.0747 124.011L107.613 122.077L104.769 98.2406L101.583 84.8914L86.0542 87.9026L66.3262 86.1766Z" fill="url(#paint6_linear)"/>
<path fill-rule="evenodd" clip-rule="evenodd" d="M60.9625 78.0865C60.9625 78.0865 63.1476 89.2255 73.17 91.7167C83.1924 94.2078 86.9696 95.5016 92.6921 94.1893C98.4145 92.877 107.961 78.7311 107.961 78.7311L112.963 54.6564L104.972 30.716L85.7261 23.5013L60.6186 39.9546C60.6186 39.9546 58.2399 56.6866 58.3254 66.1661C58.4109 75.6456 60.9625 78.0865 60.9625 78.0865Z" fill="url(#paint7_linear)"/>
<path fill-rule="evenodd" clip-rule="evenodd" d="M77.6426 5.49314C69.0021 6.80934 59.6004 11.5265 54.1184 19.6433C48.6364 27.7601 47.3455 43.3728 41.675 52.4944C36.0044 61.6159 26.7617 77.7101 29.7742 88.0531C32.7866 98.3961 39.0254 101.106 38.5602 106.423C38.095 111.74 28.0673 125.36 27.8719 127.593C27.6766 129.825 29.6194 124.537 32.6524 122.746C35.6854 120.955 38.0172 111.391 43.0088 107.68C48.0004 103.968 53.2073 101.243 57.5485 104.854C61.8898 108.464 71.9979 121.894 73.7243 126.339C75.4508 130.784 76.3921 133.665 76.3921 133.665C76.3921 133.665 78.0771 127.548 74.075 122.331C70.073 117.114 64.0262 106.936 64.0262 106.936C64.0262 106.936 69.8597 111.368 71.7078 113.131C73.556 114.894 73.1496 118.319 74.2457 120.38C75.3417 122.441 79.0451 133.225 82.4114 137.136C85.7778 141.047 86.3022 145.522 85.4811 149.673C84.6599 153.825 85.6578 157.694 89.7631 162.665C93.8683 167.636 102.309 170.571 103.357 175.272C104.405 179.972 101.199 199.942 101.199 199.942C101.199 199.942 109.971 192.725 110.581 185.752C111.191 178.779 111.672 173.29 111.672 173.29C111.672 173.29 114.124 183.464 111.962 189.076C109.8 194.688 109.556 197.476 109.556 197.476C109.556 197.476 117.303 187.909 115.694 176.351C114.086 164.793 108.17 152.888 108.17 152.888C108.17 152.888 112.685 155.318 117.781 152.499C111.982 153.529 104.094 149.061 104.216 147.667C104.338 146.274 98.8605 137.053 99.3156 131.851C99.7707 126.649 96.501 119.528 92.5251 117.066C88.5492 114.604 86.8747 104.864 85.6109 100.566C84.3472 96.2678 82.4042 93.7298 72.9064 88.7439C63.4086 83.758 60.9566 84.8919 60.544 70.6148C60.1315 56.3377 64.2 43.6527 72.9222 36.0313C81.6444 28.41 91.8366 29.4059 91.8366 29.4059C91.8366 29.4059 99.3412 30.7451 102.819 36.8502C106.297 42.9554 106.275 50.3818 107.089 55.4397C107.903 60.4976 107.738 69.8089 107.016 73.0931C106.293 76.3774 100.39 88.8176 100.39 88.8176L100.095 92.1839C100.095 92.1839 96.7707 96.5951 95.1232 101.398C93.4757 106.201 96.9903 113.624 96.9903 113.624C96.9903 113.624 95.909 107.5 97.8566 103.723C99.8041 99.9459 103.475 96.7425 103.475 96.7425C103.475 96.7425 103.887 101.31 101.747 104.063C99.6068 106.817 98.6768 115.438 101.423 120.201C104.169 124.964 113.254 131.078 119.434 133.611C125.614 136.144 138.407 142.035 143.105 145.315C147.804 148.594 153.367 156.587 152.668 164.572C151.97 172.557 151.684 175.825 151.684 175.825C151.684 175.825 157.473 164.395 155.828 155.828C154.183 147.26 159.224 143.093 149.555 136.247C156.681 139.391 161.588 155.617 161.232 159.693C160.875 163.769 161.145 175.096 164.48 175.926C167.814 176.756 169.239 174.728 169.239 174.728C169.239 174.728 163.564 175.846 162.702 170.298C161.84 164.75 168.42 153.062 162.592 144.151C156.763 135.24 146.554 126.995 139.898 124.99C133.241 122.984 124.612 104.366 123.472 87.4578C122.331 70.5498 118.126 33.9824 108.827 23.1373C99.5273 12.2921 90.496 9.57624 90.496 9.57624C90.496 9.57624 86.2832 4.17695 77.6426 5.49314Z" fill="url(#paint8_linear)"/>
<path fill-rule="evenodd" clip-rule="evenodd" d="M91.3556 81.2787C92.8087 80.9212 94.8446 81.1376 94.9926 81.5969C95.1901 82.2104 93.6584 83.165 91.9066 83.3715C90.6554 83.519 88.9926 83.4334 87.2126 82.4824C88.0807 82.1074 89.6962 81.687 91.3556 81.2787Z" fill="#1B2351"/>
<path fill-rule="evenodd" clip-rule="evenodd" d="M84.2952 79.2429C84.2952 79.2429 86.2654 82.6015 86.0638 84.1343C85.8621 85.6671 85.2662 86.5078 85.2662 86.5078C85.2662 86.5078 85.8619 84.6445 85.2662 82.901C84.6705 81.1576 84.2952 79.2429 84.2952 79.2429Z" fill="#B9C1FF"/>
<path fill-rule="evenodd" clip-rule="evenodd" d="M97.1125 78.3372C97.1125 78.3372 96.4913 80.2666 96.9251 81.2221C97.3589 82.1776 98.6677 83.4464 98.6677 83.4464C98.6677 83.4464 96.9411 82.7162 96.6269 81.6751C96.3127 80.634 97.1125 78.3372 97.1125 78.3372Z" fill="#A2ACFB"/>
<path fill-rule="evenodd" clip-rule="evenodd" d="M115.609 91.5114C115.609 91.5114 112.185 91.2594 109.73 92.487C107.275 93.7146 103.592 96.0933 105.433 100.151C107.275 104.208 110.272 115.193 110.272 115.193L116.906 114.453L110.921 97.2035L116.906 95.6497L115.609 91.5114Z" fill="white"/>
<path fill-rule="evenodd" clip-rule="evenodd" d="M116.168 86.4763C115.271 87.2385 114.328 88.3072 114.475 89.3511C114.621 90.3949 114.318 94.389 114.531 95.9017C114.743 97.4143 120.235 118.013 120.235 118.013C120.235 118.013 121.135 119.582 125.197 119.352C129.259 119.122 140.215 116.571 143.137 115.113C146.058 113.655 145.708 110.716 145.708 110.716L140.844 85.6452C140.844 85.6452 140.33 81.993 137.8 81.8623C135.27 81.7315 129.727 82.5839 124.809 83.6881C119.89 84.7923 117.065 85.714 116.168 86.4763Z" fill="white"/>
<path fill-rule="evenodd" clip-rule="evenodd" d="M71.707 206.362C71.707 206.362 74.925 183.165 77.5779 172.651C80.2308 162.137 84.3284 149.437 84.3284 141.501C84.3284 133.566 86.8812 128.05 88.0317 124.056C89.1822 120.062 93.3419 103.92 95.7006 101.82C98.0593 99.7196 104.217 96.9415 104.217 96.9415C104.217 96.9415 110.329 93.0356 111.907 93.0356C113.484 93.0356 115.641 93.56 116.213 94.5873C116.785 95.6146 118.408 98.3604 118.408 98.3604C118.408 98.3604 118.308 99.6333 117.826 100.156C117.343 100.679 115.054 100.156 115.054 100.156C115.054 100.156 110.47 101.82 109.846 101.82C109.223 101.82 107.546 103.025 107.546 103.025C107.546 103.025 112.643 101.861 113.643 101.577C114.644 101.292 118.112 100.801 118.408 101.31C118.704 101.82 119.831 103.811 119.831 104.215C119.831 104.619 119.819 106.9 119.482 107.191C119.145 107.482 121.003 109.298 121.003 110.561C121.003 111.823 120.644 112.918 120.644 112.918L119.831 114.188C119.831 114.188 119.659 117.641 118.742 118.879C117.826 120.117 115.054 121.166 115.054 121.166C115.054 121.166 111.393 125.246 110.436 126.773C109.479 128.301 107.519 130.415 107.182 131.163C106.845 131.911 105.465 133.181 105.465 133.181C105.465 133.181 106.003 144.547 105.465 147.422C104.927 150.297 105.911 173.4 105.911 179.157C105.911 184.913 106.885 192.269 104.217 201.697C101.548 211.125 99.3274 216.003 99.3274 218.936C99.3274 221.87 97.2991 224.595 92.6654 224.595C88.0317 224.595 80.5127 223.727 77.5779 219.534C74.6432 215.342 74.4861 214.652 73.0966 212.609C71.707 210.567 71.707 206.362 71.707 206.362Z" fill="url(#paint9_linear)"/>
<path fill-rule="evenodd" clip-rule="evenodd" d="M124.005 77.3089C124.43 74.8913 130.544 73.4433 139.21 71.9182C147.875 70.3932 154.133 68.4219 153.278 67.5825C152.423 66.743 144.907 67.6876 146.561 65.8274C148.215 63.9672 161.809 63.4909 161.154 66.5371C160.499 69.5832 139.938 73.317 133.716 74.6543C127.494 75.9916 122.902 79.1704 126.774 79.8811C130.646 80.5918 131.758 81.5074 131.758 81.5074C131.758 81.5074 126.206 81.4404 125.345 80.8752C124.485 80.31 123.579 79.7264 124.005 77.3089Z" fill="#BDC5FF"/>
<path fill-rule="evenodd" clip-rule="evenodd" d="M194.873 142.215C195.313 142.908 196.077 143.327 196.897 143.327H260.041C260.984 143.327 261.841 142.774 262.229 141.913L290.192 79.8641C290.727 78.6779 290.219 77.2817 289.047 76.7164L241.134 53.6034C240.492 53.2935 239.722 53.6091 239.483 54.281L222.566 101.698C222.214 102.687 221.259 103.332 220.21 103.29L171.093 101.335C170.125 101.296 169.513 102.361 170.033 103.178L194.873 142.215Z" fill="url(#paint10_linear)"/>
<path fill-rule="evenodd" clip-rule="evenodd" d="M241.534 58.454C240.889 58.1262 240.103 58.4391 239.86 59.1203L226.209 97.3657C226.037 97.8468 226.189 98.384 226.587 98.7041L263.997 128.794C264.609 129.287 265.522 129.068 265.844 128.351L286.394 82.5392C286.656 81.9552 286.413 81.2684 285.843 80.9783L241.534 58.454Z" fill="#283580"/>
<path fill-rule="evenodd" clip-rule="evenodd" d="M185.454 115.163C184.495 115.163 183.923 116.231 184.455 117.029L191.756 127.974C191.979 128.308 192.354 128.508 192.755 128.508H203.714C204.703 128.508 205.268 127.378 204.673 126.587L196.445 115.642C196.219 115.34 195.863 115.163 195.486 115.163H185.454Z" fill="#131730"/>
</g>
<defs>
<linearGradient id="paint0_linear" x1="282.077" y1="216.526" x2="256.643" y2="253.205" gradientUnits="userSpaceOnUse">
<stop stop-color="#ACB0FF"/>
<stop offset="1" stop-color="#DCEBFF"/>
</linearGradient>
<linearGradient id="paint1_linear" x1="40.7798" y1="185.569" x2="39.0943" y2="242.973" gradientUnits="userSpaceOnUse">
<stop stop-color="#4C55FF"/>
<stop offset="1" stop-color="#1B7CFF"/>
</linearGradient>
<linearGradient id="paint2_linear" x1="157.903" y1="183.398" x2="174.608" y2="180.014" gradientUnits="userSpaceOnUse">
<stop stop-color="#283581"/>
<stop offset="1" stop-color="#131730"/>
</linearGradient>
<linearGradient id="paint3_linear" x1="219.34" y1="106.818" x2="146.776" y2="143.779" gradientUnits="userSpaceOnUse">
<stop stop-color="#ACB0FF"/>
<stop offset="1" stop-color="#DCEBFF"/>
</linearGradient>
<linearGradient id="paint4_linear" x1="94.5718" y1="226.215" x2="161.405" y2="202.135" gradientUnits="userSpaceOnUse">
<stop stop-color="#283581"/>
<stop offset="1" stop-color="#131730"/>
</linearGradient>
<linearGradient id="paint5_linear" x1="57.7174" y1="211.136" x2="91.6919" y2="204.363" gradientUnits="userSpaceOnUse">
<stop stop-color="#283581"/>
<stop offset="1" stop-color="#131730"/>
</linearGradient>
<linearGradient id="paint6_linear" x1="88.5001" y1="69.016" x2="49.4178" y2="105.508" gradientUnits="userSpaceOnUse">
<stop stop-color="#ACB0FF"/>
<stop offset="1" stop-color="#DCEBFF"/>
</linearGradient>
<linearGradient id="paint7_linear" x1="89.0355" y1="-2.41041" x2="23.5389" y2="38.9585" gradientUnits="userSpaceOnUse">
<stop stop-color="#ACB0FF"/>
<stop offset="1" stop-color="#DCEBFF"/>
</linearGradient>
<linearGradient id="paint8_linear" x1="-5.1826" y1="-12.0356" x2="-32.7099" y2="136.723" gradientUnits="userSpaceOnUse">
<stop stop-color="#4C55FF"/>
<stop offset="1" stop-color="#1B7CFF"/>
</linearGradient>
<linearGradient id="paint9_linear" x1="100.547" y1="53.8777" x2="27.2663" y2="76.4681" gradientUnits="userSpaceOnUse">
<stop stop-color="#ACB0FF"/>
<stop offset="1" stop-color="#DCEBFF"/>
</linearGradient>
<linearGradient id="paint10_linear" x1="212.367" y1="133.288" x2="264.481" y2="106.517" gradientUnits="userSpaceOnUse">
<stop stop-color="#283581"/>
<stop offset="1" stop-color="#131730"/>
</linearGradient>
</defs>
</svg>
