<svg width="277" height="258" viewBox="0 0 277 258" fill="none" xmlns="http://www.w3.org/2000/svg">
<path fill-rule="evenodd" clip-rule="evenodd" d="M175.841 70.1637C175.841 70.1637 123.694 63.0405 93.6679 75.9578C63.6415 88.875 56.8724 113.212 56.8724 128.198C56.8724 143.184 56.8724 231.26 56.8724 231.26C56.8724 231.26 28.4216 237.527 16.1097 237.527C3.79771 237.527 7.23189 258.588 7.23189 258.588H45.4871V252.026L61.5635 248.561L194.004 258.588H209.905C209.905 258.588 213.263 243.793 213.263 237.527C213.263 231.26 213.263 228.004 213.263 228.004C213.263 228.004 224.482 232.939 231.689 237.527C238.897 242.115 245.922 246.336 245.922 246.336V258.588H261.152V254.261H272.421C272.421 254.261 278.885 244.699 275.653 235.307C272.421 225.915 263.297 224.963 263.297 224.963C263.297 224.963 232.763 217.902 226.788 215.641C220.813 213.379 213.263 210.392 213.263 210.392L175.841 70.1637Z" fill="#99ABFF"/>
<path fill-rule="evenodd" clip-rule="evenodd" d="M219.341 15.5809C219.341 15.5809 214.442 3.54395 208.78 2.08735C203.118 0.630764 190.605 -1.53777 180.882 4.5175C171.159 10.5728 165.1 14.6993 162.504 14.6993C159.909 14.6993 164.587 17.9354 164.587 17.9354L158.666 20.3472C158.666 20.3472 162.162 21.9932 161.079 24.3314C159.997 26.6695 158.768 31.2771 161.079 37.4053C163.391 43.5334 164.587 50.6672 164.587 50.6672L172.743 63.9184L218.125 30.1936L227.299 39.7741C227.299 39.7741 228.623 27.4675 225.759 22.7015C222.895 17.9354 219.341 15.5809 219.341 15.5809Z" fill="url(#paint0_linear)"/>
<path fill-rule="evenodd" clip-rule="evenodd" d="M172.594 71.6152L169.262 82.5439C169.262 82.5439 166.282 109.491 169.932 116.551C173.581 123.61 187.283 131.914 187.283 131.914C187.283 131.914 210.815 117.61 212.971 116.551C215.126 115.492 217.269 97.1444 217.269 97.1444L172.594 71.6152Z" fill="url(#paint1_linear)"/>
<path fill-rule="evenodd" clip-rule="evenodd" d="M215.509 18.6069C215.509 18.6069 209.949 23.7147 205.681 23.7147C201.413 23.7147 198.479 24.3959 194.527 23.7147C190.576 23.0335 184.7 22.1321 181.312 24.8377C177.924 27.5434 174.403 39.856 174.403 46.3303C174.403 52.8046 173.3 55.0389 173.3 55.0389C173.3 55.0389 167.081 49.3964 164.096 50.8325C161.112 52.2687 159.776 58.5265 162.584 64.3338C165.392 70.1411 172.198 71.8543 173.3 71.8543C174.403 71.8543 177.566 77.471 179.439 80.2178C181.312 82.9646 189.475 91.0688 193.624 93.262C197.772 95.4552 203.066 98.4048 206.862 98.4048C210.659 98.4048 217.349 98.1471 219.905 96.6936C222.46 95.2401 227.417 81.3164 229.006 75.3886C230.595 69.4608 230.55 53.8524 229.006 50.0913C227.462 46.3303 227.381 42.0603 227.422 37.3445C227.462 32.6287 223.847 24.0131 221.876 21.31C219.905 18.6069 215.509 18.6069 215.509 18.6069Z" fill="url(#paint2_linear)"/>
<path fill-rule="evenodd" clip-rule="evenodd" d="M170.793 79.2861C170.793 79.2861 168.989 91.6781 169.59 96.2873C170.192 100.896 169.807 103.095 171.5 106.942C173.192 110.789 176.714 116.233 179.717 118.5C182.719 120.767 184.898 123.929 184.898 123.929C184.898 123.929 188.664 121.224 191.276 119.862C193.888 118.5 200.409 116.993 202.277 115.606C204.145 114.219 206.899 110.095 208.296 108.518C209.694 106.942 216.093 99.752 216.093 99.752L219.706 103.686L211.457 119.862C211.457 119.862 196.791 170.217 196.133 175.026C195.476 179.834 196.133 248.704 196.133 248.704C196.133 248.704 154.057 226.041 132.329 220.602C110.6 215.164 63.634 216.62 63.634 216.62C63.634 216.62 118.227 159.388 124.152 143.867C130.077 128.347 148.319 94.244 148.319 94.244L170.793 79.2861Z" fill="url(#paint3_linear)"/>
<path fill-rule="evenodd" clip-rule="evenodd" d="M68.8575 214.751C68.8575 214.751 130.021 194.922 139.688 197.878C149.355 200.834 168.553 220.956 171.758 224.614C174.963 228.272 188.495 231.414 188.495 231.414C188.495 231.414 176.628 234.633 165.73 234.633C154.831 234.633 86.4116 222.411 74.2925 222.411C62.1734 222.411 60.1992 219.297 60.1992 219.297L68.8575 214.751Z" fill="black" fill-opacity="0.17012"/>
<path fill-rule="evenodd" clip-rule="evenodd" d="M28.8992 213.465C21.2169 212.455 13.8238 219.546 12.2684 221.341C10.7131 223.135 11.4476 223.876 9.62306 225.317C7.79852 226.759 1.13778 231.53 0.330196 233.86C-0.477389 236.19 2.49062 248.122 2.49062 250.488C2.49062 252.853 8.34476 258.941 8.34476 258.941L23.6506 259.886C23.6506 259.886 25.4124 252.149 25.4124 249.427C25.4124 246.706 27.9376 242.532 28.8992 241.383C29.8607 240.234 31.5759 240.084 31.5759 240.084C31.5759 240.084 31.0326 241.346 32.2683 243.17C31.1837 245.228 31.5504 252.875 33.9673 255.202C36.3842 257.529 40.2412 253.239 42.5168 249.427C44.7925 245.616 43.3519 242.476 44.0722 240.084C44.7925 237.691 42.5168 225.317 42.5168 225.317C42.5168 225.317 36.5815 214.475 28.8992 213.465Z" fill="url(#paint4_linear)"/>
<path fill-rule="evenodd" clip-rule="evenodd" d="M169.342 80.4297C169.342 80.4297 158.33 85.5808 153.991 85.5808C149.652 85.5808 126.01 83.8672 120.815 83.0053C115.619 82.1433 113.398 80.2392 112.063 81.6222C110.728 83.0053 99.6209 94.8812 95.7407 97.6767C91.8605 100.472 85.4335 109.689 81.6755 114.635C77.9176 119.582 68.9376 131.281 66.7093 133.51C64.481 135.739 57.1062 148.109 54.5496 152.498C51.993 156.886 50.2481 161.19 45.3623 163.483C40.4765 165.776 36.0631 171.474 33.6336 175.859C31.2041 180.244 26.5248 189.898 24.3984 192.3C22.2721 194.703 20.9041 196.856 20.9041 199.098C20.9041 201.339 19.9387 202.869 18.4632 204.814C16.9876 206.758 15.8832 206.472 15.8832 209.246C15.8832 212.021 16.9396 213.776 15.8832 214.809C14.8268 215.841 13.2797 219.049 13.2797 219.772C13.2797 220.496 13.2797 223.08 13.2797 223.08C13.2797 223.08 22.2581 211.746 29.6705 213.961C37.0828 216.176 39.5898 218.805 40.3101 220.942C41.0303 223.08 42.0552 226.681 42.0552 226.681C42.0552 226.681 45.5186 223.41 46.9351 221.591C48.3517 219.773 49.6866 217.25 52.1181 216.029C54.5496 214.809 56.4188 208.45 58.9262 206.057C61.4337 203.664 62.6075 201.665 64.6584 200.78C66.7093 199.895 66.5011 200.358 67.9597 198.062C69.4183 195.765 72.1193 194.819 72.1193 194.819C72.1193 194.819 68.7602 207.286 66.7093 209.246C64.6584 211.207 54.8351 223.865 53.4766 226.681C52.1181 229.497 52.3932 233.909 51.16 238.736C49.9268 243.563 48.4305 248.583 48.4305 251.297C48.4305 254.011 48.4305 255.807 48.4305 255.807C48.4305 255.807 50.2761 233.589 56.69 226.681C63.1039 219.772 80.5118 211.198 84.8141 208.006C89.1165 204.814 101.855 197.238 110.038 185.756C118.22 174.274 133.455 147.299 135.633 142.103C137.81 136.908 157.774 103.683 160.811 96.6557C163.849 89.6279 169.342 80.4297 169.342 80.4297Z" fill="url(#paint5_linear)"/>
<path fill-rule="evenodd" clip-rule="evenodd" d="M218.431 106.667C218.431 106.667 204.196 131.608 200.736 139.131C197.277 146.655 186.19 171.261 183.619 186.664C181.048 202.068 183.688 223.516 184.866 230.023C186.044 236.529 192.067 257.828 192.067 257.828H200.481C200.481 257.828 211.964 231.413 217.121 218.622C222.277 205.83 221.344 206.57 221.344 206.57C221.344 206.57 223.973 210.29 226.026 213.613C228.08 216.936 234.156 223.586 237.585 225.205C241.015 226.824 254.526 226.385 258.385 226.385C262.245 226.385 268.339 219.14 269.475 215.491C270.612 211.842 269.803 195.075 268.462 189.795C267.122 184.516 265.408 173.312 265.408 171.081C265.408 168.85 263.016 169.424 263.016 165.698C263.016 161.973 263.016 159.251 263.016 156.634C263.016 154.017 263.869 147.233 261.127 144.282C258.385 141.331 258.385 142.605 258.385 139.131C258.385 135.657 256.852 129.84 255.703 125.724C254.554 121.607 250.806 108.048 250.806 108.048C250.806 108.048 228.681 113.323 227.477 113.323C226.274 113.323 222.535 113.323 222.535 113.323L218.431 106.667Z" fill="url(#paint6_linear)"/>
<path fill-rule="evenodd" clip-rule="evenodd" d="M199.812 77.8798C199.812 77.8798 205.949 78.7646 210.955 78.7646C215.96 78.7646 223.004 75.7161 223.004 75.7161C223.004 75.7161 217.359 81.0066 212.232 81.6328C207.104 82.2591 199.812 77.8798 199.812 77.8798Z" fill="#1B2351"/>
<path fill-rule="evenodd" clip-rule="evenodd" d="M247.245 108.612C247.245 108.612 236.52 78.941 234.239 76.8715C231.957 74.8019 225.09 76.8715 222.547 76.8715C220.004 76.8715 219.376 75.4618 217.487 76.1666C215.598 76.8715 210.958 75.9984 210.312 76.8715C209.665 77.7446 207.521 82.7077 207.521 83.6196C207.521 84.5316 205.155 96.2882 206.734 98.2281C208.314 100.168 210.312 96.6539 210.312 96.6539C210.312 96.6539 211.355 100.765 212.684 101.981C214.014 103.197 216.365 102.719 216.365 102.719C216.365 102.719 220.336 111.489 222.547 112.544C224.758 113.598 228.52 113.372 228.52 113.372L247.245 108.612Z" fill="url(#paint7_linear)"/>
<path fill-rule="evenodd" clip-rule="evenodd" d="M209.064 83.2009C209.064 83.2009 209.064 91.0948 209.064 93.0017C209.064 94.9086 210.457 97.9434 210.457 97.9434C210.457 97.9434 209.761 87.4694 209.761 85.8823C209.761 84.2952 209.064 83.2009 209.064 83.2009Z" fill="black" fill-opacity="0.17012"/>
<path fill-rule="evenodd" clip-rule="evenodd" d="M211.32 81.5229C211.32 81.5229 211.713 92.2166 212.366 93.8936C213.019 95.5707 216.884 99.7837 217.648 100.515C218.412 101.246 220.627 101.909 220.627 101.909C220.627 101.909 222.626 99.3762 222.626 97.5912C222.626 95.8062 221.396 93.8936 221.396 93.8936C221.396 93.8936 221.18 92.3883 220.627 91.0517C220.074 89.7151 219.415 88.8816 219.415 88.8816C219.415 88.8816 221.1 87.4975 220.627 85.3186C222.442 86.8658 223.497 86.8282 223.497 86.8282C223.497 86.8282 224.008 88.7543 224.926 89.5721C225.844 90.3898 226.931 91.7162 226.931 91.7162C226.931 91.7162 227.724 96.0284 227.724 97.5912C227.724 99.154 226.931 101.78 226.931 103.489C226.931 105.197 226.931 107.038 226.931 107.038C226.931 107.038 221.182 108.532 219.415 106.52C217.648 104.508 216.633 102.569 216.633 102.569C216.633 102.569 216.688 100.61 215.516 99.4545C214.343 98.2989 211.32 94.6333 211.32 93.8936C211.32 93.154 211.32 81.5229 211.32 81.5229Z" fill="black" fill-opacity="0.17012"/>
<path fill-rule="evenodd" clip-rule="evenodd" d="M213.401 91.2966C213.401 91.2966 214.975 94.9881 215.715 95.8539C216.454 96.7197 217.302 97.4971 217.302 97.4971C217.302 97.4971 219.353 97.2536 220.129 96.5537C220.904 95.8539 221.902 94.3969 221.902 94.3969C221.902 94.3969 221.175 97.5102 220.129 97.8429C219.083 98.1757 218.47 98.827 216.859 97.8429C215.248 96.8588 213.401 91.2966 213.401 91.2966Z" fill="black" fill-opacity="0.17012"/>
<path fill-rule="evenodd" clip-rule="evenodd" d="M54.3341 228.062C60.3975 216.354 77.5028 216.809 92.9075 212.348C108.312 207.887 120.923 200.437 128.66 200.437C136.397 200.437 152.624 211.238 158.077 217.493C163.53 223.748 188.435 258.284 188.435 258.284H121.385H48.2708C48.2708 258.284 48.2708 239.77 54.3341 228.062Z" fill="url(#paint8_linear)"/>
<path fill-rule="evenodd" clip-rule="evenodd" d="M159.712 220.298C159.712 220.298 187.246 230.435 191.091 234.883C194.936 239.33 191.091 257.873 191.091 257.873H178.672L159.712 220.298Z" fill="url(#paint9_linear)"/>
<defs>
<linearGradient id="paint0_linear" x1="138.781" y1="-2.69638" x2="135.402" y2="47.2191" gradientUnits="userSpaceOnUse">
<stop stop-color="#4C55FF"/>
<stop offset="1" stop-color="#1B7CFF"/>
</linearGradient>
<linearGradient id="paint1_linear" x1="190.884" y1="49.3817" x2="137.486" y2="93.0808" gradientUnits="userSpaceOnUse">
<stop stop-color="#ACB0FF"/>
<stop offset="1" stop-color="#DCEBFF"/>
</linearGradient>
<linearGradient id="paint2_linear" x1="193.213" y1="-10.8164" x2="121.857" y2="51.0092" gradientUnits="userSpaceOnUse">
<stop stop-color="#ACB0FF"/>
<stop offset="1" stop-color="#DCEBFF"/>
</linearGradient>
<linearGradient id="paint3_linear" x1="18.6888" y1="70.7904" x2="8.0459" y2="203.863" gradientUnits="userSpaceOnUse">
<stop stop-color="#4C55FF"/>
<stop offset="1" stop-color="#1B7CFF"/>
</linearGradient>
<linearGradient id="paint4_linear" x1="20.69" y1="196.214" x2="-21.2733" y2="235.955" gradientUnits="userSpaceOnUse">
<stop stop-color="#ACB0FF"/>
<stop offset="1" stop-color="#DCEBFF"/>
</linearGradient>
<linearGradient id="paint5_linear" x1="67.4444" y1="236.11" x2="144.449" y2="209.786" gradientUnits="userSpaceOnUse">
<stop stop-color="#283581"/>
<stop offset="1" stop-color="#131730"/>
</linearGradient>
<linearGradient id="paint6_linear" x1="212.895" y1="240.851" x2="258.835" y2="230.637" gradientUnits="userSpaceOnUse">
<stop stop-color="#283581"/>
<stop offset="1" stop-color="#131730"/>
</linearGradient>
<linearGradient id="paint7_linear" x1="200.799" y1="73.0697" x2="191.737" y2="108.933" gradientUnits="userSpaceOnUse">
<stop stop-color="#ACB0FF"/>
<stop offset="1" stop-color="#DCEBFF"/>
</linearGradient>
<linearGradient id="paint8_linear" x1="7.90638" y1="197.536" x2="6.51719" y2="243.222" gradientUnits="userSpaceOnUse">
<stop stop-color="#4C55FF"/>
<stop offset="1" stop-color="#1B7CFF"/>
</linearGradient>
<linearGradient id="paint9_linear" x1="184.994" y1="251.674" x2="176.921" y2="232.846" gradientUnits="userSpaceOnUse">
<stop stop-color="#4C55FF"/>
<stop offset="1" stop-color="#1B7CFF"/>
</linearGradient>
</defs>
</svg>
