<svg width="134" height="134" viewBox="0 0 134 134" fill="none" xmlns="http://www.w3.org/2000/svg">
<path fill-rule="evenodd" clip-rule="evenodd" d="M67 125C99.0325 125 125 99.0325 125 67C125 34.9675 99.0325 9 67 9C34.9675 9 9 34.9675 9 67C9 99.0325 34.9675 125 67 125Z" fill="url(#paint0_linear)" stroke="#242F6F" stroke-opacity="0.251642" stroke-width="17"/>
<path fill-rule="evenodd" clip-rule="evenodd" d="M66.9995 49C57.0588 49 49.0001 57.059 49.0001 66.9996C49.0001 76.9401 57.0588 84.9996 66.9995 84.9996C76.9402 84.9996 84.9995 76.9401 84.9995 66.9996C84.9995 57.059 76.9402 49 66.9995 49ZM66.9999 55.3223L77.6514 61.9643H56.3483L66.9999 55.3223ZM77.7831 72.5708H77.7842V62.387C77.7842 62.2741 77.7726 62.1648 77.7539 62.0571L67.577 68.4031C67.5699 68.4075 67.5625 68.4111 67.5551 68.4148C67.5494 68.4175 67.5438 68.4203 67.5383 68.4234C67.5249 68.4308 67.5112 68.438 67.4975 68.4448C67.4253 68.4819 67.3515 68.5118 67.2759 68.5314C67.2716 68.5326 67.2673 68.5333 67.263 68.5341C67.2595 68.5348 67.256 68.5354 67.2525 68.5363C67.1694 68.5562 67.0853 68.5681 67.0013 68.5681H67.0001H66.9995C66.9155 68.5681 66.8314 68.5558 66.7484 68.5363C66.7451 68.5355 66.7419 68.5349 66.7387 68.5343C66.7341 68.5335 66.7295 68.5326 66.725 68.5314C66.6492 68.5118 66.5752 68.4819 66.5033 68.4448C66.4896 68.438 66.476 68.4308 66.4625 68.4234C66.4571 68.4203 66.4515 68.4176 66.446 68.4149C66.4385 68.4112 66.4311 68.4076 66.4239 68.4031L56.2469 62.0571C56.2282 62.1648 56.2167 62.2743 56.2167 62.387V72.5708C56.2167 73.636 57.08 74.4994 58.1453 74.4994H75.8544C76.9197 74.4994 77.7831 73.6362 77.7831 72.5708Z" fill="white"/>
<defs>
<linearGradient id="paint0_linear" x1="-24.4055" y1="3.18298" x2="-31.1251" y2="94.3855" gradientUnits="userSpaceOnUse">
<stop stop-color="#4C55FF"/>
<stop offset="1" stop-color="#1B7CFF"/>
</linearGradient>
</defs>
</svg>
