<svg width="567" height="344" viewBox="0 0 567 344" fill="none" xmlns="http://www.w3.org/2000/svg">
<path d="M387.104 108.05V125.338C371.985 125.338 359.729 137.593 359.729 152.711C359.729 167.828 371.985 180.084 387.104 180.084V197.372H297.772V108.05H387.104Z" fill="#E2E4FF"/>
<path d="M387.104 174.321C375.168 174.321 365.492 164.646 365.492 152.711C365.492 140.776 375.168 131.101 387.104 131.101C399.041 131.101 408.717 140.776 408.717 152.711C408.717 164.646 399.041 174.321 387.104 174.321Z" fill="#E2E4FF"/>
<path d="M59.5537 174.345L94.6141 152.737V319.828H59.5537V174.345Z" fill="#E2E4FF"/>
<path d="M148.405 319.828H113.345V141.193L148.405 119.585V319.828Z" fill="#E2E4FF"/>
<path d="M167.136 108.041L342.438 0V97.4852H286.246V209.857H342.438V319.828H167.136V108.041Z" fill="#E2E4FF"/>
<path d="M510.969 324.522C510.969 329.222 487.598 333.52 448.958 336.821C441.936 337.416 434.401 337.98 426.42 338.514C419.519 338.97 412.287 339.401 404.725 339.805C397.395 340.195 389.786 340.553 381.898 340.879C356.977 341.93 329.432 342.68 300.169 343.058C293.073 343.148 285.876 343.218 278.581 343.268C270.986 343.322 263.306 343.348 255.54 343.346C114.467 343.346 0.106812 334.919 0.106812 324.522C0.106812 314.125 114.467 305.697 255.54 305.697C286.734 305.697 316.62 306.111 344.254 306.868H344.324C370.459 307.582 394.58 308.602 415.884 309.869C417.499 309.965 419.097 310.059 420.678 310.151C420.687 310.16 420.699 310.165 420.71 310.163C430.469 310.775 439.6 311.436 448.014 312.144C448.107 312.15 448.2 312.162 448.293 312.168C487.333 315.476 510.969 319.792 510.969 324.522Z" fill="#283581"/>
<path d="M481.736 239.883C445.409 267.066 435.166 314.822 435.166 314.822C435.166 314.822 483.821 318.507 520.149 291.324C556.476 264.141 566.719 216.385 566.719 216.385C566.719 216.385 518.064 212.701 481.736 239.883Z" fill="#1B2351"/>
<path d="M435.194 314.361C435.194 314.361 434.661 314.063 433.696 313.47C432.926 312.997 431.87 312.336 430.593 311.492C419.178 303.962 389.606 281.815 377.476 247.644C362.3 204.859 380.22 159.428 380.22 159.428C380.22 159.428 419.31 181.425 435.915 220.938C436.638 222.639 437.308 224.376 437.938 226.146C451.143 263.372 439.291 302.602 435.991 312.164C435.494 313.596 435.194 314.361 435.194 314.361Z" fill="#ABB0FF"/>
<path fill-rule="evenodd" clip-rule="evenodd" d="M434.814 315.308L435.371 315.712L435.694 315.105C435.926 314.672 458.674 271.315 448.543 227.365C438.413 183.416 398.986 154.42 398.588 154.133L398.032 153.729L397.708 154.336C397.477 154.769 374.728 198.125 384.859 242.075C394.99 286.025 434.417 315.021 434.814 315.308ZM386.028 241.806C376.66 201.165 395.713 160.988 398.447 155.527C403.294 159.237 438.007 186.995 447.374 227.635C456.743 268.275 437.69 308.453 434.956 313.913C430.108 310.204 395.396 282.446 386.028 241.806Z" fill="#8B92FF"/>
<path opacity="0.1" d="M435.991 312.164C435.105 312.681 434.331 313.115 433.696 313.47C432.295 314.236 431.519 314.621 431.519 314.621C431.519 314.621 431.151 313.515 430.593 311.492C427.518 300.419 418.713 261.831 433.449 226.388C434.224 224.531 435.046 222.714 435.915 220.938C436.638 222.639 437.308 224.376 437.938 226.146C451.143 263.372 439.291 302.602 435.991 312.164Z" fill="black"/>
<path d="M496.9 252.603C479.479 294.522 435.738 316.169 435.738 316.169C435.738 316.169 420.243 269.852 437.664 227.934C455.085 186.015 498.826 164.368 498.826 164.368C498.826 164.368 514.322 210.685 496.9 252.603Z" fill="#ABB0FF"/>
<rect x="435.609" y="314.647" width="161.13" height="1.2002" transform="rotate(-67.2424 435.609 314.647)" fill="#8B92FF"/>
<path opacity="0.1" d="M451.847 312.144C447.391 341.143 419.297 331.425 385.302 331.425C349.388 331.425 320.065 342.272 318.236 306.868C351.913 307.582 382.993 308.602 410.446 309.869C412.527 309.965 414.586 310.059 416.622 310.151C416.634 310.16 416.649 310.165 416.664 310.163C429.239 310.775 441.005 311.436 451.847 312.144Z" fill="black"/>
<path d="M318.14 296.01C318.14 256.228 348.209 223.977 385.302 223.977C422.395 223.977 452.464 256.228 452.464 296.01C452.464 335.793 422.395 324.224 385.302 324.224C348.209 324.224 318.14 335.793 318.14 296.01Z" fill="#1B2351"/>
<path fill-rule="evenodd" clip-rule="evenodd" d="M292.302 244.449C297.82 248.335 303.334 252.22 308.415 256.642C309.931 255.54 311.226 254.163 312.234 252.582C306.047 249.404 299.931 246.091 293.888 242.644C293.049 242.166 292.21 241.685 291.369 241.203L291.369 241.202C287.099 238.753 282.788 236.281 278.376 234.108C282.839 237.783 287.572 241.117 292.302 244.449ZM317.16 265.059C316.803 264.014 316.469 262.962 316.17 261.903C315.569 261.523 314.935 261.2 314.275 260.938C313.669 260.7 313.029 260.5 312.387 260.3C313.236 261.131 314.078 261.977 314.92 262.823L314.92 262.823C315.664 263.571 316.408 264.32 317.16 265.059ZM312.451 235.961C312.601 235.808 312.752 235.653 312.903 235.498C312.907 236.664 312.916 237.755 312.93 238.746C312.084 238.465 311.241 238.177 310.401 237.882C311.124 237.285 311.808 236.644 312.451 235.961ZM239.403 243.818C236.6 248.976 233.222 253.799 229.334 258.196C237.716 258.568 246.071 259.477 254.414 260.579C252.931 259.008 251.373 257.499 249.817 255.992C245.941 252.237 242.076 248.493 239.403 243.818Z" fill="url(#paint0_linear)"/>
<path d="M353.933 145.724C353.933 145.724 375.688 140.903 378.086 160.111C380.485 179.32 366.533 182.946 366.533 182.946L357.698 185.323L323.517 176.319L328.314 162.513L353.933 145.724Z" fill="#2F2E41"/>
<path d="M242.792 178.463L248.766 179.665L269.074 209.726L260.114 210.928L242.792 178.463Z" fill="#2F2E41"/>
<path fill-rule="evenodd" clip-rule="evenodd" d="M98.3168 300.425C99.9271 305.731 101.911 310.916 104.253 315.941C110.984 314.531 117.607 312.642 124.07 310.289C124.269 310.216 120.363 305.103 119.953 304.685C118.406 303.109 116.403 301.267 114.357 300.376C112.294 299.477 109.753 300.163 107.545 300.276C104.472 300.433 101.396 300.483 98.3168 300.425Z" fill="url(#paint1_linear)"/>
<path fill-rule="evenodd" clip-rule="evenodd" d="M114.392 308.456C111.025 307.401 108.979 304.01 107.61 300.739C106.241 297.469 105.136 293.903 102.539 291.503C101.544 291.55 100.742 292.36 100.25 293.232C99.7573 294.104 99.4641 295.086 98.895 295.909C97.8117 297.476 95.9077 298.234 94.5459 299.562C93.1181 300.955 92.3376 302.926 90.8597 304.265C89.0034 305.946 86.3792 306.364 83.9437 306.92C80.1767 307.781 76.5382 309.132 73.1207 310.937C71.8619 311.696 70.5156 312.3 69.1115 312.735C67.5663 313.032 65.9841 313.085 64.4225 312.892L53.6542 312.124C52.696 312 51.7236 312.043 50.7798 312.25C48.5661 312.872 47.1917 315.345 47.3543 317.653C47.5169 319.96 48.951 322.028 50.7621 323.452C52.6365 324.795 54.7044 325.844 56.8946 326.563C66.2748 330.107 75.932 332.869 85.7673 334.819L85.7726 336.952C92.6115 340.319 100.13 342.071 107.751 342.075C108.315 342.117 108.88 342.019 109.397 341.79C110.152 341.379 110.502 340.495 110.782 339.678C113.365 332.115 114.877 324.227 115.273 316.244C115.464 314.221 115.307 312.179 114.81 310.208C114.223 308.268 116.242 309.083 114.374 308.323" fill="url(#paint2_linear)"/>
<path d="M320.919 267.82C288.993 269.733 257.438 260.379 225.471 259.379C221.497 259.254 217.479 259.264 213.599 260.136C209.494 261.059 205.667 262.918 201.85 264.696C184.705 272.681 166.968 279.295 149.253 285.901L128.903 293.488C124.836 295.004 120.623 296.544 116.294 296.279C114.354 296.16 111.972 295.866 110.88 297.485C107.569 302.395 109.134 309.608 111.321 315.118C112.031 316.907 113.232 318.837 115.135 319.04C116.474 319.183 117.72 318.407 119.022 318.058C122.726 317.065 126.419 319.559 130.231 319.965C134.94 320.467 139.314 317.781 143.759 316.137C151.131 313.409 159.193 313.495 166.942 312.203C179.936 310.037 191.979 303.997 203.237 297.116C207.524 294.496 211.861 291.689 216.785 290.73C222.448 289.628 228.264 291.089 233.815 292.661C247.053 296.41 260.085 300.853 272.858 305.969C279.583 308.663 286.26 311.552 293.257 313.416C308.393 317.405 324.404 316.47 338.975 310.747C344.085 308.726 349.638 305.152 349.93 299.633C350.097 296.486 347.66 293.714 346.03 291.023C344.986 289.297 343.94 287.571 342.802 285.906C337.297 277.849 330.617 267.238 320.919 267.82Z" fill="#2F2E41"/>
<path fill-rule="evenodd" clip-rule="evenodd" d="M320.919 267.82C288.993 269.733 257.438 260.379 225.471 259.379C221.497 259.254 217.479 259.264 213.599 260.136C209.494 261.059 205.667 262.918 201.85 264.696C184.705 272.681 166.968 279.295 149.253 285.901L128.903 293.488C124.836 295.004 120.623 296.544 116.294 296.279C114.354 296.16 111.972 295.866 110.88 297.485C107.569 302.395 109.134 309.608 111.321 315.118C112.031 316.907 113.232 318.837 115.135 319.04C116.474 319.183 117.72 318.407 119.022 318.058C122.726 317.065 126.419 319.559 130.231 319.965C134.94 320.467 139.314 317.781 143.759 316.137C151.131 313.409 159.193 313.495 166.942 312.203C179.936 310.037 191.979 303.997 203.237 297.116C207.524 294.496 211.861 291.689 216.785 290.73C222.448 289.628 228.264 291.089 233.815 292.661C247.053 296.41 260.085 300.853 272.858 305.969C279.583 308.663 286.26 311.552 293.257 313.416C308.393 317.405 324.404 316.47 338.975 310.747C344.085 308.726 349.638 305.152 349.93 299.633C350.097 296.486 347.66 293.714 346.03 291.023C344.986 289.297 343.94 287.571 342.802 285.906C337.297 277.849 330.617 267.238 320.919 267.82Z" fill="url(#paint3_linear)"/>
<path fill-rule="evenodd" clip-rule="evenodd" d="M159.613 301.981C164.61 303.689 169.651 305.258 174.736 306.69C177.583 302.012 182.908 298.757 184.121 293.408C184.197 293.176 184.197 292.925 184.122 292.692C183.993 292.463 183.791 292.283 183.55 292.18C179.908 290.159 175.863 288.973 171.708 288.706C168.426 288.498 166.928 291.928 165.441 294.339C164.838 295.314 160.95 302.438 159.613 301.981Z" fill="url(#paint4_linear)"/>
<path fill-rule="evenodd" clip-rule="evenodd" d="M166.618 298.566C163.666 297.947 160.778 296.359 159.271 293.731C158.565 292.499 157.814 290.839 156.405 290.932C155.097 291.019 154.496 292.581 154.201 293.867C153.098 298.683 152.015 303.537 150.079 308.079C148.144 312.62 145.281 316.884 141.243 319.696C139.392 320.985 137.327 321.949 135.517 323.296C133.89 324.508 132.472 326.027 130.676 326.964C129.473 327.515 128.233 327.978 126.963 328.35C125.095 329.001 123.311 329.87 121.646 330.94C120.183 331.791 118.942 332.978 118.026 334.403C117.112 335.863 116.999 337.687 117.728 339.249C118.508 340.528 119.798 341.413 121.271 341.678C122.726 341.929 124.21 341.967 125.676 341.789C131.497 341.359 137.311 340.84 143.125 340.322C145.585 340.163 148.029 339.823 150.439 339.304C151.712 338.996 152.96 338.589 154.229 338.261C156.403 337.7 158.632 337.375 160.876 337.292C161.528 337.237 162.185 337.297 162.816 337.47C164.163 337.91 165.118 339.251 166.509 339.524C167.401 339.609 168.3 339.489 169.138 339.172C173.327 338.025 177.729 338.056 182.063 337.822C183.973 337.719 186.209 337.355 187.085 335.644C188.178 333.51 186.366 331.124 185.644 328.835C185.284 327.373 185.083 325.876 185.045 324.37C184.712 320.65 183.621 317.037 181.839 313.755C180.357 311.031 178.334 308.02 179.375 305.097C179.728 304.105 180.431 303.181 180.361 302.13C180.054 297.512 169.294 299.128 166.618 298.566Z" fill="url(#paint5_linear)"/>
<path d="M273.042 216.548C267.385 214.052 262.852 209.546 260.321 203.899C259.788 202.686 259.35 201.419 258.836 200.194C257.162 196.125 254.558 192.505 251.234 189.625C250.402 188.919 249.427 188.246 248.412 188.43C247.437 188.608 246.67 189.573 246.336 190.655C246.05 191.77 245.978 192.929 246.125 194.07C246.409 196.761 246.871 199.429 247.509 202.058L249.056 209.115C249.247 210.2 249.571 211.258 250.019 212.265C250.686 213.453 251.567 214.507 252.616 215.375C254.029 216.679 255.465 217.947 256.925 219.18C258.951 221.127 261.594 222.304 264.396 222.506C270.736 223.683 277.184 225.378 282.534 229.52C282.475 229.474 282.512 224.787 282.419 224.249C282.174 222.829 281.984 221.423 281.06 220.463C278.986 218.306 275.569 217.672 273.042 216.548Z" fill="#FBBEBE"/>
<path fill-rule="evenodd" clip-rule="evenodd" d="M273.042 216.548C267.385 214.052 262.852 209.546 260.321 203.899C259.788 202.686 259.35 201.419 258.836 200.194C257.162 196.125 254.558 192.505 251.234 189.625C250.402 188.919 249.427 188.246 248.412 188.43C247.437 188.608 246.67 189.573 246.336 190.655C246.05 191.77 245.978 192.929 246.125 194.07C246.409 196.761 246.871 199.429 247.509 202.058L249.056 209.115C249.247 210.2 249.571 211.258 250.019 212.265C250.686 213.453 251.567 214.507 252.616 215.375C254.029 216.679 255.465 217.947 256.925 219.18C258.951 221.127 261.594 222.304 264.396 222.506C270.736 223.683 277.184 225.378 282.534 229.52C282.475 229.474 282.512 224.787 282.419 224.249C282.174 222.829 281.984 221.423 281.06 220.463C278.986 218.306 275.569 217.672 273.042 216.548Z" fill="url(#paint6_linear)"/>
<path d="M338.062 162.531C342.35 162.531 345.827 159.032 345.827 154.715C345.827 150.399 342.35 146.9 338.062 146.9C333.773 146.9 330.297 150.399 330.297 154.715C330.297 159.032 333.773 162.531 338.062 162.531Z" fill="#2F2E41"/>
<path d="M333.255 149.994C331.147 149.76 328.806 149.586 327.117 150.877C326.221 151.67 325.505 152.646 325.017 153.739C323.394 156.791 321.793 159.9 320.976 163.262C320.282 166.114 320.167 169.097 319.309 171.904C317.717 177.111 313.637 181.505 313.171 186.932C312.963 189.361 313.369 192.205 311.599 193.868C311.162 194.236 310.695 194.568 310.203 194.859C308.976 195.682 307.935 196.754 307.147 198.005C306.484 199.059 305.974 200.27 304.977 201.01C303.398 202.181 300.776 202.062 299.998 203.874C299.198 205.737 301.228 207.809 300.757 209.782C300.374 211.389 298.585 212.126 297.352 213.217C295.774 214.616 295.052 216.727 294.393 218.737C289.137 219.733 283.708 218.378 279.535 215.028C281.702 220.372 281.749 226.27 281.843 232.042C281.874 233.914 281.815 236.016 280.48 237.32C286.662 237.452 292.691 239.129 298.724 240.493C301.36 241.09 304.223 241.608 306.681 240.479C308.061 239.739 309.296 238.756 310.326 237.577C313.607 234.246 317.05 230.612 317.853 225.99C318.303 223.401 317.867 220.743 317.986 218.118C318.134 214.864 319.128 211.72 319.979 208.578C321.72 202.146 322.887 195.572 323.466 188.933C323.823 184.837 327.358 181.539 329.219 177.878C332.731 170.967 336.321 163.768 336.586 156.01C336.674 153.415 335.819 150.278 333.255 149.994Z" fill="#2F2E41"/>
<path fill-rule="evenodd" clip-rule="evenodd" d="M333.255 149.994C331.147 149.76 328.806 149.586 327.117 150.877C326.221 151.67 325.505 152.646 325.017 153.739C323.394 156.791 321.793 159.9 320.976 163.262C320.282 166.114 320.167 169.097 319.309 171.904C317.717 177.111 313.637 181.505 313.171 186.932C312.963 189.361 313.369 192.205 311.599 193.868C311.162 194.236 310.695 194.568 310.203 194.859C308.976 195.682 307.935 196.754 307.147 198.005C306.484 199.059 305.974 200.27 304.977 201.01C303.398 202.181 300.776 202.062 299.998 203.874C299.198 205.737 301.228 207.809 300.757 209.782C300.374 211.389 298.585 212.126 297.352 213.217C295.774 214.616 295.052 216.727 294.393 218.737C289.137 219.733 283.708 218.378 279.535 215.028C281.702 220.372 281.749 226.27 281.843 232.042C281.874 233.914 281.815 236.016 280.48 237.32C286.662 237.452 292.691 239.129 298.724 240.493C301.36 241.09 304.223 241.608 306.681 240.479C308.061 239.739 309.296 238.756 310.326 237.577C313.607 234.246 317.05 230.612 317.853 225.99C318.303 223.401 317.867 220.743 317.986 218.118C318.134 214.864 319.128 211.72 319.979 208.578C321.72 202.146 322.887 195.572 323.466 188.933C323.823 184.837 327.358 181.539 329.219 177.878C332.731 170.967 336.321 163.768 336.586 156.01C336.674 153.415 335.819 150.278 333.255 149.994Z" fill="url(#paint7_linear)"/>
<path fill-rule="evenodd" clip-rule="evenodd" d="M325.983 274.55C319.333 271.384 314.468 265.478 309.092 260.425C298.828 250.778 286.277 243.948 275.486 234.903C268.333 228.907 261.935 221.926 254.075 216.907C247.152 212.494 239.304 209.742 231.144 208.864C230.209 208.704 229.25 208.752 228.336 209.004C227.305 209.46 226.407 210.172 225.726 211.071C222.243 215.004 219.148 219.265 216.483 223.794C202.805 247.037 183.376 266.581 167.279 288.198C166.214 289.251 166.13 290.946 167.087 292.1L170.361 298.523C172.194 302.117 175.129 306.303 179.079 305.589C180.884 305.263 182.323 303.933 183.652 302.661L198.351 288.596L213.763 273.849C222.792 265.208 231.977 256.367 237.863 245.314C242.464 253.301 250.626 258.529 256.226 265.841C258.356 268.622 260.096 271.681 261.998 274.625C265.046 279.344 268.512 283.774 271.973 288.196L289.651 310.783C292.062 313.864 294.54 317.006 297.837 319.095C302.024 321.749 307.116 322.448 312.044 322.889C318.685 323.485 325.353 323.726 332.019 323.612C337.102 323.526 342.344 323.192 346.905 320.932C351.465 318.672 355.212 314.034 354.975 308.923C354.852 306.265 353.697 303.772 352.427 301.439C346.112 289.841 337.86 280.207 325.983 274.55Z" fill="url(#paint8_linear)"/>
<path d="M342.84 166.138C346.139 166.138 348.813 163.447 348.813 160.126C348.813 156.806 346.139 154.114 342.84 154.114C339.541 154.114 336.867 156.806 336.867 160.126C336.867 163.447 339.541 166.138 342.84 166.138Z" fill="#2F2E41"/>
<path d="M341.52 155.609C342.975 158.183 342.976 161.386 342.175 164.236C341.374 167.086 339.844 169.663 338.331 172.203C336.841 174.703 335.335 177.226 333.337 179.336C342.556 179.777 351.494 176.157 359.63 171.771C366.176 168.242 372.707 163.886 376.201 157.291C374.158 157.905 371.906 157.299 370.098 156.162C368.342 154.936 366.767 153.468 365.422 151.802L360.793 146.59C359.706 145.455 358.751 144.2 357.946 142.849C356.944 141.001 356.519 138.895 356.724 136.803C354.886 138.73 352.83 140.437 350.6 141.891C347.294 144.044 343.649 145.607 340.337 147.748C339.161 148.507 336.549 149.729 337.222 151.266C337.878 152.764 340.588 153.962 341.52 155.609Z" fill="#FBBEBE"/>
<path fill-rule="evenodd" clip-rule="evenodd" d="M341.52 155.609C342.975 158.183 342.976 161.386 342.175 164.236C341.374 167.086 339.844 169.663 338.331 172.203C336.841 174.703 335.335 177.226 333.337 179.336C342.556 179.777 351.494 176.157 359.63 171.771C366.176 168.242 372.707 163.886 376.201 157.291C374.158 157.905 371.906 157.299 370.098 156.162C368.342 154.936 366.767 153.468 365.422 151.802L360.793 146.59C359.706 145.455 358.751 144.2 357.946 142.849C356.944 141.001 356.519 138.895 356.724 136.803C354.886 138.73 352.83 140.437 350.6 141.891C347.294 144.044 343.649 145.607 340.337 147.748C339.161 148.507 336.549 149.729 337.222 151.266C337.878 152.764 340.588 153.962 341.52 155.609Z" fill="url(#paint9_linear)"/>
<path fill-rule="evenodd" clip-rule="evenodd" d="M341.645 156.519C339.913 159.436 339.541 162.879 341.645 165.537C341.907 165.868 342.88 167.92 343.3 167.939C343.707 167.906 344.084 167.715 344.352 167.407C346.591 165.358 348.231 162.745 350.199 160.43C352.166 158.116 354.647 156.006 357.637 155.54C361.246 154.978 364.731 156.892 367.889 158.739C369.202 159.506 370.563 160.32 371.389 161.601C372.054 162.804 372.446 164.14 372.538 165.512C373.629 173.739 373.605 182.07 373.579 190.37C373.56 196.37 373.538 202.412 372.404 208.303C371.818 211.347 370.938 214.336 370.522 217.408C370.216 220.12 370.092 222.85 370.151 225.578L370.142 237.001C370.066 239.099 370.214 241.199 370.585 243.265C371.127 245.768 372.31 248.079 373.101 250.514C373.916 253.313 374.474 256.18 374.768 259.081L376.329 270.91C376.821 274.635 377.185 278.71 374.934 281.709C373.917 283.064 372.58 284.15 371.549 285.494C367.686 290.53 368.925 297.715 367.314 303.867C366.042 308.372 363.429 312.383 359.822 315.363C357.062 317.711 353.496 319.558 349.942 318.898C345.144 318.006 342.263 312.998 340.955 308.267C339.647 303.535 339.17 298.385 336.335 294.388C334.021 291.124 330.436 289.071 327.194 286.741C323.952 284.411 320.784 281.408 320.078 277.461C319.77 275.738 319.962 273.963 319.779 272.221C319.253 267.726 316.324 263.875 312.135 262.173C309.679 261.217 306.646 260.876 305.263 258.62C308.834 256.606 311.204 252.883 312.453 248.959C313.702 245.035 313.956 240.871 314.202 236.758L315.022 223.013C315.389 216.871 315.555 210.783 318.258 205.263C319.466 202.795 320.969 200.485 322.227 198.043C323.89 194.616 325.311 191.076 326.478 187.449C328.437 181.817 330.396 176.183 332.143 170.481C332.975 167.763 333.774 164.994 335.258 162.574C336.741 160.154 338.869 157.042 341.645 156.519Z" fill="url(#paint10_linear)"/>
<path fill-rule="evenodd" clip-rule="evenodd" d="M311.154 245.817L314.786 245.948L315.56 240.452C315.662 239.352 315.921 238.273 316.329 237.247C316.928 236.163 317.627 235.137 318.418 234.183C321.994 229.126 321.734 222.411 322.62 216.268C323.801 208.074 327.22 200.403 330.602 192.856L337.655 177.119C339.062 174.448 339.735 171.45 339.606 168.433C339.668 166 340.388 157.148 340.451 154.715C340.474 153.815 338.468 154.315 338.062 153.513C337.177 151.766 335.967 156.504 334.315 157.544C332.663 158.583 331.751 160.466 331.05 162.296C329.53 166.26 328.6 170.429 327.184 174.432C325.768 178.435 323.787 182.368 320.6 185.155C319.152 186.422 317.484 187.426 316.116 188.78C311.728 193.124 311.3 199.983 311.146 206.176C311.054 209.858 310.344 245.817 311.154 245.817Z" fill="url(#paint11_linear)"/>
<path fill-rule="evenodd" clip-rule="evenodd" d="M363.462 149.956C359.933 151.345 357.998 155.176 357.006 158.857C356.014 162.539 355.61 166.462 353.714 169.764C349.283 177.484 337.986 179.734 334.86 188.076C333.837 190.805 333.881 193.8 333.605 196.704C333.038 202.682 331.075 208.457 330.495 214.433C330.045 219.062 330.433 223.728 330.821 228.363L334.77 275.506C335.34 282.316 335.326 289.631 333.587 296.237C337.585 297.017 341.742 295.973 345.45 294.28C349.159 292.587 352.544 290.263 356.115 288.292C362.253 284.902 369.023 282.5 374.399 277.984C375.372 277.225 376.205 276.303 376.862 275.258C377.939 273.394 378.028 271.14 378.54 269.046C379.005 267.376 379.597 265.743 380.31 264.163C382.278 259.412 383.992 254.561 385.446 249.628C386.445 246.355 387.234 243.021 387.809 239.647C388.239 236.96 388.472 234.245 388.705 231.533C388.991 227.287 389.834 223.098 391.211 219.072C394.646 209.471 396.59 199.401 396.978 189.211C397.094 187.739 396.994 186.258 396.681 184.815C396.213 183.025 395.158 181.461 394.292 179.829C392.652 176.735 391.666 173.329 390.118 170.188C386.618 163.088 380.438 157.705 373.965 153.194C370.786 150.978 367.063 148.539 363.462 149.956Z" fill="url(#paint12_linear)"/>
<path fill-rule="evenodd" clip-rule="evenodd" d="M280.909 226.864C278.177 225.271 275.445 223.556 273.389 221.144C272.403 219.988 271.59 218.692 270.588 217.55C268.152 214.775 264.699 213.053 261.129 212.154C257.559 211.254 253.847 211.117 250.167 211.086C247.705 211.066 245.183 211.101 242.878 211.972C240.574 212.843 238.495 214.721 238.05 217.158C237.514 220.09 239.428 222.948 241.726 224.829C243.863 226.576 246.379 227.798 249.073 228.399C251.27 228.784 253.488 229.044 255.714 229.178C268.789 230.548 280.454 237.672 291.911 244.159C301.974 249.856 312.233 255.182 322.687 260.137C323.101 257.003 323.274 253.842 323.203 250.681C323.149 248.321 323.033 244.722 320.806 243.336C318.21 241.722 313.938 241.351 311.01 240.39C304.273 238.179 297.694 235.515 291.316 232.415C287.78 230.697 284.311 228.846 280.909 226.864Z" fill="url(#paint13_linear)"/>
<path fill-rule="evenodd" clip-rule="evenodd" d="M338.062 152.912C350.927 152.912 361.356 142.414 361.356 129.465C361.356 116.515 350.927 106.018 338.062 106.018C325.196 106.018 314.767 116.515 314.767 129.465C314.767 142.414 325.196 152.912 338.062 152.912Z" fill="url(#paint14_linear)"/>
<path fill-rule="evenodd" clip-rule="evenodd" d="M370.122 176.54C368.041 178.968 366.999 182.096 365.601 184.978C362.725 190.907 358.214 195.996 355.954 202.191C353.571 208.726 353.651 216.499 348.979 221.631C348.166 222.524 347.186 223.385 346.951 224.572C346.811 225.277 346.956 226.031 346.714 226.707C346.044 228.571 342.995 228.665 342.426 230.564C342.259 231.119 342.353 231.734 342.147 232.276C341.679 233.504 340.059 233.691 338.977 234.426C336.716 235.962 337.172 239.532 335.558 241.745C334.281 243.496 331.875 244.083 329.737 243.786C327.6 243.489 325.642 242.465 323.695 241.528C323.026 241.151 322.286 240.918 321.522 240.845C320.619 240.875 319.746 241.174 319.013 241.702C314.71 244.441 312.69 249.866 312.72 254.99C312.75 260.114 314.509 265.052 316.31 269.845C316.556 270.654 316.959 271.406 317.497 272.057C318.924 273.568 321.409 273.324 323.303 272.484C325.198 271.643 326.919 270.322 328.957 269.952C332.561 269.299 336.084 271.778 339.741 271.574C342.42 271.424 344.791 269.865 347.017 268.357C350.57 265.949 354.188 263.481 356.8 260.064C358.4 257.972 359.571 255.587 360.966 253.352C362.759 250.608 364.724 247.981 366.849 245.487L380.281 229.028C383.509 225.511 385.731 221.189 386.715 216.515C387.992 212.129 389.277 207.692 389.498 203.127C389.68 199.369 389.135 195.616 388.523 191.905C387.92 188.251 387.234 184.557 385.63 181.224C382.712 175.157 375.608 170.136 370.122 176.54Z" fill="url(#paint15_linear)"/>
<path fill-rule="evenodd" clip-rule="evenodd" d="M353.933 143.841C365.839 143.841 375.491 134.179 375.491 122.26C375.491 110.342 365.839 100.68 353.933 100.68C342.027 100.68 332.375 110.342 332.375 122.26C332.375 134.179 342.027 143.841 353.933 143.841Z" fill="url(#paint16_linear)"/>
<path fill-rule="evenodd" clip-rule="evenodd" d="M335.805 129.127C346.358 129.127 354.913 122.429 354.913 114.168C354.913 105.906 346.358 99.2087 335.805 99.2087C325.251 99.2087 316.696 105.906 316.696 114.168C316.696 122.429 325.251 129.127 335.805 129.127Z" fill="url(#paint17_linear)"/>
<path fill-rule="evenodd" clip-rule="evenodd" d="M315.332 115.232C315.332 110.034 316.953 105.511 322.302 101.014C327.652 96.517 329.815 98.6319 336.522 96.8379C343.229 95.0439 357.46 92.8088 362.567 98.2376C367.674 103.666 377.067 111.089 377.067 118.026C377.067 124.963 374.332 137.178 370.241 139.717C366.149 142.256 356.399 142.192 356.399 142.192C356.399 142.192 334.089 132.157 327.444 128.039C318.064 122.228 315.332 117.261 315.332 115.232Z" fill="url(#paint18_linear)"/>
<path fill-rule="evenodd" clip-rule="evenodd" d="M343.148 141.094C344.432 140.049 344.202 137.638 342.634 135.709C341.065 133.78 338.752 133.063 337.467 134.108C336.182 135.153 336.412 137.564 337.981 139.493C339.55 141.422 341.863 142.139 343.148 141.094Z" fill="url(#paint19_linear)"/>
<path d="M260.326 328.533C260.326 338.988 254.118 342.639 246.458 342.639C246.281 342.639 246.104 342.636 245.927 342.632C245.573 342.625 245.22 342.608 244.873 342.584C237.961 342.094 232.591 338.256 232.591 328.533C232.591 318.473 245.434 305.777 246.401 304.836L246.402 304.834C246.439 304.797 246.458 304.78 246.458 304.78C246.458 304.78 260.326 318.08 260.326 328.533Z" fill="#4B55FF"/>
<path d="M245.953 341.039L251.025 333.946L245.94 341.818L245.927 342.632C245.573 342.625 245.22 342.608 244.873 342.584L245.419 332.125L245.416 332.043L245.425 332.029L245.477 331.04L240.379 323.148L245.492 330.299L245.505 330.509L245.917 322.606L241.553 314.451L245.971 321.22L246.401 304.836L246.402 304.78V304.834L246.331 317.754L250.675 312.632L246.313 318.867L246.198 325.942L250.255 319.152L246.181 326.984L246.118 330.918L252.005 321.466L246.095 332.29L245.953 341.039Z" fill="#3F3D56"/>
<defs>
<linearGradient id="paint0_linear" x1="317.16" y1="265.059" x2="317.16" y2="234.108" gradientUnits="userSpaceOnUse">
<stop stop-color="#808080" stop-opacity="0.25"/>
<stop offset="0.53514" stop-color="#808080" stop-opacity="0.12"/>
<stop offset="1" stop-color="#808080" stop-opacity="0.1"/>
</linearGradient>
<linearGradient id="paint1_linear" x1="110.303" y1="294.012" x2="97.3209" y2="314.886" gradientUnits="userSpaceOnUse">
<stop stop-color="#ACB0FF"/>
<stop offset="1" stop-color="#DCEBFF"/>
</linearGradient>
<linearGradient id="paint2_linear" x1="27.7557" y1="288.966" x2="25.5712" y2="328.831" gradientUnits="userSpaceOnUse">
<stop stop-color="#4C55FF"/>
<stop offset="1" stop-color="#1B7CFF"/>
</linearGradient>
<linearGradient id="paint3_linear" x1="192.605" y1="313.209" x2="232.538" y2="252.314" gradientUnits="userSpaceOnUse">
<stop stop-color="#283581"/>
<stop offset="1" stop-color="#131730"/>
</linearGradient>
<linearGradient id="paint4_linear" x1="171.043" y1="282.062" x2="155.545" y2="303.221" gradientUnits="userSpaceOnUse">
<stop stop-color="#ACB0FF"/>
<stop offset="1" stop-color="#DCEBFF"/>
</linearGradient>
<linearGradient id="paint5_linear" x1="97.0421" y1="288.373" x2="94.8921" y2="328.55" gradientUnits="userSpaceOnUse">
<stop stop-color="#4C55FF"/>
<stop offset="1" stop-color="#1B7CFF"/>
</linearGradient>
<linearGradient id="paint6_linear" x1="282.023" y1="219.987" x2="262.513" y2="176.399" gradientUnits="userSpaceOnUse">
<stop stop-color="#ACB0FF"/>
<stop offset="1" stop-color="#DCEBFF"/>
</linearGradient>
<linearGradient id="paint7_linear" x1="263.103" y1="145.25" x2="254.708" y2="216.446" gradientUnits="userSpaceOnUse">
<stop stop-color="#4C55FF"/>
<stop offset="1" stop-color="#1B7CFF"/>
</linearGradient>
<linearGradient id="paint8_linear" x1="231.866" y1="310.739" x2="306.214" y2="263.853" gradientUnits="userSpaceOnUse">
<stop stop-color="#283581"/>
<stop offset="1" stop-color="#131730"/>
</linearGradient>
<linearGradient id="paint9_linear" x1="327.176" y1="140.413" x2="317.24" y2="173.834" gradientUnits="userSpaceOnUse">
<stop stop-color="#ACB0FF"/>
<stop offset="1" stop-color="#DCEBFF"/>
</linearGradient>
<linearGradient id="paint10_linear" x1="292.744" y1="137.615" x2="213.31" y2="252.626" gradientUnits="userSpaceOnUse">
<stop stop-color="#979CF9"/>
<stop offset="1" stop-color="#DCEBFF"/>
</linearGradient>
<linearGradient id="paint11_linear" x1="302.223" y1="148.475" x2="286.17" y2="218.149" gradientUnits="userSpaceOnUse">
<stop stop-color="#4C55FF"/>
<stop offset="1" stop-color="#1B7CFF"/>
</linearGradient>
<linearGradient id="paint12_linear" x1="311.076" y1="142.166" x2="292.709" y2="255.361" gradientUnits="userSpaceOnUse">
<stop stop-color="#4C55FF"/>
<stop offset="1" stop-color="#1B7CFF"/>
</linearGradient>
<linearGradient id="paint13_linear" x1="277.631" y1="192.995" x2="239.318" y2="259.585" gradientUnits="userSpaceOnUse">
<stop stop-color="#ACB0FF"/>
<stop offset="1" stop-color="#DCEBFF"/>
</linearGradient>
<linearGradient id="paint14_linear" x1="336.446" y1="88.7269" x2="294.082" y2="130.815" gradientUnits="userSpaceOnUse">
<stop stop-color="#ACB0FF"/>
<stop offset="1" stop-color="#DCEBFF"/>
</linearGradient>
<linearGradient id="paint15_linear" x1="290.599" y1="168.565" x2="283.146" y2="246.582" gradientUnits="userSpaceOnUse">
<stop stop-color="#4C55FF"/>
<stop offset="1" stop-color="#1B7CFF"/>
</linearGradient>
<linearGradient id="paint16_linear" x1="319.958" y1="98.5158" x2="317.456" y2="132.45" gradientUnits="userSpaceOnUse">
<stop stop-color="#4C55FF"/>
<stop offset="1" stop-color="#1B7CFF"/>
</linearGradient>
<linearGradient id="paint17_linear" x1="305.691" y1="97.7084" x2="304.331" y2="121.28" gradientUnits="userSpaceOnUse">
<stop stop-color="#4C55FF"/>
<stop offset="1" stop-color="#1B7CFF"/>
</linearGradient>
<linearGradient id="paint18_linear" x1="297.553" y1="92.4447" x2="295.443" y2="129.774" gradientUnits="userSpaceOnUse">
<stop stop-color="#4C55FF"/>
<stop offset="1" stop-color="#1B7CFF"/>
</linearGradient>
<linearGradient id="paint19_linear" x1="335.211" y1="131.663" x2="332.541" y2="140.277" gradientUnits="userSpaceOnUse">
<stop stop-color="#ACB0FF"/>
<stop offset="1" stop-color="#DCEBFF"/>
</linearGradient>
</defs>
</svg>
