<svg width="400" height="351" viewBox="0 0 400 351" fill="none" xmlns="http://www.w3.org/2000/svg">
<path d="M320.226 299.615H104.072C46.7843 286.926 4.82603e-05 243.221 4.82603e-05 177.865C-0.00827665 167.978 1.06046 158.12 3.18734 148.466L177.417 120.396L311.824 98.7437C321.48 105.062 330.668 112.066 339.318 119.704L210.665 168.789L149.973 191.945L218.131 175.002L359.596 139.836C368.19 149.442 376 159.722 382.953 170.576L340.172 202.567L388.506 179.686C388.711 180.038 388.915 180.392 389.117 180.746C419.443 233.674 381.218 299.615 320.226 299.615Z" fill="#E2E4FF"/>
<path d="M285.684 83.888C252.966 90.647 212.739 99.1896 171.38 108.07C111.58 120.913 49.4132 134.468 4.15381 144.378C5.15373 140.465 6.31753 136.632 7.64523 132.881C43.0972 96.1688 89.3315 71.7222 139.628 63.0941H139.632C153.096 60.7983 166.729 59.6469 180.387 59.6521C216.874 59.6006 252.89 67.8903 285.684 83.888Z" fill="#E2E4FF"/>
<path d="M57.827 95.372C77.1508 95.372 92.8159 79.7042 92.8159 60.377C92.8159 41.0498 77.1508 25.382 57.827 25.382C38.5032 25.382 22.8381 41.0498 22.8381 60.377C22.8381 79.7042 38.5032 95.372 57.827 95.372Z" fill="#1B7CFF"/>
<path d="M319.815 299.615C298.283 320.246 226.138 321.121 111.084 301.002C108.73 300.59 106.393 300.127 104.072 299.615C46.7843 286.926 4.82603e-05 243.221 4.82603e-05 177.865C-0.00827665 167.978 1.06046 158.12 3.18734 148.466C3.4873 147.095 3.8095 145.732 4.15394 144.378C5.15386 140.465 6.31767 136.632 7.64536 132.881C23.8526 87.1217 64.054 54.7266 111.084 54.7266C122.767 54.7266 131.978 57.8227 139.628 63.0941H139.632C153.577 72.7035 162.326 89.5469 171.38 108.07C173.359 112.116 175.35 116.246 177.417 120.396C185.937 137.51 195.674 154.995 210.665 168.789C213.045 170.986 215.537 173.06 218.131 175.002C219.439 175.985 220.785 176.939 222.168 177.865C311.666 237.758 341.568 278.767 319.815 299.615Z" fill="#283581"/>
<path opacity="0.593862" d="M247.659 285.633C268.254 285.633 284.949 282.814 284.949 279.337C284.949 275.86 268.254 273.042 247.659 273.042C227.065 273.042 210.37 275.86 210.37 279.337C210.37 282.814 227.065 285.633 247.659 285.633Z" fill="#131730"/>
<path opacity="0.593862" d="M47.2566 215.626C67.8508 215.626 84.5457 212.807 84.5457 209.33C84.5457 205.853 67.8508 203.034 47.2566 203.034C26.6624 203.034 9.96753 205.853 9.96753 209.33C9.96753 212.807 26.6624 215.626 47.2566 215.626Z" fill="#131730"/>
<path d="M52.2263 190.132C46.0677 198.187 46.772 209.074 46.772 209.074C46.772 209.074 57.4612 206.901 63.6198 198.845C69.7783 190.789 69.0741 179.902 69.0741 179.902C69.0741 179.902 58.3848 182.076 52.2263 190.132Z" fill="#D0CDE1"/>
<path d="M56.2622 191.941C55.0671 202.011 46.977 209.329 46.977 209.329C46.977 209.329 40.8246 200.32 42.0197 190.25C43.2148 180.18 51.3049 172.862 51.3049 172.862C51.3049 172.862 57.4573 181.871 56.2622 191.941Z" fill="#4B55FF"/>
<path opacity="0.593862" d="M151.833 255.867C169.444 255.867 183.721 253.456 183.721 250.483C183.721 247.509 169.444 245.099 151.833 245.099C134.221 245.099 119.945 247.509 119.945 250.483C119.945 253.456 134.221 255.867 151.833 255.867Z" fill="#131730"/>
<path d="M156.083 234.065C150.816 240.954 151.418 250.264 151.418 250.264C151.418 250.264 160.559 248.405 165.826 241.516C171.092 234.627 170.49 225.317 170.49 225.317C170.49 225.317 161.349 227.176 156.083 234.065Z" fill="#D0CDE1"/>
<path d="M159.534 235.612C158.512 244.224 151.594 250.482 151.594 250.482C151.594 250.482 146.332 242.778 147.354 234.166C148.376 225.555 155.295 219.297 155.295 219.297C155.295 219.297 160.556 227.001 159.534 235.612Z" fill="#4B55FF"/>
<path d="M296.187 232.177C296.204 267.132 275.432 279.346 249.805 279.358C249.21 279.359 248.617 279.352 248.028 279.339C246.84 279.314 245.665 279.261 244.502 279.179C221.371 277.552 203.393 264.73 203.378 232.222C203.361 198.58 246.33 156.103 249.553 152.962C249.556 152.962 249.556 152.962 249.559 152.959C249.681 152.84 249.744 152.78 249.744 152.78C249.744 152.78 296.17 197.224 296.187 232.177Z" fill="#4B55FF"/>
<path d="M248.114 274.012L265.074 250.286L248.072 276.616L248.028 279.339C246.84 279.314 245.665 279.261 244.502 279.179L246.313 244.208L246.299 243.937L246.33 243.886L246.502 240.582L229.432 214.203L246.552 238.106L246.595 238.807L247.964 212.385L233.348 185.125L248.141 207.742L249.553 152.962L249.558 152.78L249.559 152.959L249.34 196.159L263.866 179.026L249.279 199.879L248.906 223.537L262.472 200.827L248.854 227.015L248.647 240.17L268.335 208.558L248.572 244.76L248.114 274.012Z" fill="#3F3D56"/>
<path opacity="0.593862" d="M98.2722 173.385C125.149 173.385 146.938 169.706 146.938 165.169C146.938 160.631 125.149 156.952 98.2722 156.952C71.395 156.952 49.6067 160.631 49.6067 165.169C49.6067 169.706 71.395 173.385 98.2722 173.385Z" fill="#131730"/>
<path d="M161.605 103.62C161.627 149.24 134.519 165.18 101.073 165.196C100.296 165.196 99.5225 165.188 98.7531 165.171C97.203 165.138 95.6691 165.069 94.1512 164.961C63.964 162.838 40.5013 146.105 40.4807 103.679C40.4594 59.7729 96.5377 4.33699 100.743 0.238059C100.747 0.238059 100.747 0.238059 100.751 0.234334C100.911 0.0781113 100.992 0 100.992 0C100.992 0 161.582 58.0039 161.605 103.62Z" fill="#4B55FF"/>
<path d="M98.8647 158.219L121 127.255L98.8106 161.617L98.7529 165.171C97.2028 165.138 95.6689 165.069 94.1511 164.961L96.5153 119.322L96.4965 118.969L96.5373 118.902L96.762 114.589L74.4839 80.1628L96.8273 111.358L96.8835 112.273L98.6695 77.7903L79.595 42.2137L98.9008 71.7304L100.743 0.238041L100.75 0.00012207L100.751 0.234316L100.466 56.6134L119.423 34.2534L100.386 61.4688L99.8996 92.3445L117.604 62.7059L99.8312 96.8839L99.5607 114.052L125.255 72.7957L99.4633 120.042L98.8647 158.219Z" fill="#3F3D56"/>
<path d="M381.206 325.033C381.206 325.135 381.191 325.236 381.161 325.334C380.38 328.313 368.32 333.666 348.795 338.713C345.536 339.549 342.067 340.38 338.412 341.196C318.847 345.451 299.001 348.297 279.028 349.713C268.906 350.449 258.337 350.87 247.464 350.87C174.718 350.87 115.539 332.058 113.772 325.334C113.742 325.236 113.727 325.135 113.727 325.033C113.726 324.969 113.733 324.905 113.747 324.843C113.751 324.803 113.761 324.765 113.777 324.728C115.714 318.884 174.823 327.537 247.464 327.537C261.596 327.537 275.223 327.211 288.009 326.726C313.406 325.759 335.519 324.177 351.819 323.311C353.406 323.231 354.938 323.151 356.41 323.086C371.364 322.379 380.42 322.5 381.156 324.728C381.171 324.765 381.181 324.803 381.186 324.843C381.2 324.905 381.207 324.969 381.206 325.033Z" fill="#3F3D56"/>
<path opacity="0.593862" d="M381.206 325.033C381.206 325.135 381.191 325.236 381.161 325.334C380.38 328.313 368.32 333.666 348.795 338.713C345.536 339.549 342.067 340.38 338.412 341.196C318.847 345.451 299.001 348.297 279.028 349.713C268.906 350.449 258.337 350.87 247.464 350.87C174.718 350.87 115.539 332.058 113.772 325.334C113.742 325.236 113.727 325.135 113.727 325.033C113.726 324.969 113.733 324.905 113.747 324.843C113.751 324.803 113.761 324.765 113.777 324.728C115.714 318.884 174.823 327.537 247.464 327.537C261.596 327.537 275.223 327.211 288.009 326.726C313.406 325.759 335.519 324.177 351.819 323.311C353.406 323.231 354.938 323.151 356.41 323.086C371.364 322.379 380.42 322.5 381.156 324.728C381.171 324.765 381.181 324.803 381.186 324.843C381.2 324.905 381.207 324.969 381.206 325.033Z" fill="#131730"/>
<path d="M247.466 336.702C321.329 336.702 381.207 331.478 381.207 325.034C381.207 318.59 321.329 313.366 247.466 313.366C173.603 313.366 113.725 318.59 113.725 325.034C113.725 331.478 173.603 336.702 247.466 336.702Z" fill="#283581"/>
<path opacity="0.593862" d="M326.648 331.658C339.09 331.658 349.176 329.416 349.176 326.651C349.176 323.885 339.09 321.643 326.648 321.643C314.206 321.643 304.12 323.885 304.12 326.651C304.12 329.416 314.206 331.658 326.648 331.658Z" fill="#131730"/>
<path d="M326.648 326.65C333.284 326.65 338.663 325.754 338.663 324.648C338.663 323.541 333.284 322.645 326.648 322.645C320.012 322.645 314.633 323.541 314.633 324.648C314.633 325.754 320.012 326.65 326.648 326.65Z" fill="#4B55FF"/>
<path opacity="0.1" d="M331.763 215.911C331.763 215.911 340.289 233.994 339.599 238.829C338.908 243.664 331.763 215.911 331.763 215.911Z" fill="black"/>
<path opacity="0.593862" d="M187.974 331.658C200.416 331.658 210.503 329.416 210.503 326.651C210.503 323.885 200.416 321.643 187.974 321.643C175.532 321.643 165.446 323.885 165.446 326.651C165.446 329.416 175.532 331.658 187.974 331.658Z" fill="#131730"/>
<path d="M187.974 326.651C194.61 326.651 199.99 321.27 199.99 314.633C199.99 307.997 194.61 302.616 187.974 302.616C181.339 302.616 175.959 307.997 175.959 314.633C175.959 321.27 181.339 326.651 187.974 326.651Z" fill="#4B55FF"/>
<path opacity="0.593862" d="M252.055 331.658C264.496 331.658 274.583 329.416 274.583 326.651C274.583 323.885 264.496 321.643 252.055 321.643C239.613 321.643 229.526 323.885 229.526 326.651C229.526 329.416 239.613 331.658 252.055 331.658Z" fill="#131730"/>
<path d="M252.055 326.651C258.69 326.651 264.07 321.27 264.07 314.633C264.07 307.997 258.69 302.616 252.055 302.616C245.419 302.616 240.04 307.997 240.04 314.633C240.04 321.27 245.419 326.651 252.055 326.651Z" fill="#4B55FF"/>
<rect x="186.352" y="306.925" width="3.00375" height="15.0214" fill="#D0CDE1"/>
<rect x="247.929" y="306.925" width="3.00375" height="15.0214" fill="#D0CDE1"/>
<rect x="252.435" y="306.925" width="3.00375" height="15.0214" fill="#D0CDE1"/>
</svg>
