<svg width="80" height="80" viewBox="0 0 80 80" fill="none" xmlns="http://www.w3.org/2000/svg">
<path fill-rule="evenodd" clip-rule="evenodd" d="M79.688 35.0659C78.9476 28.3508 76.4715 22.216 72.467 16.7502C66.0155 7.94916 57.3875 2.56814 46.6132 0.694845C44.465 0.321797 42.268 0.224716 40.0936 0C39.9491 0 39.8056 0 39.662 0C37.6305 0.221923 35.5902 0.368942 33.5729 0.678254C12.8564 3.85072 -2.12185 23.4263 0.246301 44.2525C1.3763 54.193 5.54883 62.6701 12.9561 69.4308C21.7631 77.4702 32.2249 80.9171 44.0856 79.7926C53.1883 78.9267 61.1314 75.2633 67.6782 68.8707C77.1857 59.5796 81.1396 48.2226 79.688 35.0659ZM71.247 55.5338C70.2342 53.7714 68.9557 51.3141 68.3845 49.2169C67.5546 46.1719 65.5621 49.1139 65.3957 51.1026C65.2292 53.0912 63.9014 54.5824 61.2442 51.5995C58.587 48.6169 58.0889 49.279 57.259 49.279C56.4291 49.279 54.9346 51.2673 55.2665 60.5479C55.503 67.1735 58.1222 68.225 59.8335 68.7057C56.6559 70.8845 53.0045 72.6011 48.9064 73.6399C33.2432 77.6071 17.2549 70.4028 9.78492 56.0902C2.82549 42.7542 6.21616 27.6634 13.2908 19.3576C13.4811 20.8515 13.6674 22.1934 13.8225 23.5405C14.2442 27.2184 13.926 30.8482 13.1741 34.4635C13.0134 35.234 13.0694 36.1116 13.2776 36.8694C13.3909 37.2832 14.016 37.7719 14.448 37.8128C14.788 37.8458 15.3814 37.3078 15.5192 36.9039C15.7683 36.1816 15.7785 35.3718 15.855 34.5954C15.91 34.0478 15.911 33.4929 15.9488 32.6338C16.5106 33.0881 16.9203 33.3638 17.2609 33.7056C18.1287 34.5775 19.0063 35.4455 19.7982 36.383C20.148 36.7991 20.5085 37.3816 20.4988 37.8826C20.4769 38.9544 20.9482 39.6833 21.5238 40.525C22.1634 41.461 22.4515 42.6378 22.863 43.7214C23.0352 44.1758 23.0712 44.6885 23.2765 45.1254C23.7148 46.0612 24.3773 46.7022 25.5162 46.772C26.7144 46.8477 27.1629 47.3118 27.3351 48.5351C27.0286 48.5701 26.7236 48.611 26.4176 48.6391C24.9562 48.778 24.232 49.4479 24.2898 50.9189C24.404 53.8404 25.4601 56.3929 27.6332 58.4223C28.232 58.9826 28.8682 59.503 29.4501 60.0767C30.7791 61.3866 31.2428 62.9254 30.6039 64.7344C30.2979 65.5966 29.8785 66.4432 29.7429 67.3347C29.6048 68.2404 29.6038 69.2251 29.814 70.1114C30.0319 71.0338 29.9385 73.0513 30.893 72.8844C32.5815 72.5882 33.552 72.9204 33.6833 71.0338C33.7082 70.6744 33.6804 70.6299 33.5846 70.2979C33.0825 68.5269 35.3621 63.4994 36.73 62.5828C37.8985 61.7983 39.0703 61.0001 40.1294 60.0787C41.6562 58.7544 42.3398 57.0436 41.6982 55.0514C41.0944 53.1764 41.8008 51.7997 43.1143 50.5927C44.4542 49.3625 45.3326 47.9449 45.2411 46.0515C45.1496 44.1582 43.9082 42.791 42.2903 42.9853C41.4992 43.0785 40.7409 43.4571 39.9697 43.7163C38.8392 44.0979 37.7359 44.6319 36.5756 44.8397C34.9493 45.1272 33.9472 44.0669 33.2218 42.7794C32.6381 41.7443 32.4459 41.6648 31.4326 42.3096C30.5778 42.8552 29.7246 43.4047 28.8392 43.898C27.9194 44.4107 27.4182 44.2205 26.7091 43.4533C26.2897 43.0008 25.709 42.6824 25.1699 42.3562C24.7823 42.1193 24.2582 42.0541 23.9474 41.7571C23.5309 41.3552 22.9501 40.759 23.009 40.3232C23.0776 39.8116 23.6715 39.1711 24.1895 38.9615C25.0822 38.6003 26.0965 38.5419 27.0538 38.3343C27.5636 38.2236 28.0807 38.1084 28.5627 37.9187C29.2224 37.6561 29.1946 37.2235 28.6896 36.8176C28.4406 36.6181 28.1326 36.4778 27.8324 36.3574C26.373 35.7709 24.9054 35.2101 23.4468 34.6214C23.0844 34.4762 22.7274 34.2976 22.4019 34.0854C21.4849 33.484 21.3745 32.8219 22.2064 32.0892C25.491 29.1978 29.3278 28.3512 32.7272 32.1927C33.7803 33.3825 34.4945 34.8662 35.4889 36.1147C36.2711 37.0994 37.1716 38.0237 38.1658 38.7834C38.5755 39.0955 39.4968 39.1486 39.9551 38.8979C40.6375 38.525 40.6614 37.6751 40.318 36.9663C40.0212 36.3506 39.6724 35.7438 39.2532 35.205C37.3219 32.7218 37.4547 27.8827 41.2375 25.8637C42.5028 25.1874 43.7791 24.4752 44.3834 22.661C43.6586 22.8567 43.1331 22.9828 42.6183 23.1402C39.7458 24.028 41.7456 21.8896 43.067 21.5167C43.8697 21.2891 42.349 20.6754 42.349 20.6754C42.3851 20.6128 43.3589 20.3355 44.4418 19.8747C45.187 19.5587 45.9488 19.2029 46.5677 18.6999C46.9686 18.3717 47.1232 17.7445 47.3869 17.2512C47.3199 17.1735 47.2546 17.0978 47.1866 17.0201C46.4276 17.1221 45.6696 17.2342 44.9088 17.3197C43.6196 17.4638 43.3171 17.2115 43.1976 15.9138C43.1148 15.0277 42.21 14.5448 41.3651 14.9992C40.7934 15.3085 40.2991 15.7569 39.749 16.1117C38.4789 16.9327 37.5293 16.6045 37.031 15.1889C36.7343 14.3462 36.3209 14.1869 35.544 14.6588C35.1533 14.8957 34.8273 15.2418 34.43 15.4632C33.7785 15.8264 33.1161 16.1909 32.4166 16.4376C31.7351 16.6784 30.9144 16.8532 30.4507 16.1075C29.9526 15.3055 30.388 14.5248 31.0161 14.0219C31.7968 13.3966 32.6969 12.9112 33.5754 12.4198C34.8267 11.7169 36.1517 11.1323 37.3601 10.3659C38.247 9.80111 38.6346 8.88073 38.3477 7.79477C38.1054 6.87816 37.4909 6.56803 36.6401 6.98838C35.9376 7.33646 35.3238 7.88117 34.6013 8.16174C34.0735 8.36362 33.4157 8.36576 32.849 8.26621C32.6398 8.22925 32.4174 7.6507 32.4116 7.31478C32.4077 7.12111 32.8012 6.78469 33.0523 6.74379C34.7977 6.47242 36.5509 6.24278 38.3066 6.0432C38.5386 6.0179 38.8874 6.16114 39.033 6.3461C40.1926 7.80692 41.8106 8.51573 43.5128 9.02151C44.9429 9.44531 45.1501 9.24343 45.3468 7.74614C47.1836 7.31462 49.0507 6.46437 50.8992 7.62771C51.9247 8.27179 52.8596 9.09247 53.7276 9.94238C53.9427 10.154 53.8114 10.8084 53.7082 11.2299C53.572 11.7963 53.2578 12.3198 53.1128 12.8862C52.8326 13.9838 53.5437 14.8416 54.6801 14.8237C55.0391 14.816 55.3972 14.7426 55.7581 14.7247C56.808 14.6757 57.1806 15.0767 57.0843 16.1346C56.948 17.6337 57.1981 17.8139 58.7139 17.5579C59.1496 17.4847 59.6528 17.6821 60.0974 17.8377C60.3619 17.9308 60.5672 18.1838 60.8027 18.3614C62.2124 19.4274 63.2904 19.0279 63.703 17.2836C63.7476 17.0937 63.7419 16.8908 63.7809 16.699C63.9443 15.9164 64.3871 15.715 64.9162 16.2712C66.0371 17.4558 67.0888 18.7063 68.226 19.9978C67.004 21.1163 66.9632 22.4756 67.2338 23.8076C67.5343 25.2894 67.1432 26.5768 66.5576 27.8822C65.9963 29.1328 65.3795 30.3756 65.0047 31.684C64.4444 33.6478 65.0806 34.5449 67.079 34.9795C68.986 35.3949 69.2982 35.7775 69.3703 37.638C69.4666 40.1756 70.7724 41.927 73.0033 43.0446C73.4986 43.2912 74.0248 43.4786 74.5306 43.6884C74.2806 47.6002 73.1616 51.6714 71.247 55.5338Z" fill="#0857FF" fill-opacity="0.5"/>
</svg>
