<svg width="80" height="80" viewBox="0 0 80 80" fill="none" xmlns="http://www.w3.org/2000/svg">
<path fill-rule="evenodd" clip-rule="evenodd" d="M39.9987 0C17.9083 0 0 17.9096 0 39.9992C0 62.0888 17.9083 80 39.9987 80C62.0891 80 79.9995 62.0899 79.9995 39.9992C79.9995 17.9085 62.0891 0 39.9987 0ZM55.6795 25.115L45.5203 53.7744C45.4345 54.0166 45.2222 54.1907 44.9691 54.2275C44.7113 54.2627 44.4614 54.1584 44.3107 53.9523L39.1518 46.9032L30.6235 55.431C30.4886 55.5659 30.3115 55.6336 30.1345 55.6336C29.9574 55.6336 29.7803 55.5659 29.6454 55.431L24.4811 50.2667C24.2107 49.9963 24.2107 49.5592 24.4811 49.2888L33.0089 40.7598L25.9593 35.6016C25.7526 35.4502 25.6459 35.1971 25.6833 34.9432C25.7206 34.6894 25.895 34.4771 26.1363 34.392L54.7958 24.2328C55.0475 24.1435 55.3275 24.2064 55.5158 24.3952C55.7051 24.583 55.7689 24.8632 55.6795 25.115Z" fill="#0857FF" fill-opacity="0.5"/>
</svg>
