<svg width="81" height="80" viewBox="0 0 81 80" fill="none" xmlns="http://www.w3.org/2000/svg">
<path fill-rule="evenodd" clip-rule="evenodd" d="M80.0914 35.5592C79.9646 34.4348 78.6473 33.5889 77.5083 33.5889C73.8273 33.5889 70.5605 31.4377 69.1904 28.1081C67.7919 24.6985 68.6943 20.7229 71.4368 18.2178C72.3006 17.4314 72.4059 16.1146 71.6817 15.2005C69.7971 12.8182 67.656 10.6659 65.3176 8.80077C64.4027 8.07007 63.0584 8.17179 62.2645 9.04675C59.8701 11.6872 55.5688 12.6684 52.245 11.2876C48.7874 9.83903 46.605 6.34921 46.8194 2.60338C46.8899 1.42603 46.0254 0.402996 44.8472 0.266338C41.8461 -0.0796341 38.8187 -0.0896673 35.809 0.242811C34.6457 0.370821 33.7819 1.36964 33.8204 2.53211C33.9507 6.24127 31.7437 9.6695 28.3194 11.0662C25.0355 12.402 20.7642 11.4281 18.3747 8.8108C17.5849 7.94864 16.2642 7.84277 15.3431 8.55789C12.9358 10.4389 10.7465 12.5926 8.84447 14.9556C8.10333 15.8742 8.21278 17.2055 9.08387 17.9946C11.8806 20.5164 12.7823 24.5262 11.3302 27.9756C9.94384 31.264 6.51473 33.3824 2.58944 33.3824C1.31564 33.3416 0.40911 34.1937 0.268387 35.3472C-0.0846353 38.3512 -0.0884574 41.4138 0.251361 44.4424C0.378185 45.5717 1.73433 46.4103 2.88583 46.4103C6.38478 46.3217 9.74196 48.4771 11.1523 51.8908C12.5557 55.3004 11.6523 59.2742 8.90527 61.7829C8.046 62.5693 7.9362 63.8829 8.6617 64.7959C10.5272 67.1634 12.6704 69.3171 15.0158 71.1981C15.9365 71.9364 17.2757 71.833 18.0738 70.957C20.4775 68.3103 24.7781 67.3309 28.0884 68.7144C31.556 70.1592 33.7374 73.6487 33.5244 77.3955C33.4546 78.5729 34.3211 79.599 35.4952 79.7326C37.031 79.9114 38.5748 80 40.1234 80C41.5932 80 43.0633 79.9201 44.5334 79.7571C45.6981 79.6291 46.5605 78.6293 46.5213 77.4664C46.3868 73.759 48.5987 70.3304 52.0188 68.9365C55.3246 67.5921 59.5768 68.576 61.9677 71.1895C62.7617 72.0499 64.0744 72.1544 64.9993 71.442C67.4024 69.5658 69.5876 67.4132 71.4979 65.044C72.2398 64.1272 72.1345 62.7941 71.2585 62.0036C68.4625 59.4835 67.556 55.472 69.008 52.0261C70.3729 48.7819 73.6744 46.6037 77.2255 46.6037L77.7224 46.6169C78.8753 46.7099 79.9347 45.826 80.074 44.6548C80.4288 41.648 80.4326 38.5889 80.0914 35.5592ZM40.1715 63.0605C27.3804 63.0605 17.0117 52.7364 17.0117 40.0004C17.0117 27.2645 27.3807 16.9404 40.1715 16.9404C52.9623 16.9404 63.3313 27.2645 63.3313 40.0004C63.3313 44.3234 62.1343 48.3667 60.0554 51.8244L49.9144 41.7265C50.6486 40.0029 51.0363 38.1343 51.036 36.2058C51.036 32.4295 49.5589 28.8795 46.8769 26.2096C44.1955 23.5398 40.6302 22.0694 36.8383 22.0694C35.5728 22.0694 34.3133 22.2368 33.0947 22.5672C32.561 22.7122 32.1246 23.1502 31.9825 23.6827C31.8373 24.2272 32.0009 24.7853 32.4283 25.2112C32.4283 25.2112 37.4349 30.2347 39.11 31.9023C39.2855 32.077 39.2851 32.4939 39.2605 32.644L39.2448 32.7537C39.076 34.5874 38.7504 36.7884 38.4818 37.6343C38.4457 37.67 38.4116 37.7001 38.3748 37.7367C38.3362 37.7751 38.3008 37.8122 38.2636 37.8502C37.4029 38.1253 35.1583 38.4532 33.2876 38.62L33.2879 38.61L33.2038 38.6311C33.1889 38.6328 33.1611 38.6349 33.1243 38.6349C32.9221 38.6349 32.6246 38.5785 32.3543 38.3097C30.6107 36.5736 25.8004 31.8182 25.8004 31.8182C25.3689 31.3899 24.9262 31.2999 24.6312 31.2999C23.9436 31.2999 23.3279 31.7947 23.134 32.5043C21.8098 37.3835 23.2136 42.6319 26.7984 46.2016C29.4804 48.8718 33.0461 50.3422 36.8386 50.3422C38.7754 50.3422 40.6521 49.9565 42.3828 49.2254L52.634 59.4326C49.035 61.7257 44.7612 63.0605 40.1715 63.0605Z" fill="#0857FF" fill-opacity="0.5"/>
</svg>
