<svg width="756" height="429" viewBox="0 0 756 429" fill="none" xmlns="http://www.w3.org/2000/svg">
<path fill-rule="evenodd" clip-rule="evenodd" d="M359.832 86.4079C358.927 85.785 357.677 86.0054 357.039 86.9002L356.473 87.6962L355.644 87.1258C354.744 86.5064 353.501 86.7256 352.868 87.6152C352.234 88.5048 352.45 89.728 353.35 90.3473L354.178 90.9178L353.611 91.7138C352.974 92.6086 353.191 93.8389 354.096 94.4618C355.001 95.0847 356.251 94.8643 356.888 93.9695L357.455 93.1735L358.283 93.7439C359.183 94.3633 360.426 94.1441 361.059 93.2545C361.693 92.3649 361.477 91.1417 360.578 90.5224L359.749 89.952L360.316 89.156C360.953 88.2612 360.736 87.0309 359.832 86.4079Z" fill="#FF7D7D"/>
<path fill-rule="evenodd" clip-rule="evenodd" d="M683.083 376.312C682.723 375.285 681.596 374.736 680.566 375.084L679.595 375.413L679.278 374.508C678.914 373.468 677.772 372.911 676.728 373.264C675.683 373.618 675.132 374.748 675.496 375.789L675.813 376.693L674.843 377.022C673.812 377.371 673.268 378.486 673.628 379.513C673.987 380.54 675.114 381.089 676.145 380.741L677.116 380.412L677.432 381.317C677.797 382.357 678.939 382.914 679.983 382.561C681.028 382.207 681.579 381.077 681.214 380.036L680.898 379.132L681.868 378.803C682.899 378.454 683.443 377.339 683.083 376.312Z" fill="#FF7D7D"/>
<path fill-rule="evenodd" clip-rule="evenodd" d="M364 6.89916C365.657 6.89916 367 5.57859 367 3.94958C367 2.32057 365.657 1 364 1C362.343 1 361 2.32057 361 3.94958C361 5.57859 362.343 6.89916 364 6.89916Z" stroke="#F5C623"/>
<path fill-rule="evenodd" clip-rule="evenodd" d="M752 29.5126C753.657 29.5126 755 28.192 755 26.563C755 24.934 753.657 23.6134 752 23.6134C750.343 23.6134 749 24.934 749 26.563C749 28.192 750.343 29.5126 752 29.5126Z" stroke="#F5C623"/>
<path fill-rule="evenodd" clip-rule="evenodd" d="M364 143.563C365.657 143.563 367 142.242 367 140.613C367 138.984 365.657 137.664 364 137.664C362.343 137.664 361 138.984 361 140.613C361 142.242 362.343 143.563 364 143.563Z" stroke="#F5C623"/>
<path fill-rule="evenodd" clip-rule="evenodd" d="M321 112.101C322.105 112.101 323 111.22 323 110.134C323 109.048 322.105 108.168 321 108.168C319.895 108.168 319 109.048 319 110.134C319 111.22 319.895 112.101 321 112.101Z" fill="#9559FF"/>
<mask id="path-7-inside-1" fill="white">
<path fill-rule="evenodd" clip-rule="evenodd" d="M229.298 55.8787C228.127 56.4906 227.688 57.9282 228.316 59.0898L228.869 60.1117L227.789 60.6761C226.63 61.2821 226.195 62.7062 226.817 63.8569C227.439 65.0075 228.883 65.449 230.043 64.843L231.122 64.2786L231.675 65.3005C232.303 66.4621 233.761 66.9079 234.931 66.296C236.102 65.6842 236.541 64.2466 235.913 63.0849L235.36 62.063L236.44 61.4987C237.599 60.8927 238.034 59.4686 237.412 58.3179C236.79 57.1672 235.346 56.7257 234.186 57.3318L233.107 57.8961L232.554 56.8742C231.926 55.7126 230.468 55.2669 229.298 55.8787Z"/>
</mask>
<path d="M228.869 60.1117L229.344 60.9913L230.231 60.528L229.755 59.6484L228.869 60.1117ZM227.789 60.6761L228.265 61.5557L227.789 60.6761ZM226.817 63.8569L227.703 63.3936L226.817 63.8569ZM231.122 64.2786L232.008 63.8154L231.533 62.9357L230.646 63.399L231.122 64.2786ZM231.675 65.3005L230.789 65.7638L231.675 65.3005ZM235.36 62.063L234.885 61.1834L233.998 61.6467L234.474 62.5263L235.36 62.063ZM233.107 57.8961L232.221 58.3594L232.696 59.239L233.583 58.7757L233.107 57.8961ZM229.202 58.6265C228.837 57.9507 229.092 57.1143 229.773 56.7583L228.822 54.9991C227.162 55.8668 226.539 57.9057 227.43 59.5531L229.202 58.6265ZM229.755 59.6484L229.202 58.6265L227.43 59.5531L227.982 60.575L229.755 59.6484ZM228.265 61.5557L229.344 60.9913L228.393 59.2321L227.313 59.7965L228.265 61.5557ZM227.703 63.3936C227.343 62.7287 227.595 61.9059 228.265 61.5557L227.313 59.7965C225.665 60.6584 225.046 62.6837 225.931 64.3202L227.703 63.3936ZM229.567 63.9634C228.897 64.3136 228.063 64.0585 227.703 63.3936L225.931 64.3202C226.816 65.9566 228.87 66.5845 230.518 65.7226L229.567 63.9634ZM230.646 63.399L229.567 63.9634L230.518 65.7226L231.598 65.1582L230.646 63.399ZM232.561 64.8372L232.008 63.8154L230.236 64.7419L230.789 65.7638L232.561 64.8372ZM234.456 65.4164C233.775 65.7724 232.926 65.5131 232.561 64.8372L230.789 65.7638C231.68 67.4112 233.747 68.0433 235.407 67.1756L234.456 65.4164ZM235.027 63.5482C235.392 64.2241 235.137 65.0605 234.456 65.4164L235.407 67.1756C237.067 66.308 237.69 64.2691 236.799 62.6217L235.027 63.5482ZM234.474 62.5263L235.027 63.5482L236.799 62.6217L236.247 61.5998L234.474 62.5263ZM235.964 60.6191L234.885 61.1834L235.836 62.9427L236.916 62.3783L235.964 60.6191ZM236.526 58.7812C236.886 59.446 236.634 60.2689 235.964 60.6191L236.916 62.3783C238.564 61.5164 239.183 59.4911 238.298 57.8546L236.526 58.7812ZM234.662 58.2114C235.332 57.8612 236.166 58.1163 236.526 58.7812L238.298 57.8546C237.413 56.2181 235.359 55.5903 233.711 56.4522L234.662 58.2114ZM233.583 58.7757L234.662 58.2114L233.711 56.4522L232.631 57.0165L233.583 58.7757ZM231.668 57.3375L232.221 58.3594L233.993 57.4328L233.44 56.411L231.668 57.3375ZM229.773 56.7583C230.454 56.4024 231.303 56.6617 231.668 57.3375L233.44 56.411C232.549 54.7635 230.482 54.1314 228.822 54.9991L229.773 56.7583Z" fill="#1C85FF" mask="url(#path-7-inside-1)"/>
<mask id="path-9-inside-2" fill="white">
<path fill-rule="evenodd" clip-rule="evenodd" d="M11.4473 415.101C10.3233 414.41 8.83837 414.753 8.13073 415.866L7.50432 416.852L6.4716 416.218C5.35584 415.532 3.88194 415.872 3.17954 416.978C2.47714 418.083 2.81223 419.534 3.92799 420.22L4.9607 420.854L4.33429 421.84C3.62665 422.953 3.96424 424.416 5.08831 425.106C6.21238 425.797 7.69728 425.454 8.40492 424.341L9.03134 423.355L10.0641 423.99C11.1798 424.675 12.6537 424.335 13.3561 423.23C14.0585 422.125 13.7234 420.673 12.6077 419.987L11.5749 419.353L12.2014 418.367C12.909 417.254 12.5714 415.791 11.4473 415.101Z"/>
</mask>
<path d="M8.13073 415.866L8.98278 416.39L8.13073 415.866ZM7.50432 416.852L6.96793 417.696L7.81998 418.22L8.35636 417.376L7.50432 416.852ZM3.17954 416.978L4.03158 417.501L3.17954 416.978ZM4.9607 420.854L5.81275 421.378L6.34914 420.534L5.49709 420.01L4.9607 420.854ZM4.33429 421.84L3.48224 421.316L4.33429 421.84ZM8.40492 424.341L9.25696 424.864L8.40492 424.341ZM9.03134 423.355L9.56772 422.511L8.71568 421.988L8.17929 422.832L9.03134 423.355ZM12.6077 419.987L13.1441 419.143L12.6077 419.987ZM11.5749 419.353L10.7229 418.829L10.1865 419.673L11.0386 420.197L11.5749 419.353ZM12.2014 418.367L13.0534 418.891L12.2014 418.367ZM8.98278 416.39C9.39418 415.743 10.2575 415.543 10.911 415.945L11.9837 414.257C10.3891 413.277 8.28256 413.763 7.27869 415.343L8.98278 416.39ZM8.35636 417.376L8.98278 416.39L7.27869 415.343L6.65227 416.329L8.35636 417.376ZM5.93521 417.062L6.96793 417.696L8.0407 416.008L7.00798 415.374L5.93521 417.062ZM4.03158 417.501C4.43775 416.862 5.29003 416.665 5.93521 417.062L7.00798 415.374C5.42166 414.399 3.32613 414.883 2.32749 416.454L4.03158 417.501ZM4.46437 419.376C3.81919 418.979 3.62542 418.14 4.03158 417.501L2.32749 416.454C1.32886 418.025 1.80528 420.089 3.3916 421.064L4.46437 419.376ZM5.49709 420.01L4.46437 419.376L3.3916 421.064L4.42432 421.698L5.49709 420.01ZM5.18633 422.363L5.81275 421.378L4.10866 420.331L3.48224 421.316L5.18633 422.363ZM5.6247 424.262C4.9712 423.861 4.77493 423.011 5.18633 422.363L3.48224 421.316C2.47836 422.896 2.95728 424.971 4.55192 425.95L5.6247 424.262ZM7.55287 423.817C7.14147 424.465 6.2782 424.664 5.6247 424.262L4.55192 425.95C6.14657 426.93 8.25309 426.444 9.25696 424.864L7.55287 423.817ZM8.17929 422.832L7.55287 423.817L9.25696 424.864L9.88338 423.879L8.17929 422.832ZM10.6004 423.146L9.56772 422.511L8.49495 424.199L9.52767 424.834L10.6004 423.146ZM12.5041 422.706C12.0979 423.345 11.2456 423.542 10.6004 423.146L9.52767 424.834C11.114 425.808 13.2095 425.324 14.2082 423.753L12.5041 422.706ZM12.0713 420.831C12.7165 421.228 12.9102 422.067 12.5041 422.706L14.2082 423.753C15.2068 422.182 14.7304 420.118 13.1441 419.143L12.0713 420.831ZM11.0386 420.197L12.0713 420.831L13.1441 419.143L12.1113 418.509L11.0386 420.197ZM11.3493 417.844L10.7229 418.829L12.427 419.876L13.0534 418.891L11.3493 417.844ZM10.911 415.945C11.5645 416.346 11.7607 417.197 11.3493 417.844L13.0534 418.891C14.0573 417.311 13.5784 415.237 11.9837 414.257L10.911 415.945Z" fill="#1C85FF" mask="url(#path-9-inside-2)"/>
</svg>
