<svg width="116" height="116" viewBox="0 0 116 116" fill="none" xmlns="http://www.w3.org/2000/svg">
<path fill-rule="evenodd" clip-rule="evenodd" d="M58 116C90.0325 116 116 90.0325 116 58C116 25.9675 90.0325 0 58 0C25.9675 0 0 25.9675 0 58C0 90.0325 25.9675 116 58 116Z" fill="url(#paint0_linear)"/>
<path fill-rule="evenodd" clip-rule="evenodd" d="M78.7358 56.2617C78.6713 55.6898 78.0013 55.2596 77.422 55.2596C75.5498 55.2596 73.8883 54.1654 73.1914 52.4719C72.4801 50.7378 72.9391 48.7157 74.334 47.4416C74.7733 47.0416 74.8268 46.3719 74.4585 45.907C73.5 44.6953 72.411 43.6006 71.2217 42.652C70.7564 42.2803 70.0726 42.3321 69.6688 42.7771C68.451 44.12 66.2633 44.6191 64.5728 43.9168C62.8142 43.18 61.7042 41.4051 61.8132 39.4999C61.8491 38.9011 61.4094 38.3808 60.8101 38.3112C59.2838 38.1353 57.744 38.1302 56.2132 38.2993C55.6215 38.3644 55.1822 38.8724 55.2018 39.4636C55.2681 41.3502 54.1455 43.0938 52.4039 43.8042C50.7337 44.4836 48.5612 43.9882 47.3459 42.6571C46.9442 42.2186 46.2725 42.1647 45.804 42.5284C44.5796 43.4852 43.4661 44.5805 42.4987 45.7824C42.1217 46.2496 42.1774 46.9267 42.6205 47.3281C44.0429 48.6107 44.5015 50.6501 43.763 52.4045C43.0578 54.0771 41.3138 55.1545 39.3173 55.1545C38.6694 55.1337 38.2084 55.5671 38.1368 56.1538C37.9572 57.6817 37.9553 59.2394 38.1281 60.7798C38.1926 61.3541 38.8824 61.7807 39.468 61.7807C41.2477 61.7356 42.9552 62.8319 43.6725 64.5681C44.3863 66.3023 43.9268 68.3234 42.5296 69.5993C42.0926 69.9993 42.0367 70.6675 42.4057 71.1318C43.3546 72.336 44.4446 73.4314 45.6375 74.3881C46.1058 74.7636 46.7869 74.711 47.1928 74.2654C48.4154 72.9193 50.6027 72.4211 52.2864 73.1248C54.0501 73.8597 55.1596 75.6344 55.0512 77.5401C55.0157 78.139 55.4565 78.6609 56.0536 78.7288C56.8347 78.8198 57.6199 78.8648 58.4076 78.8648C59.1551 78.8648 59.9028 78.8242 60.6506 78.7413C61.2429 78.6762 61.6816 78.1676 61.6616 77.5762C61.5932 75.6906 62.7182 73.9468 64.4577 73.2378C66.1391 72.554 68.3018 73.0544 69.5179 74.3837C69.9217 74.8213 70.5893 74.8744 71.0598 74.5121C72.282 73.5579 73.3934 72.463 74.3651 71.258C74.7424 70.7917 74.6888 70.1137 74.2433 69.7116C72.8212 68.4299 72.3601 66.3896 73.0987 64.6369C73.7928 62.9869 75.4721 61.879 77.2782 61.879L77.5309 61.8857C78.1173 61.9331 78.6561 61.4835 78.727 60.8878C78.9074 59.3585 78.9093 57.8026 78.7358 56.2617ZM58.4321 70.2492C51.9264 70.2492 46.6528 64.9982 46.6528 58.5205C46.6528 52.0429 51.9266 46.7919 58.4321 46.7919C64.9377 46.7919 70.2115 52.0429 70.2115 58.5205C70.2115 60.7192 69.6027 62.7757 68.5454 64.5344L63.3875 59.3984C63.7609 58.5218 63.9581 57.5714 63.9579 56.5906C63.9579 54.6699 63.2067 52.8643 61.8426 51.5064C60.4788 50.1485 58.6654 49.4006 56.7368 49.4006C56.0932 49.4006 55.4526 49.4858 54.8328 49.6538C54.5613 49.7275 54.3394 49.9503 54.2671 50.2211C54.1932 50.4981 54.2765 50.7819 54.4938 50.9985C54.4938 50.9985 57.0403 53.5536 57.8922 54.4017C57.9815 54.4906 57.9813 54.7026 57.9688 54.779L57.9608 54.8348C57.8749 55.7674 57.7093 56.8869 57.5727 57.3171C57.5543 57.3352 57.537 57.3506 57.5183 57.3692C57.4987 57.3887 57.4807 57.4076 57.4617 57.4269C57.024 57.5668 55.8824 57.7336 54.9309 57.8184L54.9311 57.8133L54.8883 57.8241C54.8807 57.825 54.8666 57.826 54.8478 57.826C54.745 57.826 54.5937 57.7973 54.4562 57.6606C53.5694 56.7776 51.1228 54.359 51.1228 54.359C50.9033 54.1411 50.6782 54.0954 50.5281 54.0954C50.1784 54.0954 49.8653 54.347 49.7666 54.7079C49.0932 57.1895 49.8071 59.8589 51.6304 61.6746C52.9945 63.0327 54.8081 63.7805 56.737 63.7805C57.7221 63.7805 58.6765 63.5843 59.5568 63.2125L64.7707 68.404C62.9402 69.5703 60.7665 70.2492 58.4321 70.2492Z" fill="url(#paint1_linear)"/>
<defs>
<linearGradient id="paint0_linear" x1="40.2602" y1="102.972" x2="95.965" y2="81.5724" gradientUnits="userSpaceOnUse">
<stop stop-color="#283581"/>
<stop offset="1" stop-color="#131730"/>
</linearGradient>
<linearGradient id="paint1_linear" x1="58.4322" y1="17.8313" x2="17.7436" y2="58.6948" gradientUnits="userSpaceOnUse">
<stop stop-color="#4C55FF"/>
<stop offset="1" stop-color="#4996FF"/>
</linearGradient>
</defs>
</svg>
