<svg width="354" height="205" viewBox="0 0 354 205" fill="none" xmlns="http://www.w3.org/2000/svg">
<path d="M232.987 89.8054L195.792 204.1H75.4167L38.2219 89.8054L135.605 19.1666L232.987 89.8054Z" fill="#E3E5FF"/>
<path d="M137.063 124.803H136.47V124.211H136.354V124.803H135.761V124.918H136.354V125.511H136.47V124.918H137.063V124.803Z" fill="#F2F2F2"/>
<path d="M130.228 160.55H129.634V159.957H129.519V160.55H128.926V160.665H129.519V161.257H129.634V160.665H130.228V160.55Z" fill="#F2F2F2"/>
<path d="M169.288 171.273H168.694V170.682H168.579V171.273H167.986V171.389H168.579V171.981H168.694V171.389H169.288V171.273Z" fill="#F2F2F2"/>
<path d="M162.452 144.359C163.171 144.359 163.754 143.777 163.754 143.059C163.754 142.341 163.171 141.759 162.452 141.759C161.733 141.759 161.15 142.341 161.15 143.059C161.15 143.777 161.733 144.359 162.452 144.359Z" fill="#FF6584"/>
<path d="M60.6187 88.7361C61.877 88.7361 62.8972 87.7176 62.8972 86.4613C62.8972 85.205 61.877 84.1865 60.6187 84.1865C59.3603 84.1865 58.3402 85.205 58.3402 86.4613C58.3402 87.7176 59.3603 88.7361 60.6187 88.7361Z" fill="#F2F2F2"/>
<path d="M60.9153 158.576L60.5772 158.5C67.4491 128.172 91.9548 104.97 122.654 99.7268C153.353 94.4835 184.19 108.233 200.769 134.555C205.379 141.854 208.714 149.882 210.632 158.295L210.294 158.372C202.315 123.396 171.612 98.968 135.628 98.968C100.116 98.968 68.6945 124.037 60.9153 158.576Z" fill="#F2F2F2"/>
<path d="M210.983 86.0587C211.202 133.483 177.782 172.082 177.782 172.082C177.782 172.082 144.008 133.792 143.789 86.3679C143.57 38.9438 176.989 0.344482 176.989 0.344482C176.989 0.344482 210.764 38.6347 210.983 86.0587Z" fill="#C7CAF4"/>
<path d="M121.649 138.472C121.77 164.841 103.188 186.303 103.188 186.303C103.188 186.303 84.4086 165.013 84.2869 138.644C84.1651 112.275 102.747 90.8123 102.747 90.8123C102.747 90.8123 121.527 112.103 121.649 138.472Z" fill="#C7CAF4"/>
<path opacity="0.1" d="M121.649 138.472C121.77 164.841 103.188 186.303 103.188 186.303C103.188 186.303 84.4086 165.013 84.2869 138.644C84.1651 112.275 102.747 90.8123 102.747 90.8123C102.747 90.8123 121.527 112.103 121.649 138.472Z" fill="black"/>
<path d="M96.7897 138.472C96.9115 164.841 78.3292 186.303 78.3292 186.303C78.3292 186.303 59.5496 165.013 59.4278 138.644C59.3061 112.275 77.8884 90.8123 77.8884 90.8123C77.8884 90.8123 96.668 112.103 96.7897 138.472Z" fill="#C7CAF4"/>
<rect x="175.805" y="68.775" width="3.43909" height="135.623" fill="#B2B5DB"/>
<rect x="102.089" y="128.862" width="1.91223" height="75.4102" fill="#B2B5DB"/>
<rect x="77.2298" y="128.862" width="1.91223" height="75.4102" fill="#B2B5DB"/>
<path d="M104.839 48.4352H104.246V47.8429H104.13V48.4352H103.537V48.5508H104.13V49.1427H104.246V48.5508H104.839V48.4352Z" fill="#F2F2F2"/>
<path d="M98.0031 84.1817H97.4102V83.5897H97.2944V84.1817H96.7011V84.2973H97.2944V84.8896H97.4102V84.2973H98.0031V84.1817Z" fill="#F2F2F2"/>
<path d="M137.063 94.9059H136.47V94.3136H136.354V94.9059H135.761V95.0211H136.354V95.6134H136.47V95.0211H137.063V94.9059Z" fill="#F2F2F2"/>
<path d="M130.228 67.9911C130.947 67.9911 131.53 67.4091 131.53 66.6912C131.53 65.9733 130.947 65.3914 130.228 65.3914C129.509 65.3914 128.926 65.9733 128.926 66.6912C128.926 67.4091 129.509 67.9911 130.228 67.9911Z" fill="#FF6584"/>
<path d="M198.366 63.9136C191.003 52.9856 192.739 38.3263 202.452 29.4141C212.165 20.5018 226.942 20.0094 237.229 28.2553C247.515 36.5012 250.226 51.0123 243.609 62.4061C236.992 73.7998 223.03 78.6592 210.752 73.8422C209.692 77.6214 206.208 80.2084 202.278 80.136C198.347 80.0635 194.962 77.3498 194.042 73.5341C193.122 69.7184 194.899 65.7638 198.366 63.9136Z" fill="#E3E5FF"/>
<path d="M27.7433 204.1C35.4733 204.1 41.7397 197.844 41.7397 190.127C41.7397 182.409 35.4733 176.153 27.7433 176.153C20.0133 176.153 13.7469 182.409 13.7469 190.127C13.7469 197.844 20.0133 204.1 27.7433 204.1Z" fill="#C7CAF4"/>
<path d="M27.7433 181.677C33.3161 181.677 37.8338 177.167 37.8338 171.603C37.8338 166.039 33.3161 161.529 27.7433 161.529C22.1705 161.529 17.6529 166.039 17.6529 171.603C17.6529 177.167 22.1705 181.677 27.7433 181.677Z" fill="#C7CAF4"/>
<path d="M27.7433 163.154C31.6982 163.154 34.9043 159.953 34.9043 156.005C34.9043 152.056 31.6982 148.855 27.7433 148.855C23.7884 148.855 20.5823 152.056 20.5823 156.005C20.5823 159.953 23.7884 163.154 27.7433 163.154Z" fill="#C7CAF4"/>
<path d="M0 204.774C18.2604 202.396 35.8173 200.375 52.6708 198.71L46.1879 187.858C48.4408 187.232 58.1981 193.513 58.1981 193.513L49.9578 162.131C61.2198 163.393 66.4564 195.401 66.4564 195.401L79.2274 184.74L72.9366 196.815C124.509 192.317 169.01 190.931 206.416 191.278L200.868 181.99C203.121 181.364 212.878 187.645 212.878 187.645L204.638 156.263C215.9 157.524 221.136 189.533 221.136 189.533L233.907 178.872L227.244 191.661C258.595 192.533 284.139 194.605 303.845 196.864C298.312 182.429 278.965 168.545 278.965 168.545C293.845 172.424 301.583 178.733 305.587 184.579C306.18 166.839 304.592 133.918 289.52 97.3239C289.52 97.3239 319.52 153.822 314.992 191.472L314.416 198.161C340.543 201.583 353.653 204.988 353.653 204.988L0 204.774Z" fill="#C7CAF4"/>
<path d="M211 48.887L217.467 55.3538L229.821 43" stroke="url(#paint0_linear)" stroke-width="3" stroke-linecap="round" stroke-linejoin="round"/>
<path fill-rule="evenodd" clip-rule="evenodd" d="M276.083 107.728C275.723 106.683 274.585 106.128 273.541 106.488L272.595 106.813L272.27 105.868C271.91 104.823 270.772 104.268 269.728 104.628C268.683 104.987 268.128 106.126 268.488 107.17L268.813 108.116L267.868 108.441C266.823 108.801 266.268 109.939 266.628 110.983C266.987 112.028 268.126 112.583 269.17 112.223L270.116 111.898L270.441 112.843C270.801 113.888 271.939 114.443 272.983 114.083C274.028 113.723 274.583 112.585 274.223 111.541L273.898 110.595L274.843 110.27C275.888 109.91 276.443 108.772 276.083 107.728Z" fill="#FF7D7D"/>
<path fill-rule="evenodd" clip-rule="evenodd" d="M255 152C256.657 152 258 150.657 258 149C258 147.343 256.657 146 255 146C253.343 146 252 147.343 252 149C252 150.657 253.343 152 255 152Z" stroke="#F5C623"/>
<path fill-rule="evenodd" clip-rule="evenodd" d="M44 44C45.1046 44 46 43.1046 46 42C46 40.8954 45.1046 40 44 40C42.8954 40 42 40.8954 42 42C42 43.1046 42.8954 44 44 44Z" fill="#9559FF"/>
<defs>
<linearGradient id="paint0_linear" x1="205.58" y1="42.3805" x2="205.109" y2="52.1234" gradientUnits="userSpaceOnUse">
<stop stop-color="#4C55FF"/>
<stop offset="1" stop-color="#1B7CFF"/>
</linearGradient>
</defs>
</svg>
