<svg width="116" height="116" viewBox="0 0 116 116" fill="none" xmlns="http://www.w3.org/2000/svg">
<path fill-rule="evenodd" clip-rule="evenodd" d="M58 116C90.0325 116 116 90.0325 116 58C116 25.9675 90.0325 0 58 0C25.9675 0 0 25.9675 0 58C0 90.0325 25.9675 116 58 116Z" fill="url(#paint0_linear)"/>
<path fill-rule="evenodd" clip-rule="evenodd" d="M58.4994 38C47.1781 38 38.0001 47.1787 38.0001 58.4996C38.0001 69.8205 47.1781 79 58.4994 79C69.8208 79 78.9998 69.8211 78.9998 58.4996C78.9998 47.1781 69.8208 38 58.4994 38ZM66.536 50.8714L61.3294 65.5594C61.2854 65.6835 61.1766 65.7727 61.0469 65.7916C60.9147 65.8096 60.7867 65.7562 60.7095 65.6505L58.0655 62.0379L53.6948 66.4084C53.6256 66.4775 53.5349 66.5122 53.4441 66.5122C53.3534 66.5122 53.2626 66.4775 53.1935 66.4084L50.5468 63.7617C50.4082 63.6231 50.4082 63.3991 50.5468 63.2605L54.9173 58.8894L51.3043 56.2458C51.1984 56.1682 51.1438 56.0385 51.1629 55.9084C51.182 55.7783 51.2714 55.6695 51.3951 55.6259L66.0831 50.4193C66.2121 50.3735 66.3556 50.4058 66.4521 50.5025C66.5491 50.5988 66.5818 50.7424 66.536 50.8714Z" fill="url(#paint1_linear)"/>
<defs>
<linearGradient id="paint0_linear" x1="40.2602" y1="102.972" x2="95.965" y2="81.5724" gradientUnits="userSpaceOnUse">
<stop stop-color="#283581"/>
<stop offset="1" stop-color="#131730"/>
</linearGradient>
<linearGradient id="paint1_linear" x1="58.5" y1="17.5" x2="17.5" y2="58.4997" gradientUnits="userSpaceOnUse">
<stop stop-color="#4C55FF"/>
<stop offset="1" stop-color="#4996FF"/>
</linearGradient>
</defs>
</svg>
