<svg width="116" height="116" viewBox="0 0 116 116" fill="none" xmlns="http://www.w3.org/2000/svg">
<path fill-rule="evenodd" clip-rule="evenodd" d="M58 116C90.0325 116 116 90.0325 116 58C116 25.9675 90.0325 0 58 0C25.9675 0 0 25.9675 0 58C0 90.0325 25.9675 116 58 116Z" fill="url(#paint0_linear)"/>
<path fill-rule="evenodd" clip-rule="evenodd" d="M78.8048 55.935C78.4261 52.5005 77.1596 49.3627 75.1115 46.5672C71.8118 42.0657 67.3989 39.3135 61.8882 38.3554C60.7894 38.1646 59.6658 38.1149 58.5536 38C58.4797 38 58.4063 38 58.3329 38C57.2938 38.1135 56.2503 38.1887 55.2185 38.3469C44.6227 39.9695 36.9619 49.9817 38.1731 60.6336C38.7511 65.7178 40.8852 70.0536 44.6737 73.5115C49.1782 77.6233 54.5291 79.3863 60.5954 78.8111C65.2511 78.3683 69.3137 76.4945 72.6622 73.225C77.5249 68.4729 79.5472 62.6642 78.8048 55.935ZM74.4875 66.4036C73.9695 65.5022 73.3156 64.2454 73.0234 63.1727C72.5989 61.6153 71.5798 63.1201 71.4947 64.1372C71.4096 65.1543 70.7305 65.917 69.3714 64.3913C68.0123 62.8658 67.7576 63.2045 67.3331 63.2045C66.9086 63.2045 66.1443 64.2214 66.314 68.9681C66.435 72.3569 67.7746 72.8947 68.6499 73.1405C67.0246 74.2549 65.1571 75.1329 63.061 75.6642C55.0499 77.6933 46.8724 74.0086 43.0518 66.6882C39.4922 59.8673 41.2265 52.1489 44.8449 47.9007C44.9422 48.6648 45.0375 49.3511 45.1168 50.0401C45.3325 51.9213 45.1698 53.7778 44.7852 55.6269C44.703 56.0209 44.7317 56.4698 44.8382 56.8574C44.8961 57.069 45.2158 57.319 45.4367 57.3399C45.6107 57.3568 45.9142 57.0816 45.9846 56.875C46.112 56.5056 46.1172 56.0914 46.1564 55.6944C46.1845 55.4142 46.185 55.1304 46.2044 54.691C46.4917 54.9234 46.7013 55.0644 46.8754 55.2392C47.3193 55.6852 47.7682 56.1291 48.1732 56.6086C48.3521 56.8214 48.5365 57.1194 48.5315 57.3756C48.5203 57.9238 48.7614 58.2966 49.0558 58.7271C49.3829 59.2058 49.5303 59.8077 49.7407 60.362C49.8288 60.5944 49.8472 60.8566 49.9522 61.0801C50.1764 61.5587 50.5153 61.8865 51.0978 61.9222C51.7106 61.961 51.94 62.1983 52.0281 62.824C51.8713 62.8419 51.7153 62.8628 51.5588 62.8772C50.8114 62.9482 50.4409 63.2909 50.4705 64.0432C50.5289 65.5375 51.0691 66.843 52.1805 67.8809C52.4868 68.1675 52.8122 68.4337 53.1098 68.7271C53.7895 69.3971 54.0267 70.1842 53.7 71.1093C53.5435 71.5504 53.3289 71.9834 53.2596 72.4393C53.1889 72.9026 53.1884 73.4062 53.2959 73.8595C53.4074 74.3313 53.3596 75.3632 53.8478 75.2778C54.7114 75.1263 55.2078 75.2962 55.275 74.3313C55.2877 74.1475 55.2735 74.1247 55.2245 73.9549C54.9677 73.0491 56.1336 70.4777 56.8332 70.0089C57.4309 69.6076 58.0302 69.1994 58.5719 68.7282C59.3528 68.0508 59.7025 67.1758 59.3743 66.1568C59.0655 65.1979 59.4268 64.4937 60.0986 63.8764C60.7839 63.2472 61.2332 62.5221 61.1864 61.5537C61.1396 60.5854 60.5046 59.8861 59.6771 59.9855C59.2725 60.0331 58.8847 60.2268 58.4902 60.3594C57.912 60.5545 57.3477 60.8277 56.7543 60.934C55.9225 61.081 55.4099 60.5387 55.0389 59.8801C54.7404 59.3507 54.642 59.3101 54.1238 59.6399C53.6866 59.919 53.2502 60.2 52.7974 60.4523C52.3269 60.7145 52.0706 60.6172 51.7079 60.2249C51.4934 59.9934 51.1964 59.8306 50.9206 59.6637C50.7224 59.5426 50.4543 59.5092 50.2954 59.3573C50.0824 59.1517 49.7853 58.8468 49.8154 58.6239C49.8505 58.3622 50.1543 58.0346 50.4192 57.9274C50.8758 57.7427 51.3945 57.7129 51.8842 57.6067C52.1449 57.55 52.4094 57.4911 52.6559 57.3941C52.9934 57.2598 52.9791 57.0385 52.7209 56.8309C52.5935 56.7288 52.436 56.6571 52.2824 56.5955C51.536 56.2956 50.7853 56.0087 50.0394 55.7076C49.854 55.6334 49.6714 55.542 49.5049 55.4335C49.0359 55.1259 48.9794 54.7872 49.4049 54.4125C51.0849 52.9337 53.0473 52.5006 54.7859 54.4654C55.3246 55.074 55.6899 55.8328 56.1984 56.4714C56.5985 56.975 57.0591 57.4478 57.5676 57.8364C57.7772 57.996 58.2484 58.0231 58.4827 57.8949C58.8318 57.7042 58.844 57.2695 58.6684 56.907C58.5166 56.5921 58.3382 56.2817 58.1238 56.0061C57.136 54.7361 57.2039 52.261 59.1387 51.2284C59.7858 50.8825 60.4386 50.5182 60.7477 49.5903C60.377 49.6904 60.1082 49.7549 59.8449 49.8354C58.3757 50.2895 59.3986 49.1958 60.0744 49.0051C60.4849 48.8886 59.7072 48.5747 59.7072 48.5747C59.7256 48.5427 60.2237 48.4009 60.7776 48.1652C61.1587 48.0036 61.5483 47.8216 61.8649 47.5643C62.0699 47.3965 62.149 47.0757 62.2839 46.8234C62.2496 46.7837 62.2162 46.7449 62.1814 46.7052C61.7932 46.7574 61.4055 46.8147 61.0164 46.8584C60.357 46.9321 60.2023 46.8031 60.1412 46.1393C60.0988 45.6862 59.636 45.4391 59.2039 45.6715C58.9115 45.8297 58.6587 46.0591 58.3773 46.2406C57.7277 46.6605 57.2421 46.4926 56.9872 45.7686C56.8354 45.3376 56.624 45.2561 56.2266 45.4975C56.0268 45.6186 55.8601 45.7956 55.6569 45.9089C55.3236 46.0946 54.9849 46.2811 54.6271 46.4073C54.2785 46.5304 53.8588 46.6198 53.6216 46.2384C53.3668 45.8282 53.5895 45.4289 53.9108 45.1717C54.3101 44.8519 54.7704 44.6036 55.2197 44.3523C55.8598 43.9928 56.5375 43.6938 57.1555 43.3018C57.6091 43.0129 57.8074 42.5422 57.6606 41.9867C57.5367 41.5179 57.2224 41.3593 56.7873 41.5743C56.4279 41.7523 56.114 42.0309 55.7445 42.1744C55.4745 42.2777 55.1381 42.2788 54.8482 42.2279C54.7412 42.209 54.6275 41.9131 54.6245 41.7413C54.6225 41.6422 54.8238 41.4701 54.9522 41.4492C55.8449 41.3104 56.7416 41.193 57.6396 41.0909C57.7583 41.0779 57.9367 41.1512 58.0111 41.2458C58.6042 41.993 59.4318 42.3555 60.3024 42.6142C61.0338 42.8309 61.1398 42.7277 61.2404 41.9619C62.1799 41.7412 63.1349 41.3063 64.0803 41.9013C64.6048 42.2307 65.083 42.6505 65.5269 43.0852C65.6369 43.1934 65.5698 43.5281 65.517 43.7437C65.4474 44.0334 65.2866 44.3011 65.2125 44.5908C65.0692 45.1522 65.4329 45.591 66.0141 45.5818C66.1977 45.5779 66.3808 45.5403 66.5655 45.5311C67.1024 45.5061 67.293 45.7112 67.2438 46.2523C67.1741 47.019 67.302 47.1112 68.0772 46.9803C68.3001 46.9428 68.5575 47.0438 68.7849 47.1233C68.9201 47.171 69.0251 47.3004 69.1456 47.3912C69.8666 47.9365 70.418 47.7321 70.629 46.84C70.6518 46.7428 70.6489 46.6391 70.6688 46.5409C70.7524 46.1407 70.9789 46.0377 71.2495 46.3222C71.8228 46.928 72.3607 47.5676 72.9424 48.2282C72.3173 48.8002 72.2965 49.4955 72.4349 50.1767C72.5886 50.9347 72.3886 51.5931 72.089 52.2608C71.8019 52.9004 71.4865 53.5361 71.2948 54.2052C71.0082 55.2097 71.3336 55.6685 72.3557 55.8908C73.3311 56.1033 73.4908 56.2989 73.5276 57.2505C73.5769 58.5484 74.2448 59.4442 75.3858 60.0158C75.6391 60.1419 75.9082 60.2378 76.167 60.3451C76.0391 62.3458 75.4668 64.4281 74.4875 66.4036Z" fill="url(#paint1_linear)"/>
<defs>
<linearGradient id="paint0_linear" x1="40.2602" y1="102.972" x2="95.965" y2="81.5724" gradientUnits="userSpaceOnUse">
<stop stop-color="#283581"/>
<stop offset="1" stop-color="#131730"/>
</linearGradient>
<linearGradient id="paint1_linear" x1="58.5006" y1="17.5414" x2="17.5834" y2="58.4484" gradientUnits="userSpaceOnUse">
<stop stop-color="#4C55FF"/>
<stop offset="1" stop-color="#4996FF"/>
</linearGradient>
</defs>
</svg>
