<svg width="126" height="125" viewBox="0 0 126 125" fill="none" xmlns="http://www.w3.org/2000/svg">
<path fill-rule="evenodd" clip-rule="evenodd" d="M125.143 55.5613C124.945 53.8044 122.886 52.4827 121.107 52.4827C115.355 52.4827 110.251 49.1214 108.11 43.9188C105.925 38.5914 107.335 32.3796 111.62 28.4653C112.97 27.2365 113.134 25.1791 112.003 23.7509C109.058 20.0284 105.713 16.6655 102.059 13.7512C100.629 12.6095 98.5288 12.7684 97.2882 14.1356C93.547 18.2613 86.8263 19.7943 81.6328 17.6369C76.2303 15.3735 72.8203 9.92064 73.1553 4.06777C73.2655 2.22818 71.9147 0.629682 70.0737 0.416152C65.3846 -0.124428 60.6542 -0.140105 55.9515 0.379393C54.1339 0.579408 52.7842 2.14006 52.8444 3.95642C53.048 9.75198 49.5995 15.1086 44.2491 17.2909C39.118 19.3781 32.444 17.8564 28.7104 13.7669C27.4764 12.4197 25.4128 12.2543 23.9735 13.3717C20.2123 16.3108 16.7914 19.676 13.8195 23.3681C12.6614 24.8034 12.8325 26.8835 14.1935 28.1166C18.5634 32.0569 19.9723 38.3222 17.7035 43.7118C15.5372 48.85 10.1793 52.16 4.046 52.16C2.05569 52.0962 0.639234 53.4277 0.419355 55.23C-0.132243 59.9238 -0.138215 64.709 0.392752 69.4413C0.590915 71.2057 2.7099 72.5161 4.5091 72.5161C9.97621 72.3777 15.2218 75.7455 17.4255 81.0794C19.6183 86.4069 18.2067 92.616 13.9145 96.5357C12.5719 97.7645 12.4003 99.8171 13.5339 101.244C16.4488 104.943 19.7975 108.308 23.4621 111.247C24.9008 112.401 26.9932 112.239 28.2403 110.87C31.9961 106.735 38.7157 105.204 43.888 107.366C49.3063 109.624 52.7147 115.076 52.3819 120.931C52.2728 122.77 53.6268 124.373 55.4613 124.582C57.8609 124.862 60.2731 125 62.6928 125C64.9894 125 67.2864 124.875 69.5835 124.621C71.4033 124.421 72.7508 122.858 72.6895 121.041C72.4794 115.248 75.9355 109.891 81.2794 107.713C86.4447 105.613 93.0888 107.15 96.8246 111.234C98.0651 112.578 100.116 112.741 101.561 111.628C105.316 108.697 108.731 105.333 111.716 101.631C112.875 100.199 112.71 98.1158 111.341 96.8806C106.973 92.943 105.556 86.675 107.825 81.2908C109.958 76.2218 115.116 72.8183 120.665 72.8183L121.441 72.8388C123.243 72.9842 124.898 71.6031 125.116 69.7732C125.67 65.075 125.676 60.2952 125.143 55.5613ZM62.768 98.532C42.7818 98.532 26.5808 82.4005 26.5808 62.5006C26.5808 42.6008 42.7824 26.4693 62.768 26.4693C82.7536 26.4693 98.9552 42.6008 98.9552 62.5006C98.9552 69.2552 97.0848 75.573 93.8366 80.9755L77.9912 65.1976C79.1384 62.5044 79.7443 59.5848 79.7437 56.5716C79.7437 50.6711 77.4358 45.1242 73.2451 40.9526C69.0554 36.7809 63.4846 34.4834 57.5598 34.4834C55.5826 34.4834 53.6145 34.7451 51.7105 35.2613C50.8766 35.4878 50.1947 36.1722 49.9727 37.0042C49.7457 37.855 50.0014 38.727 50.6692 39.3924C50.6692 39.3924 58.492 47.2417 61.1094 49.8473C61.3836 50.1203 61.383 50.7717 61.3445 51.0063L61.32 51.1776C61.0562 54.0427 60.5475 57.4819 60.1278 58.8036C60.0713 58.8593 60.0181 58.9063 59.9606 58.9636C59.9003 59.0236 59.845 59.0815 59.7869 59.1409C58.4421 59.5707 54.9349 60.0832 52.0118 60.3437L52.0124 60.3281L51.881 60.361C51.8577 60.3637 51.8142 60.367 51.7567 60.367C51.4407 60.367 50.976 60.2789 50.5536 59.8588C47.8293 57.1462 40.3132 49.7159 40.3132 49.7159C39.6389 49.0467 38.9472 48.9061 38.4863 48.9061C37.4119 48.9061 36.4498 49.6792 36.1469 50.7879C34.0779 58.4117 36.2712 66.6123 41.8724 72.19C46.0632 76.3622 51.6345 78.6597 57.5604 78.6597C60.5866 78.6597 63.5188 78.0569 66.2231 76.9147L82.2406 92.8634C76.6171 96.4464 69.9393 98.532 62.768 98.532Z" fill="white"/>
</svg>
