<svg width="983" height="783" viewBox="0 0 983 783" fill="none" xmlns="http://www.w3.org/2000/svg">
<path fill-rule="evenodd" clip-rule="evenodd" d="M921.201 389.859C810.702 315.263 726.307 113.147 613.165 90.2951C500.024 67.4434 394.739 47.3012 337.537 109.479C280.335 171.657 209.811 220.301 154.591 210.534C99.372 200.767 18.2743 181.999 1.78641 243.265C-14.7014 304.531 87.8074 381.71 109.476 447.523C131.145 513.336 49.5847 512.734 84.1728 565.575C118.761 618.415 239.099 672.624 495.503 702.996C751.908 733.368 809.903 748.891 892.745 666.65C975.587 584.409 1031.7 464.454 921.201 389.859Z" fill="#E3E5FF"/>
<path fill-rule="evenodd" clip-rule="evenodd" d="M679.52 622.37C679.52 622.37 547.595 516.685 532.02 390.812C516.446 264.939 591.57 111.325 686.178 138.434C780.787 165.542 862.58 282.123 862.58 378.83C862.58 475.536 847.902 622.37 847.902 622.37H679.52Z" fill="url(#paint0_linear)"/>
<path fill-rule="evenodd" clip-rule="evenodd" d="M921.201 359.859C810.702 285.263 726.307 83.1468 613.165 60.2951C500.024 37.4434 394.739 17.3012 337.537 79.4792C280.335 141.657 209.811 190.301 154.591 180.534C99.372 170.767 18.2743 151.999 1.78641 213.265C-14.7014 274.531 87.8074 351.71 109.476 417.523C131.145 483.336 49.5847 482.734 84.1728 535.575C118.761 588.415 239.099 642.624 495.503 672.996C751.908 703.368 809.903 718.891 892.745 636.65C975.587 554.409 1031.7 434.454 921.201 359.859Z" fill="#E3E5FF"/>
<path fill-rule="evenodd" clip-rule="evenodd" d="M605.005 555.923C545.256 487.261 520.293 332.741 520.293 332.741C520.293 332.741 372.521 273.645 372.521 383.386C372.521 493.128 388.734 572.516 434.49 596.053C480.247 619.591 664.753 624.584 605.005 555.923Z" fill="url(#paint1_linear)"/>
<path fill-rule="evenodd" clip-rule="evenodd" d="M282.514 625.213C282.514 625.213 273.402 606.16 254.132 596.428C234.861 586.696 205.229 577.758 209.323 552.425C213.417 527.092 247.839 516.403 254.132 537.254C260.425 558.105 270.36 570.172 276.437 570.172C282.514 570.172 282.638 529.383 268.385 513.176C254.132 496.969 214.489 496.315 205.053 468.222C195.617 440.13 196.346 390.857 213.438 401.635C230.529 412.413 249.526 443.03 262.982 458.142C276.437 473.255 289.893 472.978 276.437 443.012C262.982 413.045 192.654 344.952 223.393 317.695C254.132 290.439 277.512 310.727 282.514 344.005C287.517 377.284 285.177 402.86 297.728 411.137C310.278 419.415 312.099 344.005 331.141 344.005C350.184 344.005 390.822 373.026 373.16 401.635C355.498 430.244 327.861 419.834 327.861 450.66C327.861 481.486 358.431 434.798 367.746 458.142C377.062 481.486 387.349 490.973 367.746 505.088C348.144 519.203 310.736 490.116 310.736 525.834C310.736 561.552 373.16 512.956 373.16 537.254C373.16 561.552 396.841 569.811 362.351 585.583C327.861 601.355 304.481 598.064 304.481 607.761C304.481 617.458 339.462 608.245 339.462 616.729C339.462 625.213 282.514 625.213 282.514 625.213Z" fill="#D7DAFF"/>
<path fill-rule="evenodd" clip-rule="evenodd" d="M88.4945 623.373H845.743C845.743 623.373 823.748 612.809 823.748 599.183C823.748 585.557 830.561 579.41 836.177 582.93C841.794 586.451 851.109 614.607 851.109 614.607C851.109 614.607 835.567 566.83 852.369 560.932C869.171 555.035 870.422 578.56 866.985 594.262C863.547 609.965 862.831 616.292 862.831 616.292C862.831 616.292 871.651 568.115 885.456 577.531C899.261 586.946 894.126 610.9 885.456 614.607C876.785 618.314 874.366 620.616 874.366 620.616C874.366 620.616 889.597 614.217 889.597 618.314C889.597 622.411 869.171 626.029 869.171 626.029C869.171 626.029 211.027 626.029 164.773 626.029C118.518 626.029 88.4945 623.373 88.4945 623.373Z" fill="#C7CAF4"/>
<path fill-rule="evenodd" clip-rule="evenodd" d="M298.061 95.5201L298.718 89.2767L301.701 89.5903L341.749 101.977L342.011 268.338C342.011 268.338 334.648 309.982 330.212 311.359C325.776 312.736 308.12 317.159 300.025 316.309C291.931 315.458 278.114 314.006 278.114 314.006C278.114 314.006 269.837 279.972 267.839 236.284C265.84 192.596 272.747 149.097 272.938 147.275C273.13 145.453 298.061 95.5201 298.061 95.5201Z" fill="url(#paint2_linear)"/>
<path fill-rule="evenodd" clip-rule="evenodd" d="M297.514 98.7816C297.514 98.7816 292.26 128.267 289.305 138.605C286.351 148.943 279.636 186.39 279.262 203.172C278.888 219.954 278.448 280.183 278.448 280.183C278.448 280.183 269.139 219.546 268.644 189.302C268.149 159.058 297.514 98.7816 297.514 98.7816Z" fill="#8F97FF"/>
<path fill-rule="evenodd" clip-rule="evenodd" d="M299.663 72.4064C299.663 72.4064 300.18 82.6607 299.926 85.0799C299.672 87.499 298.753 96.2399 298.753 96.2399C298.753 96.2399 308.057 108.655 320.486 109.09C332.914 109.525 338.936 102.813 338.936 102.813L341.744 86.6934L299.663 72.4064Z" fill="url(#paint3_linear)"/>
<path fill-rule="evenodd" clip-rule="evenodd" d="M293.82 68.4196C293.82 68.4196 293.388 74.1132 294.683 77.4968C295.978 80.8803 300.732 84.6327 300.732 84.6327L299.851 71.9331L293.82 68.4196Z" fill="url(#paint4_linear)"/>
<path fill-rule="evenodd" clip-rule="evenodd" d="M292.244 50.2116C290.042 50.9525 289.087 53.3447 288.924 54.8923C288.761 56.44 291.519 60.7154 292.165 63.7419C292.811 66.7684 294.652 71.0159 296.433 71.203C298.213 71.3901 300.16 73.1271 300.16 73.1271C300.16 73.1271 306.123 89.4089 316.293 93.2797C326.462 97.1505 337.554 94.2811 339.945 91.3248C342.335 88.3684 346.264 75.64 346.361 74.7214C346.458 73.8028 349.25 74.5471 349.5 72.1707C349.75 69.7943 349.559 69.2724 351.02 67.6795C352.481 66.0865 353.01 61.628 353.01 61.628C353.01 61.628 355.467 40.1966 352.03 35.3056C348.594 30.4146 344.617 21.0349 338.08 18.3239C331.543 15.6128 320.244 14.241 314.931 15.8907C309.618 17.5405 305.761 21.2612 304.099 25.6771C302.436 30.0931 294.447 49.4706 292.244 50.2116Z" fill="url(#paint5_linear)"/>
<path fill-rule="evenodd" clip-rule="evenodd" d="M330.724 10.2932C330.724 10.2932 321.789 6.90194 318.593 7.38335C315.396 7.86477 310.057 13.0531 303.39 15.8302C296.723 18.6073 293.925 19.3397 293.925 19.3397L298.937 19.8665C298.937 19.8665 295.18 26.543 292.641 31.5512C290.102 36.5593 291.742 40.1074 291.386 43.4916C291.03 46.8758 289.247 48.3993 289.247 48.3993L290.673 50.2742C290.673 50.2742 294.637 50.4356 295.586 51.7435C296.536 53.0515 296.626 45.9368 298.206 44.2084C299.785 42.4799 300.146 41.5744 303.089 40.2953C306.032 39.0163 307.834 35.6282 307.834 35.6282C307.834 35.6282 307.839 36.6884 306.802 33.0395C305.765 29.3906 304.636 28.1078 305.389 26.9537C306.142 25.7996 310.994 18.2484 315.841 18.7579C320.689 19.2674 319.842 22.0638 325.404 22.6484C330.967 23.233 336.593 21.9144 336.593 21.9144C336.593 21.9144 337.096 27.4337 340.338 31.3313C343.58 35.2289 349.228 37.4987 349.228 37.4987C349.228 37.4987 347.847 38.3383 348.234 40.8071C348.62 43.276 349.834 55.3048 351.187 57.5874C352.54 59.87 354.057 63.1575 354.057 63.1575C354.057 63.1575 353.457 57.7221 354.704 57.0041C355.95 56.286 355.052 53.6912 355.052 53.6912L357.891 51.9175C357.891 51.9175 356.412 48.6404 356.697 45.9298C356.982 43.2192 355.325 31.2729 354.318 27.7964C353.312 24.32 353.351 23.2033 350.979 20.832C348.607 18.4608 346.892 13.6273 343.459 11.6318C340.027 9.6362 330.724 10.2932 330.724 10.2932Z" fill="url(#paint6_linear)"/>
<path fill-rule="evenodd" clip-rule="evenodd" d="M304.409 592.984C304.409 592.984 293.938 602.681 291.755 604.554C289.572 606.426 285.264 608.184 283.303 609.416C281.342 610.648 266.027 613.266 262.21 614.61C258.392 615.954 251.426 618.987 251.299 622.644C251.171 626.301 250.353 631.999 255.88 634.795C261.407 637.591 288.577 637.275 295.345 636.173C302.113 635.072 313.298 632.727 315.599 632.808C317.9 632.888 320.804 635.321 329.324 634.453C337.844 633.584 349.429 632.091 349.429 632.091C349.429 632.091 348.929 619.577 348.317 615.621C347.704 611.665 346.961 606.225 346.302 603.546C345.643 600.866 345.341 594.413 345.341 594.413L304.409 592.984Z" fill="url(#paint7_linear)"/>
<path fill-rule="evenodd" clip-rule="evenodd" d="M354.995 596.789C354.995 596.789 354.53 610.122 354.401 613.799C354.273 617.477 350.619 629.061 350.501 632.459C350.382 635.857 351.84 640.635 351.84 640.635C351.84 640.635 356.951 648.982 372.534 648.31C388.118 647.639 392.286 642.181 392.376 639.61C392.466 637.038 388.89 625.521 388.086 618.788C387.283 612.054 386.574 605.191 385.727 601.876C384.881 598.561 382.445 591.757 382.445 591.757C382.445 591.757 367.884 591.248 361.124 591.012C354.364 590.776 354.995 596.789 354.995 596.789Z" fill="url(#paint8_linear)"/>
<mask id="mask0" mask-type="alpha" maskUnits="userSpaceOnUse" x="349" y="590" width="46" height="60">
<path fill-rule="evenodd" clip-rule="evenodd" d="M354.995 596.789C354.995 596.789 354.53 610.122 354.401 613.799C354.273 617.477 350.619 629.061 350.501 632.459C350.382 635.857 351.84 640.635 351.84 640.635C351.84 640.635 356.951 648.982 372.534 648.31C388.118 647.639 392.286 642.181 392.376 639.61C392.466 637.038 388.89 625.521 388.086 618.788C387.283 612.054 386.574 605.191 385.727 601.876C384.881 598.561 382.445 591.757 382.445 591.757C382.445 591.757 367.884 591.248 361.124 591.012C354.364 590.776 354.995 596.789 354.995 596.789Z" fill="white"/>
</mask>
<g mask="url(#mask0)">
<path fill-rule="evenodd" clip-rule="evenodd" d="M385.696 600.355C385.696 600.355 375.932 622.007 375.932 630.354C375.932 638.7 375.932 649.281 375.932 649.281L390.726 645.962L385.696 600.355Z" fill="url(#paint9_linear)"/>
</g>
<path fill-rule="evenodd" clip-rule="evenodd" d="M277.595 360.443C277.595 360.443 283.089 385.597 282.389 392.264C281.688 398.931 285.181 424.766 287.035 431.588C288.888 438.411 291.252 446.89 292.321 450.649C293.39 454.407 293.782 458.74 293.711 459.415C293.64 460.089 289.739 461.287 290.057 465.222C290.376 469.158 293.606 473.448 293.418 475.235C293.23 477.022 295.866 478.089 295.716 479.521C295.565 480.953 293.293 486.752 294.983 496.227C296.673 505.703 297.978 509.61 297.978 509.61C297.978 509.61 299.071 520.281 298.724 523.578C298.378 526.876 296.7 532.642 297.447 535.734C298.193 538.825 298.858 547.656 298.585 550.255C298.311 552.853 298.887 554.365 297.818 557.545C296.749 560.726 295.46 565.819 295.672 567.39C295.884 568.96 299.201 576.974 301.065 579.151C302.929 581.327 304.603 581.398 305.038 584.117C305.474 586.836 304.091 593.128 304.091 593.128C304.091 593.128 308.859 601.331 318.231 603.031C327.602 604.731 335.429 603.068 338.788 602.372C342.147 601.677 345.82 599.587 345.82 599.587C345.82 599.587 344.702 592.759 344.091 589.409C343.48 586.059 343.812 585.818 343.277 583.588C342.743 581.357 340.448 579.745 340.67 577.633C340.892 575.521 342.93 574.208 343.122 572.377C343.315 570.546 342.845 550.505 342.537 543.74C342.229 536.975 336.981 440.292 336.981 440.292L342.152 307.565L276.988 309.879L277.595 360.443Z" fill="url(#paint10_linear)"/>
<path fill-rule="evenodd" clip-rule="evenodd" d="M377.63 418.914C377.63 418.914 379.083 442.967 378.782 445.837C378.48 448.707 379.175 453.217 377.694 456.188C376.213 459.159 373.722 461.139 374.589 463.752C375.455 466.365 378.192 468.096 378.007 469.859C377.821 471.622 375.273 472.188 375.838 473.841C376.403 475.494 382.498 477.997 380.586 479.15C378.673 480.302 376.216 480.437 376.759 481.728C377.303 483.019 382.023 487.072 381.936 487.899C381.849 488.725 380.825 491.53 381.393 493.068C381.961 494.605 387.519 510.648 387.696 520.191C387.872 529.734 388.492 546.208 388.531 552.1C388.57 557.992 391.581 574.792 389.593 578.832C387.604 582.871 386.96 583.598 387.452 585.722C387.944 587.845 386.95 590.495 386.837 591.576C386.723 592.657 384.532 596.425 384.532 596.425C384.532 596.425 376.586 595.596 373.703 594.633C370.819 593.67 366.934 591.365 364.015 591.745C361.096 592.126 358.83 592.534 357.393 593.572C355.957 594.61 353.87 596.465 353.87 596.465C353.87 596.465 352.667 593.045 351.115 589.767C349.564 586.49 348.263 586.285 350.098 584.137C351.933 581.989 352.928 581.043 353.183 578.621C353.437 576.199 352.53 576.311 352.764 574.08C352.999 571.849 344.583 544.613 343.145 538.962C341.706 533.312 337.383 515.326 337.693 506.902C338.004 498.478 337.02 497.666 334.62 492.783C332.219 487.899 330.199 489.005 331.438 486.278C332.676 483.55 332.318 480.227 331.427 478.548C330.536 476.87 330.748 474.899 330.931 473.157C331.114 471.415 330.334 467.981 330.334 467.981C330.334 467.981 327.862 461.276 326.241 452.496C324.621 443.716 323.887 434.098 323.922 420.614C323.957 407.129 326.471 392.986 325.466 386.414C324.461 379.842 322.446 362.084 321.606 359.208C320.766 356.333 315.056 353.584 315.056 353.584L310.172 340.987C310.172 340.987 306.891 327.049 306.754 321.814C306.617 316.579 307.449 310.147 307.449 310.147L325.419 303.313L346.216 304.407L377.63 418.914Z" fill="url(#paint11_linear)"/>
<path fill-rule="evenodd" clip-rule="evenodd" d="M248.698 344.004L235.093 407.889C235.093 407.889 248.778 418.077 252.503 418.468C256.228 418.86 264.498 407.239 264.498 407.239L289.253 409.841L276.803 350.019L248.698 344.004Z" fill="url(#paint12_linear)"/>
<path fill-rule="evenodd" clip-rule="evenodd" d="M299.761 87.2884C299.761 87.2884 294.363 96.8994 291.168 99.3705C287.973 101.842 277.194 110.528 277.194 110.528C277.194 110.528 266.664 115.095 260.49 115.244C254.316 115.393 245.483 120.13 245.483 120.13C245.483 120.13 249.071 136.135 248.89 137.857C248.709 139.58 248.517 141.41 248.517 141.41L247.644 143.022C247.644 143.022 244.703 186.402 244.264 190.584C243.824 194.767 242.483 282.289 243.544 299.99C244.605 317.69 248.062 337.382 247.856 339.344C247.65 341.306 246.945 348.009 246.945 348.009C246.945 348.009 251.317 371.767 251.299 378.961C251.281 386.154 251.799 429.44 253.577 429.627C255.355 429.814 259.184 424.545 259.433 422.178C259.682 419.81 266.197 406.62 266.479 403.943C266.76 401.265 275.148 384.318 276.193 381.577C277.237 378.836 278.59 369.54 278.59 369.54C278.59 369.54 283.305 320.176 282.964 317.155C282.623 314.134 280.52 294.481 279.931 288.021C279.342 281.562 276.177 253.672 275.589 247.592C275.001 241.513 276.44 214.948 276.434 197.734C276.428 180.52 283.325 154.137 283.796 149.653C284.267 145.168 285.846 132.51 288.982 127.87C292.117 123.231 293.097 119.46 293.179 118.68C293.232 118.174 294.709 116.365 296.508 104.934C296.56 104.603 298.796 96.4682 298.796 96.4682L299.761 87.2884Z" fill="url(#paint13_linear)"/>
<path fill-rule="evenodd" clip-rule="evenodd" d="M343.832 82.3157C343.832 82.3157 342.085 86.7609 341.465 88.9911C340.112 93.8591 338.594 100.922 338.988 104.554C339.772 111.769 338.479 120.404 338.106 125.782C337.733 131.161 327.179 153.508 326.074 164.021C324.969 174.533 324.728 227.482 325.911 258.316C327.093 289.151 331.765 357.641 333.252 378.574C334.738 399.506 337.639 428.492 337.639 428.492C337.639 428.492 350.582 430.432 363.543 427.579C376.503 424.725 400.09 418.349 406.191 416.954C412.292 415.559 417.059 413.877 417.059 413.877C417.059 413.877 408.992 377.443 405.308 362.959C401.623 348.474 395.391 314.825 395.391 314.825C395.391 314.825 393.035 304.475 388.099 295.816C383.162 287.157 368.595 277.619 368.595 277.619C368.595 277.619 373.585 269.745 373.918 266.571C374.252 263.397 374.703 259.103 374.703 259.103L378.705 256.936L382.2 250.061L386.77 241.351L386.42 209.917C386.42 209.917 383.187 197.74 382.468 185.229C381.748 172.718 394.102 136.822 394.638 131.724C395.174 126.626 399.532 119.927 399.532 119.927C399.532 119.927 392.136 116.85 383.63 113.925C375.124 111 364.239 107.208 364.239 107.208C364.239 107.208 359.349 104.616 357.514 104.423C355.678 104.23 349.714 78.7639 349.068 77.4671C348.422 76.1703 346.051 76.3253 346.051 76.3253L343.832 82.3157Z" fill="url(#paint14_linear)"/>
<path fill-rule="evenodd" clip-rule="evenodd" d="M379.081 169.589C379.081 169.589 378.936 182.435 380.022 186.749C381.108 191.063 385.657 206.959 385.657 206.959C385.657 206.959 385.943 243.482 385.657 250.508C385.11 263.954 383.63 253.449 382.243 250.508C379.077 243.791 379.081 169.589 379.081 169.589Z" fill="#1225C8" fill-opacity="0.516814"/>
<path fill-rule="evenodd" clip-rule="evenodd" d="M399.45 119.869C399.45 119.869 407.572 124.935 409.004 133.693C410.436 142.451 411.619 146.543 411.379 148.823C411.14 151.103 416.398 156.274 416.145 158.68C415.892 161.086 416.278 162.698 417.856 165.902C419.434 169.107 420.507 175.935 420.158 179.258C419.809 182.582 424.653 190.643 425.52 195.89C426.387 201.137 430.929 229.913 430.088 237.918C429.247 245.922 423.852 261.512 420.741 266.232C417.631 270.951 416.833 278.544 416.631 280.463C416.429 282.383 413.134 285.373 411.092 285.158C409.05 284.944 405.384 284.559 405.384 284.559C405.384 284.559 404.387 290.313 403.027 293.377C401.666 296.441 403.501 298.746 402.346 299.849C401.192 300.952 399.317 302.445 398.327 304.075C397.337 305.705 395.694 310.209 395.062 310.142C394.431 310.076 391.562 313.381 391.562 313.381C391.562 313.381 386.55 308.186 384.705 304.281C382.86 300.377 366.972 282.298 366.972 282.298C366.972 282.298 373.53 269.041 373.846 266.04C374.161 263.039 374.503 259.787 374.684 258.065C374.865 256.344 379.817 256.37 379.975 254.871C380.132 253.373 384.168 244.448 385.789 242.193C387.411 239.939 387.528 240.528 388.818 238.543C390.107 236.558 390.347 235.257 390.375 234.502C390.403 233.746 386.15 231.529 385.885 228.311C385.619 225.093 390.014 222.09 390.396 218.459C390.778 214.828 391.66 212.681 390.473 210.8C389.287 208.918 383.992 206.364 383.992 206.364C383.992 206.364 379.214 186.334 377.993 177.434C376.773 168.534 381.44 151.764 384.189 141.885C386.937 132.005 399.45 119.869 399.45 119.869Z" fill="url(#paint15_linear)"/>
<path fill-rule="evenodd" clip-rule="evenodd" d="M314.646 73.6624C314.646 73.6624 321.809 75.5085 326.169 75.9668C330.53 76.4251 334.031 76.7931 334.031 76.7931C334.031 76.7931 329.504 78.9367 325.897 78.5576C322.29 78.1785 314.646 73.6624 314.646 73.6624Z" fill="#141731"/>
<path fill-rule="evenodd" clip-rule="evenodd" d="M362.647 280.654L364.593 279.329C364.593 279.329 372.625 288.166 378.521 295.893C384.418 303.62 388.973 308.884 390.293 311.37C391.612 313.856 393.084 315.496 393.084 315.496L393.913 321.73C393.913 321.73 391.67 314.031 388.548 311.187C385.425 308.342 378.263 297.459 374.441 293.095C370.618 288.731 362.647 280.654 362.647 280.654Z" fill="#1259C8"/>
<path fill-rule="evenodd" clip-rule="evenodd" d="M393.333 236.653L404.406 242.397L390.686 236.653L393.333 236.653Z" fill="#2046E2"/>
<path fill-rule="evenodd" clip-rule="evenodd" d="M104.084 670.949C102.164 676.848 100.497 690.4 100.497 694.231C100.497 698.062 103.2 701.394 103.2 701.394C103.2 701.394 119.293 705.578 122.516 705.578C125.739 705.578 153.856 710 162.384 710C170.911 710 193.71 708.49 197.832 705.578C201.954 702.667 194.413 692.08 186.963 690.475C179.514 688.87 167.681 681.968 164.248 680.378C160.815 678.788 153.935 670.949 153.935 670.949C153.935 670.949 106.004 665.051 104.084 670.949Z" fill="url(#paint16_linear)"/>
<path fill-rule="evenodd" clip-rule="evenodd" d="M47.648 605.6C47.648 605.6 35.6012 606.76 31.8292 609.471C28.0572 612.183 26.0189 618.561 26.0189 618.561C26.0189 618.561 35.2783 642.501 39.0287 650.134C42.7792 657.768 52.9598 679.787 59.6121 686.268C66.2643 692.749 75.364 696.8 75.364 696.8C75.364 696.8 81.4679 694.034 81.4679 689.372C81.4679 684.71 81.4679 681.601 81.4679 681.601C81.4679 681.601 76.8415 654.062 76.8415 651.2C76.8415 648.338 78.8742 643.308 78.8742 643.308L47.648 605.6Z" fill="url(#paint17_linear)"/>
<path fill-rule="evenodd" clip-rule="evenodd" d="M93.9586 504.047C93.9586 504.047 74.9876 556.156 69.7446 560.187C64.5016 564.217 60.5218 581.869 55.2303 586.435C49.9387 591.001 45.239 597.396 45.239 597.396C45.239 597.396 48.0257 606.649 48.0257 609.791C48.0257 612.934 56.4065 627.188 61.003 632.494C65.5996 637.799 80.4224 646.4 80.4224 646.4C80.4224 646.4 88.1351 638.915 88.1351 634.265C88.1351 629.614 88.1351 621.69 88.1351 621.69C88.1351 621.69 109.475 578.896 116.07 571.504C122.665 564.111 118.768 522.835 118.768 522.835L93.9586 504.047Z" fill="url(#paint18_linear)"/>
<path fill-rule="evenodd" clip-rule="evenodd" d="M150.586 393.606C150.586 393.606 149.106 472.756 145.9 491.223C142.694 509.691 135.431 535.1 135.431 535.1L120.572 390.059L150.586 393.606Z" fill="url(#paint19_linear)"/>
<path fill-rule="evenodd" clip-rule="evenodd" d="M53.2085 357.466C53.2085 357.466 75.2877 484.658 81.732 496.88C88.1762 509.102 107.826 551.899 107.826 561.282C107.826 570.666 103.749 614.24 103.749 626.839C103.749 639.439 103.749 670.947 103.749 670.947C103.749 670.947 124.332 684.8 133.951 684.8C143.57 684.8 162.962 670.947 162.962 670.947C162.962 670.947 151.6 636.144 151.6 626.839C151.6 617.535 151.6 545.576 151.6 533.032C151.6 520.487 133.951 389.855 133.951 389.855L53.2085 357.466Z" fill="url(#paint20_linear)"/>
<path fill-rule="evenodd" clip-rule="evenodd" d="M85.4349 165.665L60.1976 252.934L45.2524 315.274C45.2524 315.274 52.4509 358.66 54.7497 373.388C57.0484 388.117 147.929 404.02 150.909 393.544C150.909 332.967 150.909 281.377 150.909 264.968C150.909 248.435 145.933 223.382 142.305 213.239C137.194 198.948 134.874 186.691 129.062 182.142C123.25 177.593 117.587 174.251 110.005 171.484C102.849 168.873 85.4349 165.665 85.4349 165.665Z" fill="url(#paint21_linear)"/>
<path fill-rule="evenodd" clip-rule="evenodd" d="M86.8038 164.705C86.8038 164.705 64.3834 176.476 51.0985 189.122C39.5559 207.49 39.0153 221.367 36.8313 231.48C34.6473 241.593 29.2209 271.706 29.2209 271.706C29.2209 271.706 34.6134 270.585 42.2346 270.585C49.8557 270.585 65.1583 278.357 65.1583 278.357C65.1583 278.357 74.0299 255.113 76.1199 246.074C78.2099 237.035 79.2996 219.883 79.2996 219.883L86.8038 164.705Z" fill="url(#paint22_linear)"/>
<path fill-rule="evenodd" clip-rule="evenodd" d="M89.9513 155.025L84.8054 166.227C84.8054 166.227 98.1767 183.481 118.966 186.821C116.799 176.351 125.386 166.227 125.386 166.227L89.9513 155.025Z" fill="url(#paint23_linear)"/>
<path fill-rule="evenodd" clip-rule="evenodd" d="M79.609 101.603C79.609 101.603 76.0113 109.923 75.0834 122.053C74.1555 134.184 78.3622 145.633 82.7304 150.86C87.0987 156.086 93.3654 156.654 93.3654 156.654L79.609 101.603Z" fill="url(#paint24_linear)"/>
<path fill-rule="evenodd" clip-rule="evenodd" d="M118.111 90.0685C130.536 88.1809 141.221 96.0859 144.265 100.738C145.901 103.238 147.854 113.132 144.265 131.486C141.178 147.275 133.571 172.696 130.235 173.309C123.02 174.634 106.141 167.567 102.4 165.659C98.659 163.75 94.1235 159.254 92.7639 156.419C91.4044 153.584 89.5721 148.553 89.5721 148.553C89.5721 148.553 88.5279 151.581 85.9726 150.067C83.4172 148.553 79.3993 143.009 78.087 140.113C76.7746 137.217 76.6594 131.099 78.087 129.108C79.5145 127.117 82.78 127.962 82.78 127.962C82.78 127.962 82.6048 113.598 89.5721 105.786C96.5394 97.9737 105.685 91.9561 118.111 90.0685Z" fill="url(#paint25_linear)"/>
<path fill-rule="evenodd" clip-rule="evenodd" d="M119.066 100.592C105.77 102.21 100.032 114.704 100.032 114.704L99.1872 109.99C99.1872 109.99 99.0653 111.584 98.1122 114.704C97.1591 117.824 93.4685 123.922 93.4685 123.922L92.5253 120.299C92.5253 120.299 89.0684 123.229 89.0684 127.354C89.0684 131.478 89.0684 137.535 89.0684 137.535C89.0684 137.535 85.3736 132.026 82.7524 127.354C80.1313 122.682 77.2662 107.391 79.4498 101.221C80.0746 99.4554 82.2017 95.3362 86.21 93.6842C85.8613 93.3205 84.3593 92.888 84.0836 91.8052C86.1336 91.7595 89.5368 90.3268 90.8191 88.9621C93.5699 86.0348 99.1872 78.2733 99.1872 78.2733C99.1872 78.2733 132.363 98.9743 119.066 100.592Z" fill="url(#paint26_linear)"/>
<path fill-rule="evenodd" clip-rule="evenodd" d="M145.818 116.393C151.97 108.107 150.327 96.2019 147.636 90.8533C144.946 85.5046 140.326 82.7345 134.447 80.4166C128.567 78.0987 125.183 74.7232 116.851 74.1254C108.519 73.5275 103.058 75.1102 97.0583 78.9709C91.0582 82.8315 92.9117 86.7978 85.1005 87.7992C87.4883 88.8007 93.4356 89.9001 93.4356 89.9001C93.4356 89.9001 90.8977 90.5244 88.7016 92.5757C91.1063 95.6693 94.4245 97.3442 98.3124 98.8422C105.404 101.575 115.131 101.598 107.871 106.663C108.938 108.334 116.18 106.592 113.437 107.881C117.499 110.023 125.883 102.931 128.302 103.404C135.924 104.894 145.818 103.762 145.818 116.393Z" fill="url(#paint27_linear)"/>
<path fill-rule="evenodd" clip-rule="evenodd" d="M99.5725 409.68L102.076 407.889V340.711L10.4678 331.593L8.43683 333.782L99.5725 409.68Z" fill="url(#paint28_linear)"/>
<path fill-rule="evenodd" clip-rule="evenodd" d="M8.71921 333.84L99.4923 342.816V410.082L8.71921 399.181V333.84Z" fill="url(#paint29_linear)"/>
<path fill-rule="evenodd" clip-rule="evenodd" d="M44.5676 397.874L60.109 415.149L72.1732 418.393L82.5655 412.725L84.4956 408.066L77.1248 407.087C77.1248 407.087 73.7203 402.247 72.1732 400.889C70.6262 399.531 66.7295 397.874 66.7295 397.874H44.5676Z" fill="url(#paint30_linear)"/>
<path fill-rule="evenodd" clip-rule="evenodd" d="M33.466 269.281C33.466 269.281 26.4053 312.079 26.4053 321.563C26.4053 331.048 42.1329 397.834 42.1329 397.834C42.1329 397.834 57.6341 401.487 65.9862 397.834C65.9862 385.629 54.7451 325.487 54.7451 318.178C54.7451 310.868 65.9862 275.289 65.9862 275.289C65.9862 275.289 53.8996 270.513 47.2318 269.281C40.5641 268.049 33.466 269.281 33.466 269.281Z" fill="url(#paint31_linear)"/>
<path fill-rule="evenodd" clip-rule="evenodd" d="M129.072 155.381C129.072 155.381 118.936 154.159 116.486 152.8C114.035 151.441 112.621 150.46 112.621 150.46C112.621 150.46 115.952 154.428 118.399 155.381C120.846 156.334 126.509 157.349 126.509 157.349L129.072 155.381Z" fill="#141731"/>
<path fill-rule="evenodd" clip-rule="evenodd" d="M755.5 698.933C793.215 698.933 823.789 693.77 823.789 690.897C823.789 688.025 793.215 685.696 755.5 685.696C717.785 685.696 687.211 688.025 687.211 690.897C687.211 693.77 717.785 698.933 755.5 698.933Z" fill="#0062E6"/>
<path fill-rule="evenodd" clip-rule="evenodd" d="M755.5 696.099C793.215 696.099 823.789 693.77 823.789 690.897C823.789 688.025 793.215 685.696 755.5 685.696C717.785 685.696 687.211 688.025 687.211 690.897C687.211 693.77 717.785 696.099 755.5 696.099Z" fill="#1B7CFF"/>
<path fill-rule="evenodd" clip-rule="evenodd" d="M772.205 538.837C769.701 576.775 768.449 604.855 768.449 623.076C768.449 641.298 770.953 664.271 775.961 689.396C775.961 689.396 765.48 690.95 755 690.929C744.519 690.908 734.038 689.311 734.038 689.311C739.046 664.187 741.55 641.213 741.55 622.992C741.55 604.771 740.298 576.691 737.794 538.753H762.065L772.205 538.837Z" fill="url(#paint32_linear)"/>
<path fill-rule="evenodd" clip-rule="evenodd" d="M687.262 395.491C661.236 443.017 670.531 494.931 676.058 514.225C681.585 533.518 690.708 545.505 725.425 554.055C760.143 562.606 788.566 564.186 806.895 554.055C825.225 543.924 836.393 531.265 839.359 498.044C842.324 464.823 848.794 399.556 815.555 376.016C782.316 352.477 713.289 347.965 687.262 395.491Z" fill="url(#paint33_linear)"/>
<path fill-rule="evenodd" clip-rule="evenodd" d="M689.409 397.508C664.197 443.547 673.202 493.836 678.556 512.526C683.91 531.215 692.747 542.827 726.378 551.11C760.009 559.393 787.542 560.924 805.298 551.11C823.054 541.296 833.873 529.033 836.745 496.852C839.618 464.67 845.886 401.446 813.687 378.643C781.488 355.84 714.621 351.469 689.409 397.508Z" fill="url(#paint34_linear)"/>
<path fill-rule="evenodd" clip-rule="evenodd" d="M696.78 461.568C696.78 461.568 686.309 484.317 683.601 490.788C680.893 497.258 678.835 510.236 685.556 520.723C692.277 531.21 702.818 537.987 702.818 537.987C702.818 537.987 701.22 511.658 710.083 504.282C718.946 496.905 736.329 496.309 743.312 498.043C750.295 499.777 772.052 517.424 776.976 517.424C781.899 517.424 793.687 523.904 795.433 529.452C797.179 534.999 795.433 549.714 795.433 549.714V554.45C795.433 554.45 801.807 550.237 807.81 545.473C813.814 540.708 821.192 535.376 824.687 526.4C828.181 517.424 829.424 504.408 827.055 493.461C824.687 482.514 816.99 466.055 816.99 466.055L696.78 461.568Z" fill="url(#paint35_linear)"/>
<path fill-rule="evenodd" clip-rule="evenodd" d="M703.063 460.566C703.063 460.566 724.357 468.177 732.663 469.633C740.969 471.088 755.937 473.4 765.603 473.4C775.27 473.4 799.622 469.633 806.694 469.633C813.766 469.633 817.694 466.983 817.694 466.983L799.629 417.714L774.537 366.37C774.537 366.37 756.91 392.491 742.242 392.491C727.574 392.491 708.761 388.243 708.761 388.243H693.622L703.063 460.566Z" fill="url(#paint36_linear)"/>
<path fill-rule="evenodd" clip-rule="evenodd" d="M688.938 367.8C688.938 367.8 676.185 384.108 673.839 388.609C671.493 393.109 666.876 398.919 673.839 412.791C680.802 426.663 686.048 435.029 688.938 441.694C691.827 448.358 697.099 475.585 703.404 482.914C709.71 490.244 714.348 494.177 714.348 494.177L728.925 454.976C728.925 454.976 721.774 431.178 715.993 423.73C710.213 416.283 705.528 404.228 705.528 404.228L693.79 376.352L688.938 367.8Z" fill="url(#paint37_linear)"/>
<path fill-rule="evenodd" clip-rule="evenodd" d="M761.288 345.434C761.288 345.434 788.54 351.194 795.958 356.042C803.376 360.891 819.196 373.592 819.196 383.361C819.196 393.131 816.693 437.017 813.962 450.739C811.23 464.462 800.419 487.481 800.419 487.481C800.419 487.481 787.778 477.89 781.962 477.89C776.146 477.89 773.741 477.89 773.741 477.89C773.741 477.89 778.928 452.965 778.928 446.114C778.928 439.263 786.567 411.876 786.567 411.876C786.567 411.876 775.762 390.115 773.741 377.097C771.72 364.079 761.288 345.434 761.288 345.434Z" fill="url(#paint38_linear)"/>
<path fill-rule="evenodd" clip-rule="evenodd" d="M703.743 371.31L726.685 398.595C726.685 398.595 753.992 402.196 760.709 390.889C767.427 379.582 766.11 366.175 766.11 366.175L748.524 339.272L703.743 371.31Z" fill="url(#paint39_linear)"/>
<path fill-rule="evenodd" clip-rule="evenodd" d="M727.524 282.552C722.224 282.552 710.043 282.75 704.826 288.043C699.608 293.337 694.581 296.36 687.499 299.433C680.418 302.506 677.519 297.916 677.519 305.649C677.519 313.383 681.976 313.454 677.519 320.257C673.062 327.06 669.738 328.884 671.4 335.617C673.062 342.35 681.297 358.421 681.297 368.165C681.297 377.909 674.897 389.125 674.897 389.125L734.14 345.568C734.14 345.568 743.408 339.451 749.277 345.568C755.145 351.685 740.752 369.159 744.075 380.653C747.398 392.147 761.39 403.456 759.895 409.613C758.401 415.77 774.679 420.9 774.679 405.012C774.679 389.125 771.026 377.056 779.708 372.61C788.391 368.165 788.484 349.066 788.484 349.066C788.484 349.066 764.733 347.494 764.733 327.9C764.733 308.305 750.638 289.941 744.075 284.099C737.511 278.257 730.667 279.428 727.524 282.552Z" fill="url(#paint40_linear)"/>
<path fill-rule="evenodd" clip-rule="evenodd" d="M702.772 538.379V525.136C702.772 519.687 703.629 501.897 720.634 498.39C737.638 494.882 745.807 496.563 754.327 502.857C762.848 509.151 761.929 538.228 760.023 546.175C759.935 546.542 759.84 546.889 759.738 547.217C761.309 568.47 765.879 632.176 765.879 653.676C765.879 679.635 749.009 685.448 749.009 685.448C749.009 685.448 742 640.223 736.012 627.717C731.036 617.323 715.062 571.109 709.807 555.792C705.95 549.35 702.772 538.379 702.772 538.379Z" fill="url(#paint41_linear)"/>
<path fill-rule="evenodd" clip-rule="evenodd" d="M741.419 644.508C741.419 644.508 745.509 645.726 748.983 644.508C752.458 643.291 756.167 642.369 756.167 642.369L777.558 682.43C777.558 682.43 784.709 702.456 779.969 709.689C775.23 716.923 770.325 717.081 754.518 700.278C748.364 693.737 749.153 686.409 747.125 678.517C743.944 666.135 740.629 653.373 740.629 650.765C740.629 646.496 741.419 644.508 741.419 644.508Z" fill="url(#paint42_linear)"/>
<path fill-rule="evenodd" clip-rule="evenodd" d="M772.607 516.274C768.132 516.274 759.027 530.982 757.532 536.34C756.036 541.698 759.027 563.056 757.532 570.123C756.036 577.19 754.239 594.46 754.239 611.489C754.239 628.518 755.782 651.587 754.239 662.176C752.696 672.766 748.296 680.994 748.296 683.548C748.296 685.146 745.609 695.072 741.988 705.222C739.821 711.292 735.939 717.702 735.939 721.736C735.939 732.514 746.749 733.725 754.239 733.725C761.73 733.725 767.896 730.867 769.26 727.961C770.623 725.056 770.428 694.206 771.518 685.38C772.607 676.554 780.049 664.733 783.189 655.909C786.329 647.085 796.535 611.805 798.725 605.036C800.916 598.266 798.328 562.155 796.124 549.247C796.502 540.017 798.328 534.716 794.947 527.594C791.565 520.472 784.744 518.24 780.363 517.257C775.982 516.274 777.081 516.274 772.607 516.274Z" fill="url(#paint43_linear)"/>
<path fill-rule="evenodd" clip-rule="evenodd" d="M669.581 521.655C670.011 520.563 671.285 520.075 672.335 520.599L738.653 553.697C739.591 554.166 740.009 555.279 739.609 556.249L720.046 603.702C719.606 604.768 718.358 605.243 717.321 604.738L651.446 572.672C650.507 572.215 650.077 571.112 650.461 570.14L669.581 521.655Z" fill="url(#paint44_linear)"/>
<path fill-rule="evenodd" clip-rule="evenodd" d="M677 557C679.209 557 681 555.209 681 553C681 550.791 679.209 549 677 549C674.791 549 673 550.791 673 553C673 555.209 674.791 557 677 557Z" fill="#131730"/>
<path fill-rule="evenodd" clip-rule="evenodd" d="M773.354 477.565C773.354 477.565 769.566 487.13 764.442 492.904C759.319 498.678 752.357 511.508 750.693 514.435C749.028 517.362 726.181 534.963 722.991 538.952C719.802 542.941 710.068 558.19 708.274 562.172C706.479 566.154 705.085 571.125 703.515 575.402C701.945 579.679 702.455 585.036 702.455 587.51C702.455 589.983 701.649 594.176 703.515 595.03C705.381 595.885 708.274 593.994 708.274 592.038C708.274 590.081 709.823 583.555 709.823 583.555L712.083 577.825C712.083 577.825 710.731 589.045 710.731 592.038C710.731 595.03 711.968 594.053 713.892 595.03C715.815 596.008 716.885 589.775 716.885 587.51C716.885 585.244 721.239 576.449 721.239 576.449L718.278 592.997C718.278 592.997 722.084 592.458 724.007 589.984C725.929 587.51 728.42 574.515 728.42 574.515L727.039 587.51C727.039 587.51 725.204 591.078 726.122 592.038C727.039 592.997 731.054 591.465 732.035 587.51C733.017 583.555 736.26 577.153 736.26 574.515C736.26 571.877 741.857 559.961 741.857 558.689C741.857 557.418 744.902 548.785 746.136 546.539C747.37 544.292 757.21 538.104 760.826 534.838C764.442 531.572 775.305 521.448 779.892 517.941C784.478 514.435 789.269 510.084 792.788 505.805C796.307 501.526 800.923 486.806 800.923 486.806C800.923 486.806 793.703 477.309 788.557 474.982C783.411 472.656 773.354 477.565 773.354 477.565Z" fill="url(#paint45_linear)"/>
<path fill-rule="evenodd" clip-rule="evenodd" d="M690.216 367.35L686.939 375.592C686.939 375.592 688.169 382.306 690.216 383.659C692.263 385.011 701.22 391.386 703.287 394.583C705.355 397.781 716.032 403.005 717.065 404.266C718.097 405.526 719.359 418.473 719.359 418.473C719.359 418.473 718.143 438.971 717.065 444.082C715.986 449.192 713.629 451.327 712.033 458.099C710.437 464.871 708.778 474.657 710.405 481.091C712.033 487.525 712.369 493.732 717.065 497.645C721.761 501.557 728.606 504.79 732.409 504.79C736.211 504.79 743.482 504.095 745.158 499.357C746.835 494.618 747.083 474.505 746.959 460.248C746.835 445.99 735.976 422.158 735.976 415.152C735.976 408.147 735.107 391.318 732.409 387.489C729.711 383.659 725.109 379.73 725.109 379.73L690.216 367.35Z" fill="url(#paint46_linear)"/>
<path fill-rule="evenodd" clip-rule="evenodd" d="M713.62 311.826C713.62 311.826 709.536 317.067 703.675 318.946C697.814 320.825 689.386 318.188 686.231 322.17C683.077 326.152 680.17 328.63 680.17 334.668C680.17 340.707 683.847 345.445 685.039 351.015C686.231 356.586 692.389 369.4 697.978 375.689C703.568 381.979 715.897 390.679 715.897 390.679C715.897 390.679 728.599 387.422 734.377 377.172C740.156 366.921 741.519 352.601 741.519 352.601C741.519 352.601 750.138 343.52 750.138 336.996C750.138 330.473 746.731 328.173 744.748 328.173C742.765 328.173 738.503 334.668 738.503 334.668C738.503 334.668 736.34 336.996 732.129 336.996C727.918 336.996 721.463 334.668 721.463 334.668C721.463 334.668 724.625 333.424 724.625 331.598C722.097 332.033 719.297 332.843 713.62 331.598C707.943 330.352 705.374 328.173 705.374 328.173C705.374 328.173 708.858 326.543 710.736 322.17C712.613 317.797 713.62 311.826 713.62 311.826Z" fill="url(#paint47_linear)"/>
<path fill-rule="evenodd" clip-rule="evenodd" d="M706.762 375.905C706.762 375.905 709.83 373.692 711.334 373.692C712.839 373.692 718.934 370.804 718.934 370.804C718.934 370.804 714.362 376.041 712.848 377.399C711.334 378.758 708.279 378.299 708.279 378.299V377.399L706.762 375.905Z" fill="#141731"/>
<path fill-rule="evenodd" clip-rule="evenodd" d="M755.055 651.765C755.055 651.765 753.419 654.018 753.419 655.682C753.419 657.345 752.409 664.388 750.92 669.351C749.431 674.313 745.923 685.304 745.923 687.712C745.923 690.12 739.715 707.291 738.858 709.937C738 712.582 734.508 720.236 736.683 724.844C738.858 729.451 740.634 734.194 755.055 733.383C769.476 732.572 769.187 728.913 770.167 726.288C771.147 723.664 771.938 702.048 771.938 697.334C771.938 692.62 772.451 682.659 773.713 680.302C774.976 677.945 781.558 662.018 782.604 659.711C783.65 657.403 784.175 655.682 784.175 655.682L782.604 654.598C782.604 654.598 777.41 656.765 770.167 655.682C762.924 654.598 755.055 651.765 755.055 651.765Z" fill="url(#paint48_linear)"/>
<path fill-rule="evenodd" clip-rule="evenodd" d="M558.948 679.04C558.948 679.04 566.012 675.85 569.929 675.85C573.846 675.85 584.112 680.906 591.188 680.906C598.263 680.906 632.674 675.85 632.674 675.85L639.315 697.68C639.315 697.68 611.274 703.964 601.231 703.964C591.188 703.964 575.027 701.799 575.027 701.799L558.948 679.04Z" fill="url(#paint49_linear)"/>
<path fill-rule="evenodd" clip-rule="evenodd" d="M429.787 652.841C429.787 652.841 433.811 642.63 437.673 642.63C441.536 642.63 466.581 643.258 474.882 641.134C483.184 639.01 501.954 632.844 508.614 630.557C515.275 628.27 555.507 598.97 555.507 598.97C555.507 598.97 585.649 572.77 598.11 566.181C610.571 559.592 619.623 553.66 626.344 562.618C633.065 571.576 645.527 611.628 649.19 625.168C652.853 638.709 659.655 665.639 659.655 665.639C659.655 665.639 665.322 684.297 668.446 691.723C671.57 699.149 672.3 703.414 672.3 703.414L670.08 706.287L624.75 710.584C624.75 710.584 622.716 709.161 622.716 706.287C622.716 703.414 621.348 700.821 621.348 697.086C621.348 693.35 617.32 686.091 616.015 681.907C614.711 677.723 608.535 655.13 608.535 655.13L601.794 634.326C601.794 634.326 590.037 649.372 587.661 652.841C585.284 656.309 573.505 675.347 571.192 675.347C568.88 675.347 561.185 684.435 551.044 683.171C540.902 681.907 473.594 673.398 473.594 673.398L424.365 679.893C424.365 679.893 425.979 672.732 427.883 665.639C429.787 658.546 429.787 652.841 429.787 652.841Z" fill="url(#paint50_linear)"/>
<path fill-rule="evenodd" clip-rule="evenodd" d="M427.043 665.359C430.489 660.606 438.502 651.777 448.389 651.777C458.276 651.777 486.595 655.371 495.109 660.365C503.622 665.359 528.917 677.01 531.768 677.01C534.619 677.01 540.185 677.084 546.184 678.27C552.182 679.456 557.962 679.405 557.962 679.405C557.962 679.405 563.556 680.95 567.675 684.907C571.795 688.864 576.946 691.818 578.092 697.093C579.238 702.368 575.088 706.068 575.088 706.068C575.088 706.068 556.446 707.479 551.315 707.479C546.184 707.479 539.281 709.855 533.915 709.855C528.548 709.855 508.494 709.855 504.659 709.855C500.824 709.855 481.83 709.855 475.164 709.855C468.499 709.855 449.428 708.89 444.397 707.479C439.365 706.068 426.692 701.528 424.684 693.217C422.677 684.907 423.596 670.112 427.043 665.359Z" fill="url(#paint51_linear)"/>
<path fill-rule="evenodd" clip-rule="evenodd" d="M637.837 687.489C643.899 684.6 646.718 682.085 651.162 683.886C655.605 685.687 661.071 688.897 661.071 691.636C661.071 694.375 664.212 698.638 664.212 698.638C664.212 698.638 657.336 695.427 652.29 698.638C647.245 701.849 640.808 707.491 640.808 707.491C640.808 707.491 633.174 706.542 629.638 704.841C626.103 703.14 631.775 690.377 637.837 687.489Z" fill="url(#paint52_linear)"/>
<path fill-rule="evenodd" clip-rule="evenodd" d="M628.55 702.269C628.55 702.269 625.597 710.228 624.434 712.879C623.271 715.529 624.434 718.552 624.434 718.552C624.434 718.552 627.259 722.683 633.028 722.683C638.797 722.683 645.837 723.455 649.232 725.613C652.628 727.772 658.112 730.773 667.548 732.144C676.985 733.516 687.374 735.474 691.929 732.144C695.511 728.331 690.774 721.377 688.072 719.964C685.371 718.552 679.047 714.124 676.942 711.793C674.837 709.463 665.038 699.089 665.038 699.089C665.038 699.089 656.937 695.331 647.847 700.636C638.757 705.942 628.55 702.269 628.55 702.269Z" fill="url(#paint53_linear)"/>
<path fill-rule="evenodd" clip-rule="evenodd" d="M628.862 584.22C628.862 584.22 627.574 595.686 626.082 600.619C624.589 605.551 620.597 610.848 620.597 613.886C620.597 616.924 615.311 620.743 615.311 620.743C615.311 620.743 608.329 628.17 606.116 630.915C603.902 633.66 601.871 638.129 600.525 640.532C599.179 642.936 594.427 651.186 594.427 651.186C594.427 651.186 596.807 653.642 598.666 652.414C600.525 651.186 600.231 654.99 603.875 656.341C607.52 657.692 609.723 656.341 609.723 656.341C609.723 656.341 610.299 660.557 612.805 660.557C615.311 660.557 618.065 661.199 618.065 661.199C618.065 661.199 621.867 663.468 623.974 662.334C626.082 661.199 629.764 660.164 631.124 659.13C632.485 658.096 638.929 649.382 639.8 648.101C640.671 646.82 643.82 639.023 644.529 636.402C645.238 633.78 644.529 629.817 644.529 626.132C644.529 622.447 648.356 615.257 650.509 611.429C652.662 607.601 657.418 597.486 657.418 597.486L658.465 581.376C658.465 581.376 647.729 575.24 641.972 575.24C636.215 575.24 628.862 584.22 628.862 584.22Z" fill="url(#paint54_linear)"/>
<path fill-rule="evenodd" clip-rule="evenodd" d="M351.973 720.991C351.973 720.991 359.459 724.459 360.899 724.459C362.338 724.459 448.523 717.476 448.523 717.476L450.18 713.518L330.976 706.72L351.973 720.991Z" fill="url(#paint55_linear)"/>
<path fill-rule="evenodd" clip-rule="evenodd" d="M318.056 699.079L373.439 698.107L449.515 713.625L358.793 718.621L318.056 699.079Z" fill="url(#paint56_linear)"/>
<path fill-rule="evenodd" clip-rule="evenodd" d="M240.877 628.644H246.41L310.961 640.707L358.928 725.755H357.304L240.877 628.644Z" fill="url(#paint57_linear)"/>
<path fill-rule="evenodd" clip-rule="evenodd" d="M241.184 629.006L308.33 641.833L356.945 725.738L287.344 708.867L241.184 629.006Z" fill="url(#paint58_linear)"/>
<path fill-rule="evenodd" clip-rule="evenodd" d="M438.034 497.816C438.034 497.816 425.691 549.85 425.691 558.091C425.691 566.332 423.495 641.45 423.495 641.45C423.495 641.45 422.335 647.545 425.691 649.473C429.048 651.402 430.616 651.677 430.616 651.677C430.616 651.677 480.884 649.017 497.382 643.663C513.881 638.309 521.523 625.502 533.117 617.207C544.71 608.912 549.12 604.542 553.283 600.121C552.118 597.793 549.421 593.403 549.421 593.403C549.421 593.403 550.874 589.178 550.874 585.948C550.874 582.719 550.874 578.797 550.874 577.315C550.874 575.833 553.283 571.097 553.283 568.437C553.283 565.777 554.592 563.036 554.592 563.036C554.592 563.036 556.07 557.633 557.904 553.636C559.738 549.64 562.533 547.026 563.714 547.026C564.894 547.026 566.647 544.046 566.647 544.046C566.647 544.046 556.521 519.293 556.521 507.855C556.521 496.417 559.638 481.678 559.638 481.678C559.638 481.678 557.145 483.28 553.283 481.678C549.421 480.076 539.435 478.72 535.022 477.7C530.608 476.68 530.717 475.163 528.226 476.431C525.735 477.7 524.792 480.873 522.459 479.287C520.127 477.7 518.739 477.7 516.981 477.7C515.223 477.7 514.304 477.945 512.362 479.287C510.419 480.628 501.96 479.287 501.96 479.287C501.96 479.287 505.522 478.6 508.011 485.434C510.5 492.268 510.907 507.724 508.011 516.177C505.114 524.631 493.089 547.026 493.089 547.026C493.089 547.026 487.402 550.005 481.286 547.026C475.171 544.046 469.792 536.781 467.645 532.983C465.499 529.184 460.87 517.375 460.87 517.375L441.431 494.876L438.034 497.816Z" fill="url(#paint59_linear)"/>
<path fill-rule="evenodd" clip-rule="evenodd" d="M440.469 495.377C440.469 495.377 424.654 506.277 421.472 509.574C418.289 512.871 408.758 520.648 406 524.509C403.242 528.369 400.975 532.918 400.975 532.918C400.975 532.918 399.637 547.05 397.84 551.932C396.044 556.813 397.84 561.593 397.84 563.824C397.84 566.056 397.84 570.973 397.84 573.316C397.84 575.659 394.787 576.613 394.787 579.352C394.787 582.091 396.037 584.244 396.037 588.373C396.037 592.501 396.037 592.724 396.037 595.407C396.037 598.091 397.124 602.22 394.787 605.921C392.449 609.623 393.595 614.008 393.595 614.008C393.595 614.008 390.739 614.697 390.739 616.761C390.739 618.825 390.303 620.239 388.443 622.987C386.582 625.734 385.238 627.865 385.238 629.433C385.238 631 385.238 633.916 385.238 636.488C385.238 639.06 385.238 646.033 385.238 648.097C385.238 650.161 383.355 655.469 383.355 655.469C383.355 655.469 382.33 658.244 383.355 659.745C384.381 661.245 385.982 666.65 385.982 666.65C385.982 666.65 385.753 657.818 391.797 655.469C397.84 653.121 405.43 655.645 407.754 659.745C410.078 663.845 411.656 664.039 411.656 667.823C411.656 671.606 409.316 676.626 409.316 676.626C409.316 676.626 412.303 673.188 414.23 669.919C416.157 666.65 418.322 663.244 418.322 659.745C418.322 656.245 419.126 653.692 419.126 653.692C419.126 653.692 421.472 651.577 421.472 648.863C421.472 646.149 423.34 643.549 423.34 643.549C423.34 643.549 424.426 641.102 426.056 639.469C427.686 637.836 427.095 635.897 427.391 634.819C427.686 633.74 430.479 632.817 430.479 630.305C430.479 627.792 428.554 625.333 428.554 625.333L429.721 622.987C429.721 622.987 429.721 621.729 429.721 616.761C429.721 611.792 429.721 609.065 429.721 609.065C429.721 609.065 433.524 606.626 433.524 605.052C433.524 603.477 432.659 600.125 432.659 600.125C432.659 600.125 434.976 592.453 434.976 590.413C434.976 588.373 434.388 587.285 433.524 584.351C432.659 581.417 428.554 572.258 428.554 570.54C428.554 568.821 428.554 551.932 428.554 551.932L440.469 495.377Z" fill="url(#paint60_linear)"/>
<path fill-rule="evenodd" clip-rule="evenodd" d="M559.25 481.946C559.25 481.946 562.295 481.674 567.073 485.969C571.852 490.264 592.047 506.2 595.126 508.581C598.206 510.961 598.735 509.448 600.007 512.407C601.279 515.366 602.071 517.333 603.014 517.333C603.958 517.333 605.487 514.726 606.546 517.333C607.604 519.939 608.748 521.871 608.748 521.871C608.748 521.871 611.391 519.747 612.453 521.871C613.515 523.995 613.722 525.282 614.865 525.282C616.009 525.282 616.934 524.194 618.115 526.161C619.296 528.127 621.997 531.593 621.997 531.593C621.997 531.593 627.287 530.213 628.841 531.593C630.395 532.973 632.325 536.239 632.325 536.239C632.325 536.239 636.733 536.199 638.65 537.282C640.567 538.365 645.576 542.993 645.576 544.635C645.576 546.277 649.956 545.41 651.884 548.245C653.812 551.081 658.219 557.251 658.219 557.251C658.219 557.251 661.366 559.712 662.811 564.319C664.257 568.926 662.811 574.825 662.811 574.825C662.811 574.825 664.33 581.415 662.811 583.938C661.292 586.461 660.601 588.171 659.41 590.63C658.219 593.088 657.329 597.858 657.329 597.858C657.329 597.858 657.89 581.547 648.732 578.841C639.573 576.134 634.514 578.125 632.325 579.735C630.135 581.344 628.841 583.938 628.841 583.938C628.841 583.938 627.536 571.131 626.469 567.725C625.402 564.319 625.514 563.353 625.514 563.353C625.514 563.353 623.491 561.462 620.288 560.111C617.084 558.759 614.725 558.686 611.019 560.111C607.314 561.536 601.308 564.319 601.308 564.319C601.308 564.319 596.962 560.956 595.126 559.104C593.291 557.251 591.503 553.504 589.128 552.393C586.753 551.281 583.01 549.588 581.24 548.245C579.47 546.902 577.786 544.635 577.786 544.635C577.786 544.635 574.99 546.409 572.463 546.409C569.936 546.409 567.073 544.635 567.073 544.635C567.073 544.635 553.905 522.34 553.905 507.648C553.905 492.956 559.25 481.946 559.25 481.946Z" fill="url(#paint61_linear)"/>
<path fill-rule="evenodd" clip-rule="evenodd" d="M385.726 664.052C385.726 664.052 385.726 668.675 385.726 672.324C385.726 675.973 383.633 677.644 380.827 678.574C378.021 679.503 372.061 680.375 370.073 680.375C368.086 680.375 364.362 678.574 362.563 678.574C360.764 678.574 358.618 681.206 358.022 682.339C357.427 683.471 354.623 686.412 354.623 687.583C354.623 688.753 355.89 691.74 355.89 692.819C355.89 693.898 356.752 697.551 357.387 698.643C358.022 699.735 360.42 699.544 360.42 699.544C360.42 699.544 360.944 702.448 362.075 702.448C363.206 702.448 365.817 702.448 365.817 702.448L366.799 693.232C366.799 693.232 368.783 694.955 370.073 695.47C371.364 695.986 372.382 696.255 372.382 696.255C372.382 696.255 370.175 700.886 370.175 701.9C370.175 702.914 369.611 708.186 369.611 708.186C369.611 708.186 372.951 708.57 374.605 707.169C376.259 705.769 378.876 699.544 378.876 699.544L381.978 695.47C381.978 695.47 388.589 693.934 389.581 693.934C390.572 693.934 392.329 693.232 392.329 693.232C392.329 693.232 391.728 697.217 394.124 698.643C396.52 700.069 398.246 698.728 399.287 698.122C400.328 697.516 403.036 694.669 403.036 694.669C403.036 694.669 406.965 693.458 408.23 691.644C409.495 689.831 409.456 686.882 409.456 686.882L408.23 683.211C408.23 683.211 408.203 676.677 409.456 675.23C410.709 673.784 411.872 666.049 411.872 666.049C411.872 666.049 413.424 659.27 408.23 655.97C403.036 652.669 397.299 650.737 394.124 651.915C390.949 653.094 387.137 654.944 386.432 657.279C385.726 659.614 385.726 664.052 385.726 664.052Z" fill="url(#paint62_linear)"/>
<path fill-rule="evenodd" clip-rule="evenodd" d="M459.161 521.084C459.161 521.084 468.678 547.771 472.965 551.748C477.251 555.726 498.81 564.894 503.441 554.678C505.618 549.877 514.304 536.183 518.353 517.645C520.047 509.889 518.353 492.794 518.353 492.794L508.335 480.88C508.335 480.88 500.126 479.674 498.204 478.074C496.282 476.474 479.339 469.954 479.339 469.954L459.161 521.084Z" fill="url(#paint63_linear)"/>
<path fill-rule="evenodd" clip-rule="evenodd" d="M422.198 471.006C422.198 471.006 426.398 479.678 427.592 484.269C428.786 488.86 460.987 528.717 464.677 528.717C468.367 528.717 476.158 527.944 480.184 524.427C484.211 520.909 492.025 499.954 492.025 499.954L499.158 479.311L497.753 461.778L482.235 456.541L422.198 471.006Z" fill="url(#paint64_linear)"/>
<path fill-rule="evenodd" clip-rule="evenodd" d="M479.05 424.292C473.338 421.554 461.907 419.699 452.73 421.995C443.553 424.292 438.42 429.348 435.351 433.37C432.283 437.393 422.258 453.811 419.91 457.615C417.561 461.42 414.558 467.972 416.059 469.813C417.561 471.654 428.146 476.054 435.351 473.854C442.556 471.654 449.924 470.925 454.247 471.29C458.571 471.654 462.446 471.29 462.446 471.29C462.446 471.29 464.518 475.812 467.486 475.812C470.453 475.812 476.009 475.285 479.05 479.268C482.091 483.251 485.005 487.832 485.005 487.832C485.005 487.832 485.005 481.811 485.005 475.812C485.005 469.813 485.425 464.185 489.055 464.185C492.685 464.185 497.471 463.311 497.471 471.29C497.471 479.268 497.471 482.285 497.471 482.285C497.471 482.285 499.583 482.724 501.06 479.268C502.537 475.812 502.031 458.814 498.943 451.855C495.855 444.895 493.545 439.131 491.3 436.251C489.055 433.37 485.005 429.393 485.005 427.748C485.005 426.103 484.763 427.03 479.05 424.292Z" fill="url(#paint65_linear)"/>
<path fill-rule="evenodd" clip-rule="evenodd" d="M459.631 519.113C459.631 519.113 463.95 519.17 467.05 518.109C470.15 517.048 471.905 514.912 471.905 514.912C471.905 514.912 469.659 519.896 463.89 521.306C461.153 521.08 459.631 519.113 459.631 519.113Z" fill="#141731"/>
<path fill-rule="evenodd" clip-rule="evenodd" d="M649.832 516.868C648.927 516.234 647.68 516.454 647.046 517.359L646.473 518.178L645.653 517.605C644.749 516.971 643.501 517.191 642.868 518.096C642.234 519.001 642.454 520.248 643.359 520.881L644.178 521.455L643.605 522.274C642.971 523.179 643.191 524.426 644.096 525.059C645.001 525.693 646.248 525.473 646.881 524.568L647.455 523.749L648.274 524.323C649.179 524.956 650.426 524.736 651.059 523.832C651.693 522.927 651.473 521.68 650.568 521.046L649.749 520.472L650.323 519.653C650.956 518.749 650.736 517.501 649.832 516.868Z" fill="#FF7D7D"/>
<path fill-rule="evenodd" clip-rule="evenodd" d="M932.083 649.728C931.723 648.683 930.585 648.128 929.541 648.488L928.595 648.813L928.27 647.868C927.91 646.823 926.772 646.268 925.728 646.628C924.683 646.987 924.128 648.126 924.488 649.17L924.813 650.116L923.868 650.441C922.823 650.801 922.268 651.939 922.628 652.983C922.987 654.028 924.126 654.583 925.17 654.223L926.116 653.898L926.441 654.843C926.801 655.888 927.939 656.443 928.983 656.083C930.028 655.723 930.583 654.585 930.223 653.541L929.898 652.595L930.843 652.27C931.888 651.91 932.443 650.772 932.083 649.728Z" fill="#FF7D7D"/>
<path fill-rule="evenodd" clip-rule="evenodd" d="M695 294C696.657 294 698 292.657 698 291C698 289.343 696.657 288 695 288C693.343 288 692 289.343 692 291C692 292.657 693.343 294 695 294Z" stroke="#F5C623"/>
<path fill-rule="evenodd" clip-rule="evenodd" d="M11 570C12.6569 570 14 568.657 14 567C14 565.343 12.6569 564 11 564C9.34315 564 8 565.343 8 567C8 568.657 9.34315 570 11 570Z" stroke="#F5C623"/>
<path fill-rule="evenodd" clip-rule="evenodd" d="M885 664C886.657 664 888 662.657 888 661C888 659.343 886.657 658 885 658C883.343 658 882 659.343 882 661C882 662.657 883.343 664 885 664Z" stroke="#F5C623"/>
<path fill-rule="evenodd" clip-rule="evenodd" d="M495 300C496.657 300 498 298.657 498 297C498 295.343 496.657 294 495 294C493.343 294 492 295.343 492 297C492 298.657 493.343 300 495 300Z" stroke="#F5C623"/>
<path fill-rule="evenodd" clip-rule="evenodd" d="M651 499C652.105 499 653 498.105 653 497C653 495.895 652.105 495 651 495C649.895 495 649 495.895 649 497C649 498.105 649.895 499 651 499Z" fill="#9559FF"/>
<path fill-rule="evenodd" clip-rule="evenodd" d="M23 502C24.6569 502 26 500.657 26 499C26 497.343 24.6569 496 23 496C21.3431 496 20 497.343 20 499C20 500.657 21.3431 502 23 502Z" fill="#9559FF"/>
<mask id="path-91-inside-1" fill="white">
<path fill-rule="evenodd" clip-rule="evenodd" d="M343.298 653.817C342.127 654.439 341.683 655.892 342.305 657.063L342.869 658.122L341.809 658.686C340.639 659.308 340.195 660.761 340.817 661.931C341.439 663.102 342.892 663.546 344.063 662.924L345.122 662.36L345.686 663.42C346.308 664.59 347.761 665.034 348.931 664.412C350.102 663.79 350.546 662.337 349.924 661.166L349.36 660.107L350.42 659.543C351.59 658.921 352.034 657.468 351.412 656.298C350.79 655.127 349.337 654.683 348.166 655.305L347.107 655.869L346.543 654.809C345.921 653.639 344.468 653.195 343.298 653.817Z"/>
</mask>
<path d="M342.305 657.063L341.422 657.532L342.305 657.063ZM342.869 658.122L343.338 659.005L344.221 658.536L343.752 657.653L342.869 658.122ZM344.063 662.924L344.532 663.807L344.063 662.924ZM345.122 662.36L346.005 661.891L345.536 661.008L344.653 661.477L345.122 662.36ZM349.36 660.107L348.891 659.224L348.008 659.693L348.477 660.576L349.36 660.107ZM348.166 655.305L348.636 656.188L348.166 655.305ZM347.107 655.869L346.224 656.338L346.693 657.221L347.576 656.752L347.107 655.869ZM343.188 656.593C342.825 655.91 343.084 655.063 343.767 654.7L342.828 652.934C341.17 653.815 340.541 655.874 341.422 657.532L343.188 656.593ZM343.752 657.653L343.188 656.593L341.422 657.532L341.986 658.592L343.752 657.653ZM342.279 659.568L343.338 659.005L342.399 657.239L341.34 657.803L342.279 659.568ZM341.7 661.462C341.337 660.779 341.596 659.931 342.279 659.568L341.34 657.803C339.682 658.684 339.052 660.743 339.934 662.401L341.7 661.462ZM343.593 662.041C342.91 662.404 342.063 662.145 341.7 661.462L339.934 662.401C340.815 664.059 342.874 664.688 344.532 663.807L343.593 662.041ZM344.653 661.477L343.593 662.041L344.532 663.807L345.592 663.243L344.653 661.477ZM346.568 662.95L346.005 661.891L344.239 662.83L344.803 663.889L346.568 662.95ZM348.462 663.529C347.779 663.892 346.931 663.633 346.568 662.95L344.803 663.889C345.684 665.547 347.743 666.177 349.401 665.295L348.462 663.529ZM349.041 661.636C349.404 662.319 349.145 663.166 348.462 663.529L349.401 665.295C351.059 664.414 351.688 662.355 350.807 660.697L349.041 661.636ZM348.477 660.576L349.041 661.636L350.807 660.697L350.243 659.637L348.477 660.576ZM349.95 658.661L348.891 659.224L349.83 660.99L350.889 660.426L349.95 658.661ZM350.529 656.767C350.892 657.45 350.633 658.298 349.95 658.661L350.889 660.426C352.547 659.545 353.177 657.486 352.295 655.828L350.529 656.767ZM348.636 656.188C349.319 655.825 350.166 656.084 350.529 656.767L352.295 655.828C351.414 654.17 349.355 653.541 347.697 654.422L348.636 656.188ZM347.576 656.752L348.636 656.188L347.697 654.422L346.637 654.986L347.576 656.752ZM345.661 655.279L346.224 656.338L347.99 655.399L347.426 654.34L345.661 655.279ZM343.767 654.7C344.45 654.337 345.298 654.596 345.661 655.279L347.426 654.34C346.545 652.682 344.486 652.052 342.828 652.934L343.767 654.7Z" fill="#1C85FF" mask="url(#path-91-inside-1)"/>
<mask id="path-93-inside-2" fill="white">
<path fill-rule="evenodd" clip-rule="evenodd" d="M158.205 374.972C157.069 374.289 155.594 374.656 154.911 375.793L154.293 376.821L153.265 376.203C152.129 375.521 150.654 375.888 149.972 377.024C149.289 378.16 149.656 379.635 150.793 380.318L151.821 380.936L151.203 381.964C150.52 383.1 150.888 384.575 152.024 385.258C153.16 385.94 154.635 385.573 155.318 384.436L155.936 383.408L156.964 384.026C158.1 384.709 159.575 384.341 160.258 383.205C160.94 382.069 160.573 380.594 159.436 379.911L158.408 379.293L159.026 378.265C159.709 377.129 159.341 375.654 158.205 374.972Z"/>
</mask>
<path d="M154.911 375.793L154.054 375.278L154.911 375.793ZM154.293 376.821L153.778 377.678L154.636 378.193L155.151 377.336L154.293 376.821ZM153.265 376.203L153.78 375.346L153.265 376.203ZM150.793 380.318L151.308 379.46L150.793 380.318ZM151.821 380.936L152.678 381.451L153.193 380.593L152.336 380.078L151.821 380.936ZM155.936 383.408L156.451 382.551L155.593 382.036L155.078 382.893L155.936 383.408ZM156.964 384.026L156.449 384.883L156.964 384.026ZM158.408 379.293L157.551 378.778L157.036 379.636L157.893 380.151L158.408 379.293ZM159.026 378.265L159.883 378.78L159.026 378.265ZM155.769 376.308C156.167 375.645 157.027 375.43 157.69 375.829L158.72 374.114C157.11 373.147 155.021 373.668 154.054 375.278L155.769 376.308ZM155.151 377.336L155.769 376.308L154.054 375.278L153.436 376.306L155.151 377.336ZM152.75 377.06L153.778 377.678L154.808 375.964L153.78 375.346L152.75 377.06ZM150.829 377.539C151.227 376.877 152.087 376.662 152.75 377.06L153.78 375.346C152.17 374.379 150.081 374.9 149.114 376.509L150.829 377.539ZM151.308 379.46C150.645 379.062 150.43 378.202 150.829 377.539L149.114 376.509C148.147 378.119 148.668 380.208 150.278 381.175L151.308 379.46ZM152.336 380.078L151.308 379.46L150.278 381.175L151.306 381.793L152.336 380.078ZM152.06 382.479L152.678 381.451L150.964 380.421L150.346 381.449L152.06 382.479ZM152.539 384.4C151.877 384.002 151.662 383.142 152.06 382.479L150.346 381.449C149.379 383.059 149.9 385.148 151.509 386.115L152.539 384.4ZM154.46 383.921C154.062 384.584 153.202 384.799 152.539 384.4L151.509 386.115C153.119 387.082 155.208 386.561 156.175 384.951L154.46 383.921ZM155.078 382.893L154.46 383.921L156.175 384.951L156.793 383.923L155.078 382.893ZM157.479 383.169L156.451 382.551L155.421 384.265L156.449 384.883L157.479 383.169ZM159.4 382.69C159.002 383.352 158.142 383.567 157.479 383.169L156.449 384.883C158.059 385.85 160.148 385.329 161.115 383.72L159.4 382.69ZM158.921 380.769C159.584 381.167 159.799 382.027 159.4 382.69L161.115 383.72C162.082 382.11 161.561 380.021 159.951 379.054L158.921 380.769ZM157.893 380.151L158.921 380.769L159.951 379.054L158.923 378.436L157.893 380.151ZM158.169 377.75L157.551 378.778L159.265 379.808L159.883 378.78L158.169 377.75ZM157.69 375.829C158.352 376.227 158.567 377.087 158.169 377.75L159.883 378.78C160.85 377.17 160.329 375.081 158.72 374.114L157.69 375.829Z" fill="#FF7D7D" mask="url(#path-93-inside-2)"/>
<mask id="path-95-inside-3" fill="white">
<path fill-rule="evenodd" clip-rule="evenodd" d="M174.447 647.18C173.323 646.477 171.843 646.819 171.14 647.943L170.504 648.961L169.487 648.325C168.363 647.622 166.882 647.964 166.179 649.088C165.477 650.212 165.819 651.693 166.943 652.395L167.961 653.031L167.325 654.049C166.622 655.173 166.964 656.654 168.088 657.356C169.212 658.058 170.693 657.717 171.395 656.593L172.031 655.575L173.049 656.211C174.173 656.913 175.654 656.571 176.356 655.447C177.058 654.323 176.717 652.843 175.593 652.14L174.575 651.504L175.211 650.487C175.913 649.363 175.571 647.882 174.447 647.18Z"/>
</mask>
<path d="M170.504 648.961L169.974 649.809L170.822 650.339L171.352 649.491L170.504 648.961ZM166.943 652.395L167.473 651.547L166.943 652.395ZM167.961 653.031L168.809 653.561L169.339 652.713L168.491 652.183L167.961 653.031ZM167.325 654.049L166.477 653.519L167.325 654.049ZM171.395 656.593L170.547 656.063L171.395 656.593ZM172.031 655.575L172.561 654.727L171.713 654.197L171.183 655.045L172.031 655.575ZM173.049 656.211L172.519 657.059L173.049 656.211ZM175.593 652.14L175.063 652.988L175.593 652.14ZM174.575 651.504L173.727 650.974L173.197 651.822L174.045 652.352L174.575 651.504ZM175.211 650.487L174.363 649.957L175.211 650.487ZM171.988 648.473C172.398 647.817 173.262 647.618 173.917 648.028L174.977 646.331C173.385 645.336 171.287 645.821 170.292 647.413L171.988 648.473ZM171.352 649.491L171.988 648.473L170.292 647.413L169.656 648.431L171.352 649.491ZM168.957 649.173L169.974 649.809L171.034 648.113L170.017 647.477L168.957 649.173ZM167.028 649.618C167.437 648.962 168.301 648.763 168.957 649.173L170.017 647.477C168.424 646.482 166.327 646.966 165.331 648.558L167.028 649.618ZM167.473 651.547C166.817 651.138 166.618 650.274 167.028 649.618L165.331 648.558C164.336 650.151 164.821 652.248 166.413 653.243L167.473 651.547ZM168.491 652.183L167.473 651.547L166.413 653.243L167.431 653.879L168.491 652.183ZM168.173 654.579L168.809 653.561L167.113 652.501L166.477 653.519L168.173 654.579ZM168.618 656.508C167.962 656.098 167.763 655.235 168.173 654.579L166.477 653.519C165.482 655.111 165.966 657.209 167.558 658.204L168.618 656.508ZM170.547 656.063C170.138 656.718 169.274 656.918 168.618 656.508L167.558 658.204C169.151 659.199 171.248 658.715 172.243 657.123L170.547 656.063ZM171.183 655.045L170.547 656.063L172.243 657.123L172.879 656.105L171.183 655.045ZM173.579 655.363L172.561 654.727L171.501 656.423L172.519 657.059L173.579 655.363ZM175.508 654.917C175.098 655.573 174.235 655.773 173.579 655.363L172.519 657.059C174.111 658.054 176.209 657.57 177.204 655.977L175.508 654.917ZM175.063 652.988C175.718 653.398 175.918 654.262 175.508 654.917L177.204 655.977C178.199 654.385 177.715 652.287 176.122 651.292L175.063 652.988ZM174.045 652.352L175.063 652.988L176.122 651.292L175.105 650.656L174.045 652.352ZM174.363 649.957L173.727 650.974L175.423 652.034L176.059 651.017L174.363 649.957ZM173.917 648.028C174.573 648.437 174.772 649.301 174.363 649.957L176.059 651.017C177.054 649.424 176.57 647.327 174.977 646.331L173.917 648.028Z" fill="#1C85FF" mask="url(#path-95-inside-3)"/>
<path fill-rule="evenodd" clip-rule="evenodd" d="M869.027 777.991C869.027 777.991 861.541 781.459 860.101 781.459C858.662 781.459 772.477 774.476 772.477 774.476L770.82 770.518L890.024 763.72L869.027 777.991Z" fill="url(#paint66_linear)"/>
<path fill-rule="evenodd" clip-rule="evenodd" d="M902.944 756.079L847.561 755.107L771.485 770.625L862.207 775.621L902.944 756.079Z" fill="url(#paint67_linear)"/>
<path fill-rule="evenodd" clip-rule="evenodd" d="M980.123 685.644H974.59L910.039 697.707L862.072 782.755H863.696L980.123 685.644Z" fill="url(#paint68_linear)"/>
<path fill-rule="evenodd" clip-rule="evenodd" d="M979.816 686.006L912.67 698.833L864.055 782.738L933.656 765.867L979.816 686.006Z" fill="url(#paint69_linear)"/>
<defs>
<linearGradient id="paint0_linear" x1="529.967" y1="135.29" x2="529.967" y2="622.37" gradientUnits="userSpaceOnUse">
<stop stop-color="#EDEFFF"/>
<stop offset="1" stop-color="#D7DAFF"/>
</linearGradient>
<linearGradient id="paint1_linear" x1="616.793" y1="312.056" x2="372.521" y2="312.056" gradientUnits="userSpaceOnUse">
<stop stop-color="#E5E7FA"/>
<stop offset="1" stop-color="#C7CAF4"/>
</linearGradient>
<linearGradient id="paint2_linear" x1="325.379" y1="8.41753" x2="190.582" y2="41.8117" gradientUnits="userSpaceOnUse">
<stop stop-color="#ACB0FF"/>
<stop offset="1" stop-color="#DCEBFF"/>
</linearGradient>
<linearGradient id="paint3_linear" x1="306.843" y1="76.3262" x2="288.942" y2="100.412" gradientUnits="userSpaceOnUse">
<stop stop-color="#ACB0FF"/>
<stop offset="1" stop-color="#DCEBFF"/>
</linearGradient>
<linearGradient id="paint4_linear" x1="291.446" y1="67.3935" x2="288.62" y2="79.1276" gradientUnits="userSpaceOnUse">
<stop stop-color="#4C55FF"/>
<stop offset="1" stop-color="#1B7CFF"/>
</linearGradient>
<linearGradient id="paint5_linear" x1="326.31" y1="-13.9163" x2="250.583" y2="35.4265" gradientUnits="userSpaceOnUse">
<stop stop-color="#ACB0FF"/>
<stop offset="1" stop-color="#DCEBFF"/>
</linearGradient>
<linearGradient id="paint6_linear" x1="274.469" y1="-0.0788305" x2="267.916" y2="40.4086" gradientUnits="userSpaceOnUse">
<stop stop-color="#4C55FF"/>
<stop offset="1" stop-color="#1B7CFF"/>
</linearGradient>
<linearGradient id="paint7_linear" x1="224.131" y1="587.923" x2="221.695" y2="623.386" gradientUnits="userSpaceOnUse">
<stop stop-color="#4C55FF"/>
<stop offset="1" stop-color="#1B7CFF"/>
</linearGradient>
<linearGradient id="paint8_linear" x1="339.943" y1="587.411" x2="333.934" y2="631.86" gradientUnits="userSpaceOnUse">
<stop stop-color="#4C55FF"/>
<stop offset="1" stop-color="#1B7CFF"/>
</linearGradient>
<linearGradient id="paint9_linear" x1="369.057" y1="670.18" x2="404.841" y2="675.692" gradientUnits="userSpaceOnUse">
<stop stop-opacity="0.01"/>
<stop offset="1"/>
</linearGradient>
<linearGradient id="paint10_linear" x1="284.512" y1="566.134" x2="338.471" y2="564.918" gradientUnits="userSpaceOnUse">
<stop stop-color="#283581"/>
<stop offset="1" stop-color="#131730"/>
</linearGradient>
<linearGradient id="paint11_linear" x1="319.573" y1="560.15" x2="379.572" y2="557.731" gradientUnits="userSpaceOnUse">
<stop stop-color="#283581"/>
<stop offset="1" stop-color="#131730"/>
</linearGradient>
<linearGradient id="paint12_linear" x1="226.784" y1="337.986" x2="215.004" y2="394.712" gradientUnits="userSpaceOnUse">
<stop stop-color="#4C55FF"/>
<stop offset="1" stop-color="#1B7CFF"/>
</linearGradient>
<linearGradient id="paint13_linear" x1="234.404" y1="63.0085" x2="111.643" y2="281.528" gradientUnits="userSpaceOnUse">
<stop stop-color="#4C55FF"/>
<stop offset="1" stop-color="#1B7CFF"/>
</linearGradient>
<linearGradient id="paint14_linear" x1="303.865" y1="54.0784" x2="217.78" y2="311.14" gradientUnits="userSpaceOnUse">
<stop stop-color="#4C55FF"/>
<stop offset="1" stop-color="#1B7CFF"/>
</linearGradient>
<linearGradient id="paint15_linear" x1="367.601" y1="106.775" x2="317.802" y2="246.682" gradientUnits="userSpaceOnUse">
<stop stop-color="#4C55FF"/>
<stop offset="1" stop-color="#1B7CFF"/>
</linearGradient>
<linearGradient id="paint16_linear" x1="72.1301" y1="665.894" x2="71.0881" y2="699.062" gradientUnits="userSpaceOnUse">
<stop stop-color="#4C55FF"/>
<stop offset="1" stop-color="#1B7CFF"/>
</linearGradient>
<linearGradient id="paint17_linear" x1="10.0507" y1="601.027" x2="1.44084" y2="672.077" gradientUnits="userSpaceOnUse">
<stop stop-color="#4C55FF"/>
<stop offset="1" stop-color="#1B7CFF"/>
</linearGradient>
<linearGradient id="paint18_linear" x1="71.2612" y1="630.413" x2="110.955" y2="622.381" gradientUnits="userSpaceOnUse">
<stop stop-color="#283581"/>
<stop offset="1" stop-color="#131730"/>
</linearGradient>
<linearGradient id="paint19_linear" x1="130.989" y1="518.811" x2="147.426" y2="517.504" gradientUnits="userSpaceOnUse">
<stop stop-color="#283581"/>
<stop offset="1" stop-color="#131730"/>
</linearGradient>
<linearGradient id="paint20_linear" x1="91.3008" y1="648.038" x2="150.797" y2="640.374" gradientUnits="userSpaceOnUse">
<stop stop-color="#283581"/>
<stop offset="1" stop-color="#131730"/>
</linearGradient>
<linearGradient id="paint21_linear" x1="14.8256" y1="154.068" x2="-13.9073" y2="332.243" gradientUnits="userSpaceOnUse">
<stop stop-color="#4C55FF"/>
<stop offset="1" stop-color="#1B7CFF"/>
</linearGradient>
<linearGradient id="paint22_linear" x1="12.6383" y1="159.006" x2="-0.155599" y2="246.987" gradientUnits="userSpaceOnUse">
<stop stop-color="#4C55FF"/>
<stop offset="1" stop-color="#1B7CFF"/>
</linearGradient>
<linearGradient id="paint23_linear" x1="103.688" y1="143.301" x2="75.797" y2="178.897" gradientUnits="userSpaceOnUse">
<stop stop-color="#ACB0FF"/>
<stop offset="1" stop-color="#DCEBFF"/>
</linearGradient>
<linearGradient id="paint24_linear" x1="69.6515" y1="98.8423" x2="60.5086" y2="140.346" gradientUnits="userSpaceOnUse">
<stop stop-color="#4C55FF"/>
<stop offset="1" stop-color="#1B7CFF"/>
</linearGradient>
<linearGradient id="paint25_linear" x1="109.273" y1="58.9241" x2="35.006" y2="120.359" gradientUnits="userSpaceOnUse">
<stop stop-color="#ACB0FF"/>
<stop offset="1" stop-color="#DCEBFF"/>
</linearGradient>
<linearGradient id="paint26_linear" x1="65.9489" y1="75.3015" x2="61.3654" y2="121.695" gradientUnits="userSpaceOnUse">
<stop stop-color="#4C55FF"/>
<stop offset="1" stop-color="#1B7CFF"/>
</linearGradient>
<linearGradient id="paint27_linear" x1="66.3982" y1="71.8769" x2="64.7904" y2="105.309" gradientUnits="userSpaceOnUse">
<stop stop-color="#4C55FF"/>
<stop offset="1" stop-color="#1B7CFF"/>
</linearGradient>
<linearGradient id="paint28_linear" x1="136.604" y1="373.346" x2="67.2067" y2="290.127" gradientUnits="userSpaceOnUse">
<stop stop-color="#ACB0FF"/>
<stop offset="1" stop-color="#DCEBFF"/>
</linearGradient>
<linearGradient id="paint29_linear" x1="50.957" y1="305.728" x2="-16.8854" y2="386.501" gradientUnits="userSpaceOnUse">
<stop stop-color="#ACB0FF"/>
<stop offset="1" stop-color="#DCEBFF"/>
</linearGradient>
<linearGradient id="paint30_linear" x1="37.2686" y1="389.125" x2="14.154" y2="442.999" gradientUnits="userSpaceOnUse">
<stop stop-color="#ACB0FF"/>
<stop offset="1" stop-color="#DCEBFF"/>
</linearGradient>
<linearGradient id="paint31_linear" x1="40.1427" y1="384.948" x2="61.6651" y2="382.45" gradientUnits="userSpaceOnUse">
<stop stop-color="#283581"/>
<stop offset="1" stop-color="#131730"/>
</linearGradient>
<linearGradient id="paint32_linear" x1="752.498" y1="659.582" x2="782.521" y2="547.317" gradientUnits="userSpaceOnUse">
<stop stop-color="#4C55FF"/>
<stop offset="1" stop-color="#1B7CFF"/>
</linearGradient>
<linearGradient id="paint33_linear" x1="620.258" y1="348.661" x2="606.515" y2="507.364" gradientUnits="userSpaceOnUse">
<stop stop-color="#4C55FF"/>
<stop offset="1" stop-color="#1B7CFF"/>
</linearGradient>
<linearGradient id="paint34_linear" x1="750.08" y1="289.722" x2="575.352" y2="438.381" gradientUnits="userSpaceOnUse">
<stop stop-color="#E3E4FF"/>
<stop offset="1" stop-color="#F6FAFF"/>
</linearGradient>
<linearGradient id="paint35_linear" x1="638.643" y1="456.911" x2="635.238" y2="530.175" gradientUnits="userSpaceOnUse">
<stop stop-color="#4C55FF"/>
<stop offset="1" stop-color="#1B7CFF"/>
</linearGradient>
<linearGradient id="paint36_linear" x1="736.684" y1="461.38" x2="793.742" y2="435.97" gradientUnits="userSpaceOnUse">
<stop stop-color="#283581"/>
<stop offset="1" stop-color="#131730"/>
</linearGradient>
<linearGradient id="paint37_linear" x1="690.552" y1="479.983" x2="721.938" y2="474.376" gradientUnits="userSpaceOnUse">
<stop stop-color="#283581"/>
<stop offset="1" stop-color="#131730"/>
</linearGradient>
<linearGradient id="paint38_linear" x1="781.386" y1="471.528" x2="812.535" y2="466.65" gradientUnits="userSpaceOnUse">
<stop stop-color="#283581"/>
<stop offset="1" stop-color="#131730"/>
</linearGradient>
<linearGradient id="paint39_linear" x1="709.479" y1="341.025" x2="683.166" y2="386.151" gradientUnits="userSpaceOnUse">
<stop stop-color="#ACB0FF"/>
<stop offset="1" stop-color="#DCEBFF"/>
</linearGradient>
<linearGradient id="paint40_linear" x1="637.122" y1="273.161" x2="628.072" y2="379.597" gradientUnits="userSpaceOnUse">
<stop stop-color="#4C55FF"/>
<stop offset="1" stop-color="#1B7CFF"/>
</linearGradient>
<linearGradient id="paint41_linear" x1="739.232" y1="514.781" x2="672.495" y2="528.216" gradientUnits="userSpaceOnUse">
<stop stop-color="#ACB0FF"/>
<stop offset="1" stop-color="#DCEBFF"/>
</linearGradient>
<linearGradient id="paint42_linear" x1="779.363" y1="677.255" x2="745.248" y2="655.982" gradientUnits="userSpaceOnUse">
<stop stop-color="#192465"/>
<stop offset="1" stop-color="#273580"/>
</linearGradient>
<linearGradient id="paint43_linear" x1="754.836" y1="395.086" x2="608.717" y2="436.478" gradientUnits="userSpaceOnUse">
<stop stop-color="#ACB0FF"/>
<stop offset="1" stop-color="#DCEBFF"/>
</linearGradient>
<linearGradient id="paint44_linear" x1="706.995" y1="544.053" x2="675.11" y2="562.716" gradientUnits="userSpaceOnUse">
<stop stop-color="#283581"/>
<stop offset="1" stop-color="#273580"/>
</linearGradient>
<linearGradient id="paint45_linear" x1="748.181" y1="429.616" x2="641.105" y2="516.901" gradientUnits="userSpaceOnUse">
<stop stop-color="#ACB0FF"/>
<stop offset="1" stop-color="#DCEBFF"/>
</linearGradient>
<linearGradient id="paint46_linear" x1="714.88" y1="316.673" x2="623.775" y2="356.476" gradientUnits="userSpaceOnUse">
<stop stop-color="#ACB0FF"/>
<stop offset="1" stop-color="#DCEBFF"/>
</linearGradient>
<linearGradient id="paint47_linear" x1="712.727" y1="282.751" x2="641.996" y2="345.511" gradientUnits="userSpaceOnUse">
<stop stop-color="#ACB0FF"/>
<stop offset="1" stop-color="#DCEBFF"/>
</linearGradient>
<linearGradient id="paint48_linear" x1="766.52" y1="674.634" x2="745.673" y2="681.439" gradientUnits="userSpaceOnUse">
<stop stop-color="#283581"/>
<stop offset="1" stop-color="#273580"/>
</linearGradient>
<linearGradient id="paint49_linear" x1="535.804" y1="674.44" x2="535.232" y2="696.65" gradientUnits="userSpaceOnUse">
<stop stop-color="#4C55FF"/>
<stop offset="1" stop-color="#1B7CFF"/>
</linearGradient>
<linearGradient id="paint50_linear" x1="581.472" y1="600.755" x2="515.878" y2="659.759" gradientUnits="userSpaceOnUse">
<stop stop-color="#283581"/>
<stop offset="1" stop-color="#273580"/>
</linearGradient>
<linearGradient id="paint51_linear" x1="477.329" y1="703.333" x2="518.974" y2="660.716" gradientUnits="userSpaceOnUse">
<stop stop-color="#283581"/>
<stop offset="0.446832" stop-color="#283581"/>
<stop offset="1" stop-color="#131730"/>
</linearGradient>
<linearGradient id="paint52_linear" x1="645.142" y1="674.353" x2="624.814" y2="704.298" gradientUnits="userSpaceOnUse">
<stop stop-color="#ACB0FF"/>
<stop offset="1" stop-color="#DCEBFF"/>
</linearGradient>
<linearGradient id="paint53_linear" x1="603.877" y1="695.703" x2="602.763" y2="724.471" gradientUnits="userSpaceOnUse">
<stop stop-color="#4C55FF"/>
<stop offset="1" stop-color="#1B7CFF"/>
</linearGradient>
<linearGradient id="paint54_linear" x1="624.225" y1="542.986" x2="548.893" y2="598.136" gradientUnits="userSpaceOnUse">
<stop stop-color="#ACB0FF"/>
<stop offset="1" stop-color="#DCEBFF"/>
</linearGradient>
<linearGradient id="paint55_linear" x1="407.6" y1="710.676" x2="399.029" y2="732.803" gradientUnits="userSpaceOnUse">
<stop stop-color="#283581"/>
<stop offset="0.446832" stop-color="#283581"/>
<stop offset="1" stop-color="#131730"/>
</linearGradient>
<linearGradient id="paint56_linear" x1="363.682" y1="716.317" x2="373.942" y2="691.057" gradientUnits="userSpaceOnUse">
<stop stop-color="#283581"/>
<stop offset="0.446832" stop-color="#283581"/>
<stop offset="1" stop-color="#131730"/>
</linearGradient>
<linearGradient id="paint57_linear" x1="260.071" y1="668.214" x2="275.447" y2="716.872" gradientUnits="userSpaceOnUse">
<stop stop-color="#283581"/>
<stop offset="1" stop-color="#131730"/>
</linearGradient>
<linearGradient id="paint58_linear" x1="281.361" y1="714.874" x2="334.024" y2="690.663" gradientUnits="userSpaceOnUse">
<stop stop-color="#283581"/>
<stop offset="0.446832" stop-color="#283581"/>
<stop offset="1" stop-color="#131730"/>
</linearGradient>
<linearGradient id="paint59_linear" x1="381.886" y1="467.136" x2="369.45" y2="604.927" gradientUnits="userSpaceOnUse">
<stop stop-color="#4C55FF"/>
<stop offset="1" stop-color="#1B7CFF"/>
</linearGradient>
<linearGradient id="paint60_linear" x1="405.337" y1="495.19" x2="352.97" y2="508.821" gradientUnits="userSpaceOnUse">
<stop stop-color="#4C55FF"/>
<stop offset="1" stop-color="#1B7CFF"/>
</linearGradient>
<linearGradient id="paint61_linear" x1="522.324" y1="476.117" x2="515.229" y2="567.205" gradientUnits="userSpaceOnUse">
<stop stop-color="#4C55FF"/>
<stop offset="1" stop-color="#1B7CFF"/>
</linearGradient>
<linearGradient id="paint62_linear" x1="381.428" y1="630.661" x2="330.21" y2="682.696" gradientUnits="userSpaceOnUse">
<stop stop-color="#ACB0FF"/>
<stop offset="1" stop-color="#DCEBFF"/>
</linearGradient>
<linearGradient id="paint63_linear" x1="451.186" y1="510.324" x2="438.879" y2="551.878" gradientUnits="userSpaceOnUse">
<stop stop-color="#ACB0FF"/>
<stop offset="1" stop-color="#DCEBFF"/>
</linearGradient>
<linearGradient id="paint64_linear" x1="458.008" y1="429.927" x2="392.937" y2="499.311" gradientUnits="userSpaceOnUse">
<stop stop-color="#ACB0FF"/>
<stop offset="1" stop-color="#DCEBFF"/>
</linearGradient>
<linearGradient id="paint65_linear" x1="390.832" y1="417.605" x2="387.82" y2="470.296" gradientUnits="userSpaceOnUse">
<stop stop-color="#4C55FF"/>
<stop offset="1" stop-color="#1B7CFF"/>
</linearGradient>
<linearGradient id="paint66_linear" x1="813.4" y1="767.676" x2="821.971" y2="789.803" gradientUnits="userSpaceOnUse">
<stop stop-color="#283581"/>
<stop offset="0.446832" stop-color="#283581"/>
<stop offset="1" stop-color="#131730"/>
</linearGradient>
<linearGradient id="paint67_linear" x1="857.318" y1="773.317" x2="847.058" y2="748.057" gradientUnits="userSpaceOnUse">
<stop stop-color="#283581"/>
<stop offset="0.446832" stop-color="#283581"/>
<stop offset="1" stop-color="#131730"/>
</linearGradient>
<linearGradient id="paint68_linear" x1="960.929" y1="725.214" x2="945.553" y2="773.872" gradientUnits="userSpaceOnUse">
<stop stop-color="#283581"/>
<stop offset="1" stop-color="#131730"/>
</linearGradient>
<linearGradient id="paint69_linear" x1="939.639" y1="771.874" x2="886.976" y2="747.663" gradientUnits="userSpaceOnUse">
<stop stop-color="#283581"/>
<stop offset="0.446832" stop-color="#283581"/>
<stop offset="1" stop-color="#131730"/>
</linearGradient>
</defs>
</svg>
